G04 #@! TF.GenerationSoftware,KiCad,Pcbnew,5.1.10*
G04 #@! TF.CreationDate,2021-08-28T11:38:50+02:00*
G04 #@! TF.ProjectId,plate,706c6174-652e-46b6-9963-61645f706362,rev?*
G04 #@! TF.SameCoordinates,Original*
G04 #@! TF.FileFunction,Profile,NP*
%FSLAX46Y46*%
G04 Gerber Fmt 4.6, Leading zero omitted, Abs format (unit mm)*
G04 Created by KiCad (PCBNEW 5.1.10) date 2021-08-28 11:38:50*
%MOMM*%
%LPD*%
G01*
G04 APERTURE LIST*
G04 #@! TA.AperFunction,Profile*
%ADD10C,0.050000*%
G04 #@! TD*
G04 #@! TA.AperFunction,Profile*
%ADD11C,0.200000*%
G04 #@! TD*
G04 APERTURE END LIST*
D10*
X69754800Y-44547000D02*
X77882800Y-44547000D01*
X203257200Y-44547000D02*
X195357800Y-44547000D01*
X195357800Y-58136000D02*
X195357800Y-44547000D01*
X77882800Y-58136000D02*
X195357800Y-58136000D01*
X77882800Y-44547000D02*
X77882800Y-58136000D01*
D11*
X187166300Y-74671299D02*
X200166299Y-74671299D01*
X110966300Y-74671299D02*
G75*
G02*
X110466300Y-74171299I0J500000D01*
G01*
X86366299Y-61171300D02*
X86366299Y-74171299D01*
X134278800Y-118321300D02*
X134278800Y-131321300D01*
X110466300Y-61171300D02*
X110466300Y-74171299D01*
X143516300Y-74171299D02*
G75*
G02*
X143016300Y-74671299I-500000J0D01*
G01*
X171591300Y-79721300D02*
G75*
G02*
X172091300Y-80221300I0J-500000D01*
G01*
X148278800Y-131321300D02*
G75*
G02*
X147778800Y-131821300I-500000J0D01*
G01*
X88247550Y-136871300D02*
G75*
G02*
X88747550Y-137371300I0J-500000D01*
G01*
X197198050Y-152371300D02*
G75*
G02*
X196698050Y-152871300I-500000J0D01*
G01*
X190698050Y-152871300D02*
G75*
G02*
X190198050Y-152371300I0J500000D01*
G01*
X88747550Y-131321300D02*
G75*
G02*
X88247550Y-131821300I-500000J0D01*
G01*
X175260050Y-150871300D02*
X188260050Y-150871300D01*
X175260050Y-136871300D02*
X188260050Y-136871300D01*
X129228800Y-118321300D02*
X129228800Y-131321300D01*
X158091300Y-80221300D02*
X158091300Y-93221300D01*
X139041300Y-80221300D02*
G75*
G02*
X139541300Y-79721300I500000J0D01*
G01*
X72366300Y-61171300D02*
X72366300Y-74171299D01*
X100941300Y-80221300D02*
G75*
G02*
X101441300Y-79721300I500000J0D01*
G01*
X77628800Y-79721300D02*
X90628800Y-79721300D01*
X173322050Y-138371300D02*
X173322050Y-152371300D01*
X166322050Y-138371300D02*
X166322050Y-152371300D01*
X162566300Y-61171300D02*
X162566300Y-74171299D01*
X205428800Y-131321300D02*
G75*
G02*
X204928800Y-131821300I-500000J0D01*
G01*
X163353800Y-98771300D02*
X176353800Y-98771300D01*
X119203800Y-98771300D02*
G75*
G02*
X119703800Y-99271300I0J-500000D01*
G01*
X138753800Y-112271300D02*
G75*
G02*
X138253800Y-112771300I-500000J0D01*
G01*
X191141300Y-93221300D02*
G75*
G02*
X190641300Y-93721300I-500000J0D01*
G01*
X152541300Y-79721300D02*
G75*
G02*
X153041300Y-80221300I0J-500000D01*
G01*
X75247550Y-136871300D02*
X88247550Y-136871300D01*
X91128800Y-93221300D02*
G75*
G02*
X90628800Y-93721300I-500000J0D01*
G01*
X182403800Y-112771300D02*
G75*
G02*
X181903800Y-112271300I0J500000D01*
G01*
X172378800Y-118321300D02*
G75*
G02*
X172878800Y-117821300I500000J0D01*
G01*
X135872550Y-136871300D02*
G75*
G02*
X136372550Y-137371300I0J-500000D01*
G01*
X122372550Y-137371300D02*
G75*
G02*
X122872550Y-136871300I500000J0D01*
G01*
X114441300Y-79721300D02*
G75*
G02*
X114941300Y-80221300I0J-500000D01*
G01*
X144303800Y-150871300D02*
X157303800Y-150871300D01*
X144303800Y-136871300D02*
X157303800Y-136871300D01*
X172822050Y-137871300D02*
G75*
G02*
X173322050Y-138371300I0J-500000D01*
G01*
X166322050Y-138371300D02*
G75*
G02*
X166822050Y-137871300I500000J0D01*
G01*
X167616300Y-61171300D02*
X167616300Y-74171299D01*
X139541300Y-79721300D02*
X152541300Y-79721300D01*
X77128800Y-80221300D02*
X77128800Y-93221300D01*
X88747550Y-150371300D02*
G75*
G02*
X88247550Y-150871300I-500000J0D01*
G01*
X74747550Y-118321300D02*
G75*
G02*
X75247550Y-117821300I500000J0D01*
G01*
X157803800Y-137371300D02*
X157803800Y-150371300D01*
X143803800Y-137371300D02*
X143803800Y-150371300D01*
X106203800Y-98771300D02*
X119203800Y-98771300D01*
X157803800Y-150371300D02*
G75*
G02*
X157303800Y-150871300I-500000J0D01*
G01*
X144303800Y-150871300D02*
G75*
G02*
X143803800Y-150371300I0J500000D01*
G01*
X110966300Y-74671299D02*
X123966300Y-74671299D01*
X186666300Y-61171300D02*
X186666300Y-74171299D01*
X172878800Y-117821300D02*
X185878800Y-117821300D01*
X173322050Y-152371300D02*
G75*
G02*
X172822050Y-152871300I-500000J0D01*
G01*
X166822050Y-152871300D02*
G75*
G02*
X166322050Y-152371300I0J500000D01*
G01*
X200953800Y-99271300D02*
G75*
G02*
X201453800Y-98771300I500000J0D01*
G01*
X172091300Y-80221300D02*
X172091300Y-93221300D01*
X101441300Y-93721300D02*
X114441300Y-93721300D01*
X172378800Y-118321300D02*
X172378800Y-131321300D01*
X158591300Y-79721300D02*
X171591300Y-79721300D01*
X188260050Y-136871300D02*
G75*
G02*
X188760050Y-137371300I0J-500000D01*
G01*
X174760050Y-137371300D02*
G75*
G02*
X175260050Y-136871300I500000J0D01*
G01*
X91916300Y-74671299D02*
G75*
G02*
X91416300Y-74171299I0J500000D01*
G01*
X134778800Y-131821300D02*
X147778800Y-131821300D01*
X74747550Y-118321300D02*
X74747550Y-131321300D01*
X75247550Y-117821300D02*
X88247550Y-117821300D01*
X133491300Y-79721300D02*
G75*
G02*
X133991300Y-80221300I0J-500000D01*
G01*
X147778800Y-117821300D02*
G75*
G02*
X148278800Y-118321300I0J-500000D01*
G01*
X177641300Y-93721300D02*
G75*
G02*
X177141300Y-93221300I0J500000D01*
G01*
X134778800Y-117821300D02*
X147778800Y-117821300D01*
X188760050Y-137371300D02*
X188760050Y-150371300D01*
X174760050Y-137371300D02*
X174760050Y-150371300D01*
X172878800Y-131821300D02*
G75*
G02*
X172378800Y-131321300I0J500000D01*
G01*
X177141300Y-80221300D02*
G75*
G02*
X177641300Y-79721300I500000J0D01*
G01*
X120491300Y-93721300D02*
X133491300Y-93721300D01*
X200666299Y-74171299D02*
G75*
G02*
X200166299Y-74671299I-500000J0D01*
G01*
X158591300Y-93721300D02*
X171591300Y-93721300D01*
X93510050Y-112271300D02*
G75*
G02*
X93010050Y-112771300I-500000J0D01*
G01*
X90628800Y-79721300D02*
G75*
G02*
X91128800Y-80221300I0J-500000D01*
G01*
X144303800Y-112771300D02*
X157303800Y-112771300D01*
X153828800Y-117821300D02*
X166828800Y-117821300D01*
X148566300Y-61171300D02*
X148566300Y-74171299D01*
X88747550Y-118321300D02*
X88747550Y-131321300D01*
X149066300Y-74671299D02*
X162066300Y-74671299D01*
X214953800Y-112271300D02*
G75*
G02*
X214453800Y-112771300I-500000J0D01*
G01*
X124753800Y-99271300D02*
G75*
G02*
X125253800Y-98771300I500000J0D01*
G01*
X77128800Y-80221300D02*
G75*
G02*
X77628800Y-79721300I500000J0D01*
G01*
X98560050Y-137371300D02*
G75*
G02*
X99060050Y-136871300I500000J0D01*
G01*
X125253800Y-112771300D02*
G75*
G02*
X124753800Y-112271300I0J500000D01*
G01*
X86366299Y-74171299D02*
G75*
G02*
X85866299Y-74671299I-500000J0D01*
G01*
X80010050Y-112771300D02*
G75*
G02*
X79510050Y-112271300I0J500000D01*
G01*
X85866299Y-60671300D02*
G75*
G02*
X86366299Y-61171300I0J-500000D01*
G01*
X98560050Y-137371300D02*
X98560050Y-150371300D01*
X168116300Y-74671299D02*
X181116300Y-74671299D01*
X204928800Y-117821300D02*
G75*
G02*
X205428800Y-118321300I0J-500000D01*
G01*
X120491300Y-79721300D02*
X133491300Y-79721300D01*
X138253800Y-98771300D02*
G75*
G02*
X138753800Y-99271300I0J-500000D01*
G01*
X130016300Y-74671299D02*
G75*
G02*
X129516300Y-74171299I0J500000D01*
G01*
X75247550Y-150871300D02*
X88247550Y-150871300D01*
X105703800Y-99271300D02*
G75*
G02*
X106203800Y-98771300I500000J0D01*
G01*
X181903800Y-99271300D02*
X181903800Y-112271300D01*
X96178800Y-118321300D02*
G75*
G02*
X96678800Y-117821300I500000J0D01*
G01*
X191928800Y-117821300D02*
X204928800Y-117821300D01*
X79510050Y-99271300D02*
G75*
G02*
X80010050Y-98771300I500000J0D01*
G01*
X109678800Y-117821300D02*
G75*
G02*
X110178800Y-118321300I0J-500000D01*
G01*
X123966300Y-60671300D02*
G75*
G02*
X124466300Y-61171300I0J-500000D01*
G01*
X181903800Y-99271300D02*
G75*
G02*
X182403800Y-98771300I500000J0D01*
G01*
X124753800Y-99271300D02*
X124753800Y-112271300D01*
X143016300Y-60671300D02*
G75*
G02*
X143516300Y-61171300I0J-500000D01*
G01*
X110466300Y-61171300D02*
G75*
G02*
X110966300Y-60671300I500000J0D01*
G01*
X124466300Y-61171300D02*
X124466300Y-74171299D01*
X96678800Y-131821300D02*
G75*
G02*
X96178800Y-131321300I0J500000D01*
G01*
X148566300Y-61171300D02*
G75*
G02*
X149066300Y-60671300I500000J0D01*
G01*
X119703800Y-99271300D02*
X119703800Y-112271300D01*
X99060050Y-150871300D02*
X112060050Y-150871300D01*
X153828800Y-131821300D02*
G75*
G02*
X153328800Y-131321300I0J500000D01*
G01*
X187166300Y-74671299D02*
G75*
G02*
X186666300Y-74171299I0J500000D01*
G01*
X168116300Y-60671300D02*
X181116300Y-60671300D01*
X99060050Y-150871300D02*
G75*
G02*
X98560050Y-150371300I0J500000D01*
G01*
X162566300Y-74171299D02*
G75*
G02*
X162066300Y-74671299I-500000J0D01*
G01*
X130016300Y-74671299D02*
X143016300Y-74671299D01*
X72866300Y-74671299D02*
G75*
G02*
X72366300Y-74171299I0J500000D01*
G01*
X133991300Y-80221300D02*
X133991300Y-93221300D01*
X201453800Y-98771300D02*
X214453800Y-98771300D01*
X91416300Y-61171300D02*
X91416300Y-74171299D01*
X96678800Y-117821300D02*
X109678800Y-117821300D01*
X105703800Y-99271300D02*
X105703800Y-112271300D01*
X200953800Y-99271300D02*
X200953800Y-112271300D01*
X124466300Y-74171299D02*
G75*
G02*
X123966300Y-74671299I-500000J0D01*
G01*
X133991300Y-93221300D02*
G75*
G02*
X133491300Y-93721300I-500000J0D01*
G01*
X99060050Y-136871300D02*
X112060050Y-136871300D01*
X105416300Y-74171299D02*
G75*
G02*
X104916300Y-74671299I-500000J0D01*
G01*
X139541300Y-93721300D02*
X152541300Y-93721300D01*
X181616300Y-74171299D02*
G75*
G02*
X181116300Y-74671299I-500000J0D01*
G01*
X209691300Y-79721300D02*
G75*
G02*
X210191300Y-80221300I0J-500000D01*
G01*
X191428800Y-118321300D02*
X191428800Y-131321300D01*
X163353800Y-112771300D02*
G75*
G02*
X162853800Y-112271300I0J500000D01*
G01*
X153328800Y-118321300D02*
X153328800Y-131321300D01*
X191428800Y-118321300D02*
G75*
G02*
X191928800Y-117821300I500000J0D01*
G01*
X106203800Y-112771300D02*
G75*
G02*
X105703800Y-112271300I0J500000D01*
G01*
X115228800Y-118321300D02*
X115228800Y-131321300D01*
X96178800Y-118321300D02*
X96178800Y-131321300D01*
X149066300Y-74671299D02*
G75*
G02*
X148566300Y-74171299I0J500000D01*
G01*
X200166299Y-60671300D02*
G75*
G02*
X200666299Y-61171300I0J-500000D01*
G01*
X101441300Y-79721300D02*
X114441300Y-79721300D01*
X139041300Y-80221300D02*
X139041300Y-93221300D01*
X100941300Y-80221300D02*
X100941300Y-93221300D01*
X110178800Y-118321300D02*
X110178800Y-131321300D01*
X74747550Y-137371300D02*
X74747550Y-150371300D01*
X157303800Y-136871300D02*
G75*
G02*
X157803800Y-137371300I0J-500000D01*
G01*
X143803800Y-137371300D02*
G75*
G02*
X144303800Y-136871300I500000J0D01*
G01*
X148278800Y-118321300D02*
X148278800Y-131321300D01*
X205428800Y-118321300D02*
X205428800Y-131321300D01*
X112060050Y-136871300D02*
G75*
G02*
X112560050Y-137371300I0J-500000D01*
G01*
X112560050Y-137371300D02*
X112560050Y-150371300D01*
X134778800Y-131821300D02*
G75*
G02*
X134278800Y-131321300I0J500000D01*
G01*
X149066300Y-60671300D02*
X162066300Y-60671300D01*
X167328800Y-131321300D02*
G75*
G02*
X166828800Y-131821300I-500000J0D01*
G01*
X166822050Y-152871300D02*
X172822050Y-152871300D01*
X166822050Y-137871300D02*
X172822050Y-137871300D01*
X187166300Y-60671300D02*
X200166299Y-60671300D01*
X74747550Y-137371300D02*
G75*
G02*
X75247550Y-136871300I500000J0D01*
G01*
X191928800Y-131821300D02*
G75*
G02*
X191428800Y-131321300I0J500000D01*
G01*
X185878800Y-117821300D02*
G75*
G02*
X186378800Y-118321300I0J-500000D01*
G01*
X214953800Y-99271300D02*
X214953800Y-112271300D01*
X105416300Y-61171300D02*
X105416300Y-74171299D01*
X88747550Y-137371300D02*
X88747550Y-150371300D01*
X177141300Y-80221300D02*
X177141300Y-93221300D01*
X80010050Y-98771300D02*
X93010050Y-98771300D01*
X166828800Y-117821300D02*
G75*
G02*
X167328800Y-118321300I0J-500000D01*
G01*
X158091300Y-80221300D02*
G75*
G02*
X158591300Y-79721300I500000J0D01*
G01*
X153828800Y-131821300D02*
X166828800Y-131821300D01*
X172878800Y-131821300D02*
X185878800Y-131821300D01*
X115728800Y-117821300D02*
X128728800Y-117821300D01*
X136372550Y-137371300D02*
X136372550Y-150371300D01*
X122372550Y-137371300D02*
X122372550Y-150371300D01*
X182403800Y-98771300D02*
X195403800Y-98771300D01*
X110178800Y-131321300D02*
G75*
G02*
X109678800Y-131821300I-500000J0D01*
G01*
X196691300Y-93721300D02*
G75*
G02*
X196191300Y-93221300I0J500000D01*
G01*
X197198050Y-138371300D02*
X197198050Y-152371300D01*
X190198050Y-138371300D02*
X190198050Y-152371300D01*
X196698050Y-137871300D02*
G75*
G02*
X197198050Y-138371300I0J-500000D01*
G01*
X190198050Y-138371300D02*
G75*
G02*
X190698050Y-137871300I500000J0D01*
G01*
X188760050Y-150371300D02*
G75*
G02*
X188260050Y-150871300I-500000J0D01*
G01*
X175260050Y-150871300D02*
G75*
G02*
X174760050Y-150371300I0J500000D01*
G01*
X167328800Y-118321300D02*
X167328800Y-131321300D01*
X136372550Y-150371300D02*
G75*
G02*
X135872550Y-150871300I-500000J0D01*
G01*
X122872550Y-150871300D02*
G75*
G02*
X122372550Y-150371300I0J500000D01*
G01*
X77628800Y-93721300D02*
X90628800Y-93721300D01*
X163353800Y-112771300D02*
X176353800Y-112771300D01*
X115228800Y-118321300D02*
G75*
G02*
X115728800Y-117821300I500000J0D01*
G01*
X181116300Y-60671300D02*
G75*
G02*
X181616300Y-61171300I0J-500000D01*
G01*
X114941300Y-93221300D02*
G75*
G02*
X114441300Y-93721300I-500000J0D01*
G01*
X196191300Y-80221300D02*
G75*
G02*
X196691300Y-79721300I500000J0D01*
G01*
X158591300Y-93721300D02*
G75*
G02*
X158091300Y-93221300I0J500000D01*
G01*
X153041300Y-80221300D02*
X153041300Y-93221300D01*
X129516300Y-61171300D02*
G75*
G02*
X130016300Y-60671300I500000J0D01*
G01*
X138753800Y-99271300D02*
X138753800Y-112271300D01*
X186666300Y-61171300D02*
G75*
G02*
X187166300Y-60671300I500000J0D01*
G01*
X91128800Y-80221300D02*
X91128800Y-93221300D01*
X162853800Y-99271300D02*
X162853800Y-112271300D01*
X190641300Y-79721300D02*
G75*
G02*
X191141300Y-80221300I0J-500000D01*
G01*
X195903800Y-99271300D02*
X195903800Y-112271300D01*
X157803800Y-99271300D02*
X157803800Y-112271300D01*
X93510050Y-99271300D02*
X93510050Y-112271300D01*
X195903800Y-112271300D02*
G75*
G02*
X195403800Y-112771300I-500000J0D01*
G01*
X177641300Y-79721300D02*
X190641300Y-79721300D01*
X143803800Y-99271300D02*
X143803800Y-112271300D01*
X168116300Y-74671299D02*
G75*
G02*
X167616300Y-74171299I0J500000D01*
G01*
X195403800Y-98771300D02*
G75*
G02*
X195903800Y-99271300I0J-500000D01*
G01*
X176353800Y-98771300D02*
G75*
G02*
X176853800Y-99271300I0J-500000D01*
G01*
X176853800Y-112271300D02*
G75*
G02*
X176353800Y-112771300I-500000J0D01*
G01*
X122872550Y-150871300D02*
X135872550Y-150871300D01*
X122872550Y-136871300D02*
X135872550Y-136871300D01*
X210191300Y-80221300D02*
X210191300Y-93221300D01*
X177641300Y-93721300D02*
X190641300Y-93721300D01*
X144303800Y-98771300D02*
X157303800Y-98771300D01*
X157803800Y-112271300D02*
G75*
G02*
X157303800Y-112771300I-500000J0D01*
G01*
X157303800Y-98771300D02*
G75*
G02*
X157803800Y-99271300I0J-500000D01*
G01*
X172091300Y-93221300D02*
G75*
G02*
X171591300Y-93721300I-500000J0D01*
G01*
X128728800Y-117821300D02*
G75*
G02*
X129228800Y-118321300I0J-500000D01*
G01*
X88247550Y-117821300D02*
G75*
G02*
X88747550Y-118321300I0J-500000D01*
G01*
X182403800Y-112771300D02*
X195403800Y-112771300D01*
X176853800Y-99271300D02*
X176853800Y-112271300D01*
X93010050Y-98771300D02*
G75*
G02*
X93510050Y-99271300I0J-500000D01*
G01*
X196191300Y-80221300D02*
X196191300Y-93221300D01*
X96678800Y-131821300D02*
X109678800Y-131821300D01*
X129516300Y-61171300D02*
X129516300Y-74171299D01*
X91916300Y-74671299D02*
X104916300Y-74671299D01*
X115728800Y-131821300D02*
G75*
G02*
X115228800Y-131321300I0J500000D01*
G01*
X110966300Y-60671300D02*
X123966300Y-60671300D01*
X162853800Y-99271300D02*
G75*
G02*
X163353800Y-98771300I500000J0D01*
G01*
X119991300Y-80221300D02*
G75*
G02*
X120491300Y-79721300I500000J0D01*
G01*
X125253800Y-112771300D02*
X138253800Y-112771300D01*
X106203800Y-112771300D02*
X119203800Y-112771300D01*
X167616300Y-61171300D02*
G75*
G02*
X168116300Y-60671300I500000J0D01*
G01*
X201453800Y-112771300D02*
X214453800Y-112771300D01*
X75247550Y-150871300D02*
G75*
G02*
X74747550Y-150371300I0J500000D01*
G01*
X75247550Y-131821300D02*
G75*
G02*
X74747550Y-131321300I0J500000D01*
G01*
X210191300Y-93221300D02*
G75*
G02*
X209691300Y-93721300I-500000J0D01*
G01*
X196691300Y-93721300D02*
X209691300Y-93721300D01*
X196691300Y-79721300D02*
X209691300Y-79721300D01*
X191141300Y-80221300D02*
X191141300Y-93221300D01*
X139541300Y-93721300D02*
G75*
G02*
X139041300Y-93221300I0J500000D01*
G01*
X114941300Y-80221300D02*
X114941300Y-93221300D01*
X75247550Y-131821300D02*
X88247550Y-131821300D01*
X130016300Y-60671300D02*
X143016300Y-60671300D01*
X134278800Y-118321300D02*
G75*
G02*
X134778800Y-117821300I500000J0D01*
G01*
X153328800Y-118321300D02*
G75*
G02*
X153828800Y-117821300I500000J0D01*
G01*
X79510050Y-99271300D02*
X79510050Y-112271300D01*
X191928800Y-131821300D02*
X204928800Y-131821300D01*
X200666299Y-61171300D02*
X200666299Y-74171299D01*
X186378800Y-131321300D02*
G75*
G02*
X185878800Y-131821300I-500000J0D01*
G01*
X125253800Y-98771300D02*
X138253800Y-98771300D01*
X104916300Y-60671300D02*
G75*
G02*
X105416300Y-61171300I0J-500000D01*
G01*
X129228800Y-131321300D02*
G75*
G02*
X128728800Y-131821300I-500000J0D01*
G01*
X72366300Y-61171300D02*
G75*
G02*
X72866300Y-60671300I500000J0D01*
G01*
X201453800Y-112771300D02*
G75*
G02*
X200953800Y-112271300I0J500000D01*
G01*
X162066300Y-60671300D02*
G75*
G02*
X162566300Y-61171300I0J-500000D01*
G01*
X112560050Y-150371300D02*
G75*
G02*
X112060050Y-150871300I-500000J0D01*
G01*
X143803800Y-99271300D02*
G75*
G02*
X144303800Y-98771300I500000J0D01*
G01*
X77628800Y-93721300D02*
G75*
G02*
X77128800Y-93221300I0J500000D01*
G01*
X186378800Y-118321300D02*
X186378800Y-131321300D01*
X119703800Y-112271300D02*
G75*
G02*
X119203800Y-112771300I-500000J0D01*
G01*
X181616300Y-61171300D02*
X181616300Y-74171299D01*
X190698050Y-152871300D02*
X196698050Y-152871300D01*
X190698050Y-137871300D02*
X196698050Y-137871300D01*
X144303800Y-112771300D02*
G75*
G02*
X143803800Y-112271300I0J500000D01*
G01*
X120491300Y-93721300D02*
G75*
G02*
X119991300Y-93221300I0J500000D01*
G01*
X119991300Y-80221300D02*
X119991300Y-93221300D01*
X115728800Y-131821300D02*
X128728800Y-131821300D01*
X101441300Y-93721300D02*
G75*
G02*
X100941300Y-93221300I0J500000D01*
G01*
X91916300Y-60671300D02*
X104916300Y-60671300D01*
X214453800Y-98771300D02*
G75*
G02*
X214953800Y-99271300I0J-500000D01*
G01*
X80010050Y-112771300D02*
X93010050Y-112771300D01*
X143516300Y-61171300D02*
X143516300Y-74171299D01*
X72866300Y-60671300D02*
X85866299Y-60671300D01*
X153041300Y-93221300D02*
G75*
G02*
X152541300Y-93721300I-500000J0D01*
G01*
X72866300Y-74671299D02*
X85866299Y-74671299D01*
X91416300Y-61171300D02*
G75*
G02*
X91916300Y-60671300I500000J0D01*
G01*
D10*
X203257200Y-58070800D02*
X203257200Y-44547000D01*
X203257200Y-77120800D02*
X203257200Y-58070800D01*
X212782200Y-77120800D02*
X203257200Y-77120800D01*
X212782200Y-96170800D02*
X212782200Y-77120800D01*
X217557400Y-96170800D02*
X212782200Y-96170800D01*
X217557400Y-115373200D02*
X217557400Y-96170800D01*
X208032400Y-115373200D02*
X217557400Y-115373200D01*
X208032400Y-134423200D02*
X208032400Y-115373200D01*
X203257200Y-134423200D02*
X208032400Y-134423200D01*
X203257200Y-155175000D02*
X203257200Y-134423200D01*
X69754800Y-155175000D02*
X203257200Y-155175000D01*
X69754800Y-155175000D02*
X69754800Y-44547000D01*
M02*
