%TF.GenerationSoftware,KiCad,Pcbnew,5.1.10*%
%TF.CreationDate,2021-08-04T23:16:11+02:00*%
%TF.ProjectId,keyboard,6b657962-6f61-4726-942e-6b696361645f,rev?*%
%TF.SameCoordinates,Original*%
%TF.FileFunction,Paste,Top*%
%TF.FilePolarity,Positive*%
%FSLAX46Y46*%
G04 Gerber Fmt 4.6, Leading zero omitted, Abs format (unit mm)*
G04 Created by KiCad (PCBNEW 5.1.10) date 2021-08-04 23:16:11*
%MOMM*%
%LPD*%
G01*
G04 APERTURE LIST*
G04 APERTURE END LIST*
%TO.C,LD3*%
G36*
G01*
X111042601Y-48089600D02*
X110142599Y-48089600D01*
G75*
G02*
X109892600Y-47839601I0J249999D01*
G01*
X109892600Y-47189599D01*
G75*
G02*
X110142599Y-46939600I249999J0D01*
G01*
X111042601Y-46939600D01*
G75*
G02*
X111292600Y-47189599I0J-249999D01*
G01*
X111292600Y-47839601D01*
G75*
G02*
X111042601Y-48089600I-249999J0D01*
G01*
G37*
G36*
G01*
X111042601Y-50139600D02*
X110142599Y-50139600D01*
G75*
G02*
X109892600Y-49889601I0J249999D01*
G01*
X109892600Y-49239599D01*
G75*
G02*
X110142599Y-48989600I249999J0D01*
G01*
X111042601Y-48989600D01*
G75*
G02*
X111292600Y-49239599I0J-249999D01*
G01*
X111292600Y-49889601D01*
G75*
G02*
X111042601Y-50139600I-249999J0D01*
G01*
G37*
%TD*%
%TO.C,LD2*%
G36*
G01*
X103042601Y-48089600D02*
X102142599Y-48089600D01*
G75*
G02*
X101892600Y-47839601I0J249999D01*
G01*
X101892600Y-47189599D01*
G75*
G02*
X102142599Y-46939600I249999J0D01*
G01*
X103042601Y-46939600D01*
G75*
G02*
X103292600Y-47189599I0J-249999D01*
G01*
X103292600Y-47839601D01*
G75*
G02*
X103042601Y-48089600I-249999J0D01*
G01*
G37*
G36*
G01*
X103042601Y-50139600D02*
X102142599Y-50139600D01*
G75*
G02*
X101892600Y-49889601I0J249999D01*
G01*
X101892600Y-49239599D01*
G75*
G02*
X102142599Y-48989600I249999J0D01*
G01*
X103042601Y-48989600D01*
G75*
G02*
X103292600Y-49239599I0J-249999D01*
G01*
X103292600Y-49889601D01*
G75*
G02*
X103042601Y-50139600I-249999J0D01*
G01*
G37*
%TD*%
%TO.C,LD1*%
G36*
G01*
X95042601Y-50139600D02*
X94142599Y-50139600D01*
G75*
G02*
X93892600Y-49889601I0J249999D01*
G01*
X93892600Y-49239599D01*
G75*
G02*
X94142599Y-48989600I249999J0D01*
G01*
X95042601Y-48989600D01*
G75*
G02*
X95292600Y-49239599I0J-249999D01*
G01*
X95292600Y-49889601D01*
G75*
G02*
X95042601Y-50139600I-249999J0D01*
G01*
G37*
G36*
G01*
X95042601Y-48089600D02*
X94142599Y-48089600D01*
G75*
G02*
X93892600Y-47839601I0J249999D01*
G01*
X93892600Y-47189599D01*
G75*
G02*
X94142599Y-46939600I249999J0D01*
G01*
X95042601Y-46939600D01*
G75*
G02*
X95292600Y-47189599I0J-249999D01*
G01*
X95292600Y-47839601D01*
G75*
G02*
X95042601Y-48089600I-249999J0D01*
G01*
G37*
%TD*%
M02*
