M48
; DRILL file {KiCad 5.1.10} date Wed Aug  4 23:16:14 2021
; FORMAT={-:-/ absolute / inch / decimal}
; #@! TF.CreationDate,2021-08-04T23:16:14+02:00
; #@! TF.GenerationSoftware,Kicad,Pcbnew,5.1.10
FMAT,2
INCH
T1C0.0118
T2C0.0157
T3C0.0236
T4C0.0394
T5C0.0591
T6C0.0256
T7C0.0591
T8C0.0689
T9C0.1200
T10C0.1260
T11C0.1570
T12C0.1575
%
G90
G05
T1
X4.3923Y-2.0986
X4.4923Y-2.0738
X4.7573Y-4.3038
X4.9573Y-2.5388
X4.9828Y-2.0994
X5.0473Y-2.6638
X5.0773Y-2.7488
X5.08Y-1.855
X5.0811Y-2.1489
X5.09Y-1.8196
X5.0964Y-1.9378
X5.1027Y-2.1115
X5.1115Y-2.0803
X5.1421Y-2.0721
X5.1668Y-2.0526
X5.1946Y-2.0196
X5.22Y-2.285
X5.2372Y-1.8845
X5.25Y-2.095
X5.2682Y-1.8902
X5.28Y-1.925
X5.2823Y-3.5338
X5.3023Y-2.3888
X5.31Y-2.195
X5.311Y-2.2275
X5.3208Y-2.2574
X5.3336Y-1.9243
X5.3337Y-2.3888
X5.3654Y-1.9314
X5.3654Y-1.9948
X6.34Y-2.235
X6.38Y-2.045
X6.81Y-2.205
X7.02Y-2.185
T2
X3.7623Y-2.0038
X3.9923Y-2.0038
X4.2123Y-2.0338
X4.36Y-2.075
X4.4123Y-2.0338
X4.4423Y-1.9738
X4.5523Y-4.5188
X4.6772Y-1.9629
X4.7573Y-2.0838
X4.832Y-1.9645
X4.87Y-2.115
X4.8713Y-1.9619
X4.8985Y-1.885
X5.0178Y-2.0937
X5.0223Y-2.1438
X5.049Y-2.4439
X5.0491Y-1.9935
X5.0723Y-2.5088
X5.0801Y-1.9693
X5.1102Y-2.2288
X5.2073Y-4.6738
X5.3592Y-2.0296
X5.39Y-1.905
X5.4Y-2.035
X5.4463Y-5.5738
X5.57Y-1.965
X5.7143Y-1.9359
X5.81Y-1.925
X5.83Y-2.065
X6.1948Y-1.9363
X6.29Y-2.135
X6.29Y-2.135
X6.37Y-2.115
X7.1223Y-2.1138
T4
X4.12Y-2.205
X4.22Y-2.205
X4.32Y-2.205
X4.42Y-2.205
T5
X2.9743Y-2.5643
X3.068Y-4.8143
X3.068Y-5.5643
X3.1618Y-3.3143
X3.2243Y-2.4643
X3.2555Y-4.0643
X3.318Y-4.7143
X3.318Y-5.4643
X3.4118Y-3.2143
X3.5055Y-3.9643
X3.7243Y-2.5643
X3.9118Y-4.8143
X3.9743Y-2.4643
X4.0055Y-5.5643
X4.0993Y-3.3143
X4.1618Y-4.7143
X4.2555Y-5.4643
X4.2868Y-4.0643
X4.3493Y-3.2143
X4.4743Y-2.5643
X4.5368Y-3.9643
X4.6618Y-4.8143
X4.7243Y-2.4643
X4.8493Y-3.3143
X4.9118Y-4.7143
X4.943Y-5.5643
X5.0368Y-4.0643
X5.0993Y-3.2143
X5.193Y-5.4643
X5.2243Y-2.5643
X5.2868Y-3.9643
X5.4118Y-4.8143
X5.4743Y-2.4643
X5.5993Y-3.3143
X5.6618Y-4.7143
X5.7868Y-4.0643
X5.7868Y-5.5643
X5.8493Y-3.2143
X5.9743Y-2.5643
X6.0368Y-3.9643
X6.0368Y-5.4643
X6.1618Y-4.8143
X6.2243Y-2.4643
X6.3493Y-3.3143
X6.4118Y-4.7143
X6.5368Y-4.0643
X6.5993Y-3.2143
X6.7243Y-2.5643
X6.7868Y-3.9643
X6.9118Y-4.8143
X6.9743Y-2.4643
X7.0055Y-5.5643
X7.0993Y-3.3143
X7.1618Y-4.7143
X7.2555Y-5.4643
X7.2868Y-4.0643
X7.3493Y-3.2143
X7.4743Y-2.5643
X7.5368Y-3.9643
X7.6618Y-4.8143
X7.7243Y-2.4643
X7.8493Y-3.3143
X7.9118Y-4.7143
X8.0368Y-4.0643
X8.0993Y-3.2143
X8.2868Y-3.9643
T6
X5.9618Y-1.9935
X6.1893Y-1.9935
T7
X3.4413Y-1.8668
X3.4413Y-2.1424
X7.3023Y-1.8668
X7.3023Y-2.1424
T8
X2.9243Y-2.6643
X3.018Y-4.9143
X3.018Y-5.6643
X3.1118Y-3.4143
X3.2055Y-4.1643
X3.3243Y-2.6643
X3.418Y-4.9143
X3.418Y-5.6643
X3.5118Y-3.4143
X3.6055Y-4.1643
X3.6743Y-2.6643
X3.8618Y-4.9143
X3.9555Y-5.6643
X4.0493Y-3.4143
X4.0743Y-2.6643
X4.2368Y-4.1643
X4.2618Y-4.9143
X4.3555Y-5.6643
X4.4243Y-2.6643
X4.4493Y-3.4143
X4.6118Y-4.9143
X4.6368Y-4.1643
X4.7993Y-3.4143
X4.8243Y-2.6643
X4.893Y-5.6643
X4.9868Y-4.1643
X5.0118Y-4.9143
X5.1743Y-2.6643
X5.1993Y-3.4143
X5.293Y-5.6643
X5.3618Y-4.9143
X5.3868Y-4.1643
X5.5493Y-3.4143
X5.5743Y-2.6643
X5.7368Y-4.1643
X5.7368Y-5.6643
X5.7618Y-4.9143
X5.9243Y-2.6643
X5.9493Y-3.4143
X6.1118Y-4.9143
X6.1368Y-4.1643
X6.1368Y-5.6643
X6.2993Y-3.4143
X6.3243Y-2.6643
X6.4868Y-4.1643
X6.5118Y-4.9143
X6.6743Y-2.6643
X6.6993Y-3.4143
X6.8618Y-4.9143
X6.8868Y-4.1643
X6.9555Y-5.6643
X7.0493Y-3.4143
X7.0743Y-2.6643
X7.2368Y-4.1643
X7.2618Y-4.9143
X7.3555Y-5.6643
X7.4243Y-2.6643
X7.4493Y-3.4143
X7.6118Y-4.9143
X7.6368Y-4.1643
X7.7993Y-3.4143
X7.8243Y-2.6643
X7.9868Y-4.1643
X8.0118Y-4.9143
X8.1993Y-3.4143
X8.3868Y-4.1643
T9
X6.6855Y-5.3893
X7.6255Y-5.3893
T10
X2.9063Y-1.9138
X3.5263Y-2.9938
X3.6563Y-5.2938
X5.5063Y-3.0338
X5.5063Y-5.9338
X7.6263Y-3.0738
X7.8063Y-4.4938
X7.8463Y-1.9138
X7.8463Y-5.9338
T11
X6.6855Y-5.9893
X7.6255Y-5.9893
T12
X3.1243Y-2.6643
X3.218Y-4.9143
X3.218Y-5.6643
X3.3118Y-3.4143
X3.4055Y-4.1643
X3.8743Y-2.6643
X4.0618Y-4.9143
X4.1555Y-5.6643
X4.2493Y-3.4143
X4.4368Y-4.1643
X4.6243Y-2.6643
X4.8118Y-4.9143
X4.9993Y-3.4143
X5.093Y-5.6643
X5.1868Y-4.1643
X5.3743Y-2.6643
X5.5618Y-4.9143
X5.7493Y-3.4143
X5.9368Y-4.1643
X5.9368Y-5.6643
X6.1243Y-2.6643
X6.3118Y-4.9143
X6.4993Y-3.4143
X6.6868Y-4.1643
X6.8743Y-2.6643
X7.0618Y-4.9143
X7.1555Y-5.6643
X7.2493Y-3.4143
X7.4368Y-4.1643
X7.6243Y-2.6643
X7.8118Y-4.9143
X7.9993Y-3.4143
X8.1868Y-4.1643
T3
G00X3.3507Y-1.918
M15
G01X3.3507Y-1.9416
M16
G05
G00X3.3507Y-2.0361
M15
G01X3.3507Y-2.0597
M16
G05
G00X3.3507Y-2.1936
M15
G01X3.3507Y-2.2172
M16
G05
G00X3.5318Y-2.2369
M15
G01X3.5318Y-2.2605
M16
G05
G00X5.9055Y-1.838
M15
G01X5.9055Y-1.8616
M16
G05
G00X5.9055Y-1.9927
M15
G01X5.9055Y-2.036
M16
G05
G00X6.2456Y-1.838
M15
G01X6.2456Y-1.8616
M16
G05
G00X6.2456Y-1.9927
M15
G01X6.2456Y-2.036
M16
G05
G00X7.2117Y-1.918
M15
G01X7.2117Y-1.9416
M16
G05
G00X7.2117Y-2.0361
M15
G01X7.2117Y-2.0597
M16
G05
G00X7.2117Y-2.1936
M15
G01X7.2117Y-2.2172
M16
G05
G00X7.3928Y-2.2369
M15
G01X7.3928Y-2.2605
M16
G05
T0
M30
