%TF.GenerationSoftware,KiCad,Pcbnew,5.1.10*%
%TF.CreationDate,2021-08-04T23:16:11+02:00*%
%TF.ProjectId,keyboard,6b657962-6f61-4726-942e-6b696361645f,rev?*%
%TF.SameCoordinates,Original*%
%TF.FileFunction,Soldermask,Bot*%
%TF.FilePolarity,Negative*%
%FSLAX46Y46*%
G04 Gerber Fmt 4.6, Leading zero omitted, Abs format (unit mm)*
G04 Created by KiCad (PCBNEW 5.1.10) date 2021-08-04 23:16:11*
%MOMM*%
%LPD*%
G01*
G04 APERTURE LIST*
%ADD10C,3.200000*%
%ADD11R,1.000000X1.700000*%
%ADD12O,1.200000X1.800000*%
%ADD13C,1.500000*%
%ADD14R,0.650000X1.060000*%
%ADD15C,1.000000*%
%ADD16O,1.700000X1.700000*%
%ADD17R,1.700000X1.700000*%
%ADD18R,0.600000X1.450000*%
%ADD19R,0.300000X1.450000*%
%ADD20O,1.000000X2.100000*%
%ADD21C,0.650000*%
%ADD22O,1.000000X1.600000*%
%ADD23C,1.750000*%
%ADD24C,4.000000*%
%ADD25C,2.500000*%
%ADD26C,3.048000*%
%ADD27C,3.987800*%
%ADD28R,0.500000X0.500000*%
%ADD29R,2.400000X2.000000*%
G04 APERTURE END LIST*
D10*
%TO.C,REF\u002A\u002A*%
X89566800Y-76043000D03*
%TD*%
%TO.C,REF\u002A\u002A*%
X139858800Y-77059000D03*
%TD*%
%TO.C,REF\u002A\u002A*%
X193706800Y-78075000D03*
%TD*%
%TO.C,REF\u002A\u002A*%
X92868800Y-134463000D03*
%TD*%
%TO.C,REF\u002A\u002A*%
X198278800Y-114143000D03*
%TD*%
%TO.C,REF\u002A\u002A*%
X139858800Y-150719000D03*
%TD*%
%TO.C,REF\u002A\u002A*%
X199294800Y-150719000D03*
%TD*%
%TO.C,REF\u002A\u002A*%
X199294800Y-48611000D03*
%TD*%
%TO.C,REF\u002A\u002A*%
X73818800Y-48611000D03*
%TD*%
D11*
%TO.C,PB2*%
X166502000Y-50825000D03*
X166502000Y-57125000D03*
X170302000Y-50825000D03*
X170302000Y-57125000D03*
%TD*%
%TO.C,PB1*%
X176276000Y-50723000D03*
X176276000Y-57023000D03*
X180076000Y-50723000D03*
X180076000Y-57023000D03*
%TD*%
D12*
%TO.C,J4*%
X183177200Y-49017000D03*
X183177200Y-52017000D03*
X183177200Y-56017000D03*
X187777200Y-57117000D03*
D13*
X185477200Y-47417000D03*
X185477200Y-54417000D03*
%TD*%
%TO.C,J3*%
X87407800Y-54417000D03*
X87407800Y-47417000D03*
D12*
X89707800Y-57117000D03*
X85107800Y-56017000D03*
X85107800Y-52017000D03*
X85107800Y-49017000D03*
%TD*%
%TO.C,U2*%
G36*
G01*
X131155180Y-58421400D02*
X130218264Y-57484484D01*
G75*
G02*
X130218264Y-57378418I53033J53033D01*
G01*
X130324330Y-57272352D01*
G75*
G02*
X130430396Y-57272352I53033J-53033D01*
G01*
X131367312Y-58209268D01*
G75*
G02*
X131367312Y-58315334I-53033J-53033D01*
G01*
X131261246Y-58421400D01*
G75*
G02*
X131155180Y-58421400I-53033J53033D01*
G01*
G37*
G36*
G01*
X131508734Y-58067846D02*
X130571818Y-57130930D01*
G75*
G02*
X130571818Y-57024864I53033J53033D01*
G01*
X130677884Y-56918798D01*
G75*
G02*
X130783950Y-56918798I53033J-53033D01*
G01*
X131720866Y-57855714D01*
G75*
G02*
X131720866Y-57961780I-53033J-53033D01*
G01*
X131614800Y-58067846D01*
G75*
G02*
X131508734Y-58067846I-53033J53033D01*
G01*
G37*
G36*
G01*
X131862287Y-57714293D02*
X130925371Y-56777377D01*
G75*
G02*
X130925371Y-56671311I53033J53033D01*
G01*
X131031437Y-56565245D01*
G75*
G02*
X131137503Y-56565245I53033J-53033D01*
G01*
X132074419Y-57502161D01*
G75*
G02*
X132074419Y-57608227I-53033J-53033D01*
G01*
X131968353Y-57714293D01*
G75*
G02*
X131862287Y-57714293I-53033J53033D01*
G01*
G37*
G36*
G01*
X132215841Y-57360739D02*
X131278925Y-56423823D01*
G75*
G02*
X131278925Y-56317757I53033J53033D01*
G01*
X131384991Y-56211691D01*
G75*
G02*
X131491057Y-56211691I53033J-53033D01*
G01*
X132427973Y-57148607D01*
G75*
G02*
X132427973Y-57254673I-53033J-53033D01*
G01*
X132321907Y-57360739D01*
G75*
G02*
X132215841Y-57360739I-53033J53033D01*
G01*
G37*
G36*
G01*
X132569394Y-57007186D02*
X131632478Y-56070270D01*
G75*
G02*
X131632478Y-55964204I53033J53033D01*
G01*
X131738544Y-55858138D01*
G75*
G02*
X131844610Y-55858138I53033J-53033D01*
G01*
X132781526Y-56795054D01*
G75*
G02*
X132781526Y-56901120I-53033J-53033D01*
G01*
X132675460Y-57007186D01*
G75*
G02*
X132569394Y-57007186I-53033J53033D01*
G01*
G37*
G36*
G01*
X132922947Y-56653633D02*
X131986031Y-55716717D01*
G75*
G02*
X131986031Y-55610651I53033J53033D01*
G01*
X132092097Y-55504585D01*
G75*
G02*
X132198163Y-55504585I53033J-53033D01*
G01*
X133135079Y-56441501D01*
G75*
G02*
X133135079Y-56547567I-53033J-53033D01*
G01*
X133029013Y-56653633D01*
G75*
G02*
X132922947Y-56653633I-53033J53033D01*
G01*
G37*
G36*
G01*
X133276501Y-56300079D02*
X132339585Y-55363163D01*
G75*
G02*
X132339585Y-55257097I53033J53033D01*
G01*
X132445651Y-55151031D01*
G75*
G02*
X132551717Y-55151031I53033J-53033D01*
G01*
X133488633Y-56087947D01*
G75*
G02*
X133488633Y-56194013I-53033J-53033D01*
G01*
X133382567Y-56300079D01*
G75*
G02*
X133276501Y-56300079I-53033J53033D01*
G01*
G37*
G36*
G01*
X133630054Y-55946526D02*
X132693138Y-55009610D01*
G75*
G02*
X132693138Y-54903544I53033J53033D01*
G01*
X132799204Y-54797478D01*
G75*
G02*
X132905270Y-54797478I53033J-53033D01*
G01*
X133842186Y-55734394D01*
G75*
G02*
X133842186Y-55840460I-53033J-53033D01*
G01*
X133736120Y-55946526D01*
G75*
G02*
X133630054Y-55946526I-53033J53033D01*
G01*
G37*
G36*
G01*
X133983607Y-55592973D02*
X133046691Y-54656057D01*
G75*
G02*
X133046691Y-54549991I53033J53033D01*
G01*
X133152757Y-54443925D01*
G75*
G02*
X133258823Y-54443925I53033J-53033D01*
G01*
X134195739Y-55380841D01*
G75*
G02*
X134195739Y-55486907I-53033J-53033D01*
G01*
X134089673Y-55592973D01*
G75*
G02*
X133983607Y-55592973I-53033J53033D01*
G01*
G37*
G36*
G01*
X134337161Y-55239419D02*
X133400245Y-54302503D01*
G75*
G02*
X133400245Y-54196437I53033J53033D01*
G01*
X133506311Y-54090371D01*
G75*
G02*
X133612377Y-54090371I53033J-53033D01*
G01*
X134549293Y-55027287D01*
G75*
G02*
X134549293Y-55133353I-53033J-53033D01*
G01*
X134443227Y-55239419D01*
G75*
G02*
X134337161Y-55239419I-53033J53033D01*
G01*
G37*
G36*
G01*
X134690714Y-54885866D02*
X133753798Y-53948950D01*
G75*
G02*
X133753798Y-53842884I53033J53033D01*
G01*
X133859864Y-53736818D01*
G75*
G02*
X133965930Y-53736818I53033J-53033D01*
G01*
X134902846Y-54673734D01*
G75*
G02*
X134902846Y-54779800I-53033J-53033D01*
G01*
X134796780Y-54885866D01*
G75*
G02*
X134690714Y-54885866I-53033J53033D01*
G01*
G37*
G36*
G01*
X135044268Y-54532312D02*
X134107352Y-53595396D01*
G75*
G02*
X134107352Y-53489330I53033J53033D01*
G01*
X134213418Y-53383264D01*
G75*
G02*
X134319484Y-53383264I53033J-53033D01*
G01*
X135256400Y-54320180D01*
G75*
G02*
X135256400Y-54426246I-53033J-53033D01*
G01*
X135150334Y-54532312D01*
G75*
G02*
X135044268Y-54532312I-53033J53033D01*
G01*
G37*
G36*
G01*
X134213418Y-52534736D02*
X134107352Y-52428670D01*
G75*
G02*
X134107352Y-52322604I53033J53033D01*
G01*
X135044268Y-51385688D01*
G75*
G02*
X135150334Y-51385688I53033J-53033D01*
G01*
X135256400Y-51491754D01*
G75*
G02*
X135256400Y-51597820I-53033J-53033D01*
G01*
X134319484Y-52534736D01*
G75*
G02*
X134213418Y-52534736I-53033J53033D01*
G01*
G37*
G36*
G01*
X133859864Y-52181182D02*
X133753798Y-52075116D01*
G75*
G02*
X133753798Y-51969050I53033J53033D01*
G01*
X134690714Y-51032134D01*
G75*
G02*
X134796780Y-51032134I53033J-53033D01*
G01*
X134902846Y-51138200D01*
G75*
G02*
X134902846Y-51244266I-53033J-53033D01*
G01*
X133965930Y-52181182D01*
G75*
G02*
X133859864Y-52181182I-53033J53033D01*
G01*
G37*
G36*
G01*
X133506311Y-51827629D02*
X133400245Y-51721563D01*
G75*
G02*
X133400245Y-51615497I53033J53033D01*
G01*
X134337161Y-50678581D01*
G75*
G02*
X134443227Y-50678581I53033J-53033D01*
G01*
X134549293Y-50784647D01*
G75*
G02*
X134549293Y-50890713I-53033J-53033D01*
G01*
X133612377Y-51827629D01*
G75*
G02*
X133506311Y-51827629I-53033J53033D01*
G01*
G37*
G36*
G01*
X133152757Y-51474075D02*
X133046691Y-51368009D01*
G75*
G02*
X133046691Y-51261943I53033J53033D01*
G01*
X133983607Y-50325027D01*
G75*
G02*
X134089673Y-50325027I53033J-53033D01*
G01*
X134195739Y-50431093D01*
G75*
G02*
X134195739Y-50537159I-53033J-53033D01*
G01*
X133258823Y-51474075D01*
G75*
G02*
X133152757Y-51474075I-53033J53033D01*
G01*
G37*
G36*
G01*
X132799204Y-51120522D02*
X132693138Y-51014456D01*
G75*
G02*
X132693138Y-50908390I53033J53033D01*
G01*
X133630054Y-49971474D01*
G75*
G02*
X133736120Y-49971474I53033J-53033D01*
G01*
X133842186Y-50077540D01*
G75*
G02*
X133842186Y-50183606I-53033J-53033D01*
G01*
X132905270Y-51120522D01*
G75*
G02*
X132799204Y-51120522I-53033J53033D01*
G01*
G37*
G36*
G01*
X132445651Y-50766969D02*
X132339585Y-50660903D01*
G75*
G02*
X132339585Y-50554837I53033J53033D01*
G01*
X133276501Y-49617921D01*
G75*
G02*
X133382567Y-49617921I53033J-53033D01*
G01*
X133488633Y-49723987D01*
G75*
G02*
X133488633Y-49830053I-53033J-53033D01*
G01*
X132551717Y-50766969D01*
G75*
G02*
X132445651Y-50766969I-53033J53033D01*
G01*
G37*
G36*
G01*
X132092097Y-50413415D02*
X131986031Y-50307349D01*
G75*
G02*
X131986031Y-50201283I53033J53033D01*
G01*
X132922947Y-49264367D01*
G75*
G02*
X133029013Y-49264367I53033J-53033D01*
G01*
X133135079Y-49370433D01*
G75*
G02*
X133135079Y-49476499I-53033J-53033D01*
G01*
X132198163Y-50413415D01*
G75*
G02*
X132092097Y-50413415I-53033J53033D01*
G01*
G37*
G36*
G01*
X131738544Y-50059862D02*
X131632478Y-49953796D01*
G75*
G02*
X131632478Y-49847730I53033J53033D01*
G01*
X132569394Y-48910814D01*
G75*
G02*
X132675460Y-48910814I53033J-53033D01*
G01*
X132781526Y-49016880D01*
G75*
G02*
X132781526Y-49122946I-53033J-53033D01*
G01*
X131844610Y-50059862D01*
G75*
G02*
X131738544Y-50059862I-53033J53033D01*
G01*
G37*
G36*
G01*
X131384991Y-49706309D02*
X131278925Y-49600243D01*
G75*
G02*
X131278925Y-49494177I53033J53033D01*
G01*
X132215841Y-48557261D01*
G75*
G02*
X132321907Y-48557261I53033J-53033D01*
G01*
X132427973Y-48663327D01*
G75*
G02*
X132427973Y-48769393I-53033J-53033D01*
G01*
X131491057Y-49706309D01*
G75*
G02*
X131384991Y-49706309I-53033J53033D01*
G01*
G37*
G36*
G01*
X131031437Y-49352755D02*
X130925371Y-49246689D01*
G75*
G02*
X130925371Y-49140623I53033J53033D01*
G01*
X131862287Y-48203707D01*
G75*
G02*
X131968353Y-48203707I53033J-53033D01*
G01*
X132074419Y-48309773D01*
G75*
G02*
X132074419Y-48415839I-53033J-53033D01*
G01*
X131137503Y-49352755D01*
G75*
G02*
X131031437Y-49352755I-53033J53033D01*
G01*
G37*
G36*
G01*
X130677884Y-48999202D02*
X130571818Y-48893136D01*
G75*
G02*
X130571818Y-48787070I53033J53033D01*
G01*
X131508734Y-47850154D01*
G75*
G02*
X131614800Y-47850154I53033J-53033D01*
G01*
X131720866Y-47956220D01*
G75*
G02*
X131720866Y-48062286I-53033J-53033D01*
G01*
X130783950Y-48999202D01*
G75*
G02*
X130677884Y-48999202I-53033J53033D01*
G01*
G37*
G36*
G01*
X130324330Y-48645648D02*
X130218264Y-48539582D01*
G75*
G02*
X130218264Y-48433516I53033J53033D01*
G01*
X131155180Y-47496600D01*
G75*
G02*
X131261246Y-47496600I53033J-53033D01*
G01*
X131367312Y-47602666D01*
G75*
G02*
X131367312Y-47708732I-53033J-53033D01*
G01*
X130430396Y-48645648D01*
G75*
G02*
X130324330Y-48645648I-53033J53033D01*
G01*
G37*
G36*
G01*
X129157604Y-48645648D02*
X128220688Y-47708732D01*
G75*
G02*
X128220688Y-47602666I53033J53033D01*
G01*
X128326754Y-47496600D01*
G75*
G02*
X128432820Y-47496600I53033J-53033D01*
G01*
X129369736Y-48433516D01*
G75*
G02*
X129369736Y-48539582I-53033J-53033D01*
G01*
X129263670Y-48645648D01*
G75*
G02*
X129157604Y-48645648I-53033J53033D01*
G01*
G37*
G36*
G01*
X128804050Y-48999202D02*
X127867134Y-48062286D01*
G75*
G02*
X127867134Y-47956220I53033J53033D01*
G01*
X127973200Y-47850154D01*
G75*
G02*
X128079266Y-47850154I53033J-53033D01*
G01*
X129016182Y-48787070D01*
G75*
G02*
X129016182Y-48893136I-53033J-53033D01*
G01*
X128910116Y-48999202D01*
G75*
G02*
X128804050Y-48999202I-53033J53033D01*
G01*
G37*
G36*
G01*
X128450497Y-49352755D02*
X127513581Y-48415839D01*
G75*
G02*
X127513581Y-48309773I53033J53033D01*
G01*
X127619647Y-48203707D01*
G75*
G02*
X127725713Y-48203707I53033J-53033D01*
G01*
X128662629Y-49140623D01*
G75*
G02*
X128662629Y-49246689I-53033J-53033D01*
G01*
X128556563Y-49352755D01*
G75*
G02*
X128450497Y-49352755I-53033J53033D01*
G01*
G37*
G36*
G01*
X128096943Y-49706309D02*
X127160027Y-48769393D01*
G75*
G02*
X127160027Y-48663327I53033J53033D01*
G01*
X127266093Y-48557261D01*
G75*
G02*
X127372159Y-48557261I53033J-53033D01*
G01*
X128309075Y-49494177D01*
G75*
G02*
X128309075Y-49600243I-53033J-53033D01*
G01*
X128203009Y-49706309D01*
G75*
G02*
X128096943Y-49706309I-53033J53033D01*
G01*
G37*
G36*
G01*
X127743390Y-50059862D02*
X126806474Y-49122946D01*
G75*
G02*
X126806474Y-49016880I53033J53033D01*
G01*
X126912540Y-48910814D01*
G75*
G02*
X127018606Y-48910814I53033J-53033D01*
G01*
X127955522Y-49847730D01*
G75*
G02*
X127955522Y-49953796I-53033J-53033D01*
G01*
X127849456Y-50059862D01*
G75*
G02*
X127743390Y-50059862I-53033J53033D01*
G01*
G37*
G36*
G01*
X127389837Y-50413415D02*
X126452921Y-49476499D01*
G75*
G02*
X126452921Y-49370433I53033J53033D01*
G01*
X126558987Y-49264367D01*
G75*
G02*
X126665053Y-49264367I53033J-53033D01*
G01*
X127601969Y-50201283D01*
G75*
G02*
X127601969Y-50307349I-53033J-53033D01*
G01*
X127495903Y-50413415D01*
G75*
G02*
X127389837Y-50413415I-53033J53033D01*
G01*
G37*
G36*
G01*
X127036283Y-50766969D02*
X126099367Y-49830053D01*
G75*
G02*
X126099367Y-49723987I53033J53033D01*
G01*
X126205433Y-49617921D01*
G75*
G02*
X126311499Y-49617921I53033J-53033D01*
G01*
X127248415Y-50554837D01*
G75*
G02*
X127248415Y-50660903I-53033J-53033D01*
G01*
X127142349Y-50766969D01*
G75*
G02*
X127036283Y-50766969I-53033J53033D01*
G01*
G37*
G36*
G01*
X126682730Y-51120522D02*
X125745814Y-50183606D01*
G75*
G02*
X125745814Y-50077540I53033J53033D01*
G01*
X125851880Y-49971474D01*
G75*
G02*
X125957946Y-49971474I53033J-53033D01*
G01*
X126894862Y-50908390D01*
G75*
G02*
X126894862Y-51014456I-53033J-53033D01*
G01*
X126788796Y-51120522D01*
G75*
G02*
X126682730Y-51120522I-53033J53033D01*
G01*
G37*
G36*
G01*
X126329177Y-51474075D02*
X125392261Y-50537159D01*
G75*
G02*
X125392261Y-50431093I53033J53033D01*
G01*
X125498327Y-50325027D01*
G75*
G02*
X125604393Y-50325027I53033J-53033D01*
G01*
X126541309Y-51261943D01*
G75*
G02*
X126541309Y-51368009I-53033J-53033D01*
G01*
X126435243Y-51474075D01*
G75*
G02*
X126329177Y-51474075I-53033J53033D01*
G01*
G37*
G36*
G01*
X125975623Y-51827629D02*
X125038707Y-50890713D01*
G75*
G02*
X125038707Y-50784647I53033J53033D01*
G01*
X125144773Y-50678581D01*
G75*
G02*
X125250839Y-50678581I53033J-53033D01*
G01*
X126187755Y-51615497D01*
G75*
G02*
X126187755Y-51721563I-53033J-53033D01*
G01*
X126081689Y-51827629D01*
G75*
G02*
X125975623Y-51827629I-53033J53033D01*
G01*
G37*
G36*
G01*
X125622070Y-52181182D02*
X124685154Y-51244266D01*
G75*
G02*
X124685154Y-51138200I53033J53033D01*
G01*
X124791220Y-51032134D01*
G75*
G02*
X124897286Y-51032134I53033J-53033D01*
G01*
X125834202Y-51969050D01*
G75*
G02*
X125834202Y-52075116I-53033J-53033D01*
G01*
X125728136Y-52181182D01*
G75*
G02*
X125622070Y-52181182I-53033J53033D01*
G01*
G37*
G36*
G01*
X125268516Y-52534736D02*
X124331600Y-51597820D01*
G75*
G02*
X124331600Y-51491754I53033J53033D01*
G01*
X124437666Y-51385688D01*
G75*
G02*
X124543732Y-51385688I53033J-53033D01*
G01*
X125480648Y-52322604D01*
G75*
G02*
X125480648Y-52428670I-53033J-53033D01*
G01*
X125374582Y-52534736D01*
G75*
G02*
X125268516Y-52534736I-53033J53033D01*
G01*
G37*
G36*
G01*
X124437666Y-54532312D02*
X124331600Y-54426246D01*
G75*
G02*
X124331600Y-54320180I53033J53033D01*
G01*
X125268516Y-53383264D01*
G75*
G02*
X125374582Y-53383264I53033J-53033D01*
G01*
X125480648Y-53489330D01*
G75*
G02*
X125480648Y-53595396I-53033J-53033D01*
G01*
X124543732Y-54532312D01*
G75*
G02*
X124437666Y-54532312I-53033J53033D01*
G01*
G37*
G36*
G01*
X124791220Y-54885866D02*
X124685154Y-54779800D01*
G75*
G02*
X124685154Y-54673734I53033J53033D01*
G01*
X125622070Y-53736818D01*
G75*
G02*
X125728136Y-53736818I53033J-53033D01*
G01*
X125834202Y-53842884D01*
G75*
G02*
X125834202Y-53948950I-53033J-53033D01*
G01*
X124897286Y-54885866D01*
G75*
G02*
X124791220Y-54885866I-53033J53033D01*
G01*
G37*
G36*
G01*
X125144773Y-55239419D02*
X125038707Y-55133353D01*
G75*
G02*
X125038707Y-55027287I53033J53033D01*
G01*
X125975623Y-54090371D01*
G75*
G02*
X126081689Y-54090371I53033J-53033D01*
G01*
X126187755Y-54196437D01*
G75*
G02*
X126187755Y-54302503I-53033J-53033D01*
G01*
X125250839Y-55239419D01*
G75*
G02*
X125144773Y-55239419I-53033J53033D01*
G01*
G37*
G36*
G01*
X125498327Y-55592973D02*
X125392261Y-55486907D01*
G75*
G02*
X125392261Y-55380841I53033J53033D01*
G01*
X126329177Y-54443925D01*
G75*
G02*
X126435243Y-54443925I53033J-53033D01*
G01*
X126541309Y-54549991D01*
G75*
G02*
X126541309Y-54656057I-53033J-53033D01*
G01*
X125604393Y-55592973D01*
G75*
G02*
X125498327Y-55592973I-53033J53033D01*
G01*
G37*
G36*
G01*
X125851880Y-55946526D02*
X125745814Y-55840460D01*
G75*
G02*
X125745814Y-55734394I53033J53033D01*
G01*
X126682730Y-54797478D01*
G75*
G02*
X126788796Y-54797478I53033J-53033D01*
G01*
X126894862Y-54903544D01*
G75*
G02*
X126894862Y-55009610I-53033J-53033D01*
G01*
X125957946Y-55946526D01*
G75*
G02*
X125851880Y-55946526I-53033J53033D01*
G01*
G37*
G36*
G01*
X126205433Y-56300079D02*
X126099367Y-56194013D01*
G75*
G02*
X126099367Y-56087947I53033J53033D01*
G01*
X127036283Y-55151031D01*
G75*
G02*
X127142349Y-55151031I53033J-53033D01*
G01*
X127248415Y-55257097D01*
G75*
G02*
X127248415Y-55363163I-53033J-53033D01*
G01*
X126311499Y-56300079D01*
G75*
G02*
X126205433Y-56300079I-53033J53033D01*
G01*
G37*
G36*
G01*
X126558987Y-56653633D02*
X126452921Y-56547567D01*
G75*
G02*
X126452921Y-56441501I53033J53033D01*
G01*
X127389837Y-55504585D01*
G75*
G02*
X127495903Y-55504585I53033J-53033D01*
G01*
X127601969Y-55610651D01*
G75*
G02*
X127601969Y-55716717I-53033J-53033D01*
G01*
X126665053Y-56653633D01*
G75*
G02*
X126558987Y-56653633I-53033J53033D01*
G01*
G37*
G36*
G01*
X126912540Y-57007186D02*
X126806474Y-56901120D01*
G75*
G02*
X126806474Y-56795054I53033J53033D01*
G01*
X127743390Y-55858138D01*
G75*
G02*
X127849456Y-55858138I53033J-53033D01*
G01*
X127955522Y-55964204D01*
G75*
G02*
X127955522Y-56070270I-53033J-53033D01*
G01*
X127018606Y-57007186D01*
G75*
G02*
X126912540Y-57007186I-53033J53033D01*
G01*
G37*
G36*
G01*
X127266093Y-57360739D02*
X127160027Y-57254673D01*
G75*
G02*
X127160027Y-57148607I53033J53033D01*
G01*
X128096943Y-56211691D01*
G75*
G02*
X128203009Y-56211691I53033J-53033D01*
G01*
X128309075Y-56317757D01*
G75*
G02*
X128309075Y-56423823I-53033J-53033D01*
G01*
X127372159Y-57360739D01*
G75*
G02*
X127266093Y-57360739I-53033J53033D01*
G01*
G37*
G36*
G01*
X127619647Y-57714293D02*
X127513581Y-57608227D01*
G75*
G02*
X127513581Y-57502161I53033J53033D01*
G01*
X128450497Y-56565245D01*
G75*
G02*
X128556563Y-56565245I53033J-53033D01*
G01*
X128662629Y-56671311D01*
G75*
G02*
X128662629Y-56777377I-53033J-53033D01*
G01*
X127725713Y-57714293D01*
G75*
G02*
X127619647Y-57714293I-53033J53033D01*
G01*
G37*
G36*
G01*
X127973200Y-58067846D02*
X127867134Y-57961780D01*
G75*
G02*
X127867134Y-57855714I53033J53033D01*
G01*
X128804050Y-56918798D01*
G75*
G02*
X128910116Y-56918798I53033J-53033D01*
G01*
X129016182Y-57024864D01*
G75*
G02*
X129016182Y-57130930I-53033J-53033D01*
G01*
X128079266Y-58067846D01*
G75*
G02*
X127973200Y-58067846I-53033J53033D01*
G01*
G37*
G36*
G01*
X128326754Y-58421400D02*
X128220688Y-58315334D01*
G75*
G02*
X128220688Y-58209268I53033J53033D01*
G01*
X129157604Y-57272352D01*
G75*
G02*
X129263670Y-57272352I53033J-53033D01*
G01*
X129369736Y-57378418D01*
G75*
G02*
X129369736Y-57484484I-53033J-53033D01*
G01*
X128432820Y-58421400D01*
G75*
G02*
X128326754Y-58421400I-53033J53033D01*
G01*
G37*
%TD*%
D14*
%TO.C,U1*%
X144714000Y-47795000D03*
X142814000Y-47795000D03*
X142814000Y-49995000D03*
X143764000Y-49995000D03*
X144714000Y-49995000D03*
%TD*%
D15*
%TO.C,TP3*%
X149860000Y-54483000D03*
%TD*%
%TO.C,TP2*%
X156464000Y-55753000D03*
%TD*%
%TO.C,TP1*%
X141478000Y-57277000D03*
%TD*%
%TO.C,R12*%
G36*
G01*
X124245542Y-57917582D02*
X124581418Y-58253458D01*
G75*
G02*
X124581418Y-58589334I-167938J-167938D01*
G01*
X124227864Y-58942888D01*
G75*
G02*
X123891988Y-58942888I-167938J167938D01*
G01*
X123556112Y-58607012D01*
G75*
G02*
X123556112Y-58271136I167938J167938D01*
G01*
X123909666Y-57917582D01*
G75*
G02*
X124245542Y-57917582I167938J-167938D01*
G01*
G37*
G36*
G01*
X125536012Y-56627112D02*
X125871888Y-56962988D01*
G75*
G02*
X125871888Y-57298864I-167938J-167938D01*
G01*
X125518334Y-57652418D01*
G75*
G02*
X125182458Y-57652418I-167938J167938D01*
G01*
X124846582Y-57316542D01*
G75*
G02*
X124846582Y-56980666I167938J167938D01*
G01*
X125200136Y-56627112D01*
G75*
G02*
X125536012Y-56627112I167938J-167938D01*
G01*
G37*
%TD*%
%TO.C,R11*%
G36*
G01*
X115194300Y-50372500D02*
X115194300Y-49897500D01*
G75*
G02*
X115431800Y-49660000I237500J0D01*
G01*
X115931800Y-49660000D01*
G75*
G02*
X116169300Y-49897500I0J-237500D01*
G01*
X116169300Y-50372500D01*
G75*
G02*
X115931800Y-50610000I-237500J0D01*
G01*
X115431800Y-50610000D01*
G75*
G02*
X115194300Y-50372500I0J237500D01*
G01*
G37*
G36*
G01*
X117019300Y-50372500D02*
X117019300Y-49897500D01*
G75*
G02*
X117256800Y-49660000I237500J0D01*
G01*
X117756800Y-49660000D01*
G75*
G02*
X117994300Y-49897500I0J-237500D01*
G01*
X117994300Y-50372500D01*
G75*
G02*
X117756800Y-50610000I-237500J0D01*
G01*
X117256800Y-50610000D01*
G75*
G02*
X117019300Y-50372500I0J237500D01*
G01*
G37*
%TD*%
%TO.C,R10*%
G36*
G01*
X101259700Y-48133300D02*
X100784700Y-48133300D01*
G75*
G02*
X100547200Y-47895800I0J237500D01*
G01*
X100547200Y-47395800D01*
G75*
G02*
X100784700Y-47158300I237500J0D01*
G01*
X101259700Y-47158300D01*
G75*
G02*
X101497200Y-47395800I0J-237500D01*
G01*
X101497200Y-47895800D01*
G75*
G02*
X101259700Y-48133300I-237500J0D01*
G01*
G37*
G36*
G01*
X101259700Y-49958300D02*
X100784700Y-49958300D01*
G75*
G02*
X100547200Y-49720800I0J237500D01*
G01*
X100547200Y-49220800D01*
G75*
G02*
X100784700Y-48983300I237500J0D01*
G01*
X101259700Y-48983300D01*
G75*
G02*
X101497200Y-49220800I0J-237500D01*
G01*
X101497200Y-49720800D01*
G75*
G02*
X101259700Y-49958300I-237500J0D01*
G01*
G37*
%TD*%
%TO.C,R9*%
G36*
G01*
X96732100Y-50059900D02*
X96257100Y-50059900D01*
G75*
G02*
X96019600Y-49822400I0J237500D01*
G01*
X96019600Y-49322400D01*
G75*
G02*
X96257100Y-49084900I237500J0D01*
G01*
X96732100Y-49084900D01*
G75*
G02*
X96969600Y-49322400I0J-237500D01*
G01*
X96969600Y-49822400D01*
G75*
G02*
X96732100Y-50059900I-237500J0D01*
G01*
G37*
G36*
G01*
X96732100Y-48234900D02*
X96257100Y-48234900D01*
G75*
G02*
X96019600Y-47997400I0J237500D01*
G01*
X96019600Y-47497400D01*
G75*
G02*
X96257100Y-47259900I237500J0D01*
G01*
X96732100Y-47259900D01*
G75*
G02*
X96969600Y-47497400I0J-237500D01*
G01*
X96969600Y-47997400D01*
G75*
G02*
X96732100Y-48234900I-237500J0D01*
G01*
G37*
%TD*%
%TO.C,R8*%
G36*
G01*
X153649500Y-53991500D02*
X153649500Y-54466500D01*
G75*
G02*
X153412000Y-54704000I-237500J0D01*
G01*
X152912000Y-54704000D01*
G75*
G02*
X152674500Y-54466500I0J237500D01*
G01*
X152674500Y-53991500D01*
G75*
G02*
X152912000Y-53754000I237500J0D01*
G01*
X153412000Y-53754000D01*
G75*
G02*
X153649500Y-53991500I0J-237500D01*
G01*
G37*
G36*
G01*
X155474500Y-53991500D02*
X155474500Y-54466500D01*
G75*
G02*
X155237000Y-54704000I-237500J0D01*
G01*
X154737000Y-54704000D01*
G75*
G02*
X154499500Y-54466500I0J237500D01*
G01*
X154499500Y-53991500D01*
G75*
G02*
X154737000Y-53754000I237500J0D01*
G01*
X155237000Y-53754000D01*
G75*
G02*
X155474500Y-53991500I0J-237500D01*
G01*
G37*
%TD*%
%TO.C,R7*%
G36*
G01*
X153399500Y-56193500D02*
X152924500Y-56193500D01*
G75*
G02*
X152687000Y-55956000I0J237500D01*
G01*
X152687000Y-55456000D01*
G75*
G02*
X152924500Y-55218500I237500J0D01*
G01*
X153399500Y-55218500D01*
G75*
G02*
X153637000Y-55456000I0J-237500D01*
G01*
X153637000Y-55956000D01*
G75*
G02*
X153399500Y-56193500I-237500J0D01*
G01*
G37*
G36*
G01*
X153399500Y-58018500D02*
X152924500Y-58018500D01*
G75*
G02*
X152687000Y-57781000I0J237500D01*
G01*
X152687000Y-57281000D01*
G75*
G02*
X152924500Y-57043500I237500J0D01*
G01*
X153399500Y-57043500D01*
G75*
G02*
X153637000Y-57281000I0J-237500D01*
G01*
X153637000Y-57781000D01*
G75*
G02*
X153399500Y-58018500I-237500J0D01*
G01*
G37*
%TD*%
%TO.C,R6*%
G36*
G01*
X154923500Y-58018500D02*
X154448500Y-58018500D01*
G75*
G02*
X154211000Y-57781000I0J237500D01*
G01*
X154211000Y-57281000D01*
G75*
G02*
X154448500Y-57043500I237500J0D01*
G01*
X154923500Y-57043500D01*
G75*
G02*
X155161000Y-57281000I0J-237500D01*
G01*
X155161000Y-57781000D01*
G75*
G02*
X154923500Y-58018500I-237500J0D01*
G01*
G37*
G36*
G01*
X154923500Y-56193500D02*
X154448500Y-56193500D01*
G75*
G02*
X154211000Y-55956000I0J237500D01*
G01*
X154211000Y-55456000D01*
G75*
G02*
X154448500Y-55218500I237500J0D01*
G01*
X154923500Y-55218500D01*
G75*
G02*
X155161000Y-55456000I0J-237500D01*
G01*
X155161000Y-55956000D01*
G75*
G02*
X154923500Y-56193500I-237500J0D01*
G01*
G37*
%TD*%
%TO.C,R5*%
G36*
G01*
X158479500Y-54716500D02*
X158004500Y-54716500D01*
G75*
G02*
X157767000Y-54479000I0J237500D01*
G01*
X157767000Y-53979000D01*
G75*
G02*
X158004500Y-53741500I237500J0D01*
G01*
X158479500Y-53741500D01*
G75*
G02*
X158717000Y-53979000I0J-237500D01*
G01*
X158717000Y-54479000D01*
G75*
G02*
X158479500Y-54716500I-237500J0D01*
G01*
G37*
G36*
G01*
X158479500Y-56541500D02*
X158004500Y-56541500D01*
G75*
G02*
X157767000Y-56304000I0J237500D01*
G01*
X157767000Y-55804000D01*
G75*
G02*
X158004500Y-55566500I237500J0D01*
G01*
X158479500Y-55566500D01*
G75*
G02*
X158717000Y-55804000I0J-237500D01*
G01*
X158717000Y-56304000D01*
G75*
G02*
X158479500Y-56541500I-237500J0D01*
G01*
G37*
%TD*%
%TO.C,R4*%
G36*
G01*
X151875500Y-56541500D02*
X151400500Y-56541500D01*
G75*
G02*
X151163000Y-56304000I0J237500D01*
G01*
X151163000Y-55804000D01*
G75*
G02*
X151400500Y-55566500I237500J0D01*
G01*
X151875500Y-55566500D01*
G75*
G02*
X152113000Y-55804000I0J-237500D01*
G01*
X152113000Y-56304000D01*
G75*
G02*
X151875500Y-56541500I-237500J0D01*
G01*
G37*
G36*
G01*
X151875500Y-54716500D02*
X151400500Y-54716500D01*
G75*
G02*
X151163000Y-54479000I0J237500D01*
G01*
X151163000Y-53979000D01*
G75*
G02*
X151400500Y-53741500I237500J0D01*
G01*
X151875500Y-53741500D01*
G75*
G02*
X152113000Y-53979000I0J-237500D01*
G01*
X152113000Y-54479000D01*
G75*
G02*
X151875500Y-54716500I-237500J0D01*
G01*
G37*
%TD*%
%TO.C,R3*%
G36*
G01*
X164100500Y-55218500D02*
X164575500Y-55218500D01*
G75*
G02*
X164813000Y-55456000I0J-237500D01*
G01*
X164813000Y-55956000D01*
G75*
G02*
X164575500Y-56193500I-237500J0D01*
G01*
X164100500Y-56193500D01*
G75*
G02*
X163863000Y-55956000I0J237500D01*
G01*
X163863000Y-55456000D01*
G75*
G02*
X164100500Y-55218500I237500J0D01*
G01*
G37*
G36*
G01*
X164100500Y-57043500D02*
X164575500Y-57043500D01*
G75*
G02*
X164813000Y-57281000I0J-237500D01*
G01*
X164813000Y-57781000D01*
G75*
G02*
X164575500Y-58018500I-237500J0D01*
G01*
X164100500Y-58018500D01*
G75*
G02*
X163863000Y-57781000I0J237500D01*
G01*
X163863000Y-57281000D01*
G75*
G02*
X164100500Y-57043500I237500J0D01*
G01*
G37*
%TD*%
%TO.C,R2*%
G36*
G01*
X174481500Y-55939500D02*
X174006500Y-55939500D01*
G75*
G02*
X173769000Y-55702000I0J237500D01*
G01*
X173769000Y-55202000D01*
G75*
G02*
X174006500Y-54964500I237500J0D01*
G01*
X174481500Y-54964500D01*
G75*
G02*
X174719000Y-55202000I0J-237500D01*
G01*
X174719000Y-55702000D01*
G75*
G02*
X174481500Y-55939500I-237500J0D01*
G01*
G37*
G36*
G01*
X174481500Y-57764500D02*
X174006500Y-57764500D01*
G75*
G02*
X173769000Y-57527000I0J237500D01*
G01*
X173769000Y-57027000D01*
G75*
G02*
X174006500Y-56789500I237500J0D01*
G01*
X174481500Y-56789500D01*
G75*
G02*
X174719000Y-57027000I0J-237500D01*
G01*
X174719000Y-57527000D01*
G75*
G02*
X174481500Y-57764500I-237500J0D01*
G01*
G37*
%TD*%
%TO.C,R1*%
G36*
G01*
X142872000Y-57514500D02*
X142872000Y-57039500D01*
G75*
G02*
X143109500Y-56802000I237500J0D01*
G01*
X143609500Y-56802000D01*
G75*
G02*
X143847000Y-57039500I0J-237500D01*
G01*
X143847000Y-57514500D01*
G75*
G02*
X143609500Y-57752000I-237500J0D01*
G01*
X143109500Y-57752000D01*
G75*
G02*
X142872000Y-57514500I0J237500D01*
G01*
G37*
G36*
G01*
X144697000Y-57514500D02*
X144697000Y-57039500D01*
G75*
G02*
X144934500Y-56802000I237500J0D01*
G01*
X145434500Y-56802000D01*
G75*
G02*
X145672000Y-57039500I0J-237500D01*
G01*
X145672000Y-57514500D01*
G75*
G02*
X145434500Y-57752000I-237500J0D01*
G01*
X144934500Y-57752000D01*
G75*
G02*
X144697000Y-57514500I0J237500D01*
G01*
G37*
%TD*%
D16*
%TO.C,J2*%
X104648000Y-56007000D03*
X107188000Y-56007000D03*
X109728000Y-56007000D03*
D17*
X112268000Y-56007000D03*
%TD*%
D18*
%TO.C,J1*%
X157569001Y-52078999D03*
X156769001Y-52078999D03*
X151869001Y-52078999D03*
X151069001Y-52078999D03*
X151069001Y-52078999D03*
X151869001Y-52078999D03*
X156769001Y-52078999D03*
X157569001Y-52078999D03*
D19*
X152569001Y-52078999D03*
X153069001Y-52078999D03*
X153569001Y-52078999D03*
X154569001Y-52078999D03*
X155069001Y-52078999D03*
X155569001Y-52078999D03*
X156069001Y-52078999D03*
X154069001Y-52078999D03*
D20*
X158639001Y-51163999D03*
X149999001Y-51163999D03*
D21*
X151429001Y-50633999D03*
D22*
X149999001Y-46983999D03*
D21*
X157209001Y-50633999D03*
D22*
X158639001Y-46983999D03*
%TD*%
%TO.C,C11*%
G36*
G01*
X121936500Y-52444500D02*
X122411500Y-52444500D01*
G75*
G02*
X122649000Y-52682000I0J-237500D01*
G01*
X122649000Y-53282000D01*
G75*
G02*
X122411500Y-53519500I-237500J0D01*
G01*
X121936500Y-53519500D01*
G75*
G02*
X121699000Y-53282000I0J237500D01*
G01*
X121699000Y-52682000D01*
G75*
G02*
X121936500Y-52444500I237500J0D01*
G01*
G37*
G36*
G01*
X121936500Y-54169500D02*
X122411500Y-54169500D01*
G75*
G02*
X122649000Y-54407000I0J-237500D01*
G01*
X122649000Y-55007000D01*
G75*
G02*
X122411500Y-55244500I-237500J0D01*
G01*
X121936500Y-55244500D01*
G75*
G02*
X121699000Y-55007000I0J237500D01*
G01*
X121699000Y-54407000D01*
G75*
G02*
X121936500Y-54169500I237500J0D01*
G01*
G37*
%TD*%
%TO.C,C10*%
G36*
G01*
X124316252Y-60132872D02*
X124652128Y-60468748D01*
G75*
G02*
X124652128Y-60804624I-167938J-167938D01*
G01*
X124227864Y-61228888D01*
G75*
G02*
X123891988Y-61228888I-167938J167938D01*
G01*
X123556112Y-60893012D01*
G75*
G02*
X123556112Y-60557136I167938J167938D01*
G01*
X123980376Y-60132872D01*
G75*
G02*
X124316252Y-60132872I167938J-167938D01*
G01*
G37*
G36*
G01*
X125536012Y-58913112D02*
X125871888Y-59248988D01*
G75*
G02*
X125871888Y-59584864I-167938J-167938D01*
G01*
X125447624Y-60009128D01*
G75*
G02*
X125111748Y-60009128I-167938J167938D01*
G01*
X124775872Y-59673252D01*
G75*
G02*
X124775872Y-59337376I167938J167938D01*
G01*
X125200136Y-58913112D01*
G75*
G02*
X125536012Y-58913112I167938J-167938D01*
G01*
G37*
%TD*%
%TO.C,C9*%
G36*
G01*
X110061500Y-58580000D02*
X110061500Y-59530000D01*
G75*
G02*
X109811500Y-59780000I-250000J0D01*
G01*
X109136500Y-59780000D01*
G75*
G02*
X108886500Y-59530000I0J250000D01*
G01*
X108886500Y-58580000D01*
G75*
G02*
X109136500Y-58330000I250000J0D01*
G01*
X109811500Y-58330000D01*
G75*
G02*
X110061500Y-58580000I0J-250000D01*
G01*
G37*
G36*
G01*
X107986500Y-58580000D02*
X107986500Y-59530000D01*
G75*
G02*
X107736500Y-59780000I-250000J0D01*
G01*
X107061500Y-59780000D01*
G75*
G02*
X106811500Y-59530000I0J250000D01*
G01*
X106811500Y-58580000D01*
G75*
G02*
X107061500Y-58330000I250000J0D01*
G01*
X107736500Y-58330000D01*
G75*
G02*
X107986500Y-58580000I0J-250000D01*
G01*
G37*
%TD*%
%TO.C,C8*%
G36*
G01*
X143338500Y-51451500D02*
X143338500Y-51926500D01*
G75*
G02*
X143101000Y-52164000I-237500J0D01*
G01*
X142501000Y-52164000D01*
G75*
G02*
X142263500Y-51926500I0J237500D01*
G01*
X142263500Y-51451500D01*
G75*
G02*
X142501000Y-51214000I237500J0D01*
G01*
X143101000Y-51214000D01*
G75*
G02*
X143338500Y-51451500I0J-237500D01*
G01*
G37*
G36*
G01*
X145063500Y-51451500D02*
X145063500Y-51926500D01*
G75*
G02*
X144826000Y-52164000I-237500J0D01*
G01*
X144226000Y-52164000D01*
G75*
G02*
X143988500Y-51926500I0J237500D01*
G01*
X143988500Y-51451500D01*
G75*
G02*
X144226000Y-51214000I237500J0D01*
G01*
X144826000Y-51214000D01*
G75*
G02*
X145063500Y-51451500I0J-237500D01*
G01*
G37*
%TD*%
%TO.C,C7*%
G36*
G01*
X163035000Y-55789500D02*
X162085000Y-55789500D01*
G75*
G02*
X161835000Y-55539500I0J250000D01*
G01*
X161835000Y-54864500D01*
G75*
G02*
X162085000Y-54614500I250000J0D01*
G01*
X163035000Y-54614500D01*
G75*
G02*
X163285000Y-54864500I0J-250000D01*
G01*
X163285000Y-55539500D01*
G75*
G02*
X163035000Y-55789500I-250000J0D01*
G01*
G37*
G36*
G01*
X163035000Y-57864500D02*
X162085000Y-57864500D01*
G75*
G02*
X161835000Y-57614500I0J250000D01*
G01*
X161835000Y-56939500D01*
G75*
G02*
X162085000Y-56689500I250000J0D01*
G01*
X163035000Y-56689500D01*
G75*
G02*
X163285000Y-56939500I0J-250000D01*
G01*
X163285000Y-57614500D01*
G75*
G02*
X163035000Y-57864500I-250000J0D01*
G01*
G37*
%TD*%
%TO.C,C6*%
G36*
G01*
X146267500Y-47394500D02*
X146742500Y-47394500D01*
G75*
G02*
X146980000Y-47632000I0J-237500D01*
G01*
X146980000Y-48232000D01*
G75*
G02*
X146742500Y-48469500I-237500J0D01*
G01*
X146267500Y-48469500D01*
G75*
G02*
X146030000Y-48232000I0J237500D01*
G01*
X146030000Y-47632000D01*
G75*
G02*
X146267500Y-47394500I237500J0D01*
G01*
G37*
G36*
G01*
X146267500Y-49119500D02*
X146742500Y-49119500D01*
G75*
G02*
X146980000Y-49357000I0J-237500D01*
G01*
X146980000Y-49957000D01*
G75*
G02*
X146742500Y-50194500I-237500J0D01*
G01*
X146267500Y-50194500D01*
G75*
G02*
X146030000Y-49957000I0J237500D01*
G01*
X146030000Y-49357000D01*
G75*
G02*
X146267500Y-49119500I237500J0D01*
G01*
G37*
%TD*%
%TO.C,C5*%
G36*
G01*
X135556500Y-56482000D02*
X135556500Y-55532000D01*
G75*
G02*
X135806500Y-55282000I250000J0D01*
G01*
X136481500Y-55282000D01*
G75*
G02*
X136731500Y-55532000I0J-250000D01*
G01*
X136731500Y-56482000D01*
G75*
G02*
X136481500Y-56732000I-250000J0D01*
G01*
X135806500Y-56732000D01*
G75*
G02*
X135556500Y-56482000I0J250000D01*
G01*
G37*
G36*
G01*
X137631500Y-56482000D02*
X137631500Y-55532000D01*
G75*
G02*
X137881500Y-55282000I250000J0D01*
G01*
X138556500Y-55282000D01*
G75*
G02*
X138806500Y-55532000I0J-250000D01*
G01*
X138806500Y-56482000D01*
G75*
G02*
X138556500Y-56732000I-250000J0D01*
G01*
X137881500Y-56732000D01*
G75*
G02*
X137631500Y-56482000I0J250000D01*
G01*
G37*
%TD*%
%TO.C,C4*%
G36*
G01*
X134286500Y-59784000D02*
X134286500Y-58834000D01*
G75*
G02*
X134536500Y-58584000I250000J0D01*
G01*
X135211500Y-58584000D01*
G75*
G02*
X135461500Y-58834000I0J-250000D01*
G01*
X135461500Y-59784000D01*
G75*
G02*
X135211500Y-60034000I-250000J0D01*
G01*
X134536500Y-60034000D01*
G75*
G02*
X134286500Y-59784000I0J250000D01*
G01*
G37*
G36*
G01*
X132211500Y-59784000D02*
X132211500Y-58834000D01*
G75*
G02*
X132461500Y-58584000I250000J0D01*
G01*
X133136500Y-58584000D01*
G75*
G02*
X133386500Y-58834000I0J-250000D01*
G01*
X133386500Y-59784000D01*
G75*
G02*
X133136500Y-60034000I-250000J0D01*
G01*
X132461500Y-60034000D01*
G75*
G02*
X132211500Y-59784000I0J250000D01*
G01*
G37*
%TD*%
%TO.C,C3*%
G36*
G01*
X139017500Y-52484000D02*
X139017500Y-53434000D01*
G75*
G02*
X138767500Y-53684000I-250000J0D01*
G01*
X138092500Y-53684000D01*
G75*
G02*
X137842500Y-53434000I0J250000D01*
G01*
X137842500Y-52484000D01*
G75*
G02*
X138092500Y-52234000I250000J0D01*
G01*
X138767500Y-52234000D01*
G75*
G02*
X139017500Y-52484000I0J-250000D01*
G01*
G37*
G36*
G01*
X136942500Y-52484000D02*
X136942500Y-53434000D01*
G75*
G02*
X136692500Y-53684000I-250000J0D01*
G01*
X136017500Y-53684000D01*
G75*
G02*
X135767500Y-53434000I0J250000D01*
G01*
X135767500Y-52484000D01*
G75*
G02*
X136017500Y-52234000I250000J0D01*
G01*
X136692500Y-52234000D01*
G75*
G02*
X136942500Y-52484000I0J-250000D01*
G01*
G37*
%TD*%
%TO.C,C2*%
G36*
G01*
X126091927Y-47099322D02*
X126763678Y-47771073D01*
G75*
G02*
X126763678Y-48124627I-176777J-176777D01*
G01*
X126286381Y-48601924D01*
G75*
G02*
X125932827Y-48601924I-176777J176777D01*
G01*
X125261076Y-47930173D01*
G75*
G02*
X125261076Y-47576619I176777J176777D01*
G01*
X125738373Y-47099322D01*
G75*
G02*
X126091927Y-47099322I176777J-176777D01*
G01*
G37*
G36*
G01*
X127559173Y-45632076D02*
X128230924Y-46303827D01*
G75*
G02*
X128230924Y-46657381I-176777J-176777D01*
G01*
X127753627Y-47134678D01*
G75*
G02*
X127400073Y-47134678I-176777J176777D01*
G01*
X126728322Y-46462927D01*
G75*
G02*
X126728322Y-46109373I176777J176777D01*
G01*
X127205619Y-45632076D01*
G75*
G02*
X127559173Y-45632076I176777J-176777D01*
G01*
G37*
%TD*%
%TO.C,C1*%
G36*
G01*
X122761550Y-56525699D02*
X123433301Y-57197450D01*
G75*
G02*
X123433301Y-57551004I-176777J-176777D01*
G01*
X122956004Y-58028301D01*
G75*
G02*
X122602450Y-58028301I-176777J176777D01*
G01*
X121930699Y-57356550D01*
G75*
G02*
X121930699Y-57002996I176777J176777D01*
G01*
X122407996Y-56525699D01*
G75*
G02*
X122761550Y-56525699I176777J-176777D01*
G01*
G37*
G36*
G01*
X124228796Y-55058453D02*
X124900547Y-55730204D01*
G75*
G02*
X124900547Y-56083758I-176777J-176777D01*
G01*
X124423250Y-56561055D01*
G75*
G02*
X124069696Y-56561055I-176777J176777D01*
G01*
X123397945Y-55889304D01*
G75*
G02*
X123397945Y-55535750I176777J176777D01*
G01*
X123875242Y-55058453D01*
G75*
G02*
X124228796Y-55058453I176777J-176777D01*
G01*
G37*
%TD*%
D23*
%TO.C,SW9*%
X113011000Y-86722000D03*
X102851000Y-86722000D03*
D24*
X107931000Y-86722000D03*
D25*
X110471000Y-81642000D03*
X104121000Y-84182000D03*
%TD*%
D23*
%TO.C,SW8*%
X89198500Y-86722000D03*
X79038500Y-86722000D03*
D24*
X84118500Y-86722000D03*
D25*
X86658500Y-81642000D03*
X80308500Y-84182000D03*
%TD*%
D23*
%TO.C,SW7*%
X198736000Y-67672000D03*
X188576000Y-67672000D03*
D24*
X193656000Y-67672000D03*
D25*
X196196000Y-62592000D03*
X189846000Y-65132000D03*
%TD*%
D23*
%TO.C,SW6*%
X179686000Y-67672000D03*
X169526000Y-67672000D03*
D24*
X174606000Y-67672000D03*
D25*
X177146000Y-62592000D03*
X170796000Y-65132000D03*
%TD*%
D23*
%TO.C,SW5*%
X160636000Y-67672000D03*
X150476000Y-67672000D03*
D24*
X155556000Y-67672000D03*
D25*
X158096000Y-62592000D03*
X151746000Y-65132000D03*
%TD*%
D23*
%TO.C,SW4*%
X141586000Y-67672000D03*
X131426000Y-67672000D03*
D24*
X136506000Y-67672000D03*
D25*
X139046000Y-62592000D03*
X132696000Y-65132000D03*
%TD*%
D23*
%TO.C,SW33*%
X186829750Y-143872000D03*
X176669750Y-143872000D03*
D24*
X181749750Y-143872000D03*
D25*
X184289750Y-138792000D03*
X177939750Y-141332000D03*
%TD*%
D23*
%TO.C,SW32*%
X155873500Y-143872000D03*
X145713500Y-143872000D03*
D24*
X150793500Y-143872000D03*
D25*
X153333500Y-138792000D03*
X146983500Y-141332000D03*
%TD*%
D23*
%TO.C,SW31*%
X134442250Y-143872000D03*
X124282250Y-143872000D03*
D24*
X129362250Y-143872000D03*
D25*
X131902250Y-138792000D03*
X125552250Y-141332000D03*
%TD*%
D23*
%TO.C,SW30*%
X110629750Y-143872000D03*
X100469750Y-143872000D03*
D24*
X105549750Y-143872000D03*
D25*
X108089750Y-138792000D03*
X101739750Y-141332000D03*
%TD*%
D23*
%TO.C,SW3*%
X122536000Y-67672000D03*
X112376000Y-67672000D03*
D24*
X117456000Y-67672000D03*
D25*
X119996000Y-62592000D03*
X113646000Y-65132000D03*
%TD*%
D23*
%TO.C,SW29*%
X86817250Y-143872000D03*
X76657250Y-143872000D03*
D24*
X81737250Y-143872000D03*
D25*
X84277250Y-138792000D03*
X77927250Y-141332000D03*
%TD*%
D23*
%TO.C,SW28*%
X203498500Y-124822000D03*
X193338500Y-124822000D03*
D24*
X198418500Y-124822000D03*
D25*
X200958500Y-119742000D03*
X194608500Y-122282000D03*
%TD*%
D23*
%TO.C,SW27*%
X184448500Y-124822000D03*
X174288500Y-124822000D03*
D24*
X179368500Y-124822000D03*
D25*
X181908500Y-119742000D03*
X175558500Y-122282000D03*
%TD*%
D23*
%TO.C,SW26*%
X165398500Y-124822000D03*
X155238500Y-124822000D03*
D24*
X160318500Y-124822000D03*
D25*
X162858500Y-119742000D03*
X156508500Y-122282000D03*
%TD*%
D23*
%TO.C,SW25*%
X146348500Y-124822000D03*
X136188500Y-124822000D03*
D24*
X141268500Y-124822000D03*
D25*
X143808500Y-119742000D03*
X137458500Y-122282000D03*
%TD*%
D23*
%TO.C,SW24*%
X127298500Y-124822000D03*
X117138500Y-124822000D03*
D24*
X122218500Y-124822000D03*
D25*
X124758500Y-119742000D03*
X118408500Y-122282000D03*
%TD*%
D23*
%TO.C,SW23*%
X108248500Y-124822000D03*
X98088500Y-124822000D03*
D24*
X103168500Y-124822000D03*
D25*
X105708500Y-119742000D03*
X99358500Y-122282000D03*
%TD*%
D23*
%TO.C,SW22*%
X86817250Y-124822000D03*
X76657250Y-124822000D03*
D24*
X81737250Y-124822000D03*
D25*
X84277250Y-119742000D03*
X77927250Y-122282000D03*
%TD*%
D23*
%TO.C,SW21*%
X213023500Y-105772000D03*
X202863500Y-105772000D03*
D24*
X207943500Y-105772000D03*
D25*
X210483500Y-100692000D03*
X204133500Y-103232000D03*
%TD*%
D23*
%TO.C,SW20*%
X193973500Y-105772000D03*
X183813500Y-105772000D03*
D24*
X188893500Y-105772000D03*
D25*
X191433500Y-100692000D03*
X185083500Y-103232000D03*
%TD*%
D23*
%TO.C,SW2*%
X103486000Y-67672000D03*
X93326000Y-67672000D03*
D24*
X98406000Y-67672000D03*
D25*
X100946000Y-62592000D03*
X94596000Y-65132000D03*
%TD*%
D23*
%TO.C,SW19*%
X174923500Y-105772000D03*
X164763500Y-105772000D03*
D24*
X169843500Y-105772000D03*
D25*
X172383500Y-100692000D03*
X166033500Y-103232000D03*
%TD*%
D23*
%TO.C,SW18*%
X155873500Y-105772000D03*
X145713500Y-105772000D03*
D24*
X150793500Y-105772000D03*
D25*
X153333500Y-100692000D03*
X146983500Y-103232000D03*
%TD*%
D23*
%TO.C,SW17*%
X136823500Y-105772000D03*
X126663500Y-105772000D03*
D24*
X131743500Y-105772000D03*
D25*
X134283500Y-100692000D03*
X127933500Y-103232000D03*
%TD*%
D23*
%TO.C,SW16*%
X117773500Y-105772000D03*
X107613500Y-105772000D03*
D24*
X112693500Y-105772000D03*
D25*
X115233500Y-100692000D03*
X108883500Y-103232000D03*
%TD*%
D23*
%TO.C,SW15*%
X91579750Y-105772000D03*
X81419750Y-105772000D03*
D24*
X86499750Y-105772000D03*
D25*
X89039750Y-100692000D03*
X82689750Y-103232000D03*
%TD*%
D23*
%TO.C,SW14*%
X208261000Y-86722000D03*
X198101000Y-86722000D03*
D24*
X203181000Y-86722000D03*
D25*
X205721000Y-81642000D03*
X199371000Y-84182000D03*
%TD*%
D23*
%TO.C,SW13*%
X189211000Y-86722000D03*
X179051000Y-86722000D03*
D24*
X184131000Y-86722000D03*
D25*
X186671000Y-81642000D03*
X180321000Y-84182000D03*
%TD*%
D23*
%TO.C,SW12*%
X170161000Y-86722000D03*
X160001000Y-86722000D03*
D24*
X165081000Y-86722000D03*
D25*
X167621000Y-81642000D03*
X161271000Y-84182000D03*
%TD*%
D23*
%TO.C,SW11*%
X151111000Y-86722000D03*
X140951000Y-86722000D03*
D24*
X146031000Y-86722000D03*
D25*
X148571000Y-81642000D03*
X142221000Y-84182000D03*
%TD*%
D23*
%TO.C,SW10*%
X132061000Y-86722000D03*
X121901000Y-86722000D03*
D24*
X126981000Y-86722000D03*
D25*
X129521000Y-81642000D03*
X123171000Y-84182000D03*
%TD*%
D23*
%TO.C,SW1*%
X84436000Y-67672000D03*
X74276000Y-67672000D03*
D24*
X79356000Y-67672000D03*
D25*
X81896000Y-62592000D03*
X75546000Y-65132000D03*
%TD*%
D26*
%TO.C,ST33*%
X193687750Y-136887000D03*
X169811750Y-136887000D03*
D27*
X193687750Y-152127000D03*
X169811750Y-152127000D03*
%TD*%
D28*
%TO.C,D9*%
X113011000Y-88652000D03*
X113011000Y-90852000D03*
%TD*%
%TO.C,D8*%
X89198500Y-88652000D03*
X89198500Y-90852000D03*
%TD*%
%TO.C,D7*%
X198736000Y-69602000D03*
X198736000Y-71802000D03*
%TD*%
%TO.C,D6*%
X179686000Y-69602000D03*
X179686000Y-71802000D03*
%TD*%
%TO.C,D5*%
X160636000Y-69602000D03*
X160636000Y-71802000D03*
%TD*%
%TO.C,D4*%
X141586000Y-69602000D03*
X141586000Y-71802000D03*
%TD*%
%TO.C,D33*%
X186829750Y-145802000D03*
X186829750Y-148002000D03*
%TD*%
%TO.C,D32*%
X155873500Y-145802000D03*
X155873500Y-148002000D03*
%TD*%
%TO.C,D31*%
X134442250Y-145802000D03*
X134442250Y-148002000D03*
%TD*%
%TO.C,D30*%
X110629750Y-145802000D03*
X110629750Y-148002000D03*
%TD*%
%TO.C,D3*%
X122536000Y-69602000D03*
X122536000Y-71802000D03*
%TD*%
%TO.C,D29*%
X86817250Y-145802000D03*
X86817250Y-148002000D03*
%TD*%
%TO.C,D28*%
X203498500Y-126752000D03*
X203498500Y-128952000D03*
%TD*%
%TO.C,D27*%
X184448500Y-126752000D03*
X184448500Y-128952000D03*
%TD*%
%TO.C,D26*%
X165398500Y-126752000D03*
X165398500Y-128952000D03*
%TD*%
%TO.C,D25*%
X146348500Y-126752000D03*
X146348500Y-128952000D03*
%TD*%
%TO.C,D24*%
X127298500Y-126752000D03*
X127298500Y-128952000D03*
%TD*%
%TO.C,D23*%
X108248500Y-126752000D03*
X108248500Y-128952000D03*
%TD*%
%TO.C,D22*%
X86817250Y-126752000D03*
X86817250Y-128952000D03*
%TD*%
%TO.C,D21*%
X213023500Y-107702000D03*
X213023500Y-109902000D03*
%TD*%
%TO.C,D20*%
X193973500Y-107702000D03*
X193973500Y-109902000D03*
%TD*%
%TO.C,D2*%
X103486000Y-69602000D03*
X103486000Y-71802000D03*
%TD*%
%TO.C,D19*%
X174923500Y-107702000D03*
X174923500Y-109902000D03*
%TD*%
%TO.C,D18*%
X155873500Y-107702000D03*
X155873500Y-109902000D03*
%TD*%
%TO.C,D17*%
X136823500Y-107702000D03*
X136823500Y-109902000D03*
%TD*%
%TO.C,D16*%
X117773500Y-107702000D03*
X117773500Y-109902000D03*
%TD*%
%TO.C,D15*%
X91579750Y-107702000D03*
X91579750Y-109902000D03*
%TD*%
%TO.C,D14*%
X208261000Y-88652000D03*
X208261000Y-90852000D03*
%TD*%
%TO.C,D13*%
X189211000Y-88652000D03*
X189211000Y-90852000D03*
%TD*%
%TO.C,D12*%
X170161000Y-88652000D03*
X170161000Y-90852000D03*
%TD*%
%TO.C,D11*%
X151111000Y-88652000D03*
X151111000Y-90852000D03*
%TD*%
%TO.C,D10*%
X132061000Y-88652000D03*
X132061000Y-90852000D03*
%TD*%
%TO.C,D1*%
X84436000Y-69602000D03*
X84436000Y-71802000D03*
%TD*%
D29*
%TO.C,Y1*%
X118726000Y-58589000D03*
X118726000Y-54889000D03*
%TD*%
M02*
