%TF.GenerationSoftware,KiCad,Pcbnew,5.1.10*%
%TF.CreationDate,2021-08-04T23:16:11+02:00*%
%TF.ProjectId,keyboard,6b657962-6f61-4726-942e-6b696361645f,rev?*%
%TF.SameCoordinates,Original*%
%TF.FileFunction,Legend,Top*%
%TF.FilePolarity,Positive*%
%FSLAX46Y46*%
G04 Gerber Fmt 4.6, Leading zero omitted, Abs format (unit mm)*
G04 Created by KiCad (PCBNEW 5.1.10) date 2021-08-04 23:16:11*
%MOMM*%
%LPD*%
G01*
G04 APERTURE LIST*
%ADD10C,0.150000*%
%ADD11C,0.120000*%
G04 APERTURE END LIST*
D10*
X91988409Y-46531361D02*
X92131266Y-46578980D01*
X92369361Y-46578980D01*
X92464600Y-46531361D01*
X92512219Y-46483742D01*
X92559838Y-46388504D01*
X92559838Y-46293266D01*
X92512219Y-46198028D01*
X92464600Y-46150409D01*
X92369361Y-46102790D01*
X92178885Y-46055171D01*
X92083647Y-46007552D01*
X92036028Y-45959933D01*
X91988409Y-45864695D01*
X91988409Y-45769457D01*
X92036028Y-45674219D01*
X92083647Y-45626600D01*
X92178885Y-45578980D01*
X92416980Y-45578980D01*
X92559838Y-45626600D01*
X92845552Y-45578980D02*
X93416980Y-45578980D01*
X93131266Y-46578980D02*
X93131266Y-45578980D01*
X93702695Y-46293266D02*
X94178885Y-46293266D01*
X93607457Y-46578980D02*
X93940790Y-45578980D01*
X94274123Y-46578980D01*
X94464600Y-45578980D02*
X95036028Y-45578980D01*
X94750314Y-46578980D02*
X94750314Y-45578980D01*
X95369361Y-45578980D02*
X95369361Y-46388504D01*
X95416980Y-46483742D01*
X95464600Y-46531361D01*
X95559838Y-46578980D01*
X95750314Y-46578980D01*
X95845552Y-46531361D01*
X95893171Y-46483742D01*
X95940790Y-46388504D01*
X95940790Y-45578980D01*
X96369361Y-46531361D02*
X96512219Y-46578980D01*
X96750314Y-46578980D01*
X96845552Y-46531361D01*
X96893171Y-46483742D01*
X96940790Y-46388504D01*
X96940790Y-46293266D01*
X96893171Y-46198028D01*
X96845552Y-46150409D01*
X96750314Y-46102790D01*
X96559838Y-46055171D01*
X96464600Y-46007552D01*
X96416980Y-45959933D01*
X96369361Y-45864695D01*
X96369361Y-45769457D01*
X96416980Y-45674219D01*
X96464600Y-45626600D01*
X96559838Y-45578980D01*
X96797933Y-45578980D01*
X96940790Y-45626600D01*
X101600552Y-46451980D02*
X101124361Y-46451980D01*
X101124361Y-45451980D01*
X101933885Y-45928171D02*
X102267219Y-45928171D01*
X102410076Y-46451980D02*
X101933885Y-46451980D01*
X101933885Y-45451980D01*
X102410076Y-45451980D01*
X102838647Y-46451980D02*
X102838647Y-45451980D01*
X103076742Y-45451980D01*
X103219600Y-45499600D01*
X103314838Y-45594838D01*
X103362457Y-45690076D01*
X103410076Y-45880552D01*
X103410076Y-46023409D01*
X103362457Y-46213885D01*
X103314838Y-46309123D01*
X103219600Y-46404361D01*
X103076742Y-46451980D01*
X102838647Y-46451980D01*
X104362457Y-46451980D02*
X103791028Y-46451980D01*
X104076742Y-46451980D02*
X104076742Y-45451980D01*
X103981504Y-45594838D01*
X103886266Y-45690076D01*
X103791028Y-45737695D01*
X109601552Y-46451980D02*
X109125361Y-46451980D01*
X109125361Y-45451980D01*
X109934885Y-45928171D02*
X110268219Y-45928171D01*
X110411076Y-46451980D02*
X109934885Y-46451980D01*
X109934885Y-45451980D01*
X110411076Y-45451980D01*
X110839647Y-46451980D02*
X110839647Y-45451980D01*
X111077742Y-45451980D01*
X111220600Y-45499600D01*
X111315838Y-45594838D01*
X111363457Y-45690076D01*
X111411076Y-45880552D01*
X111411076Y-46023409D01*
X111363457Y-46213885D01*
X111315838Y-46309123D01*
X111220600Y-46404361D01*
X111077742Y-46451980D01*
X110839647Y-46451980D01*
X111792028Y-45547219D02*
X111839647Y-45499600D01*
X111934885Y-45451980D01*
X112172980Y-45451980D01*
X112268219Y-45499600D01*
X112315838Y-45547219D01*
X112363457Y-45642457D01*
X112363457Y-45737695D01*
X112315838Y-45880552D01*
X111744409Y-46451980D01*
X112363457Y-46451980D01*
D11*
%TO.C,LD3*%
X109632600Y-47539600D02*
X109632600Y-50399600D01*
X109632600Y-50399600D02*
X111552600Y-50399600D01*
X111552600Y-50399600D02*
X111552600Y-47539600D01*
%TO.C,LD2*%
X101632600Y-47539600D02*
X101632600Y-50399600D01*
X101632600Y-50399600D02*
X103552600Y-50399600D01*
X103552600Y-50399600D02*
X103552600Y-47539600D01*
%TO.C,LD1*%
X95552600Y-50399600D02*
X95552600Y-47539600D01*
X93632600Y-50399600D02*
X95552600Y-50399600D01*
X93632600Y-47539600D02*
X93632600Y-50399600D01*
%TO.C,SW9*%
X100831000Y-79622000D02*
X100831000Y-93822000D01*
X100831000Y-93822000D02*
X115031000Y-93822000D01*
X115031000Y-93822000D02*
X115031000Y-79622000D01*
X115031000Y-79622000D02*
X100831000Y-79622000D01*
%TO.C,SW8*%
X77018500Y-79622000D02*
X77018500Y-93822000D01*
X77018500Y-93822000D02*
X91218500Y-93822000D01*
X91218500Y-93822000D02*
X91218500Y-79622000D01*
X91218500Y-79622000D02*
X77018500Y-79622000D01*
%TO.C,SW7*%
X186556000Y-60572000D02*
X186556000Y-74772000D01*
X186556000Y-74772000D02*
X200756000Y-74772000D01*
X200756000Y-74772000D02*
X200756000Y-60572000D01*
X200756000Y-60572000D02*
X186556000Y-60572000D01*
%TO.C,SW6*%
X167506000Y-60572000D02*
X167506000Y-74772000D01*
X167506000Y-74772000D02*
X181706000Y-74772000D01*
X181706000Y-74772000D02*
X181706000Y-60572000D01*
X181706000Y-60572000D02*
X167506000Y-60572000D01*
%TO.C,SW5*%
X148456000Y-60572000D02*
X148456000Y-74772000D01*
X148456000Y-74772000D02*
X162656000Y-74772000D01*
X162656000Y-74772000D02*
X162656000Y-60572000D01*
X162656000Y-60572000D02*
X148456000Y-60572000D01*
%TO.C,SW4*%
X129406000Y-60572000D02*
X129406000Y-74772000D01*
X129406000Y-74772000D02*
X143606000Y-74772000D01*
X143606000Y-74772000D02*
X143606000Y-60572000D01*
X143606000Y-60572000D02*
X129406000Y-60572000D01*
%TO.C,SW33*%
X174649750Y-136772000D02*
X174649750Y-150972000D01*
X174649750Y-150972000D02*
X188849750Y-150972000D01*
X188849750Y-150972000D02*
X188849750Y-136772000D01*
X188849750Y-136772000D02*
X174649750Y-136772000D01*
%TO.C,SW32*%
X143693500Y-136772000D02*
X143693500Y-150972000D01*
X143693500Y-150972000D02*
X157893500Y-150972000D01*
X157893500Y-150972000D02*
X157893500Y-136772000D01*
X157893500Y-136772000D02*
X143693500Y-136772000D01*
%TO.C,SW31*%
X122262250Y-136772000D02*
X122262250Y-150972000D01*
X122262250Y-150972000D02*
X136462250Y-150972000D01*
X136462250Y-150972000D02*
X136462250Y-136772000D01*
X136462250Y-136772000D02*
X122262250Y-136772000D01*
%TO.C,SW30*%
X98449750Y-136772000D02*
X98449750Y-150972000D01*
X98449750Y-150972000D02*
X112649750Y-150972000D01*
X112649750Y-150972000D02*
X112649750Y-136772000D01*
X112649750Y-136772000D02*
X98449750Y-136772000D01*
%TO.C,SW3*%
X110356000Y-60572000D02*
X110356000Y-74772000D01*
X110356000Y-74772000D02*
X124556000Y-74772000D01*
X124556000Y-74772000D02*
X124556000Y-60572000D01*
X124556000Y-60572000D02*
X110356000Y-60572000D01*
%TO.C,SW29*%
X74637250Y-136772000D02*
X74637250Y-150972000D01*
X74637250Y-150972000D02*
X88837250Y-150972000D01*
X88837250Y-150972000D02*
X88837250Y-136772000D01*
X88837250Y-136772000D02*
X74637250Y-136772000D01*
%TO.C,SW28*%
X191318500Y-117722000D02*
X191318500Y-131922000D01*
X191318500Y-131922000D02*
X205518500Y-131922000D01*
X205518500Y-131922000D02*
X205518500Y-117722000D01*
X205518500Y-117722000D02*
X191318500Y-117722000D01*
%TO.C,SW27*%
X172268500Y-117722000D02*
X172268500Y-131922000D01*
X172268500Y-131922000D02*
X186468500Y-131922000D01*
X186468500Y-131922000D02*
X186468500Y-117722000D01*
X186468500Y-117722000D02*
X172268500Y-117722000D01*
%TO.C,SW26*%
X153218500Y-117722000D02*
X153218500Y-131922000D01*
X153218500Y-131922000D02*
X167418500Y-131922000D01*
X167418500Y-131922000D02*
X167418500Y-117722000D01*
X167418500Y-117722000D02*
X153218500Y-117722000D01*
%TO.C,SW25*%
X134168500Y-117722000D02*
X134168500Y-131922000D01*
X134168500Y-131922000D02*
X148368500Y-131922000D01*
X148368500Y-131922000D02*
X148368500Y-117722000D01*
X148368500Y-117722000D02*
X134168500Y-117722000D01*
%TO.C,SW24*%
X115118500Y-117722000D02*
X115118500Y-131922000D01*
X115118500Y-131922000D02*
X129318500Y-131922000D01*
X129318500Y-131922000D02*
X129318500Y-117722000D01*
X129318500Y-117722000D02*
X115118500Y-117722000D01*
%TO.C,SW23*%
X96068500Y-117722000D02*
X96068500Y-131922000D01*
X96068500Y-131922000D02*
X110268500Y-131922000D01*
X110268500Y-131922000D02*
X110268500Y-117722000D01*
X110268500Y-117722000D02*
X96068500Y-117722000D01*
%TO.C,SW22*%
X74637250Y-117722000D02*
X74637250Y-131922000D01*
X74637250Y-131922000D02*
X88837250Y-131922000D01*
X88837250Y-131922000D02*
X88837250Y-117722000D01*
X88837250Y-117722000D02*
X74637250Y-117722000D01*
%TO.C,SW21*%
X200843500Y-98672000D02*
X200843500Y-112872000D01*
X200843500Y-112872000D02*
X215043500Y-112872000D01*
X215043500Y-112872000D02*
X215043500Y-98672000D01*
X215043500Y-98672000D02*
X200843500Y-98672000D01*
%TO.C,SW20*%
X181793500Y-98672000D02*
X181793500Y-112872000D01*
X181793500Y-112872000D02*
X195993500Y-112872000D01*
X195993500Y-112872000D02*
X195993500Y-98672000D01*
X195993500Y-98672000D02*
X181793500Y-98672000D01*
%TO.C,SW2*%
X91306000Y-60572000D02*
X91306000Y-74772000D01*
X91306000Y-74772000D02*
X105506000Y-74772000D01*
X105506000Y-74772000D02*
X105506000Y-60572000D01*
X105506000Y-60572000D02*
X91306000Y-60572000D01*
%TO.C,SW19*%
X162743500Y-98672000D02*
X162743500Y-112872000D01*
X162743500Y-112872000D02*
X176943500Y-112872000D01*
X176943500Y-112872000D02*
X176943500Y-98672000D01*
X176943500Y-98672000D02*
X162743500Y-98672000D01*
%TO.C,SW18*%
X143693500Y-98672000D02*
X143693500Y-112872000D01*
X143693500Y-112872000D02*
X157893500Y-112872000D01*
X157893500Y-112872000D02*
X157893500Y-98672000D01*
X157893500Y-98672000D02*
X143693500Y-98672000D01*
%TO.C,SW17*%
X124643500Y-98672000D02*
X124643500Y-112872000D01*
X124643500Y-112872000D02*
X138843500Y-112872000D01*
X138843500Y-112872000D02*
X138843500Y-98672000D01*
X138843500Y-98672000D02*
X124643500Y-98672000D01*
%TO.C,SW16*%
X105593500Y-98672000D02*
X105593500Y-112872000D01*
X105593500Y-112872000D02*
X119793500Y-112872000D01*
X119793500Y-112872000D02*
X119793500Y-98672000D01*
X119793500Y-98672000D02*
X105593500Y-98672000D01*
%TO.C,SW15*%
X79399750Y-98672000D02*
X79399750Y-112872000D01*
X79399750Y-112872000D02*
X93599750Y-112872000D01*
X93599750Y-112872000D02*
X93599750Y-98672000D01*
X93599750Y-98672000D02*
X79399750Y-98672000D01*
%TO.C,SW14*%
X196081000Y-79622000D02*
X196081000Y-93822000D01*
X196081000Y-93822000D02*
X210281000Y-93822000D01*
X210281000Y-93822000D02*
X210281000Y-79622000D01*
X210281000Y-79622000D02*
X196081000Y-79622000D01*
%TO.C,SW13*%
X177031000Y-79622000D02*
X177031000Y-93822000D01*
X177031000Y-93822000D02*
X191231000Y-93822000D01*
X191231000Y-93822000D02*
X191231000Y-79622000D01*
X191231000Y-79622000D02*
X177031000Y-79622000D01*
%TO.C,SW12*%
X157981000Y-79622000D02*
X157981000Y-93822000D01*
X157981000Y-93822000D02*
X172181000Y-93822000D01*
X172181000Y-93822000D02*
X172181000Y-79622000D01*
X172181000Y-79622000D02*
X157981000Y-79622000D01*
%TO.C,SW11*%
X138931000Y-79622000D02*
X138931000Y-93822000D01*
X138931000Y-93822000D02*
X153131000Y-93822000D01*
X153131000Y-93822000D02*
X153131000Y-79622000D01*
X153131000Y-79622000D02*
X138931000Y-79622000D01*
%TO.C,SW10*%
X119881000Y-79622000D02*
X119881000Y-93822000D01*
X119881000Y-93822000D02*
X134081000Y-93822000D01*
X134081000Y-93822000D02*
X134081000Y-79622000D01*
X134081000Y-79622000D02*
X119881000Y-79622000D01*
%TO.C,SW1*%
X72256000Y-60572000D02*
X72256000Y-74772000D01*
X72256000Y-74772000D02*
X86456000Y-74772000D01*
X86456000Y-74772000D02*
X86456000Y-60572000D01*
X86456000Y-60572000D02*
X72256000Y-60572000D01*
%TO.C,LD3*%
D10*
X109394980Y-49206266D02*
X109394980Y-49682457D01*
X108394980Y-49682457D01*
X109394980Y-48872933D02*
X108394980Y-48872933D01*
X108394980Y-48634838D01*
X108442600Y-48491980D01*
X108537838Y-48396742D01*
X108633076Y-48349123D01*
X108823552Y-48301504D01*
X108966409Y-48301504D01*
X109156885Y-48349123D01*
X109252123Y-48396742D01*
X109347361Y-48491980D01*
X109394980Y-48634838D01*
X109394980Y-48872933D01*
X108394980Y-47968171D02*
X108394980Y-47349123D01*
X108775933Y-47682457D01*
X108775933Y-47539600D01*
X108823552Y-47444361D01*
X108871171Y-47396742D01*
X108966409Y-47349123D01*
X109204504Y-47349123D01*
X109299742Y-47396742D01*
X109347361Y-47444361D01*
X109394980Y-47539600D01*
X109394980Y-47825314D01*
X109347361Y-47920552D01*
X109299742Y-47968171D01*
%TO.C,LD2*%
X101394980Y-49206266D02*
X101394980Y-49682457D01*
X100394980Y-49682457D01*
X101394980Y-48872933D02*
X100394980Y-48872933D01*
X100394980Y-48634838D01*
X100442600Y-48491980D01*
X100537838Y-48396742D01*
X100633076Y-48349123D01*
X100823552Y-48301504D01*
X100966409Y-48301504D01*
X101156885Y-48349123D01*
X101252123Y-48396742D01*
X101347361Y-48491980D01*
X101394980Y-48634838D01*
X101394980Y-48872933D01*
X100490219Y-47920552D02*
X100442600Y-47872933D01*
X100394980Y-47777695D01*
X100394980Y-47539600D01*
X100442600Y-47444361D01*
X100490219Y-47396742D01*
X100585457Y-47349123D01*
X100680695Y-47349123D01*
X100823552Y-47396742D01*
X101394980Y-47968171D01*
X101394980Y-47349123D01*
%TO.C,LD1*%
X93394980Y-49206266D02*
X93394980Y-49682457D01*
X92394980Y-49682457D01*
X93394980Y-48872933D02*
X92394980Y-48872933D01*
X92394980Y-48634838D01*
X92442600Y-48491980D01*
X92537838Y-48396742D01*
X92633076Y-48349123D01*
X92823552Y-48301504D01*
X92966409Y-48301504D01*
X93156885Y-48349123D01*
X93252123Y-48396742D01*
X93347361Y-48491980D01*
X93394980Y-48634838D01*
X93394980Y-48872933D01*
X93394980Y-47349123D02*
X93394980Y-47920552D01*
X93394980Y-47634838D02*
X92394980Y-47634838D01*
X92537838Y-47730076D01*
X92633076Y-47825314D01*
X92680695Y-47920552D01*
%TO.C,SW9*%
X106597666Y-79126761D02*
X106740523Y-79174380D01*
X106978619Y-79174380D01*
X107073857Y-79126761D01*
X107121476Y-79079142D01*
X107169095Y-78983904D01*
X107169095Y-78888666D01*
X107121476Y-78793428D01*
X107073857Y-78745809D01*
X106978619Y-78698190D01*
X106788142Y-78650571D01*
X106692904Y-78602952D01*
X106645285Y-78555333D01*
X106597666Y-78460095D01*
X106597666Y-78364857D01*
X106645285Y-78269619D01*
X106692904Y-78222000D01*
X106788142Y-78174380D01*
X107026238Y-78174380D01*
X107169095Y-78222000D01*
X107502428Y-78174380D02*
X107740523Y-79174380D01*
X107931000Y-78460095D01*
X108121476Y-79174380D01*
X108359571Y-78174380D01*
X108788142Y-79174380D02*
X108978619Y-79174380D01*
X109073857Y-79126761D01*
X109121476Y-79079142D01*
X109216714Y-78936285D01*
X109264333Y-78745809D01*
X109264333Y-78364857D01*
X109216714Y-78269619D01*
X109169095Y-78222000D01*
X109073857Y-78174380D01*
X108883380Y-78174380D01*
X108788142Y-78222000D01*
X108740523Y-78269619D01*
X108692904Y-78364857D01*
X108692904Y-78602952D01*
X108740523Y-78698190D01*
X108788142Y-78745809D01*
X108883380Y-78793428D01*
X109073857Y-78793428D01*
X109169095Y-78745809D01*
X109216714Y-78698190D01*
X109264333Y-78602952D01*
%TO.C,SW8*%
X82785166Y-79126761D02*
X82928023Y-79174380D01*
X83166119Y-79174380D01*
X83261357Y-79126761D01*
X83308976Y-79079142D01*
X83356595Y-78983904D01*
X83356595Y-78888666D01*
X83308976Y-78793428D01*
X83261357Y-78745809D01*
X83166119Y-78698190D01*
X82975642Y-78650571D01*
X82880404Y-78602952D01*
X82832785Y-78555333D01*
X82785166Y-78460095D01*
X82785166Y-78364857D01*
X82832785Y-78269619D01*
X82880404Y-78222000D01*
X82975642Y-78174380D01*
X83213738Y-78174380D01*
X83356595Y-78222000D01*
X83689928Y-78174380D02*
X83928023Y-79174380D01*
X84118500Y-78460095D01*
X84308976Y-79174380D01*
X84547071Y-78174380D01*
X85070880Y-78602952D02*
X84975642Y-78555333D01*
X84928023Y-78507714D01*
X84880404Y-78412476D01*
X84880404Y-78364857D01*
X84928023Y-78269619D01*
X84975642Y-78222000D01*
X85070880Y-78174380D01*
X85261357Y-78174380D01*
X85356595Y-78222000D01*
X85404214Y-78269619D01*
X85451833Y-78364857D01*
X85451833Y-78412476D01*
X85404214Y-78507714D01*
X85356595Y-78555333D01*
X85261357Y-78602952D01*
X85070880Y-78602952D01*
X84975642Y-78650571D01*
X84928023Y-78698190D01*
X84880404Y-78793428D01*
X84880404Y-78983904D01*
X84928023Y-79079142D01*
X84975642Y-79126761D01*
X85070880Y-79174380D01*
X85261357Y-79174380D01*
X85356595Y-79126761D01*
X85404214Y-79079142D01*
X85451833Y-78983904D01*
X85451833Y-78793428D01*
X85404214Y-78698190D01*
X85356595Y-78650571D01*
X85261357Y-78602952D01*
%TO.C,SW7*%
X192322666Y-60076761D02*
X192465523Y-60124380D01*
X192703619Y-60124380D01*
X192798857Y-60076761D01*
X192846476Y-60029142D01*
X192894095Y-59933904D01*
X192894095Y-59838666D01*
X192846476Y-59743428D01*
X192798857Y-59695809D01*
X192703619Y-59648190D01*
X192513142Y-59600571D01*
X192417904Y-59552952D01*
X192370285Y-59505333D01*
X192322666Y-59410095D01*
X192322666Y-59314857D01*
X192370285Y-59219619D01*
X192417904Y-59172000D01*
X192513142Y-59124380D01*
X192751238Y-59124380D01*
X192894095Y-59172000D01*
X193227428Y-59124380D02*
X193465523Y-60124380D01*
X193656000Y-59410095D01*
X193846476Y-60124380D01*
X194084571Y-59124380D01*
X194370285Y-59124380D02*
X195036952Y-59124380D01*
X194608380Y-60124380D01*
%TO.C,SW6*%
X173272666Y-60076761D02*
X173415523Y-60124380D01*
X173653619Y-60124380D01*
X173748857Y-60076761D01*
X173796476Y-60029142D01*
X173844095Y-59933904D01*
X173844095Y-59838666D01*
X173796476Y-59743428D01*
X173748857Y-59695809D01*
X173653619Y-59648190D01*
X173463142Y-59600571D01*
X173367904Y-59552952D01*
X173320285Y-59505333D01*
X173272666Y-59410095D01*
X173272666Y-59314857D01*
X173320285Y-59219619D01*
X173367904Y-59172000D01*
X173463142Y-59124380D01*
X173701238Y-59124380D01*
X173844095Y-59172000D01*
X174177428Y-59124380D02*
X174415523Y-60124380D01*
X174606000Y-59410095D01*
X174796476Y-60124380D01*
X175034571Y-59124380D01*
X175844095Y-59124380D02*
X175653619Y-59124380D01*
X175558380Y-59172000D01*
X175510761Y-59219619D01*
X175415523Y-59362476D01*
X175367904Y-59552952D01*
X175367904Y-59933904D01*
X175415523Y-60029142D01*
X175463142Y-60076761D01*
X175558380Y-60124380D01*
X175748857Y-60124380D01*
X175844095Y-60076761D01*
X175891714Y-60029142D01*
X175939333Y-59933904D01*
X175939333Y-59695809D01*
X175891714Y-59600571D01*
X175844095Y-59552952D01*
X175748857Y-59505333D01*
X175558380Y-59505333D01*
X175463142Y-59552952D01*
X175415523Y-59600571D01*
X175367904Y-59695809D01*
%TO.C,SW5*%
X154222666Y-60076761D02*
X154365523Y-60124380D01*
X154603619Y-60124380D01*
X154698857Y-60076761D01*
X154746476Y-60029142D01*
X154794095Y-59933904D01*
X154794095Y-59838666D01*
X154746476Y-59743428D01*
X154698857Y-59695809D01*
X154603619Y-59648190D01*
X154413142Y-59600571D01*
X154317904Y-59552952D01*
X154270285Y-59505333D01*
X154222666Y-59410095D01*
X154222666Y-59314857D01*
X154270285Y-59219619D01*
X154317904Y-59172000D01*
X154413142Y-59124380D01*
X154651238Y-59124380D01*
X154794095Y-59172000D01*
X155127428Y-59124380D02*
X155365523Y-60124380D01*
X155556000Y-59410095D01*
X155746476Y-60124380D01*
X155984571Y-59124380D01*
X156841714Y-59124380D02*
X156365523Y-59124380D01*
X156317904Y-59600571D01*
X156365523Y-59552952D01*
X156460761Y-59505333D01*
X156698857Y-59505333D01*
X156794095Y-59552952D01*
X156841714Y-59600571D01*
X156889333Y-59695809D01*
X156889333Y-59933904D01*
X156841714Y-60029142D01*
X156794095Y-60076761D01*
X156698857Y-60124380D01*
X156460761Y-60124380D01*
X156365523Y-60076761D01*
X156317904Y-60029142D01*
%TO.C,SW4*%
X135172666Y-60076761D02*
X135315523Y-60124380D01*
X135553619Y-60124380D01*
X135648857Y-60076761D01*
X135696476Y-60029142D01*
X135744095Y-59933904D01*
X135744095Y-59838666D01*
X135696476Y-59743428D01*
X135648857Y-59695809D01*
X135553619Y-59648190D01*
X135363142Y-59600571D01*
X135267904Y-59552952D01*
X135220285Y-59505333D01*
X135172666Y-59410095D01*
X135172666Y-59314857D01*
X135220285Y-59219619D01*
X135267904Y-59172000D01*
X135363142Y-59124380D01*
X135601238Y-59124380D01*
X135744095Y-59172000D01*
X136077428Y-59124380D02*
X136315523Y-60124380D01*
X136506000Y-59410095D01*
X136696476Y-60124380D01*
X136934571Y-59124380D01*
X137744095Y-59457714D02*
X137744095Y-60124380D01*
X137506000Y-59076761D02*
X137267904Y-59791047D01*
X137886952Y-59791047D01*
%TO.C,SW33*%
X179940226Y-136276761D02*
X180083083Y-136324380D01*
X180321178Y-136324380D01*
X180416416Y-136276761D01*
X180464035Y-136229142D01*
X180511654Y-136133904D01*
X180511654Y-136038666D01*
X180464035Y-135943428D01*
X180416416Y-135895809D01*
X180321178Y-135848190D01*
X180130702Y-135800571D01*
X180035464Y-135752952D01*
X179987845Y-135705333D01*
X179940226Y-135610095D01*
X179940226Y-135514857D01*
X179987845Y-135419619D01*
X180035464Y-135372000D01*
X180130702Y-135324380D01*
X180368797Y-135324380D01*
X180511654Y-135372000D01*
X180844988Y-135324380D02*
X181083083Y-136324380D01*
X181273559Y-135610095D01*
X181464035Y-136324380D01*
X181702130Y-135324380D01*
X181987845Y-135324380D02*
X182606892Y-135324380D01*
X182273559Y-135705333D01*
X182416416Y-135705333D01*
X182511654Y-135752952D01*
X182559273Y-135800571D01*
X182606892Y-135895809D01*
X182606892Y-136133904D01*
X182559273Y-136229142D01*
X182511654Y-136276761D01*
X182416416Y-136324380D01*
X182130702Y-136324380D01*
X182035464Y-136276761D01*
X181987845Y-136229142D01*
X182940226Y-135324380D02*
X183559273Y-135324380D01*
X183225940Y-135705333D01*
X183368797Y-135705333D01*
X183464035Y-135752952D01*
X183511654Y-135800571D01*
X183559273Y-135895809D01*
X183559273Y-136133904D01*
X183511654Y-136229142D01*
X183464035Y-136276761D01*
X183368797Y-136324380D01*
X183083083Y-136324380D01*
X182987845Y-136276761D01*
X182940226Y-136229142D01*
%TO.C,SW32*%
X148983976Y-136276761D02*
X149126833Y-136324380D01*
X149364928Y-136324380D01*
X149460166Y-136276761D01*
X149507785Y-136229142D01*
X149555404Y-136133904D01*
X149555404Y-136038666D01*
X149507785Y-135943428D01*
X149460166Y-135895809D01*
X149364928Y-135848190D01*
X149174452Y-135800571D01*
X149079214Y-135752952D01*
X149031595Y-135705333D01*
X148983976Y-135610095D01*
X148983976Y-135514857D01*
X149031595Y-135419619D01*
X149079214Y-135372000D01*
X149174452Y-135324380D01*
X149412547Y-135324380D01*
X149555404Y-135372000D01*
X149888738Y-135324380D02*
X150126833Y-136324380D01*
X150317309Y-135610095D01*
X150507785Y-136324380D01*
X150745880Y-135324380D01*
X151031595Y-135324380D02*
X151650642Y-135324380D01*
X151317309Y-135705333D01*
X151460166Y-135705333D01*
X151555404Y-135752952D01*
X151603023Y-135800571D01*
X151650642Y-135895809D01*
X151650642Y-136133904D01*
X151603023Y-136229142D01*
X151555404Y-136276761D01*
X151460166Y-136324380D01*
X151174452Y-136324380D01*
X151079214Y-136276761D01*
X151031595Y-136229142D01*
X152031595Y-135419619D02*
X152079214Y-135372000D01*
X152174452Y-135324380D01*
X152412547Y-135324380D01*
X152507785Y-135372000D01*
X152555404Y-135419619D01*
X152603023Y-135514857D01*
X152603023Y-135610095D01*
X152555404Y-135752952D01*
X151983976Y-136324380D01*
X152603023Y-136324380D01*
%TO.C,SW31*%
X127552726Y-136276761D02*
X127695583Y-136324380D01*
X127933678Y-136324380D01*
X128028916Y-136276761D01*
X128076535Y-136229142D01*
X128124154Y-136133904D01*
X128124154Y-136038666D01*
X128076535Y-135943428D01*
X128028916Y-135895809D01*
X127933678Y-135848190D01*
X127743202Y-135800571D01*
X127647964Y-135752952D01*
X127600345Y-135705333D01*
X127552726Y-135610095D01*
X127552726Y-135514857D01*
X127600345Y-135419619D01*
X127647964Y-135372000D01*
X127743202Y-135324380D01*
X127981297Y-135324380D01*
X128124154Y-135372000D01*
X128457488Y-135324380D02*
X128695583Y-136324380D01*
X128886059Y-135610095D01*
X129076535Y-136324380D01*
X129314630Y-135324380D01*
X129600345Y-135324380D02*
X130219392Y-135324380D01*
X129886059Y-135705333D01*
X130028916Y-135705333D01*
X130124154Y-135752952D01*
X130171773Y-135800571D01*
X130219392Y-135895809D01*
X130219392Y-136133904D01*
X130171773Y-136229142D01*
X130124154Y-136276761D01*
X130028916Y-136324380D01*
X129743202Y-136324380D01*
X129647964Y-136276761D01*
X129600345Y-136229142D01*
X131171773Y-136324380D02*
X130600345Y-136324380D01*
X130886059Y-136324380D02*
X130886059Y-135324380D01*
X130790821Y-135467238D01*
X130695583Y-135562476D01*
X130600345Y-135610095D01*
%TO.C,SW30*%
X103740226Y-136276761D02*
X103883083Y-136324380D01*
X104121178Y-136324380D01*
X104216416Y-136276761D01*
X104264035Y-136229142D01*
X104311654Y-136133904D01*
X104311654Y-136038666D01*
X104264035Y-135943428D01*
X104216416Y-135895809D01*
X104121178Y-135848190D01*
X103930702Y-135800571D01*
X103835464Y-135752952D01*
X103787845Y-135705333D01*
X103740226Y-135610095D01*
X103740226Y-135514857D01*
X103787845Y-135419619D01*
X103835464Y-135372000D01*
X103930702Y-135324380D01*
X104168797Y-135324380D01*
X104311654Y-135372000D01*
X104644988Y-135324380D02*
X104883083Y-136324380D01*
X105073559Y-135610095D01*
X105264035Y-136324380D01*
X105502130Y-135324380D01*
X105787845Y-135324380D02*
X106406892Y-135324380D01*
X106073559Y-135705333D01*
X106216416Y-135705333D01*
X106311654Y-135752952D01*
X106359273Y-135800571D01*
X106406892Y-135895809D01*
X106406892Y-136133904D01*
X106359273Y-136229142D01*
X106311654Y-136276761D01*
X106216416Y-136324380D01*
X105930702Y-136324380D01*
X105835464Y-136276761D01*
X105787845Y-136229142D01*
X107025940Y-135324380D02*
X107121178Y-135324380D01*
X107216416Y-135372000D01*
X107264035Y-135419619D01*
X107311654Y-135514857D01*
X107359273Y-135705333D01*
X107359273Y-135943428D01*
X107311654Y-136133904D01*
X107264035Y-136229142D01*
X107216416Y-136276761D01*
X107121178Y-136324380D01*
X107025940Y-136324380D01*
X106930702Y-136276761D01*
X106883083Y-136229142D01*
X106835464Y-136133904D01*
X106787845Y-135943428D01*
X106787845Y-135705333D01*
X106835464Y-135514857D01*
X106883083Y-135419619D01*
X106930702Y-135372000D01*
X107025940Y-135324380D01*
%TO.C,SW3*%
X116122666Y-60076761D02*
X116265523Y-60124380D01*
X116503619Y-60124380D01*
X116598857Y-60076761D01*
X116646476Y-60029142D01*
X116694095Y-59933904D01*
X116694095Y-59838666D01*
X116646476Y-59743428D01*
X116598857Y-59695809D01*
X116503619Y-59648190D01*
X116313142Y-59600571D01*
X116217904Y-59552952D01*
X116170285Y-59505333D01*
X116122666Y-59410095D01*
X116122666Y-59314857D01*
X116170285Y-59219619D01*
X116217904Y-59172000D01*
X116313142Y-59124380D01*
X116551238Y-59124380D01*
X116694095Y-59172000D01*
X117027428Y-59124380D02*
X117265523Y-60124380D01*
X117456000Y-59410095D01*
X117646476Y-60124380D01*
X117884571Y-59124380D01*
X118170285Y-59124380D02*
X118789333Y-59124380D01*
X118456000Y-59505333D01*
X118598857Y-59505333D01*
X118694095Y-59552952D01*
X118741714Y-59600571D01*
X118789333Y-59695809D01*
X118789333Y-59933904D01*
X118741714Y-60029142D01*
X118694095Y-60076761D01*
X118598857Y-60124380D01*
X118313142Y-60124380D01*
X118217904Y-60076761D01*
X118170285Y-60029142D01*
%TO.C,SW29*%
X79927726Y-136276761D02*
X80070583Y-136324380D01*
X80308678Y-136324380D01*
X80403916Y-136276761D01*
X80451535Y-136229142D01*
X80499154Y-136133904D01*
X80499154Y-136038666D01*
X80451535Y-135943428D01*
X80403916Y-135895809D01*
X80308678Y-135848190D01*
X80118202Y-135800571D01*
X80022964Y-135752952D01*
X79975345Y-135705333D01*
X79927726Y-135610095D01*
X79927726Y-135514857D01*
X79975345Y-135419619D01*
X80022964Y-135372000D01*
X80118202Y-135324380D01*
X80356297Y-135324380D01*
X80499154Y-135372000D01*
X80832488Y-135324380D02*
X81070583Y-136324380D01*
X81261059Y-135610095D01*
X81451535Y-136324380D01*
X81689630Y-135324380D01*
X82022964Y-135419619D02*
X82070583Y-135372000D01*
X82165821Y-135324380D01*
X82403916Y-135324380D01*
X82499154Y-135372000D01*
X82546773Y-135419619D01*
X82594392Y-135514857D01*
X82594392Y-135610095D01*
X82546773Y-135752952D01*
X81975345Y-136324380D01*
X82594392Y-136324380D01*
X83070583Y-136324380D02*
X83261059Y-136324380D01*
X83356297Y-136276761D01*
X83403916Y-136229142D01*
X83499154Y-136086285D01*
X83546773Y-135895809D01*
X83546773Y-135514857D01*
X83499154Y-135419619D01*
X83451535Y-135372000D01*
X83356297Y-135324380D01*
X83165821Y-135324380D01*
X83070583Y-135372000D01*
X83022964Y-135419619D01*
X82975345Y-135514857D01*
X82975345Y-135752952D01*
X83022964Y-135848190D01*
X83070583Y-135895809D01*
X83165821Y-135943428D01*
X83356297Y-135943428D01*
X83451535Y-135895809D01*
X83499154Y-135848190D01*
X83546773Y-135752952D01*
%TO.C,SW28*%
X196608976Y-117226761D02*
X196751833Y-117274380D01*
X196989928Y-117274380D01*
X197085166Y-117226761D01*
X197132785Y-117179142D01*
X197180404Y-117083904D01*
X197180404Y-116988666D01*
X197132785Y-116893428D01*
X197085166Y-116845809D01*
X196989928Y-116798190D01*
X196799452Y-116750571D01*
X196704214Y-116702952D01*
X196656595Y-116655333D01*
X196608976Y-116560095D01*
X196608976Y-116464857D01*
X196656595Y-116369619D01*
X196704214Y-116322000D01*
X196799452Y-116274380D01*
X197037547Y-116274380D01*
X197180404Y-116322000D01*
X197513738Y-116274380D02*
X197751833Y-117274380D01*
X197942309Y-116560095D01*
X198132785Y-117274380D01*
X198370880Y-116274380D01*
X198704214Y-116369619D02*
X198751833Y-116322000D01*
X198847071Y-116274380D01*
X199085166Y-116274380D01*
X199180404Y-116322000D01*
X199228023Y-116369619D01*
X199275642Y-116464857D01*
X199275642Y-116560095D01*
X199228023Y-116702952D01*
X198656595Y-117274380D01*
X199275642Y-117274380D01*
X199847071Y-116702952D02*
X199751833Y-116655333D01*
X199704214Y-116607714D01*
X199656595Y-116512476D01*
X199656595Y-116464857D01*
X199704214Y-116369619D01*
X199751833Y-116322000D01*
X199847071Y-116274380D01*
X200037547Y-116274380D01*
X200132785Y-116322000D01*
X200180404Y-116369619D01*
X200228023Y-116464857D01*
X200228023Y-116512476D01*
X200180404Y-116607714D01*
X200132785Y-116655333D01*
X200037547Y-116702952D01*
X199847071Y-116702952D01*
X199751833Y-116750571D01*
X199704214Y-116798190D01*
X199656595Y-116893428D01*
X199656595Y-117083904D01*
X199704214Y-117179142D01*
X199751833Y-117226761D01*
X199847071Y-117274380D01*
X200037547Y-117274380D01*
X200132785Y-117226761D01*
X200180404Y-117179142D01*
X200228023Y-117083904D01*
X200228023Y-116893428D01*
X200180404Y-116798190D01*
X200132785Y-116750571D01*
X200037547Y-116702952D01*
%TO.C,SW27*%
X177558976Y-117226761D02*
X177701833Y-117274380D01*
X177939928Y-117274380D01*
X178035166Y-117226761D01*
X178082785Y-117179142D01*
X178130404Y-117083904D01*
X178130404Y-116988666D01*
X178082785Y-116893428D01*
X178035166Y-116845809D01*
X177939928Y-116798190D01*
X177749452Y-116750571D01*
X177654214Y-116702952D01*
X177606595Y-116655333D01*
X177558976Y-116560095D01*
X177558976Y-116464857D01*
X177606595Y-116369619D01*
X177654214Y-116322000D01*
X177749452Y-116274380D01*
X177987547Y-116274380D01*
X178130404Y-116322000D01*
X178463738Y-116274380D02*
X178701833Y-117274380D01*
X178892309Y-116560095D01*
X179082785Y-117274380D01*
X179320880Y-116274380D01*
X179654214Y-116369619D02*
X179701833Y-116322000D01*
X179797071Y-116274380D01*
X180035166Y-116274380D01*
X180130404Y-116322000D01*
X180178023Y-116369619D01*
X180225642Y-116464857D01*
X180225642Y-116560095D01*
X180178023Y-116702952D01*
X179606595Y-117274380D01*
X180225642Y-117274380D01*
X180558976Y-116274380D02*
X181225642Y-116274380D01*
X180797071Y-117274380D01*
%TO.C,SW26*%
X158508976Y-117226761D02*
X158651833Y-117274380D01*
X158889928Y-117274380D01*
X158985166Y-117226761D01*
X159032785Y-117179142D01*
X159080404Y-117083904D01*
X159080404Y-116988666D01*
X159032785Y-116893428D01*
X158985166Y-116845809D01*
X158889928Y-116798190D01*
X158699452Y-116750571D01*
X158604214Y-116702952D01*
X158556595Y-116655333D01*
X158508976Y-116560095D01*
X158508976Y-116464857D01*
X158556595Y-116369619D01*
X158604214Y-116322000D01*
X158699452Y-116274380D01*
X158937547Y-116274380D01*
X159080404Y-116322000D01*
X159413738Y-116274380D02*
X159651833Y-117274380D01*
X159842309Y-116560095D01*
X160032785Y-117274380D01*
X160270880Y-116274380D01*
X160604214Y-116369619D02*
X160651833Y-116322000D01*
X160747071Y-116274380D01*
X160985166Y-116274380D01*
X161080404Y-116322000D01*
X161128023Y-116369619D01*
X161175642Y-116464857D01*
X161175642Y-116560095D01*
X161128023Y-116702952D01*
X160556595Y-117274380D01*
X161175642Y-117274380D01*
X162032785Y-116274380D02*
X161842309Y-116274380D01*
X161747071Y-116322000D01*
X161699452Y-116369619D01*
X161604214Y-116512476D01*
X161556595Y-116702952D01*
X161556595Y-117083904D01*
X161604214Y-117179142D01*
X161651833Y-117226761D01*
X161747071Y-117274380D01*
X161937547Y-117274380D01*
X162032785Y-117226761D01*
X162080404Y-117179142D01*
X162128023Y-117083904D01*
X162128023Y-116845809D01*
X162080404Y-116750571D01*
X162032785Y-116702952D01*
X161937547Y-116655333D01*
X161747071Y-116655333D01*
X161651833Y-116702952D01*
X161604214Y-116750571D01*
X161556595Y-116845809D01*
%TO.C,SW25*%
X139458976Y-117226761D02*
X139601833Y-117274380D01*
X139839928Y-117274380D01*
X139935166Y-117226761D01*
X139982785Y-117179142D01*
X140030404Y-117083904D01*
X140030404Y-116988666D01*
X139982785Y-116893428D01*
X139935166Y-116845809D01*
X139839928Y-116798190D01*
X139649452Y-116750571D01*
X139554214Y-116702952D01*
X139506595Y-116655333D01*
X139458976Y-116560095D01*
X139458976Y-116464857D01*
X139506595Y-116369619D01*
X139554214Y-116322000D01*
X139649452Y-116274380D01*
X139887547Y-116274380D01*
X140030404Y-116322000D01*
X140363738Y-116274380D02*
X140601833Y-117274380D01*
X140792309Y-116560095D01*
X140982785Y-117274380D01*
X141220880Y-116274380D01*
X141554214Y-116369619D02*
X141601833Y-116322000D01*
X141697071Y-116274380D01*
X141935166Y-116274380D01*
X142030404Y-116322000D01*
X142078023Y-116369619D01*
X142125642Y-116464857D01*
X142125642Y-116560095D01*
X142078023Y-116702952D01*
X141506595Y-117274380D01*
X142125642Y-117274380D01*
X143030404Y-116274380D02*
X142554214Y-116274380D01*
X142506595Y-116750571D01*
X142554214Y-116702952D01*
X142649452Y-116655333D01*
X142887547Y-116655333D01*
X142982785Y-116702952D01*
X143030404Y-116750571D01*
X143078023Y-116845809D01*
X143078023Y-117083904D01*
X143030404Y-117179142D01*
X142982785Y-117226761D01*
X142887547Y-117274380D01*
X142649452Y-117274380D01*
X142554214Y-117226761D01*
X142506595Y-117179142D01*
%TO.C,SW24*%
X120408976Y-117226761D02*
X120551833Y-117274380D01*
X120789928Y-117274380D01*
X120885166Y-117226761D01*
X120932785Y-117179142D01*
X120980404Y-117083904D01*
X120980404Y-116988666D01*
X120932785Y-116893428D01*
X120885166Y-116845809D01*
X120789928Y-116798190D01*
X120599452Y-116750571D01*
X120504214Y-116702952D01*
X120456595Y-116655333D01*
X120408976Y-116560095D01*
X120408976Y-116464857D01*
X120456595Y-116369619D01*
X120504214Y-116322000D01*
X120599452Y-116274380D01*
X120837547Y-116274380D01*
X120980404Y-116322000D01*
X121313738Y-116274380D02*
X121551833Y-117274380D01*
X121742309Y-116560095D01*
X121932785Y-117274380D01*
X122170880Y-116274380D01*
X122504214Y-116369619D02*
X122551833Y-116322000D01*
X122647071Y-116274380D01*
X122885166Y-116274380D01*
X122980404Y-116322000D01*
X123028023Y-116369619D01*
X123075642Y-116464857D01*
X123075642Y-116560095D01*
X123028023Y-116702952D01*
X122456595Y-117274380D01*
X123075642Y-117274380D01*
X123932785Y-116607714D02*
X123932785Y-117274380D01*
X123694690Y-116226761D02*
X123456595Y-116941047D01*
X124075642Y-116941047D01*
%TO.C,SW23*%
X101358976Y-117226761D02*
X101501833Y-117274380D01*
X101739928Y-117274380D01*
X101835166Y-117226761D01*
X101882785Y-117179142D01*
X101930404Y-117083904D01*
X101930404Y-116988666D01*
X101882785Y-116893428D01*
X101835166Y-116845809D01*
X101739928Y-116798190D01*
X101549452Y-116750571D01*
X101454214Y-116702952D01*
X101406595Y-116655333D01*
X101358976Y-116560095D01*
X101358976Y-116464857D01*
X101406595Y-116369619D01*
X101454214Y-116322000D01*
X101549452Y-116274380D01*
X101787547Y-116274380D01*
X101930404Y-116322000D01*
X102263738Y-116274380D02*
X102501833Y-117274380D01*
X102692309Y-116560095D01*
X102882785Y-117274380D01*
X103120880Y-116274380D01*
X103454214Y-116369619D02*
X103501833Y-116322000D01*
X103597071Y-116274380D01*
X103835166Y-116274380D01*
X103930404Y-116322000D01*
X103978023Y-116369619D01*
X104025642Y-116464857D01*
X104025642Y-116560095D01*
X103978023Y-116702952D01*
X103406595Y-117274380D01*
X104025642Y-117274380D01*
X104358976Y-116274380D02*
X104978023Y-116274380D01*
X104644690Y-116655333D01*
X104787547Y-116655333D01*
X104882785Y-116702952D01*
X104930404Y-116750571D01*
X104978023Y-116845809D01*
X104978023Y-117083904D01*
X104930404Y-117179142D01*
X104882785Y-117226761D01*
X104787547Y-117274380D01*
X104501833Y-117274380D01*
X104406595Y-117226761D01*
X104358976Y-117179142D01*
%TO.C,SW22*%
X79927726Y-117226761D02*
X80070583Y-117274380D01*
X80308678Y-117274380D01*
X80403916Y-117226761D01*
X80451535Y-117179142D01*
X80499154Y-117083904D01*
X80499154Y-116988666D01*
X80451535Y-116893428D01*
X80403916Y-116845809D01*
X80308678Y-116798190D01*
X80118202Y-116750571D01*
X80022964Y-116702952D01*
X79975345Y-116655333D01*
X79927726Y-116560095D01*
X79927726Y-116464857D01*
X79975345Y-116369619D01*
X80022964Y-116322000D01*
X80118202Y-116274380D01*
X80356297Y-116274380D01*
X80499154Y-116322000D01*
X80832488Y-116274380D02*
X81070583Y-117274380D01*
X81261059Y-116560095D01*
X81451535Y-117274380D01*
X81689630Y-116274380D01*
X82022964Y-116369619D02*
X82070583Y-116322000D01*
X82165821Y-116274380D01*
X82403916Y-116274380D01*
X82499154Y-116322000D01*
X82546773Y-116369619D01*
X82594392Y-116464857D01*
X82594392Y-116560095D01*
X82546773Y-116702952D01*
X81975345Y-117274380D01*
X82594392Y-117274380D01*
X82975345Y-116369619D02*
X83022964Y-116322000D01*
X83118202Y-116274380D01*
X83356297Y-116274380D01*
X83451535Y-116322000D01*
X83499154Y-116369619D01*
X83546773Y-116464857D01*
X83546773Y-116560095D01*
X83499154Y-116702952D01*
X82927726Y-117274380D01*
X83546773Y-117274380D01*
%TO.C,SW21*%
X206133976Y-98176761D02*
X206276833Y-98224380D01*
X206514928Y-98224380D01*
X206610166Y-98176761D01*
X206657785Y-98129142D01*
X206705404Y-98033904D01*
X206705404Y-97938666D01*
X206657785Y-97843428D01*
X206610166Y-97795809D01*
X206514928Y-97748190D01*
X206324452Y-97700571D01*
X206229214Y-97652952D01*
X206181595Y-97605333D01*
X206133976Y-97510095D01*
X206133976Y-97414857D01*
X206181595Y-97319619D01*
X206229214Y-97272000D01*
X206324452Y-97224380D01*
X206562547Y-97224380D01*
X206705404Y-97272000D01*
X207038738Y-97224380D02*
X207276833Y-98224380D01*
X207467309Y-97510095D01*
X207657785Y-98224380D01*
X207895880Y-97224380D01*
X208229214Y-97319619D02*
X208276833Y-97272000D01*
X208372071Y-97224380D01*
X208610166Y-97224380D01*
X208705404Y-97272000D01*
X208753023Y-97319619D01*
X208800642Y-97414857D01*
X208800642Y-97510095D01*
X208753023Y-97652952D01*
X208181595Y-98224380D01*
X208800642Y-98224380D01*
X209753023Y-98224380D02*
X209181595Y-98224380D01*
X209467309Y-98224380D02*
X209467309Y-97224380D01*
X209372071Y-97367238D01*
X209276833Y-97462476D01*
X209181595Y-97510095D01*
%TO.C,SW20*%
X187083976Y-98176761D02*
X187226833Y-98224380D01*
X187464928Y-98224380D01*
X187560166Y-98176761D01*
X187607785Y-98129142D01*
X187655404Y-98033904D01*
X187655404Y-97938666D01*
X187607785Y-97843428D01*
X187560166Y-97795809D01*
X187464928Y-97748190D01*
X187274452Y-97700571D01*
X187179214Y-97652952D01*
X187131595Y-97605333D01*
X187083976Y-97510095D01*
X187083976Y-97414857D01*
X187131595Y-97319619D01*
X187179214Y-97272000D01*
X187274452Y-97224380D01*
X187512547Y-97224380D01*
X187655404Y-97272000D01*
X187988738Y-97224380D02*
X188226833Y-98224380D01*
X188417309Y-97510095D01*
X188607785Y-98224380D01*
X188845880Y-97224380D01*
X189179214Y-97319619D02*
X189226833Y-97272000D01*
X189322071Y-97224380D01*
X189560166Y-97224380D01*
X189655404Y-97272000D01*
X189703023Y-97319619D01*
X189750642Y-97414857D01*
X189750642Y-97510095D01*
X189703023Y-97652952D01*
X189131595Y-98224380D01*
X189750642Y-98224380D01*
X190369690Y-97224380D02*
X190464928Y-97224380D01*
X190560166Y-97272000D01*
X190607785Y-97319619D01*
X190655404Y-97414857D01*
X190703023Y-97605333D01*
X190703023Y-97843428D01*
X190655404Y-98033904D01*
X190607785Y-98129142D01*
X190560166Y-98176761D01*
X190464928Y-98224380D01*
X190369690Y-98224380D01*
X190274452Y-98176761D01*
X190226833Y-98129142D01*
X190179214Y-98033904D01*
X190131595Y-97843428D01*
X190131595Y-97605333D01*
X190179214Y-97414857D01*
X190226833Y-97319619D01*
X190274452Y-97272000D01*
X190369690Y-97224380D01*
%TO.C,SW2*%
X97072666Y-60076761D02*
X97215523Y-60124380D01*
X97453619Y-60124380D01*
X97548857Y-60076761D01*
X97596476Y-60029142D01*
X97644095Y-59933904D01*
X97644095Y-59838666D01*
X97596476Y-59743428D01*
X97548857Y-59695809D01*
X97453619Y-59648190D01*
X97263142Y-59600571D01*
X97167904Y-59552952D01*
X97120285Y-59505333D01*
X97072666Y-59410095D01*
X97072666Y-59314857D01*
X97120285Y-59219619D01*
X97167904Y-59172000D01*
X97263142Y-59124380D01*
X97501238Y-59124380D01*
X97644095Y-59172000D01*
X97977428Y-59124380D02*
X98215523Y-60124380D01*
X98406000Y-59410095D01*
X98596476Y-60124380D01*
X98834571Y-59124380D01*
X99167904Y-59219619D02*
X99215523Y-59172000D01*
X99310761Y-59124380D01*
X99548857Y-59124380D01*
X99644095Y-59172000D01*
X99691714Y-59219619D01*
X99739333Y-59314857D01*
X99739333Y-59410095D01*
X99691714Y-59552952D01*
X99120285Y-60124380D01*
X99739333Y-60124380D01*
%TO.C,SW19*%
X168033976Y-98176761D02*
X168176833Y-98224380D01*
X168414928Y-98224380D01*
X168510166Y-98176761D01*
X168557785Y-98129142D01*
X168605404Y-98033904D01*
X168605404Y-97938666D01*
X168557785Y-97843428D01*
X168510166Y-97795809D01*
X168414928Y-97748190D01*
X168224452Y-97700571D01*
X168129214Y-97652952D01*
X168081595Y-97605333D01*
X168033976Y-97510095D01*
X168033976Y-97414857D01*
X168081595Y-97319619D01*
X168129214Y-97272000D01*
X168224452Y-97224380D01*
X168462547Y-97224380D01*
X168605404Y-97272000D01*
X168938738Y-97224380D02*
X169176833Y-98224380D01*
X169367309Y-97510095D01*
X169557785Y-98224380D01*
X169795880Y-97224380D01*
X170700642Y-98224380D02*
X170129214Y-98224380D01*
X170414928Y-98224380D02*
X170414928Y-97224380D01*
X170319690Y-97367238D01*
X170224452Y-97462476D01*
X170129214Y-97510095D01*
X171176833Y-98224380D02*
X171367309Y-98224380D01*
X171462547Y-98176761D01*
X171510166Y-98129142D01*
X171605404Y-97986285D01*
X171653023Y-97795809D01*
X171653023Y-97414857D01*
X171605404Y-97319619D01*
X171557785Y-97272000D01*
X171462547Y-97224380D01*
X171272071Y-97224380D01*
X171176833Y-97272000D01*
X171129214Y-97319619D01*
X171081595Y-97414857D01*
X171081595Y-97652952D01*
X171129214Y-97748190D01*
X171176833Y-97795809D01*
X171272071Y-97843428D01*
X171462547Y-97843428D01*
X171557785Y-97795809D01*
X171605404Y-97748190D01*
X171653023Y-97652952D01*
%TO.C,SW18*%
X148983976Y-98176761D02*
X149126833Y-98224380D01*
X149364928Y-98224380D01*
X149460166Y-98176761D01*
X149507785Y-98129142D01*
X149555404Y-98033904D01*
X149555404Y-97938666D01*
X149507785Y-97843428D01*
X149460166Y-97795809D01*
X149364928Y-97748190D01*
X149174452Y-97700571D01*
X149079214Y-97652952D01*
X149031595Y-97605333D01*
X148983976Y-97510095D01*
X148983976Y-97414857D01*
X149031595Y-97319619D01*
X149079214Y-97272000D01*
X149174452Y-97224380D01*
X149412547Y-97224380D01*
X149555404Y-97272000D01*
X149888738Y-97224380D02*
X150126833Y-98224380D01*
X150317309Y-97510095D01*
X150507785Y-98224380D01*
X150745880Y-97224380D01*
X151650642Y-98224380D02*
X151079214Y-98224380D01*
X151364928Y-98224380D02*
X151364928Y-97224380D01*
X151269690Y-97367238D01*
X151174452Y-97462476D01*
X151079214Y-97510095D01*
X152222071Y-97652952D02*
X152126833Y-97605333D01*
X152079214Y-97557714D01*
X152031595Y-97462476D01*
X152031595Y-97414857D01*
X152079214Y-97319619D01*
X152126833Y-97272000D01*
X152222071Y-97224380D01*
X152412547Y-97224380D01*
X152507785Y-97272000D01*
X152555404Y-97319619D01*
X152603023Y-97414857D01*
X152603023Y-97462476D01*
X152555404Y-97557714D01*
X152507785Y-97605333D01*
X152412547Y-97652952D01*
X152222071Y-97652952D01*
X152126833Y-97700571D01*
X152079214Y-97748190D01*
X152031595Y-97843428D01*
X152031595Y-98033904D01*
X152079214Y-98129142D01*
X152126833Y-98176761D01*
X152222071Y-98224380D01*
X152412547Y-98224380D01*
X152507785Y-98176761D01*
X152555404Y-98129142D01*
X152603023Y-98033904D01*
X152603023Y-97843428D01*
X152555404Y-97748190D01*
X152507785Y-97700571D01*
X152412547Y-97652952D01*
%TO.C,SW17*%
X129933976Y-98176761D02*
X130076833Y-98224380D01*
X130314928Y-98224380D01*
X130410166Y-98176761D01*
X130457785Y-98129142D01*
X130505404Y-98033904D01*
X130505404Y-97938666D01*
X130457785Y-97843428D01*
X130410166Y-97795809D01*
X130314928Y-97748190D01*
X130124452Y-97700571D01*
X130029214Y-97652952D01*
X129981595Y-97605333D01*
X129933976Y-97510095D01*
X129933976Y-97414857D01*
X129981595Y-97319619D01*
X130029214Y-97272000D01*
X130124452Y-97224380D01*
X130362547Y-97224380D01*
X130505404Y-97272000D01*
X130838738Y-97224380D02*
X131076833Y-98224380D01*
X131267309Y-97510095D01*
X131457785Y-98224380D01*
X131695880Y-97224380D01*
X132600642Y-98224380D02*
X132029214Y-98224380D01*
X132314928Y-98224380D02*
X132314928Y-97224380D01*
X132219690Y-97367238D01*
X132124452Y-97462476D01*
X132029214Y-97510095D01*
X132933976Y-97224380D02*
X133600642Y-97224380D01*
X133172071Y-98224380D01*
%TO.C,SW16*%
X110883976Y-98176761D02*
X111026833Y-98224380D01*
X111264928Y-98224380D01*
X111360166Y-98176761D01*
X111407785Y-98129142D01*
X111455404Y-98033904D01*
X111455404Y-97938666D01*
X111407785Y-97843428D01*
X111360166Y-97795809D01*
X111264928Y-97748190D01*
X111074452Y-97700571D01*
X110979214Y-97652952D01*
X110931595Y-97605333D01*
X110883976Y-97510095D01*
X110883976Y-97414857D01*
X110931595Y-97319619D01*
X110979214Y-97272000D01*
X111074452Y-97224380D01*
X111312547Y-97224380D01*
X111455404Y-97272000D01*
X111788738Y-97224380D02*
X112026833Y-98224380D01*
X112217309Y-97510095D01*
X112407785Y-98224380D01*
X112645880Y-97224380D01*
X113550642Y-98224380D02*
X112979214Y-98224380D01*
X113264928Y-98224380D02*
X113264928Y-97224380D01*
X113169690Y-97367238D01*
X113074452Y-97462476D01*
X112979214Y-97510095D01*
X114407785Y-97224380D02*
X114217309Y-97224380D01*
X114122071Y-97272000D01*
X114074452Y-97319619D01*
X113979214Y-97462476D01*
X113931595Y-97652952D01*
X113931595Y-98033904D01*
X113979214Y-98129142D01*
X114026833Y-98176761D01*
X114122071Y-98224380D01*
X114312547Y-98224380D01*
X114407785Y-98176761D01*
X114455404Y-98129142D01*
X114503023Y-98033904D01*
X114503023Y-97795809D01*
X114455404Y-97700571D01*
X114407785Y-97652952D01*
X114312547Y-97605333D01*
X114122071Y-97605333D01*
X114026833Y-97652952D01*
X113979214Y-97700571D01*
X113931595Y-97795809D01*
%TO.C,SW15*%
X84690226Y-98176761D02*
X84833083Y-98224380D01*
X85071178Y-98224380D01*
X85166416Y-98176761D01*
X85214035Y-98129142D01*
X85261654Y-98033904D01*
X85261654Y-97938666D01*
X85214035Y-97843428D01*
X85166416Y-97795809D01*
X85071178Y-97748190D01*
X84880702Y-97700571D01*
X84785464Y-97652952D01*
X84737845Y-97605333D01*
X84690226Y-97510095D01*
X84690226Y-97414857D01*
X84737845Y-97319619D01*
X84785464Y-97272000D01*
X84880702Y-97224380D01*
X85118797Y-97224380D01*
X85261654Y-97272000D01*
X85594988Y-97224380D02*
X85833083Y-98224380D01*
X86023559Y-97510095D01*
X86214035Y-98224380D01*
X86452130Y-97224380D01*
X87356892Y-98224380D02*
X86785464Y-98224380D01*
X87071178Y-98224380D02*
X87071178Y-97224380D01*
X86975940Y-97367238D01*
X86880702Y-97462476D01*
X86785464Y-97510095D01*
X88261654Y-97224380D02*
X87785464Y-97224380D01*
X87737845Y-97700571D01*
X87785464Y-97652952D01*
X87880702Y-97605333D01*
X88118797Y-97605333D01*
X88214035Y-97652952D01*
X88261654Y-97700571D01*
X88309273Y-97795809D01*
X88309273Y-98033904D01*
X88261654Y-98129142D01*
X88214035Y-98176761D01*
X88118797Y-98224380D01*
X87880702Y-98224380D01*
X87785464Y-98176761D01*
X87737845Y-98129142D01*
%TO.C,SW14*%
X201371476Y-79126761D02*
X201514333Y-79174380D01*
X201752428Y-79174380D01*
X201847666Y-79126761D01*
X201895285Y-79079142D01*
X201942904Y-78983904D01*
X201942904Y-78888666D01*
X201895285Y-78793428D01*
X201847666Y-78745809D01*
X201752428Y-78698190D01*
X201561952Y-78650571D01*
X201466714Y-78602952D01*
X201419095Y-78555333D01*
X201371476Y-78460095D01*
X201371476Y-78364857D01*
X201419095Y-78269619D01*
X201466714Y-78222000D01*
X201561952Y-78174380D01*
X201800047Y-78174380D01*
X201942904Y-78222000D01*
X202276238Y-78174380D02*
X202514333Y-79174380D01*
X202704809Y-78460095D01*
X202895285Y-79174380D01*
X203133380Y-78174380D01*
X204038142Y-79174380D02*
X203466714Y-79174380D01*
X203752428Y-79174380D02*
X203752428Y-78174380D01*
X203657190Y-78317238D01*
X203561952Y-78412476D01*
X203466714Y-78460095D01*
X204895285Y-78507714D02*
X204895285Y-79174380D01*
X204657190Y-78126761D02*
X204419095Y-78841047D01*
X205038142Y-78841047D01*
%TO.C,SW13*%
X182321476Y-79126761D02*
X182464333Y-79174380D01*
X182702428Y-79174380D01*
X182797666Y-79126761D01*
X182845285Y-79079142D01*
X182892904Y-78983904D01*
X182892904Y-78888666D01*
X182845285Y-78793428D01*
X182797666Y-78745809D01*
X182702428Y-78698190D01*
X182511952Y-78650571D01*
X182416714Y-78602952D01*
X182369095Y-78555333D01*
X182321476Y-78460095D01*
X182321476Y-78364857D01*
X182369095Y-78269619D01*
X182416714Y-78222000D01*
X182511952Y-78174380D01*
X182750047Y-78174380D01*
X182892904Y-78222000D01*
X183226238Y-78174380D02*
X183464333Y-79174380D01*
X183654809Y-78460095D01*
X183845285Y-79174380D01*
X184083380Y-78174380D01*
X184988142Y-79174380D02*
X184416714Y-79174380D01*
X184702428Y-79174380D02*
X184702428Y-78174380D01*
X184607190Y-78317238D01*
X184511952Y-78412476D01*
X184416714Y-78460095D01*
X185321476Y-78174380D02*
X185940523Y-78174380D01*
X185607190Y-78555333D01*
X185750047Y-78555333D01*
X185845285Y-78602952D01*
X185892904Y-78650571D01*
X185940523Y-78745809D01*
X185940523Y-78983904D01*
X185892904Y-79079142D01*
X185845285Y-79126761D01*
X185750047Y-79174380D01*
X185464333Y-79174380D01*
X185369095Y-79126761D01*
X185321476Y-79079142D01*
%TO.C,SW12*%
X163271476Y-79126761D02*
X163414333Y-79174380D01*
X163652428Y-79174380D01*
X163747666Y-79126761D01*
X163795285Y-79079142D01*
X163842904Y-78983904D01*
X163842904Y-78888666D01*
X163795285Y-78793428D01*
X163747666Y-78745809D01*
X163652428Y-78698190D01*
X163461952Y-78650571D01*
X163366714Y-78602952D01*
X163319095Y-78555333D01*
X163271476Y-78460095D01*
X163271476Y-78364857D01*
X163319095Y-78269619D01*
X163366714Y-78222000D01*
X163461952Y-78174380D01*
X163700047Y-78174380D01*
X163842904Y-78222000D01*
X164176238Y-78174380D02*
X164414333Y-79174380D01*
X164604809Y-78460095D01*
X164795285Y-79174380D01*
X165033380Y-78174380D01*
X165938142Y-79174380D02*
X165366714Y-79174380D01*
X165652428Y-79174380D02*
X165652428Y-78174380D01*
X165557190Y-78317238D01*
X165461952Y-78412476D01*
X165366714Y-78460095D01*
X166319095Y-78269619D02*
X166366714Y-78222000D01*
X166461952Y-78174380D01*
X166700047Y-78174380D01*
X166795285Y-78222000D01*
X166842904Y-78269619D01*
X166890523Y-78364857D01*
X166890523Y-78460095D01*
X166842904Y-78602952D01*
X166271476Y-79174380D01*
X166890523Y-79174380D01*
%TO.C,SW11*%
X144221476Y-79126761D02*
X144364333Y-79174380D01*
X144602428Y-79174380D01*
X144697666Y-79126761D01*
X144745285Y-79079142D01*
X144792904Y-78983904D01*
X144792904Y-78888666D01*
X144745285Y-78793428D01*
X144697666Y-78745809D01*
X144602428Y-78698190D01*
X144411952Y-78650571D01*
X144316714Y-78602952D01*
X144269095Y-78555333D01*
X144221476Y-78460095D01*
X144221476Y-78364857D01*
X144269095Y-78269619D01*
X144316714Y-78222000D01*
X144411952Y-78174380D01*
X144650047Y-78174380D01*
X144792904Y-78222000D01*
X145126238Y-78174380D02*
X145364333Y-79174380D01*
X145554809Y-78460095D01*
X145745285Y-79174380D01*
X145983380Y-78174380D01*
X146888142Y-79174380D02*
X146316714Y-79174380D01*
X146602428Y-79174380D02*
X146602428Y-78174380D01*
X146507190Y-78317238D01*
X146411952Y-78412476D01*
X146316714Y-78460095D01*
X147840523Y-79174380D02*
X147269095Y-79174380D01*
X147554809Y-79174380D02*
X147554809Y-78174380D01*
X147459571Y-78317238D01*
X147364333Y-78412476D01*
X147269095Y-78460095D01*
%TO.C,SW10*%
X125171476Y-79126761D02*
X125314333Y-79174380D01*
X125552428Y-79174380D01*
X125647666Y-79126761D01*
X125695285Y-79079142D01*
X125742904Y-78983904D01*
X125742904Y-78888666D01*
X125695285Y-78793428D01*
X125647666Y-78745809D01*
X125552428Y-78698190D01*
X125361952Y-78650571D01*
X125266714Y-78602952D01*
X125219095Y-78555333D01*
X125171476Y-78460095D01*
X125171476Y-78364857D01*
X125219095Y-78269619D01*
X125266714Y-78222000D01*
X125361952Y-78174380D01*
X125600047Y-78174380D01*
X125742904Y-78222000D01*
X126076238Y-78174380D02*
X126314333Y-79174380D01*
X126504809Y-78460095D01*
X126695285Y-79174380D01*
X126933380Y-78174380D01*
X127838142Y-79174380D02*
X127266714Y-79174380D01*
X127552428Y-79174380D02*
X127552428Y-78174380D01*
X127457190Y-78317238D01*
X127361952Y-78412476D01*
X127266714Y-78460095D01*
X128457190Y-78174380D02*
X128552428Y-78174380D01*
X128647666Y-78222000D01*
X128695285Y-78269619D01*
X128742904Y-78364857D01*
X128790523Y-78555333D01*
X128790523Y-78793428D01*
X128742904Y-78983904D01*
X128695285Y-79079142D01*
X128647666Y-79126761D01*
X128552428Y-79174380D01*
X128457190Y-79174380D01*
X128361952Y-79126761D01*
X128314333Y-79079142D01*
X128266714Y-78983904D01*
X128219095Y-78793428D01*
X128219095Y-78555333D01*
X128266714Y-78364857D01*
X128314333Y-78269619D01*
X128361952Y-78222000D01*
X128457190Y-78174380D01*
%TO.C,SW1*%
X78022666Y-60076761D02*
X78165523Y-60124380D01*
X78403619Y-60124380D01*
X78498857Y-60076761D01*
X78546476Y-60029142D01*
X78594095Y-59933904D01*
X78594095Y-59838666D01*
X78546476Y-59743428D01*
X78498857Y-59695809D01*
X78403619Y-59648190D01*
X78213142Y-59600571D01*
X78117904Y-59552952D01*
X78070285Y-59505333D01*
X78022666Y-59410095D01*
X78022666Y-59314857D01*
X78070285Y-59219619D01*
X78117904Y-59172000D01*
X78213142Y-59124380D01*
X78451238Y-59124380D01*
X78594095Y-59172000D01*
X78927428Y-59124380D02*
X79165523Y-60124380D01*
X79356000Y-59410095D01*
X79546476Y-60124380D01*
X79784571Y-59124380D01*
X80689333Y-60124380D02*
X80117904Y-60124380D01*
X80403619Y-60124380D02*
X80403619Y-59124380D01*
X80308380Y-59267238D01*
X80213142Y-59362476D01*
X80117904Y-59410095D01*
%TO.C,ST33*%
X180130702Y-141276761D02*
X180273559Y-141324380D01*
X180511654Y-141324380D01*
X180606892Y-141276761D01*
X180654511Y-141229142D01*
X180702130Y-141133904D01*
X180702130Y-141038666D01*
X180654511Y-140943428D01*
X180606892Y-140895809D01*
X180511654Y-140848190D01*
X180321178Y-140800571D01*
X180225940Y-140752952D01*
X180178321Y-140705333D01*
X180130702Y-140610095D01*
X180130702Y-140514857D01*
X180178321Y-140419619D01*
X180225940Y-140372000D01*
X180321178Y-140324380D01*
X180559273Y-140324380D01*
X180702130Y-140372000D01*
X180987845Y-140324380D02*
X181559273Y-140324380D01*
X181273559Y-141324380D02*
X181273559Y-140324380D01*
X181797369Y-140324380D02*
X182416416Y-140324380D01*
X182083083Y-140705333D01*
X182225940Y-140705333D01*
X182321178Y-140752952D01*
X182368797Y-140800571D01*
X182416416Y-140895809D01*
X182416416Y-141133904D01*
X182368797Y-141229142D01*
X182321178Y-141276761D01*
X182225940Y-141324380D01*
X181940226Y-141324380D01*
X181844988Y-141276761D01*
X181797369Y-141229142D01*
X182749750Y-140324380D02*
X183368797Y-140324380D01*
X183035464Y-140705333D01*
X183178321Y-140705333D01*
X183273559Y-140752952D01*
X183321178Y-140800571D01*
X183368797Y-140895809D01*
X183368797Y-141133904D01*
X183321178Y-141229142D01*
X183273559Y-141276761D01*
X183178321Y-141324380D01*
X182892607Y-141324380D01*
X182797369Y-141276761D01*
X182749750Y-141229142D01*
%TD*%
M02*
