%TF.GenerationSoftware,KiCad,Pcbnew,5.1.10*%
%TF.CreationDate,2021-08-04T23:16:11+02:00*%
%TF.ProjectId,keyboard,6b657962-6f61-4726-942e-6b696361645f,rev?*%
%TF.SameCoordinates,Original*%
%TF.FileFunction,Soldermask,Top*%
%TF.FilePolarity,Negative*%
%FSLAX46Y46*%
G04 Gerber Fmt 4.6, Leading zero omitted, Abs format (unit mm)*
G04 Created by KiCad (PCBNEW 5.1.10) date 2021-08-04 23:16:11*
%MOMM*%
%LPD*%
G01*
G04 APERTURE LIST*
%ADD10C,3.200000*%
%ADD11O,1.200000X1.800000*%
%ADD12C,1.500000*%
%ADD13O,1.700000X1.700000*%
%ADD14R,1.700000X1.700000*%
%ADD15O,1.000000X2.100000*%
%ADD16C,0.650000*%
%ADD17O,1.000000X1.600000*%
%ADD18C,1.750000*%
%ADD19C,4.000000*%
%ADD20C,3.048000*%
%ADD21C,3.987800*%
G04 APERTURE END LIST*
D10*
%TO.C,REF\u002A\u002A*%
X89566800Y-76043000D03*
%TD*%
%TO.C,REF\u002A\u002A*%
X139858800Y-77059000D03*
%TD*%
%TO.C,REF\u002A\u002A*%
X193706800Y-78075000D03*
%TD*%
%TO.C,REF\u002A\u002A*%
X92868800Y-134463000D03*
%TD*%
%TO.C,REF\u002A\u002A*%
X198278800Y-114143000D03*
%TD*%
%TO.C,REF\u002A\u002A*%
X139858800Y-150719000D03*
%TD*%
%TO.C,REF\u002A\u002A*%
X199294800Y-150719000D03*
%TD*%
%TO.C,REF\u002A\u002A*%
X199294800Y-48611000D03*
%TD*%
%TO.C,REF\u002A\u002A*%
X73818800Y-48611000D03*
%TD*%
%TO.C,LD3*%
G36*
G01*
X111042601Y-48089600D02*
X110142599Y-48089600D01*
G75*
G02*
X109892600Y-47839601I0J249999D01*
G01*
X109892600Y-47189599D01*
G75*
G02*
X110142599Y-46939600I249999J0D01*
G01*
X111042601Y-46939600D01*
G75*
G02*
X111292600Y-47189599I0J-249999D01*
G01*
X111292600Y-47839601D01*
G75*
G02*
X111042601Y-48089600I-249999J0D01*
G01*
G37*
G36*
G01*
X111042601Y-50139600D02*
X110142599Y-50139600D01*
G75*
G02*
X109892600Y-49889601I0J249999D01*
G01*
X109892600Y-49239599D01*
G75*
G02*
X110142599Y-48989600I249999J0D01*
G01*
X111042601Y-48989600D01*
G75*
G02*
X111292600Y-49239599I0J-249999D01*
G01*
X111292600Y-49889601D01*
G75*
G02*
X111042601Y-50139600I-249999J0D01*
G01*
G37*
%TD*%
%TO.C,LD2*%
G36*
G01*
X103042601Y-48089600D02*
X102142599Y-48089600D01*
G75*
G02*
X101892600Y-47839601I0J249999D01*
G01*
X101892600Y-47189599D01*
G75*
G02*
X102142599Y-46939600I249999J0D01*
G01*
X103042601Y-46939600D01*
G75*
G02*
X103292600Y-47189599I0J-249999D01*
G01*
X103292600Y-47839601D01*
G75*
G02*
X103042601Y-48089600I-249999J0D01*
G01*
G37*
G36*
G01*
X103042601Y-50139600D02*
X102142599Y-50139600D01*
G75*
G02*
X101892600Y-49889601I0J249999D01*
G01*
X101892600Y-49239599D01*
G75*
G02*
X102142599Y-48989600I249999J0D01*
G01*
X103042601Y-48989600D01*
G75*
G02*
X103292600Y-49239599I0J-249999D01*
G01*
X103292600Y-49889601D01*
G75*
G02*
X103042601Y-50139600I-249999J0D01*
G01*
G37*
%TD*%
%TO.C,LD1*%
G36*
G01*
X95042601Y-50139600D02*
X94142599Y-50139600D01*
G75*
G02*
X93892600Y-49889601I0J249999D01*
G01*
X93892600Y-49239599D01*
G75*
G02*
X94142599Y-48989600I249999J0D01*
G01*
X95042601Y-48989600D01*
G75*
G02*
X95292600Y-49239599I0J-249999D01*
G01*
X95292600Y-49889601D01*
G75*
G02*
X95042601Y-50139600I-249999J0D01*
G01*
G37*
G36*
G01*
X95042601Y-48089600D02*
X94142599Y-48089600D01*
G75*
G02*
X93892600Y-47839601I0J249999D01*
G01*
X93892600Y-47189599D01*
G75*
G02*
X94142599Y-46939600I249999J0D01*
G01*
X95042601Y-46939600D01*
G75*
G02*
X95292600Y-47189599I0J-249999D01*
G01*
X95292600Y-47839601D01*
G75*
G02*
X95042601Y-48089600I-249999J0D01*
G01*
G37*
%TD*%
D11*
%TO.C,J4*%
X183177200Y-49017000D03*
X183177200Y-52017000D03*
X183177200Y-56017000D03*
X187777200Y-57117000D03*
D12*
X185477200Y-47417000D03*
X185477200Y-54417000D03*
%TD*%
%TO.C,J3*%
X87407800Y-54417000D03*
X87407800Y-47417000D03*
D11*
X89707800Y-57117000D03*
X85107800Y-56017000D03*
X85107800Y-52017000D03*
X85107800Y-49017000D03*
%TD*%
D13*
%TO.C,J2*%
X104648000Y-56007000D03*
X107188000Y-56007000D03*
X109728000Y-56007000D03*
D14*
X112268000Y-56007000D03*
%TD*%
D15*
%TO.C,J1*%
X158639001Y-51163999D03*
X149999001Y-51163999D03*
D16*
X151429001Y-50633999D03*
D17*
X149999001Y-46983999D03*
D16*
X157209001Y-50633999D03*
D17*
X158639001Y-46983999D03*
%TD*%
D18*
%TO.C,SW9*%
X113011000Y-86722000D03*
X102851000Y-86722000D03*
D19*
X107931000Y-86722000D03*
%TD*%
D18*
%TO.C,SW8*%
X89198500Y-86722000D03*
X79038500Y-86722000D03*
D19*
X84118500Y-86722000D03*
%TD*%
D18*
%TO.C,SW7*%
X198736000Y-67672000D03*
X188576000Y-67672000D03*
D19*
X193656000Y-67672000D03*
%TD*%
D18*
%TO.C,SW6*%
X179686000Y-67672000D03*
X169526000Y-67672000D03*
D19*
X174606000Y-67672000D03*
%TD*%
D18*
%TO.C,SW5*%
X160636000Y-67672000D03*
X150476000Y-67672000D03*
D19*
X155556000Y-67672000D03*
%TD*%
D18*
%TO.C,SW4*%
X141586000Y-67672000D03*
X131426000Y-67672000D03*
D19*
X136506000Y-67672000D03*
%TD*%
D18*
%TO.C,SW33*%
X186829750Y-143872000D03*
X176669750Y-143872000D03*
D19*
X181749750Y-143872000D03*
%TD*%
D18*
%TO.C,SW32*%
X155873500Y-143872000D03*
X145713500Y-143872000D03*
D19*
X150793500Y-143872000D03*
%TD*%
D18*
%TO.C,SW31*%
X134442250Y-143872000D03*
X124282250Y-143872000D03*
D19*
X129362250Y-143872000D03*
%TD*%
D18*
%TO.C,SW30*%
X110629750Y-143872000D03*
X100469750Y-143872000D03*
D19*
X105549750Y-143872000D03*
%TD*%
D18*
%TO.C,SW3*%
X122536000Y-67672000D03*
X112376000Y-67672000D03*
D19*
X117456000Y-67672000D03*
%TD*%
D18*
%TO.C,SW29*%
X86817250Y-143872000D03*
X76657250Y-143872000D03*
D19*
X81737250Y-143872000D03*
%TD*%
D18*
%TO.C,SW28*%
X203498500Y-124822000D03*
X193338500Y-124822000D03*
D19*
X198418500Y-124822000D03*
%TD*%
D18*
%TO.C,SW27*%
X184448500Y-124822000D03*
X174288500Y-124822000D03*
D19*
X179368500Y-124822000D03*
%TD*%
D18*
%TO.C,SW26*%
X165398500Y-124822000D03*
X155238500Y-124822000D03*
D19*
X160318500Y-124822000D03*
%TD*%
D18*
%TO.C,SW25*%
X146348500Y-124822000D03*
X136188500Y-124822000D03*
D19*
X141268500Y-124822000D03*
%TD*%
D18*
%TO.C,SW24*%
X127298500Y-124822000D03*
X117138500Y-124822000D03*
D19*
X122218500Y-124822000D03*
%TD*%
D18*
%TO.C,SW23*%
X108248500Y-124822000D03*
X98088500Y-124822000D03*
D19*
X103168500Y-124822000D03*
%TD*%
D18*
%TO.C,SW22*%
X86817250Y-124822000D03*
X76657250Y-124822000D03*
D19*
X81737250Y-124822000D03*
%TD*%
D18*
%TO.C,SW21*%
X213023500Y-105772000D03*
X202863500Y-105772000D03*
D19*
X207943500Y-105772000D03*
%TD*%
D18*
%TO.C,SW20*%
X193973500Y-105772000D03*
X183813500Y-105772000D03*
D19*
X188893500Y-105772000D03*
%TD*%
D18*
%TO.C,SW2*%
X103486000Y-67672000D03*
X93326000Y-67672000D03*
D19*
X98406000Y-67672000D03*
%TD*%
D18*
%TO.C,SW19*%
X174923500Y-105772000D03*
X164763500Y-105772000D03*
D19*
X169843500Y-105772000D03*
%TD*%
D18*
%TO.C,SW18*%
X155873500Y-105772000D03*
X145713500Y-105772000D03*
D19*
X150793500Y-105772000D03*
%TD*%
D18*
%TO.C,SW17*%
X136823500Y-105772000D03*
X126663500Y-105772000D03*
D19*
X131743500Y-105772000D03*
%TD*%
D18*
%TO.C,SW16*%
X117773500Y-105772000D03*
X107613500Y-105772000D03*
D19*
X112693500Y-105772000D03*
%TD*%
D18*
%TO.C,SW15*%
X91579750Y-105772000D03*
X81419750Y-105772000D03*
D19*
X86499750Y-105772000D03*
%TD*%
D18*
%TO.C,SW14*%
X208261000Y-86722000D03*
X198101000Y-86722000D03*
D19*
X203181000Y-86722000D03*
%TD*%
D18*
%TO.C,SW13*%
X189211000Y-86722000D03*
X179051000Y-86722000D03*
D19*
X184131000Y-86722000D03*
%TD*%
D18*
%TO.C,SW12*%
X170161000Y-86722000D03*
X160001000Y-86722000D03*
D19*
X165081000Y-86722000D03*
%TD*%
D18*
%TO.C,SW11*%
X151111000Y-86722000D03*
X140951000Y-86722000D03*
D19*
X146031000Y-86722000D03*
%TD*%
D18*
%TO.C,SW10*%
X132061000Y-86722000D03*
X121901000Y-86722000D03*
D19*
X126981000Y-86722000D03*
%TD*%
D18*
%TO.C,SW1*%
X84436000Y-67672000D03*
X74276000Y-67672000D03*
D19*
X79356000Y-67672000D03*
%TD*%
D20*
%TO.C,ST33*%
X193687750Y-136887000D03*
X169811750Y-136887000D03*
D21*
X193687750Y-152127000D03*
X169811750Y-152127000D03*
%TD*%
M02*
