%TF.GenerationSoftware,KiCad,Pcbnew,5.1.10*%
%TF.CreationDate,2021-08-04T22:26:14+02:00*%
%TF.ProjectId,keyboard,6b657962-6f61-4726-942e-6b696361645f,rev?*%
%TF.SameCoordinates,Original*%
%TF.FileFunction,Paste,Bot*%
%TF.FilePolarity,Positive*%
%FSLAX46Y46*%
G04 Gerber Fmt 4.6, Leading zero omitted, Abs format (unit mm)*
G04 Created by KiCad (PCBNEW 5.1.10) date 2021-08-04 22:26:14*
%MOMM*%
%LPD*%
G01*
G04 APERTURE LIST*
%ADD10R,2.400000X2.000000*%
%ADD11R,0.500000X0.500000*%
%ADD12R,0.300000X1.450000*%
%ADD13R,0.600000X1.450000*%
%ADD14R,0.650000X1.060000*%
%ADD15R,1.000000X1.700000*%
G04 APERTURE END LIST*
D10*
%TO.C,Y1*%
X94050800Y-61586000D03*
X94050800Y-65286000D03*
%TD*%
D11*
%TO.C,D9*%
X57702500Y-96399000D03*
X57702500Y-98599000D03*
%TD*%
%TO.C,D8*%
X191052500Y-77349000D03*
X191052500Y-79549000D03*
%TD*%
%TO.C,D7*%
X162477500Y-77349000D03*
X162477500Y-79549000D03*
%TD*%
%TO.C,D6*%
X143427500Y-77349000D03*
X143427500Y-79549000D03*
%TD*%
%TO.C,D5*%
X124377500Y-77349000D03*
X124377500Y-79549000D03*
%TD*%
%TO.C,D4*%
X105327500Y-77349000D03*
X105327500Y-79549000D03*
%TD*%
%TO.C,D39*%
X186290000Y-153549000D03*
X186290000Y-155749000D03*
%TD*%
%TO.C,D38*%
X167240000Y-153549000D03*
X167240000Y-155749000D03*
%TD*%
%TO.C,D37*%
X148190000Y-153549000D03*
X148190000Y-155749000D03*
%TD*%
%TO.C,D36*%
X129140000Y-153549000D03*
X129140000Y-155749000D03*
%TD*%
%TO.C,D35*%
X110090000Y-153549000D03*
X110090000Y-155749000D03*
%TD*%
%TO.C,D34*%
X91040000Y-153549000D03*
X91040000Y-155749000D03*
%TD*%
%TO.C,D33*%
X62465000Y-153549000D03*
X62465000Y-155749000D03*
%TD*%
%TO.C,D32*%
X193433750Y-134499000D03*
X193433750Y-136699000D03*
%TD*%
%TO.C,D31*%
X167240000Y-134499000D03*
X167240000Y-136699000D03*
%TD*%
%TO.C,D30*%
X148190000Y-134499000D03*
X148190000Y-136699000D03*
%TD*%
%TO.C,D3*%
X86277500Y-77349000D03*
X86277500Y-79549000D03*
%TD*%
%TO.C,D29*%
X129140000Y-134499000D03*
X129140000Y-136699000D03*
%TD*%
%TO.C,D28*%
X110090000Y-134499000D03*
X110090000Y-136699000D03*
%TD*%
%TO.C,D27*%
X91040000Y-134499000D03*
X91040000Y-136699000D03*
%TD*%
%TO.C,D26*%
X71990000Y-134499000D03*
X71990000Y-136699000D03*
%TD*%
%TO.C,D25*%
X52940000Y-134499000D03*
X52940000Y-136699000D03*
%TD*%
%TO.C,D24*%
X176765000Y-115449000D03*
X176765000Y-117649000D03*
%TD*%
%TO.C,D23*%
X157715000Y-115449000D03*
X157715000Y-117649000D03*
%TD*%
%TO.C,D22*%
X138665000Y-115449000D03*
X138665000Y-117649000D03*
%TD*%
%TO.C,D21*%
X119615000Y-115449000D03*
X119615000Y-117649000D03*
%TD*%
%TO.C,D20*%
X100565000Y-115449000D03*
X100565000Y-117649000D03*
%TD*%
%TO.C,D2*%
X67227500Y-77349000D03*
X67227500Y-79549000D03*
%TD*%
%TO.C,D19*%
X81515000Y-115449000D03*
X81515000Y-117649000D03*
%TD*%
%TO.C,D18*%
X62465000Y-115449000D03*
X62465000Y-117649000D03*
%TD*%
%TO.C,D17*%
X43415000Y-115449000D03*
X43415000Y-117649000D03*
%TD*%
%TO.C,D16*%
X198196250Y-105924000D03*
X198196250Y-108124000D03*
%TD*%
%TO.C,D15*%
X172002500Y-96399000D03*
X172002500Y-98599000D03*
%TD*%
%TO.C,D14*%
X152952500Y-96399000D03*
X152952500Y-98599000D03*
%TD*%
%TO.C,D13*%
X133902500Y-96399000D03*
X133902500Y-98599000D03*
%TD*%
%TO.C,D12*%
X114852500Y-96399000D03*
X114852500Y-98599000D03*
%TD*%
%TO.C,D11*%
X95802500Y-96399000D03*
X95802500Y-98599000D03*
%TD*%
%TO.C,D10*%
X76752500Y-96399000D03*
X76752500Y-98599000D03*
%TD*%
%TO.C,D1*%
X48177500Y-77349000D03*
X48177500Y-79549000D03*
%TD*%
%TO.C,C1*%
G36*
G01*
X99590796Y-62805453D02*
X100262547Y-63477204D01*
G75*
G02*
X100262547Y-63830758I-176777J-176777D01*
G01*
X99785250Y-64308055D01*
G75*
G02*
X99431696Y-64308055I-176777J176777D01*
G01*
X98759945Y-63636304D01*
G75*
G02*
X98759945Y-63282750I176777J176777D01*
G01*
X99237242Y-62805453D01*
G75*
G02*
X99590796Y-62805453I176777J-176777D01*
G01*
G37*
G36*
G01*
X98123550Y-64272699D02*
X98795301Y-64944450D01*
G75*
G02*
X98795301Y-65298004I-176777J-176777D01*
G01*
X98318004Y-65775301D01*
G75*
G02*
X97964450Y-65775301I-176777J176777D01*
G01*
X97292699Y-65103550D01*
G75*
G02*
X97292699Y-64749996I176777J176777D01*
G01*
X97769996Y-64272699D01*
G75*
G02*
X98123550Y-64272699I176777J-176777D01*
G01*
G37*
%TD*%
%TO.C,C2*%
G36*
G01*
X102921173Y-53379076D02*
X103592924Y-54050827D01*
G75*
G02*
X103592924Y-54404381I-176777J-176777D01*
G01*
X103115627Y-54881678D01*
G75*
G02*
X102762073Y-54881678I-176777J176777D01*
G01*
X102090322Y-54209927D01*
G75*
G02*
X102090322Y-53856373I176777J176777D01*
G01*
X102567619Y-53379076D01*
G75*
G02*
X102921173Y-53379076I176777J-176777D01*
G01*
G37*
G36*
G01*
X101453927Y-54846322D02*
X102125678Y-55518073D01*
G75*
G02*
X102125678Y-55871627I-176777J-176777D01*
G01*
X101648381Y-56348924D01*
G75*
G02*
X101294827Y-56348924I-176777J176777D01*
G01*
X100623076Y-55677173D01*
G75*
G02*
X100623076Y-55323619I176777J176777D01*
G01*
X101100373Y-54846322D01*
G75*
G02*
X101453927Y-54846322I176777J-176777D01*
G01*
G37*
%TD*%
%TO.C,C3*%
G36*
G01*
X112304500Y-60231000D02*
X112304500Y-61181000D01*
G75*
G02*
X112054500Y-61431000I-250000J0D01*
G01*
X111379500Y-61431000D01*
G75*
G02*
X111129500Y-61181000I0J250000D01*
G01*
X111129500Y-60231000D01*
G75*
G02*
X111379500Y-59981000I250000J0D01*
G01*
X112054500Y-59981000D01*
G75*
G02*
X112304500Y-60231000I0J-250000D01*
G01*
G37*
G36*
G01*
X114379500Y-60231000D02*
X114379500Y-61181000D01*
G75*
G02*
X114129500Y-61431000I-250000J0D01*
G01*
X113454500Y-61431000D01*
G75*
G02*
X113204500Y-61181000I0J250000D01*
G01*
X113204500Y-60231000D01*
G75*
G02*
X113454500Y-59981000I250000J0D01*
G01*
X114129500Y-59981000D01*
G75*
G02*
X114379500Y-60231000I0J-250000D01*
G01*
G37*
%TD*%
%TO.C,C4*%
G36*
G01*
X107573500Y-67531000D02*
X107573500Y-66581000D01*
G75*
G02*
X107823500Y-66331000I250000J0D01*
G01*
X108498500Y-66331000D01*
G75*
G02*
X108748500Y-66581000I0J-250000D01*
G01*
X108748500Y-67531000D01*
G75*
G02*
X108498500Y-67781000I-250000J0D01*
G01*
X107823500Y-67781000D01*
G75*
G02*
X107573500Y-67531000I0J250000D01*
G01*
G37*
G36*
G01*
X109648500Y-67531000D02*
X109648500Y-66581000D01*
G75*
G02*
X109898500Y-66331000I250000J0D01*
G01*
X110573500Y-66331000D01*
G75*
G02*
X110823500Y-66581000I0J-250000D01*
G01*
X110823500Y-67531000D01*
G75*
G02*
X110573500Y-67781000I-250000J0D01*
G01*
X109898500Y-67781000D01*
G75*
G02*
X109648500Y-67531000I0J250000D01*
G01*
G37*
%TD*%
%TO.C,C5*%
G36*
G01*
X112993500Y-64229000D02*
X112993500Y-63279000D01*
G75*
G02*
X113243500Y-63029000I250000J0D01*
G01*
X113918500Y-63029000D01*
G75*
G02*
X114168500Y-63279000I0J-250000D01*
G01*
X114168500Y-64229000D01*
G75*
G02*
X113918500Y-64479000I-250000J0D01*
G01*
X113243500Y-64479000D01*
G75*
G02*
X112993500Y-64229000I0J250000D01*
G01*
G37*
G36*
G01*
X110918500Y-64229000D02*
X110918500Y-63279000D01*
G75*
G02*
X111168500Y-63029000I250000J0D01*
G01*
X111843500Y-63029000D01*
G75*
G02*
X112093500Y-63279000I0J-250000D01*
G01*
X112093500Y-64229000D01*
G75*
G02*
X111843500Y-64479000I-250000J0D01*
G01*
X111168500Y-64479000D01*
G75*
G02*
X110918500Y-64229000I0J250000D01*
G01*
G37*
%TD*%
%TO.C,C6*%
G36*
G01*
X121629500Y-56866500D02*
X122104500Y-56866500D01*
G75*
G02*
X122342000Y-57104000I0J-237500D01*
G01*
X122342000Y-57704000D01*
G75*
G02*
X122104500Y-57941500I-237500J0D01*
G01*
X121629500Y-57941500D01*
G75*
G02*
X121392000Y-57704000I0J237500D01*
G01*
X121392000Y-57104000D01*
G75*
G02*
X121629500Y-56866500I237500J0D01*
G01*
G37*
G36*
G01*
X121629500Y-55141500D02*
X122104500Y-55141500D01*
G75*
G02*
X122342000Y-55379000I0J-237500D01*
G01*
X122342000Y-55979000D01*
G75*
G02*
X122104500Y-56216500I-237500J0D01*
G01*
X121629500Y-56216500D01*
G75*
G02*
X121392000Y-55979000I0J237500D01*
G01*
X121392000Y-55379000D01*
G75*
G02*
X121629500Y-55141500I237500J0D01*
G01*
G37*
%TD*%
%TO.C,C7*%
G36*
G01*
X138397000Y-65611500D02*
X137447000Y-65611500D01*
G75*
G02*
X137197000Y-65361500I0J250000D01*
G01*
X137197000Y-64686500D01*
G75*
G02*
X137447000Y-64436500I250000J0D01*
G01*
X138397000Y-64436500D01*
G75*
G02*
X138647000Y-64686500I0J-250000D01*
G01*
X138647000Y-65361500D01*
G75*
G02*
X138397000Y-65611500I-250000J0D01*
G01*
G37*
G36*
G01*
X138397000Y-63536500D02*
X137447000Y-63536500D01*
G75*
G02*
X137197000Y-63286500I0J250000D01*
G01*
X137197000Y-62611500D01*
G75*
G02*
X137447000Y-62361500I250000J0D01*
G01*
X138397000Y-62361500D01*
G75*
G02*
X138647000Y-62611500I0J-250000D01*
G01*
X138647000Y-63286500D01*
G75*
G02*
X138397000Y-63536500I-250000J0D01*
G01*
G37*
%TD*%
%TO.C,C8*%
G36*
G01*
X120425500Y-59198500D02*
X120425500Y-59673500D01*
G75*
G02*
X120188000Y-59911000I-237500J0D01*
G01*
X119588000Y-59911000D01*
G75*
G02*
X119350500Y-59673500I0J237500D01*
G01*
X119350500Y-59198500D01*
G75*
G02*
X119588000Y-58961000I237500J0D01*
G01*
X120188000Y-58961000D01*
G75*
G02*
X120425500Y-59198500I0J-237500D01*
G01*
G37*
G36*
G01*
X118700500Y-59198500D02*
X118700500Y-59673500D01*
G75*
G02*
X118463000Y-59911000I-237500J0D01*
G01*
X117863000Y-59911000D01*
G75*
G02*
X117625500Y-59673500I0J237500D01*
G01*
X117625500Y-59198500D01*
G75*
G02*
X117863000Y-58961000I237500J0D01*
G01*
X118463000Y-58961000D01*
G75*
G02*
X118700500Y-59198500I0J-237500D01*
G01*
G37*
%TD*%
%TO.C,C9*%
G36*
G01*
X83348500Y-66327000D02*
X83348500Y-67277000D01*
G75*
G02*
X83098500Y-67527000I-250000J0D01*
G01*
X82423500Y-67527000D01*
G75*
G02*
X82173500Y-67277000I0J250000D01*
G01*
X82173500Y-66327000D01*
G75*
G02*
X82423500Y-66077000I250000J0D01*
G01*
X83098500Y-66077000D01*
G75*
G02*
X83348500Y-66327000I0J-250000D01*
G01*
G37*
G36*
G01*
X85423500Y-66327000D02*
X85423500Y-67277000D01*
G75*
G02*
X85173500Y-67527000I-250000J0D01*
G01*
X84498500Y-67527000D01*
G75*
G02*
X84248500Y-67277000I0J250000D01*
G01*
X84248500Y-66327000D01*
G75*
G02*
X84498500Y-66077000I250000J0D01*
G01*
X85173500Y-66077000D01*
G75*
G02*
X85423500Y-66327000I0J-250000D01*
G01*
G37*
%TD*%
%TO.C,C10*%
G36*
G01*
X100898012Y-66660112D02*
X101233888Y-66995988D01*
G75*
G02*
X101233888Y-67331864I-167938J-167938D01*
G01*
X100809624Y-67756128D01*
G75*
G02*
X100473748Y-67756128I-167938J167938D01*
G01*
X100137872Y-67420252D01*
G75*
G02*
X100137872Y-67084376I167938J167938D01*
G01*
X100562136Y-66660112D01*
G75*
G02*
X100898012Y-66660112I167938J-167938D01*
G01*
G37*
G36*
G01*
X99678252Y-67879872D02*
X100014128Y-68215748D01*
G75*
G02*
X100014128Y-68551624I-167938J-167938D01*
G01*
X99589864Y-68975888D01*
G75*
G02*
X99253988Y-68975888I-167938J167938D01*
G01*
X98918112Y-68640012D01*
G75*
G02*
X98918112Y-68304136I167938J167938D01*
G01*
X99342376Y-67879872D01*
G75*
G02*
X99678252Y-67879872I167938J-167938D01*
G01*
G37*
%TD*%
%TO.C,C11*%
G36*
G01*
X97298500Y-61946500D02*
X97773500Y-61946500D01*
G75*
G02*
X98011000Y-62184000I0J-237500D01*
G01*
X98011000Y-62784000D01*
G75*
G02*
X97773500Y-63021500I-237500J0D01*
G01*
X97298500Y-63021500D01*
G75*
G02*
X97061000Y-62784000I0J237500D01*
G01*
X97061000Y-62184000D01*
G75*
G02*
X97298500Y-61946500I237500J0D01*
G01*
G37*
G36*
G01*
X97298500Y-60221500D02*
X97773500Y-60221500D01*
G75*
G02*
X98011000Y-60459000I0J-237500D01*
G01*
X98011000Y-61059000D01*
G75*
G02*
X97773500Y-61296500I-237500J0D01*
G01*
X97298500Y-61296500D01*
G75*
G02*
X97061000Y-61059000I0J237500D01*
G01*
X97061000Y-60459000D01*
G75*
G02*
X97298500Y-60221500I237500J0D01*
G01*
G37*
%TD*%
D12*
%TO.C,J1*%
X129431001Y-59825999D03*
X131431001Y-59825999D03*
X130931001Y-59825999D03*
X130431001Y-59825999D03*
X129931001Y-59825999D03*
X128931001Y-59825999D03*
X128431001Y-59825999D03*
X127931001Y-59825999D03*
D13*
X132931001Y-59825999D03*
X132131001Y-59825999D03*
X127231001Y-59825999D03*
X126431001Y-59825999D03*
X126431001Y-59825999D03*
X127231001Y-59825999D03*
X132131001Y-59825999D03*
X132931001Y-59825999D03*
%TD*%
%TO.C,R1*%
G36*
G01*
X120059000Y-65261500D02*
X120059000Y-64786500D01*
G75*
G02*
X120296500Y-64549000I237500J0D01*
G01*
X120796500Y-64549000D01*
G75*
G02*
X121034000Y-64786500I0J-237500D01*
G01*
X121034000Y-65261500D01*
G75*
G02*
X120796500Y-65499000I-237500J0D01*
G01*
X120296500Y-65499000D01*
G75*
G02*
X120059000Y-65261500I0J237500D01*
G01*
G37*
G36*
G01*
X118234000Y-65261500D02*
X118234000Y-64786500D01*
G75*
G02*
X118471500Y-64549000I237500J0D01*
G01*
X118971500Y-64549000D01*
G75*
G02*
X119209000Y-64786500I0J-237500D01*
G01*
X119209000Y-65261500D01*
G75*
G02*
X118971500Y-65499000I-237500J0D01*
G01*
X118471500Y-65499000D01*
G75*
G02*
X118234000Y-65261500I0J237500D01*
G01*
G37*
%TD*%
%TO.C,R2*%
G36*
G01*
X149843500Y-65511500D02*
X149368500Y-65511500D01*
G75*
G02*
X149131000Y-65274000I0J237500D01*
G01*
X149131000Y-64774000D01*
G75*
G02*
X149368500Y-64536500I237500J0D01*
G01*
X149843500Y-64536500D01*
G75*
G02*
X150081000Y-64774000I0J-237500D01*
G01*
X150081000Y-65274000D01*
G75*
G02*
X149843500Y-65511500I-237500J0D01*
G01*
G37*
G36*
G01*
X149843500Y-63686500D02*
X149368500Y-63686500D01*
G75*
G02*
X149131000Y-63449000I0J237500D01*
G01*
X149131000Y-62949000D01*
G75*
G02*
X149368500Y-62711500I237500J0D01*
G01*
X149843500Y-62711500D01*
G75*
G02*
X150081000Y-62949000I0J-237500D01*
G01*
X150081000Y-63449000D01*
G75*
G02*
X149843500Y-63686500I-237500J0D01*
G01*
G37*
%TD*%
%TO.C,R3*%
G36*
G01*
X139462500Y-64790500D02*
X139937500Y-64790500D01*
G75*
G02*
X140175000Y-65028000I0J-237500D01*
G01*
X140175000Y-65528000D01*
G75*
G02*
X139937500Y-65765500I-237500J0D01*
G01*
X139462500Y-65765500D01*
G75*
G02*
X139225000Y-65528000I0J237500D01*
G01*
X139225000Y-65028000D01*
G75*
G02*
X139462500Y-64790500I237500J0D01*
G01*
G37*
G36*
G01*
X139462500Y-62965500D02*
X139937500Y-62965500D01*
G75*
G02*
X140175000Y-63203000I0J-237500D01*
G01*
X140175000Y-63703000D01*
G75*
G02*
X139937500Y-63940500I-237500J0D01*
G01*
X139462500Y-63940500D01*
G75*
G02*
X139225000Y-63703000I0J237500D01*
G01*
X139225000Y-63203000D01*
G75*
G02*
X139462500Y-62965500I237500J0D01*
G01*
G37*
%TD*%
%TO.C,R4*%
G36*
G01*
X127237500Y-62463500D02*
X126762500Y-62463500D01*
G75*
G02*
X126525000Y-62226000I0J237500D01*
G01*
X126525000Y-61726000D01*
G75*
G02*
X126762500Y-61488500I237500J0D01*
G01*
X127237500Y-61488500D01*
G75*
G02*
X127475000Y-61726000I0J-237500D01*
G01*
X127475000Y-62226000D01*
G75*
G02*
X127237500Y-62463500I-237500J0D01*
G01*
G37*
G36*
G01*
X127237500Y-64288500D02*
X126762500Y-64288500D01*
G75*
G02*
X126525000Y-64051000I0J237500D01*
G01*
X126525000Y-63551000D01*
G75*
G02*
X126762500Y-63313500I237500J0D01*
G01*
X127237500Y-63313500D01*
G75*
G02*
X127475000Y-63551000I0J-237500D01*
G01*
X127475000Y-64051000D01*
G75*
G02*
X127237500Y-64288500I-237500J0D01*
G01*
G37*
%TD*%
%TO.C,R5*%
G36*
G01*
X133841500Y-64288500D02*
X133366500Y-64288500D01*
G75*
G02*
X133129000Y-64051000I0J237500D01*
G01*
X133129000Y-63551000D01*
G75*
G02*
X133366500Y-63313500I237500J0D01*
G01*
X133841500Y-63313500D01*
G75*
G02*
X134079000Y-63551000I0J-237500D01*
G01*
X134079000Y-64051000D01*
G75*
G02*
X133841500Y-64288500I-237500J0D01*
G01*
G37*
G36*
G01*
X133841500Y-62463500D02*
X133366500Y-62463500D01*
G75*
G02*
X133129000Y-62226000I0J237500D01*
G01*
X133129000Y-61726000D01*
G75*
G02*
X133366500Y-61488500I237500J0D01*
G01*
X133841500Y-61488500D01*
G75*
G02*
X134079000Y-61726000I0J-237500D01*
G01*
X134079000Y-62226000D01*
G75*
G02*
X133841500Y-62463500I-237500J0D01*
G01*
G37*
%TD*%
%TO.C,R6*%
G36*
G01*
X130285500Y-63940500D02*
X129810500Y-63940500D01*
G75*
G02*
X129573000Y-63703000I0J237500D01*
G01*
X129573000Y-63203000D01*
G75*
G02*
X129810500Y-62965500I237500J0D01*
G01*
X130285500Y-62965500D01*
G75*
G02*
X130523000Y-63203000I0J-237500D01*
G01*
X130523000Y-63703000D01*
G75*
G02*
X130285500Y-63940500I-237500J0D01*
G01*
G37*
G36*
G01*
X130285500Y-65765500D02*
X129810500Y-65765500D01*
G75*
G02*
X129573000Y-65528000I0J237500D01*
G01*
X129573000Y-65028000D01*
G75*
G02*
X129810500Y-64790500I237500J0D01*
G01*
X130285500Y-64790500D01*
G75*
G02*
X130523000Y-65028000I0J-237500D01*
G01*
X130523000Y-65528000D01*
G75*
G02*
X130285500Y-65765500I-237500J0D01*
G01*
G37*
%TD*%
%TO.C,R7*%
G36*
G01*
X128761500Y-65765500D02*
X128286500Y-65765500D01*
G75*
G02*
X128049000Y-65528000I0J237500D01*
G01*
X128049000Y-65028000D01*
G75*
G02*
X128286500Y-64790500I237500J0D01*
G01*
X128761500Y-64790500D01*
G75*
G02*
X128999000Y-65028000I0J-237500D01*
G01*
X128999000Y-65528000D01*
G75*
G02*
X128761500Y-65765500I-237500J0D01*
G01*
G37*
G36*
G01*
X128761500Y-63940500D02*
X128286500Y-63940500D01*
G75*
G02*
X128049000Y-63703000I0J237500D01*
G01*
X128049000Y-63203000D01*
G75*
G02*
X128286500Y-62965500I237500J0D01*
G01*
X128761500Y-62965500D01*
G75*
G02*
X128999000Y-63203000I0J-237500D01*
G01*
X128999000Y-63703000D01*
G75*
G02*
X128761500Y-63940500I-237500J0D01*
G01*
G37*
%TD*%
%TO.C,R8*%
G36*
G01*
X130836500Y-61738500D02*
X130836500Y-62213500D01*
G75*
G02*
X130599000Y-62451000I-237500J0D01*
G01*
X130099000Y-62451000D01*
G75*
G02*
X129861500Y-62213500I0J237500D01*
G01*
X129861500Y-61738500D01*
G75*
G02*
X130099000Y-61501000I237500J0D01*
G01*
X130599000Y-61501000D01*
G75*
G02*
X130836500Y-61738500I0J-237500D01*
G01*
G37*
G36*
G01*
X129011500Y-61738500D02*
X129011500Y-62213500D01*
G75*
G02*
X128774000Y-62451000I-237500J0D01*
G01*
X128274000Y-62451000D01*
G75*
G02*
X128036500Y-62213500I0J237500D01*
G01*
X128036500Y-61738500D01*
G75*
G02*
X128274000Y-61501000I237500J0D01*
G01*
X128774000Y-61501000D01*
G75*
G02*
X129011500Y-61738500I0J-237500D01*
G01*
G37*
%TD*%
%TO.C,R9*%
G36*
G01*
X180469500Y-55986500D02*
X179994500Y-55986500D01*
G75*
G02*
X179757000Y-55749000I0J237500D01*
G01*
X179757000Y-55249000D01*
G75*
G02*
X179994500Y-55011500I237500J0D01*
G01*
X180469500Y-55011500D01*
G75*
G02*
X180707000Y-55249000I0J-237500D01*
G01*
X180707000Y-55749000D01*
G75*
G02*
X180469500Y-55986500I-237500J0D01*
G01*
G37*
G36*
G01*
X180469500Y-57811500D02*
X179994500Y-57811500D01*
G75*
G02*
X179757000Y-57574000I0J237500D01*
G01*
X179757000Y-57074000D01*
G75*
G02*
X179994500Y-56836500I237500J0D01*
G01*
X180469500Y-56836500D01*
G75*
G02*
X180707000Y-57074000I0J-237500D01*
G01*
X180707000Y-57574000D01*
G75*
G02*
X180469500Y-57811500I-237500J0D01*
G01*
G37*
%TD*%
%TO.C,R10*%
G36*
G01*
X172469500Y-57800000D02*
X171994500Y-57800000D01*
G75*
G02*
X171757000Y-57562500I0J237500D01*
G01*
X171757000Y-57062500D01*
G75*
G02*
X171994500Y-56825000I237500J0D01*
G01*
X172469500Y-56825000D01*
G75*
G02*
X172707000Y-57062500I0J-237500D01*
G01*
X172707000Y-57562500D01*
G75*
G02*
X172469500Y-57800000I-237500J0D01*
G01*
G37*
G36*
G01*
X172469500Y-55975000D02*
X171994500Y-55975000D01*
G75*
G02*
X171757000Y-55737500I0J237500D01*
G01*
X171757000Y-55237500D01*
G75*
G02*
X171994500Y-55000000I237500J0D01*
G01*
X172469500Y-55000000D01*
G75*
G02*
X172707000Y-55237500I0J-237500D01*
G01*
X172707000Y-55737500D01*
G75*
G02*
X172469500Y-55975000I-237500J0D01*
G01*
G37*
%TD*%
%TO.C,R11*%
G36*
G01*
X164469500Y-55811500D02*
X163994500Y-55811500D01*
G75*
G02*
X163757000Y-55574000I0J237500D01*
G01*
X163757000Y-55074000D01*
G75*
G02*
X163994500Y-54836500I237500J0D01*
G01*
X164469500Y-54836500D01*
G75*
G02*
X164707000Y-55074000I0J-237500D01*
G01*
X164707000Y-55574000D01*
G75*
G02*
X164469500Y-55811500I-237500J0D01*
G01*
G37*
G36*
G01*
X164469500Y-57636500D02*
X163994500Y-57636500D01*
G75*
G02*
X163757000Y-57399000I0J237500D01*
G01*
X163757000Y-56899000D01*
G75*
G02*
X163994500Y-56661500I237500J0D01*
G01*
X164469500Y-56661500D01*
G75*
G02*
X164707000Y-56899000I0J-237500D01*
G01*
X164707000Y-57399000D01*
G75*
G02*
X164469500Y-57636500I-237500J0D01*
G01*
G37*
%TD*%
%TO.C,R12*%
G36*
G01*
X100898012Y-64374112D02*
X101233888Y-64709988D01*
G75*
G02*
X101233888Y-65045864I-167938J-167938D01*
G01*
X100880334Y-65399418D01*
G75*
G02*
X100544458Y-65399418I-167938J167938D01*
G01*
X100208582Y-65063542D01*
G75*
G02*
X100208582Y-64727666I167938J167938D01*
G01*
X100562136Y-64374112D01*
G75*
G02*
X100898012Y-64374112I167938J-167938D01*
G01*
G37*
G36*
G01*
X99607542Y-65664582D02*
X99943418Y-66000458D01*
G75*
G02*
X99943418Y-66336334I-167938J-167938D01*
G01*
X99589864Y-66689888D01*
G75*
G02*
X99253988Y-66689888I-167938J167938D01*
G01*
X98918112Y-66354012D01*
G75*
G02*
X98918112Y-66018136I167938J167938D01*
G01*
X99271666Y-65664582D01*
G75*
G02*
X99607542Y-65664582I167938J-167938D01*
G01*
G37*
%TD*%
D14*
%TO.C,U1*%
X120076000Y-57742000D03*
X119126000Y-57742000D03*
X118176000Y-57742000D03*
X118176000Y-55542000D03*
X120076000Y-55542000D03*
%TD*%
%TO.C,U2*%
G36*
G01*
X103688754Y-66168400D02*
X103582688Y-66062334D01*
G75*
G02*
X103582688Y-65956268I53033J53033D01*
G01*
X104519604Y-65019352D01*
G75*
G02*
X104625670Y-65019352I53033J-53033D01*
G01*
X104731736Y-65125418D01*
G75*
G02*
X104731736Y-65231484I-53033J-53033D01*
G01*
X103794820Y-66168400D01*
G75*
G02*
X103688754Y-66168400I-53033J53033D01*
G01*
G37*
G36*
G01*
X103335200Y-65814846D02*
X103229134Y-65708780D01*
G75*
G02*
X103229134Y-65602714I53033J53033D01*
G01*
X104166050Y-64665798D01*
G75*
G02*
X104272116Y-64665798I53033J-53033D01*
G01*
X104378182Y-64771864D01*
G75*
G02*
X104378182Y-64877930I-53033J-53033D01*
G01*
X103441266Y-65814846D01*
G75*
G02*
X103335200Y-65814846I-53033J53033D01*
G01*
G37*
G36*
G01*
X102981647Y-65461293D02*
X102875581Y-65355227D01*
G75*
G02*
X102875581Y-65249161I53033J53033D01*
G01*
X103812497Y-64312245D01*
G75*
G02*
X103918563Y-64312245I53033J-53033D01*
G01*
X104024629Y-64418311D01*
G75*
G02*
X104024629Y-64524377I-53033J-53033D01*
G01*
X103087713Y-65461293D01*
G75*
G02*
X102981647Y-65461293I-53033J53033D01*
G01*
G37*
G36*
G01*
X102628093Y-65107739D02*
X102522027Y-65001673D01*
G75*
G02*
X102522027Y-64895607I53033J53033D01*
G01*
X103458943Y-63958691D01*
G75*
G02*
X103565009Y-63958691I53033J-53033D01*
G01*
X103671075Y-64064757D01*
G75*
G02*
X103671075Y-64170823I-53033J-53033D01*
G01*
X102734159Y-65107739D01*
G75*
G02*
X102628093Y-65107739I-53033J53033D01*
G01*
G37*
G36*
G01*
X102274540Y-64754186D02*
X102168474Y-64648120D01*
G75*
G02*
X102168474Y-64542054I53033J53033D01*
G01*
X103105390Y-63605138D01*
G75*
G02*
X103211456Y-63605138I53033J-53033D01*
G01*
X103317522Y-63711204D01*
G75*
G02*
X103317522Y-63817270I-53033J-53033D01*
G01*
X102380606Y-64754186D01*
G75*
G02*
X102274540Y-64754186I-53033J53033D01*
G01*
G37*
G36*
G01*
X101920987Y-64400633D02*
X101814921Y-64294567D01*
G75*
G02*
X101814921Y-64188501I53033J53033D01*
G01*
X102751837Y-63251585D01*
G75*
G02*
X102857903Y-63251585I53033J-53033D01*
G01*
X102963969Y-63357651D01*
G75*
G02*
X102963969Y-63463717I-53033J-53033D01*
G01*
X102027053Y-64400633D01*
G75*
G02*
X101920987Y-64400633I-53033J53033D01*
G01*
G37*
G36*
G01*
X101567433Y-64047079D02*
X101461367Y-63941013D01*
G75*
G02*
X101461367Y-63834947I53033J53033D01*
G01*
X102398283Y-62898031D01*
G75*
G02*
X102504349Y-62898031I53033J-53033D01*
G01*
X102610415Y-63004097D01*
G75*
G02*
X102610415Y-63110163I-53033J-53033D01*
G01*
X101673499Y-64047079D01*
G75*
G02*
X101567433Y-64047079I-53033J53033D01*
G01*
G37*
G36*
G01*
X101213880Y-63693526D02*
X101107814Y-63587460D01*
G75*
G02*
X101107814Y-63481394I53033J53033D01*
G01*
X102044730Y-62544478D01*
G75*
G02*
X102150796Y-62544478I53033J-53033D01*
G01*
X102256862Y-62650544D01*
G75*
G02*
X102256862Y-62756610I-53033J-53033D01*
G01*
X101319946Y-63693526D01*
G75*
G02*
X101213880Y-63693526I-53033J53033D01*
G01*
G37*
G36*
G01*
X100860327Y-63339973D02*
X100754261Y-63233907D01*
G75*
G02*
X100754261Y-63127841I53033J53033D01*
G01*
X101691177Y-62190925D01*
G75*
G02*
X101797243Y-62190925I53033J-53033D01*
G01*
X101903309Y-62296991D01*
G75*
G02*
X101903309Y-62403057I-53033J-53033D01*
G01*
X100966393Y-63339973D01*
G75*
G02*
X100860327Y-63339973I-53033J53033D01*
G01*
G37*
G36*
G01*
X100506773Y-62986419D02*
X100400707Y-62880353D01*
G75*
G02*
X100400707Y-62774287I53033J53033D01*
G01*
X101337623Y-61837371D01*
G75*
G02*
X101443689Y-61837371I53033J-53033D01*
G01*
X101549755Y-61943437D01*
G75*
G02*
X101549755Y-62049503I-53033J-53033D01*
G01*
X100612839Y-62986419D01*
G75*
G02*
X100506773Y-62986419I-53033J53033D01*
G01*
G37*
G36*
G01*
X100153220Y-62632866D02*
X100047154Y-62526800D01*
G75*
G02*
X100047154Y-62420734I53033J53033D01*
G01*
X100984070Y-61483818D01*
G75*
G02*
X101090136Y-61483818I53033J-53033D01*
G01*
X101196202Y-61589884D01*
G75*
G02*
X101196202Y-61695950I-53033J-53033D01*
G01*
X100259286Y-62632866D01*
G75*
G02*
X100153220Y-62632866I-53033J53033D01*
G01*
G37*
G36*
G01*
X99799666Y-62279312D02*
X99693600Y-62173246D01*
G75*
G02*
X99693600Y-62067180I53033J53033D01*
G01*
X100630516Y-61130264D01*
G75*
G02*
X100736582Y-61130264I53033J-53033D01*
G01*
X100842648Y-61236330D01*
G75*
G02*
X100842648Y-61342396I-53033J-53033D01*
G01*
X99905732Y-62279312D01*
G75*
G02*
X99799666Y-62279312I-53033J53033D01*
G01*
G37*
G36*
G01*
X100630516Y-60281736D02*
X99693600Y-59344820D01*
G75*
G02*
X99693600Y-59238754I53033J53033D01*
G01*
X99799666Y-59132688D01*
G75*
G02*
X99905732Y-59132688I53033J-53033D01*
G01*
X100842648Y-60069604D01*
G75*
G02*
X100842648Y-60175670I-53033J-53033D01*
G01*
X100736582Y-60281736D01*
G75*
G02*
X100630516Y-60281736I-53033J53033D01*
G01*
G37*
G36*
G01*
X100984070Y-59928182D02*
X100047154Y-58991266D01*
G75*
G02*
X100047154Y-58885200I53033J53033D01*
G01*
X100153220Y-58779134D01*
G75*
G02*
X100259286Y-58779134I53033J-53033D01*
G01*
X101196202Y-59716050D01*
G75*
G02*
X101196202Y-59822116I-53033J-53033D01*
G01*
X101090136Y-59928182D01*
G75*
G02*
X100984070Y-59928182I-53033J53033D01*
G01*
G37*
G36*
G01*
X101337623Y-59574629D02*
X100400707Y-58637713D01*
G75*
G02*
X100400707Y-58531647I53033J53033D01*
G01*
X100506773Y-58425581D01*
G75*
G02*
X100612839Y-58425581I53033J-53033D01*
G01*
X101549755Y-59362497D01*
G75*
G02*
X101549755Y-59468563I-53033J-53033D01*
G01*
X101443689Y-59574629D01*
G75*
G02*
X101337623Y-59574629I-53033J53033D01*
G01*
G37*
G36*
G01*
X101691177Y-59221075D02*
X100754261Y-58284159D01*
G75*
G02*
X100754261Y-58178093I53033J53033D01*
G01*
X100860327Y-58072027D01*
G75*
G02*
X100966393Y-58072027I53033J-53033D01*
G01*
X101903309Y-59008943D01*
G75*
G02*
X101903309Y-59115009I-53033J-53033D01*
G01*
X101797243Y-59221075D01*
G75*
G02*
X101691177Y-59221075I-53033J53033D01*
G01*
G37*
G36*
G01*
X102044730Y-58867522D02*
X101107814Y-57930606D01*
G75*
G02*
X101107814Y-57824540I53033J53033D01*
G01*
X101213880Y-57718474D01*
G75*
G02*
X101319946Y-57718474I53033J-53033D01*
G01*
X102256862Y-58655390D01*
G75*
G02*
X102256862Y-58761456I-53033J-53033D01*
G01*
X102150796Y-58867522D01*
G75*
G02*
X102044730Y-58867522I-53033J53033D01*
G01*
G37*
G36*
G01*
X102398283Y-58513969D02*
X101461367Y-57577053D01*
G75*
G02*
X101461367Y-57470987I53033J53033D01*
G01*
X101567433Y-57364921D01*
G75*
G02*
X101673499Y-57364921I53033J-53033D01*
G01*
X102610415Y-58301837D01*
G75*
G02*
X102610415Y-58407903I-53033J-53033D01*
G01*
X102504349Y-58513969D01*
G75*
G02*
X102398283Y-58513969I-53033J53033D01*
G01*
G37*
G36*
G01*
X102751837Y-58160415D02*
X101814921Y-57223499D01*
G75*
G02*
X101814921Y-57117433I53033J53033D01*
G01*
X101920987Y-57011367D01*
G75*
G02*
X102027053Y-57011367I53033J-53033D01*
G01*
X102963969Y-57948283D01*
G75*
G02*
X102963969Y-58054349I-53033J-53033D01*
G01*
X102857903Y-58160415D01*
G75*
G02*
X102751837Y-58160415I-53033J53033D01*
G01*
G37*
G36*
G01*
X103105390Y-57806862D02*
X102168474Y-56869946D01*
G75*
G02*
X102168474Y-56763880I53033J53033D01*
G01*
X102274540Y-56657814D01*
G75*
G02*
X102380606Y-56657814I53033J-53033D01*
G01*
X103317522Y-57594730D01*
G75*
G02*
X103317522Y-57700796I-53033J-53033D01*
G01*
X103211456Y-57806862D01*
G75*
G02*
X103105390Y-57806862I-53033J53033D01*
G01*
G37*
G36*
G01*
X103458943Y-57453309D02*
X102522027Y-56516393D01*
G75*
G02*
X102522027Y-56410327I53033J53033D01*
G01*
X102628093Y-56304261D01*
G75*
G02*
X102734159Y-56304261I53033J-53033D01*
G01*
X103671075Y-57241177D01*
G75*
G02*
X103671075Y-57347243I-53033J-53033D01*
G01*
X103565009Y-57453309D01*
G75*
G02*
X103458943Y-57453309I-53033J53033D01*
G01*
G37*
G36*
G01*
X103812497Y-57099755D02*
X102875581Y-56162839D01*
G75*
G02*
X102875581Y-56056773I53033J53033D01*
G01*
X102981647Y-55950707D01*
G75*
G02*
X103087713Y-55950707I53033J-53033D01*
G01*
X104024629Y-56887623D01*
G75*
G02*
X104024629Y-56993689I-53033J-53033D01*
G01*
X103918563Y-57099755D01*
G75*
G02*
X103812497Y-57099755I-53033J53033D01*
G01*
G37*
G36*
G01*
X104166050Y-56746202D02*
X103229134Y-55809286D01*
G75*
G02*
X103229134Y-55703220I53033J53033D01*
G01*
X103335200Y-55597154D01*
G75*
G02*
X103441266Y-55597154I53033J-53033D01*
G01*
X104378182Y-56534070D01*
G75*
G02*
X104378182Y-56640136I-53033J-53033D01*
G01*
X104272116Y-56746202D01*
G75*
G02*
X104166050Y-56746202I-53033J53033D01*
G01*
G37*
G36*
G01*
X104519604Y-56392648D02*
X103582688Y-55455732D01*
G75*
G02*
X103582688Y-55349666I53033J53033D01*
G01*
X103688754Y-55243600D01*
G75*
G02*
X103794820Y-55243600I53033J-53033D01*
G01*
X104731736Y-56180516D01*
G75*
G02*
X104731736Y-56286582I-53033J-53033D01*
G01*
X104625670Y-56392648D01*
G75*
G02*
X104519604Y-56392648I-53033J53033D01*
G01*
G37*
G36*
G01*
X105686330Y-56392648D02*
X105580264Y-56286582D01*
G75*
G02*
X105580264Y-56180516I53033J53033D01*
G01*
X106517180Y-55243600D01*
G75*
G02*
X106623246Y-55243600I53033J-53033D01*
G01*
X106729312Y-55349666D01*
G75*
G02*
X106729312Y-55455732I-53033J-53033D01*
G01*
X105792396Y-56392648D01*
G75*
G02*
X105686330Y-56392648I-53033J53033D01*
G01*
G37*
G36*
G01*
X106039884Y-56746202D02*
X105933818Y-56640136D01*
G75*
G02*
X105933818Y-56534070I53033J53033D01*
G01*
X106870734Y-55597154D01*
G75*
G02*
X106976800Y-55597154I53033J-53033D01*
G01*
X107082866Y-55703220D01*
G75*
G02*
X107082866Y-55809286I-53033J-53033D01*
G01*
X106145950Y-56746202D01*
G75*
G02*
X106039884Y-56746202I-53033J53033D01*
G01*
G37*
G36*
G01*
X106393437Y-57099755D02*
X106287371Y-56993689D01*
G75*
G02*
X106287371Y-56887623I53033J53033D01*
G01*
X107224287Y-55950707D01*
G75*
G02*
X107330353Y-55950707I53033J-53033D01*
G01*
X107436419Y-56056773D01*
G75*
G02*
X107436419Y-56162839I-53033J-53033D01*
G01*
X106499503Y-57099755D01*
G75*
G02*
X106393437Y-57099755I-53033J53033D01*
G01*
G37*
G36*
G01*
X106746991Y-57453309D02*
X106640925Y-57347243D01*
G75*
G02*
X106640925Y-57241177I53033J53033D01*
G01*
X107577841Y-56304261D01*
G75*
G02*
X107683907Y-56304261I53033J-53033D01*
G01*
X107789973Y-56410327D01*
G75*
G02*
X107789973Y-56516393I-53033J-53033D01*
G01*
X106853057Y-57453309D01*
G75*
G02*
X106746991Y-57453309I-53033J53033D01*
G01*
G37*
G36*
G01*
X107100544Y-57806862D02*
X106994478Y-57700796D01*
G75*
G02*
X106994478Y-57594730I53033J53033D01*
G01*
X107931394Y-56657814D01*
G75*
G02*
X108037460Y-56657814I53033J-53033D01*
G01*
X108143526Y-56763880D01*
G75*
G02*
X108143526Y-56869946I-53033J-53033D01*
G01*
X107206610Y-57806862D01*
G75*
G02*
X107100544Y-57806862I-53033J53033D01*
G01*
G37*
G36*
G01*
X107454097Y-58160415D02*
X107348031Y-58054349D01*
G75*
G02*
X107348031Y-57948283I53033J53033D01*
G01*
X108284947Y-57011367D01*
G75*
G02*
X108391013Y-57011367I53033J-53033D01*
G01*
X108497079Y-57117433D01*
G75*
G02*
X108497079Y-57223499I-53033J-53033D01*
G01*
X107560163Y-58160415D01*
G75*
G02*
X107454097Y-58160415I-53033J53033D01*
G01*
G37*
G36*
G01*
X107807651Y-58513969D02*
X107701585Y-58407903D01*
G75*
G02*
X107701585Y-58301837I53033J53033D01*
G01*
X108638501Y-57364921D01*
G75*
G02*
X108744567Y-57364921I53033J-53033D01*
G01*
X108850633Y-57470987D01*
G75*
G02*
X108850633Y-57577053I-53033J-53033D01*
G01*
X107913717Y-58513969D01*
G75*
G02*
X107807651Y-58513969I-53033J53033D01*
G01*
G37*
G36*
G01*
X108161204Y-58867522D02*
X108055138Y-58761456D01*
G75*
G02*
X108055138Y-58655390I53033J53033D01*
G01*
X108992054Y-57718474D01*
G75*
G02*
X109098120Y-57718474I53033J-53033D01*
G01*
X109204186Y-57824540D01*
G75*
G02*
X109204186Y-57930606I-53033J-53033D01*
G01*
X108267270Y-58867522D01*
G75*
G02*
X108161204Y-58867522I-53033J53033D01*
G01*
G37*
G36*
G01*
X108514757Y-59221075D02*
X108408691Y-59115009D01*
G75*
G02*
X108408691Y-59008943I53033J53033D01*
G01*
X109345607Y-58072027D01*
G75*
G02*
X109451673Y-58072027I53033J-53033D01*
G01*
X109557739Y-58178093D01*
G75*
G02*
X109557739Y-58284159I-53033J-53033D01*
G01*
X108620823Y-59221075D01*
G75*
G02*
X108514757Y-59221075I-53033J53033D01*
G01*
G37*
G36*
G01*
X108868311Y-59574629D02*
X108762245Y-59468563D01*
G75*
G02*
X108762245Y-59362497I53033J53033D01*
G01*
X109699161Y-58425581D01*
G75*
G02*
X109805227Y-58425581I53033J-53033D01*
G01*
X109911293Y-58531647D01*
G75*
G02*
X109911293Y-58637713I-53033J-53033D01*
G01*
X108974377Y-59574629D01*
G75*
G02*
X108868311Y-59574629I-53033J53033D01*
G01*
G37*
G36*
G01*
X109221864Y-59928182D02*
X109115798Y-59822116D01*
G75*
G02*
X109115798Y-59716050I53033J53033D01*
G01*
X110052714Y-58779134D01*
G75*
G02*
X110158780Y-58779134I53033J-53033D01*
G01*
X110264846Y-58885200D01*
G75*
G02*
X110264846Y-58991266I-53033J-53033D01*
G01*
X109327930Y-59928182D01*
G75*
G02*
X109221864Y-59928182I-53033J53033D01*
G01*
G37*
G36*
G01*
X109575418Y-60281736D02*
X109469352Y-60175670D01*
G75*
G02*
X109469352Y-60069604I53033J53033D01*
G01*
X110406268Y-59132688D01*
G75*
G02*
X110512334Y-59132688I53033J-53033D01*
G01*
X110618400Y-59238754D01*
G75*
G02*
X110618400Y-59344820I-53033J-53033D01*
G01*
X109681484Y-60281736D01*
G75*
G02*
X109575418Y-60281736I-53033J53033D01*
G01*
G37*
G36*
G01*
X110406268Y-62279312D02*
X109469352Y-61342396D01*
G75*
G02*
X109469352Y-61236330I53033J53033D01*
G01*
X109575418Y-61130264D01*
G75*
G02*
X109681484Y-61130264I53033J-53033D01*
G01*
X110618400Y-62067180D01*
G75*
G02*
X110618400Y-62173246I-53033J-53033D01*
G01*
X110512334Y-62279312D01*
G75*
G02*
X110406268Y-62279312I-53033J53033D01*
G01*
G37*
G36*
G01*
X110052714Y-62632866D02*
X109115798Y-61695950D01*
G75*
G02*
X109115798Y-61589884I53033J53033D01*
G01*
X109221864Y-61483818D01*
G75*
G02*
X109327930Y-61483818I53033J-53033D01*
G01*
X110264846Y-62420734D01*
G75*
G02*
X110264846Y-62526800I-53033J-53033D01*
G01*
X110158780Y-62632866D01*
G75*
G02*
X110052714Y-62632866I-53033J53033D01*
G01*
G37*
G36*
G01*
X109699161Y-62986419D02*
X108762245Y-62049503D01*
G75*
G02*
X108762245Y-61943437I53033J53033D01*
G01*
X108868311Y-61837371D01*
G75*
G02*
X108974377Y-61837371I53033J-53033D01*
G01*
X109911293Y-62774287D01*
G75*
G02*
X109911293Y-62880353I-53033J-53033D01*
G01*
X109805227Y-62986419D01*
G75*
G02*
X109699161Y-62986419I-53033J53033D01*
G01*
G37*
G36*
G01*
X109345607Y-63339973D02*
X108408691Y-62403057D01*
G75*
G02*
X108408691Y-62296991I53033J53033D01*
G01*
X108514757Y-62190925D01*
G75*
G02*
X108620823Y-62190925I53033J-53033D01*
G01*
X109557739Y-63127841D01*
G75*
G02*
X109557739Y-63233907I-53033J-53033D01*
G01*
X109451673Y-63339973D01*
G75*
G02*
X109345607Y-63339973I-53033J53033D01*
G01*
G37*
G36*
G01*
X108992054Y-63693526D02*
X108055138Y-62756610D01*
G75*
G02*
X108055138Y-62650544I53033J53033D01*
G01*
X108161204Y-62544478D01*
G75*
G02*
X108267270Y-62544478I53033J-53033D01*
G01*
X109204186Y-63481394D01*
G75*
G02*
X109204186Y-63587460I-53033J-53033D01*
G01*
X109098120Y-63693526D01*
G75*
G02*
X108992054Y-63693526I-53033J53033D01*
G01*
G37*
G36*
G01*
X108638501Y-64047079D02*
X107701585Y-63110163D01*
G75*
G02*
X107701585Y-63004097I53033J53033D01*
G01*
X107807651Y-62898031D01*
G75*
G02*
X107913717Y-62898031I53033J-53033D01*
G01*
X108850633Y-63834947D01*
G75*
G02*
X108850633Y-63941013I-53033J-53033D01*
G01*
X108744567Y-64047079D01*
G75*
G02*
X108638501Y-64047079I-53033J53033D01*
G01*
G37*
G36*
G01*
X108284947Y-64400633D02*
X107348031Y-63463717D01*
G75*
G02*
X107348031Y-63357651I53033J53033D01*
G01*
X107454097Y-63251585D01*
G75*
G02*
X107560163Y-63251585I53033J-53033D01*
G01*
X108497079Y-64188501D01*
G75*
G02*
X108497079Y-64294567I-53033J-53033D01*
G01*
X108391013Y-64400633D01*
G75*
G02*
X108284947Y-64400633I-53033J53033D01*
G01*
G37*
G36*
G01*
X107931394Y-64754186D02*
X106994478Y-63817270D01*
G75*
G02*
X106994478Y-63711204I53033J53033D01*
G01*
X107100544Y-63605138D01*
G75*
G02*
X107206610Y-63605138I53033J-53033D01*
G01*
X108143526Y-64542054D01*
G75*
G02*
X108143526Y-64648120I-53033J-53033D01*
G01*
X108037460Y-64754186D01*
G75*
G02*
X107931394Y-64754186I-53033J53033D01*
G01*
G37*
G36*
G01*
X107577841Y-65107739D02*
X106640925Y-64170823D01*
G75*
G02*
X106640925Y-64064757I53033J53033D01*
G01*
X106746991Y-63958691D01*
G75*
G02*
X106853057Y-63958691I53033J-53033D01*
G01*
X107789973Y-64895607D01*
G75*
G02*
X107789973Y-65001673I-53033J-53033D01*
G01*
X107683907Y-65107739D01*
G75*
G02*
X107577841Y-65107739I-53033J53033D01*
G01*
G37*
G36*
G01*
X107224287Y-65461293D02*
X106287371Y-64524377D01*
G75*
G02*
X106287371Y-64418311I53033J53033D01*
G01*
X106393437Y-64312245D01*
G75*
G02*
X106499503Y-64312245I53033J-53033D01*
G01*
X107436419Y-65249161D01*
G75*
G02*
X107436419Y-65355227I-53033J-53033D01*
G01*
X107330353Y-65461293D01*
G75*
G02*
X107224287Y-65461293I-53033J53033D01*
G01*
G37*
G36*
G01*
X106870734Y-65814846D02*
X105933818Y-64877930D01*
G75*
G02*
X105933818Y-64771864I53033J53033D01*
G01*
X106039884Y-64665798D01*
G75*
G02*
X106145950Y-64665798I53033J-53033D01*
G01*
X107082866Y-65602714D01*
G75*
G02*
X107082866Y-65708780I-53033J-53033D01*
G01*
X106976800Y-65814846D01*
G75*
G02*
X106870734Y-65814846I-53033J53033D01*
G01*
G37*
G36*
G01*
X106517180Y-66168400D02*
X105580264Y-65231484D01*
G75*
G02*
X105580264Y-65125418I53033J53033D01*
G01*
X105686330Y-65019352D01*
G75*
G02*
X105792396Y-65019352I53033J-53033D01*
G01*
X106729312Y-65956268D01*
G75*
G02*
X106729312Y-66062334I-53033J-53033D01*
G01*
X106623246Y-66168400D01*
G75*
G02*
X106517180Y-66168400I-53033J53033D01*
G01*
G37*
%TD*%
D15*
%TO.C,PB1*%
X155438000Y-64770000D03*
X155438000Y-58470000D03*
X151638000Y-64770000D03*
X151638000Y-58470000D03*
%TD*%
%TO.C,PB2*%
X145664000Y-64872000D03*
X145664000Y-58572000D03*
X141864000Y-64872000D03*
X141864000Y-58572000D03*
%TD*%
M02*
