%TF.GenerationSoftware,KiCad,Pcbnew,5.1.10*%
%TF.CreationDate,2021-08-04T22:26:14+02:00*%
%TF.ProjectId,keyboard,6b657962-6f61-4726-942e-6b696361645f,rev?*%
%TF.SameCoordinates,Original*%
%TF.FileFunction,Legend,Bot*%
%TF.FilePolarity,Positive*%
%FSLAX46Y46*%
G04 Gerber Fmt 4.6, Leading zero omitted, Abs format (unit mm)*
G04 Created by KiCad (PCBNEW 5.1.10) date 2021-08-04 22:26:14*
%MOMM*%
%LPD*%
G01*
G04 APERTURE LIST*
%ADD10C,0.300000*%
%ADD11C,0.150000*%
%ADD12C,0.120000*%
G04 APERTURE END LIST*
D10*
X89278857Y-65791628D02*
X89278857Y-65048771D01*
X89736000Y-65448771D01*
X89736000Y-65277342D01*
X89793142Y-65163057D01*
X89850285Y-65105914D01*
X89964571Y-65048771D01*
X90250285Y-65048771D01*
X90364571Y-65105914D01*
X90421714Y-65163057D01*
X90478857Y-65277342D01*
X90478857Y-65620200D01*
X90421714Y-65734485D01*
X90364571Y-65791628D01*
X90364571Y-64534485D02*
X90421714Y-64477342D01*
X90478857Y-64534485D01*
X90421714Y-64591628D01*
X90364571Y-64534485D01*
X90478857Y-64534485D01*
X89278857Y-64077342D02*
X89278857Y-63334485D01*
X89736000Y-63734485D01*
X89736000Y-63563057D01*
X89793142Y-63448771D01*
X89850285Y-63391628D01*
X89964571Y-63334485D01*
X90250285Y-63334485D01*
X90364571Y-63391628D01*
X90421714Y-63448771D01*
X90478857Y-63563057D01*
X90478857Y-63905914D01*
X90421714Y-64020200D01*
X90364571Y-64077342D01*
X89278857Y-62991628D02*
X90478857Y-62591628D01*
X89278857Y-62191628D01*
X79331571Y-65524342D02*
X80474428Y-65524342D01*
X81728714Y-69147771D02*
X81671571Y-69204914D01*
X81500142Y-69262057D01*
X81385857Y-69262057D01*
X81214428Y-69204914D01*
X81100142Y-69090628D01*
X81043000Y-68976342D01*
X80985857Y-68747771D01*
X80985857Y-68576342D01*
X81043000Y-68347771D01*
X81100142Y-68233485D01*
X81214428Y-68119200D01*
X81385857Y-68062057D01*
X81500142Y-68062057D01*
X81671571Y-68119200D01*
X81728714Y-68176342D01*
X82814428Y-69262057D02*
X82243000Y-69262057D01*
X82243000Y-68062057D01*
X83214428Y-69262057D02*
X83214428Y-68062057D01*
X83900142Y-69262057D02*
X83385857Y-68576342D01*
X83900142Y-68062057D02*
X83214428Y-68747771D01*
X84989428Y-69262057D02*
X84989428Y-68062057D01*
X85789428Y-68062057D02*
X86018000Y-68062057D01*
X86132285Y-68119200D01*
X86246571Y-68233485D01*
X86303714Y-68462057D01*
X86303714Y-68862057D01*
X86246571Y-69090628D01*
X86132285Y-69204914D01*
X86018000Y-69262057D01*
X85789428Y-69262057D01*
X85675142Y-69204914D01*
X85560857Y-69090628D01*
X85503714Y-68862057D01*
X85503714Y-68462057D01*
X85560857Y-68233485D01*
X85675142Y-68119200D01*
X85789428Y-68062057D01*
D11*
X153769333Y-56506571D02*
X153626476Y-56554190D01*
X153578857Y-56601809D01*
X153531238Y-56697047D01*
X153531238Y-56839904D01*
X153578857Y-56935142D01*
X153626476Y-56982761D01*
X153721714Y-57030380D01*
X154102666Y-57030380D01*
X154102666Y-56030380D01*
X153769333Y-56030380D01*
X153674095Y-56078000D01*
X153626476Y-56125619D01*
X153578857Y-56220857D01*
X153578857Y-56316095D01*
X153626476Y-56411333D01*
X153674095Y-56458952D01*
X153769333Y-56506571D01*
X154102666Y-56506571D01*
X152626476Y-57030380D02*
X153102666Y-57030380D01*
X153102666Y-56030380D01*
X145236380Y-57030380D02*
X145569714Y-56554190D01*
X145807809Y-57030380D02*
X145807809Y-56030380D01*
X145426857Y-56030380D01*
X145331619Y-56078000D01*
X145284000Y-56125619D01*
X145236380Y-56220857D01*
X145236380Y-56363714D01*
X145284000Y-56458952D01*
X145331619Y-56506571D01*
X145426857Y-56554190D01*
X145807809Y-56554190D01*
X144807809Y-56506571D02*
X144474476Y-56506571D01*
X144331619Y-57030380D02*
X144807809Y-57030380D01*
X144807809Y-56030380D01*
X144331619Y-56030380D01*
X143950666Y-56982761D02*
X143807809Y-57030380D01*
X143569714Y-57030380D01*
X143474476Y-56982761D01*
X143426857Y-56935142D01*
X143379238Y-56839904D01*
X143379238Y-56744666D01*
X143426857Y-56649428D01*
X143474476Y-56601809D01*
X143569714Y-56554190D01*
X143760190Y-56506571D01*
X143855428Y-56458952D01*
X143903047Y-56411333D01*
X143950666Y-56316095D01*
X143950666Y-56220857D01*
X143903047Y-56125619D01*
X143855428Y-56078000D01*
X143760190Y-56030380D01*
X143522095Y-56030380D01*
X143379238Y-56078000D01*
X142950666Y-56506571D02*
X142617333Y-56506571D01*
X142474476Y-57030380D02*
X142950666Y-57030380D01*
X142950666Y-56030380D01*
X142474476Y-56030380D01*
X142188761Y-56030380D02*
X141617333Y-56030380D01*
X141903047Y-57030380D02*
X141903047Y-56030380D01*
D10*
X183081000Y-63015142D02*
X183081000Y-60015142D01*
X182081000Y-62158000D01*
X181081000Y-60015142D01*
X181081000Y-63015142D01*
X178366714Y-63015142D02*
X178366714Y-61443714D01*
X178509571Y-61158000D01*
X178795285Y-61015142D01*
X179366714Y-61015142D01*
X179652428Y-61158000D01*
X178366714Y-62872285D02*
X178652428Y-63015142D01*
X179366714Y-63015142D01*
X179652428Y-62872285D01*
X179795285Y-62586571D01*
X179795285Y-62300857D01*
X179652428Y-62015142D01*
X179366714Y-61872285D01*
X178652428Y-61872285D01*
X178366714Y-61729428D01*
X177223857Y-61015142D02*
X176509571Y-63015142D01*
X175795285Y-61015142D02*
X176509571Y-63015142D01*
X176795285Y-63729428D01*
X176938142Y-63872285D01*
X177223857Y-64015142D01*
X174652428Y-63015142D02*
X174652428Y-60015142D01*
X172938142Y-63015142D02*
X174223857Y-61300857D01*
X172938142Y-60015142D02*
X174652428Y-61729428D01*
X170652428Y-61443714D02*
X170223857Y-61586571D01*
X170081000Y-61729428D01*
X169938142Y-62015142D01*
X169938142Y-62443714D01*
X170081000Y-62729428D01*
X170223857Y-62872285D01*
X170509571Y-63015142D01*
X171652428Y-63015142D01*
X171652428Y-60015142D01*
X170652428Y-60015142D01*
X170366714Y-60158000D01*
X170223857Y-60300857D01*
X170081000Y-60586571D01*
X170081000Y-60872285D01*
X170223857Y-61158000D01*
X170366714Y-61300857D01*
X170652428Y-61443714D01*
X171652428Y-61443714D01*
X166795285Y-60015142D02*
X165795285Y-63015142D01*
X164795285Y-60015142D01*
X163938142Y-60300857D02*
X163795285Y-60158000D01*
X163509571Y-60015142D01*
X162795285Y-60015142D01*
X162509571Y-60158000D01*
X162366714Y-60300857D01*
X162223857Y-60586571D01*
X162223857Y-60872285D01*
X162366714Y-61300857D01*
X164081000Y-63015142D01*
X162223857Y-63015142D01*
X160938142Y-62729428D02*
X160795285Y-62872285D01*
X160938142Y-63015142D01*
X161081000Y-62872285D01*
X160938142Y-62729428D01*
X160938142Y-63015142D01*
X158938142Y-60015142D02*
X158652428Y-60015142D01*
X158366714Y-60158000D01*
X158223857Y-60300857D01*
X158081000Y-60586571D01*
X157938142Y-61158000D01*
X157938142Y-61872285D01*
X158081000Y-62443714D01*
X158223857Y-62729428D01*
X158366714Y-62872285D01*
X158652428Y-63015142D01*
X158938142Y-63015142D01*
X159223857Y-62872285D01*
X159366714Y-62729428D01*
X159509571Y-62443714D01*
X159652428Y-61872285D01*
X159652428Y-61158000D01*
X159509571Y-60586571D01*
X159366714Y-60300857D01*
X159223857Y-60158000D01*
X158938142Y-60015142D01*
D12*
%TO.C,Y1*%
X95850800Y-60736000D02*
X95850800Y-66486000D01*
X95850800Y-66486000D02*
X92250800Y-66486000D01*
X92250800Y-66486000D02*
X92250800Y-60736000D01*
%TO.C,D9*%
X58552500Y-98999000D02*
X58552500Y-96449000D01*
X56852500Y-98999000D02*
X56852500Y-96449000D01*
X58552500Y-98999000D02*
X56852500Y-98999000D01*
%TO.C,D8*%
X191902500Y-79949000D02*
X191902500Y-77399000D01*
X190202500Y-79949000D02*
X190202500Y-77399000D01*
X191902500Y-79949000D02*
X190202500Y-79949000D01*
%TO.C,D7*%
X163327500Y-79949000D02*
X163327500Y-77399000D01*
X161627500Y-79949000D02*
X161627500Y-77399000D01*
X163327500Y-79949000D02*
X161627500Y-79949000D01*
%TO.C,D6*%
X144277500Y-79949000D02*
X144277500Y-77399000D01*
X142577500Y-79949000D02*
X142577500Y-77399000D01*
X144277500Y-79949000D02*
X142577500Y-79949000D01*
%TO.C,D5*%
X125227500Y-79949000D02*
X125227500Y-77399000D01*
X123527500Y-79949000D02*
X123527500Y-77399000D01*
X125227500Y-79949000D02*
X123527500Y-79949000D01*
%TO.C,D4*%
X106177500Y-79949000D02*
X106177500Y-77399000D01*
X104477500Y-79949000D02*
X104477500Y-77399000D01*
X106177500Y-79949000D02*
X104477500Y-79949000D01*
%TO.C,D39*%
X187140000Y-156149000D02*
X187140000Y-153599000D01*
X185440000Y-156149000D02*
X185440000Y-153599000D01*
X187140000Y-156149000D02*
X185440000Y-156149000D01*
%TO.C,D38*%
X168090000Y-156149000D02*
X168090000Y-153599000D01*
X166390000Y-156149000D02*
X166390000Y-153599000D01*
X168090000Y-156149000D02*
X166390000Y-156149000D01*
%TO.C,D37*%
X149040000Y-156149000D02*
X149040000Y-153599000D01*
X147340000Y-156149000D02*
X147340000Y-153599000D01*
X149040000Y-156149000D02*
X147340000Y-156149000D01*
%TO.C,D36*%
X129990000Y-156149000D02*
X129990000Y-153599000D01*
X128290000Y-156149000D02*
X128290000Y-153599000D01*
X129990000Y-156149000D02*
X128290000Y-156149000D01*
%TO.C,D35*%
X110940000Y-156149000D02*
X110940000Y-153599000D01*
X109240000Y-156149000D02*
X109240000Y-153599000D01*
X110940000Y-156149000D02*
X109240000Y-156149000D01*
%TO.C,D34*%
X91890000Y-156149000D02*
X91890000Y-153599000D01*
X90190000Y-156149000D02*
X90190000Y-153599000D01*
X91890000Y-156149000D02*
X90190000Y-156149000D01*
%TO.C,D33*%
X63315000Y-156149000D02*
X63315000Y-153599000D01*
X61615000Y-156149000D02*
X61615000Y-153599000D01*
X63315000Y-156149000D02*
X61615000Y-156149000D01*
%TO.C,D32*%
X194283750Y-137099000D02*
X194283750Y-134549000D01*
X192583750Y-137099000D02*
X192583750Y-134549000D01*
X194283750Y-137099000D02*
X192583750Y-137099000D01*
%TO.C,D31*%
X168090000Y-137099000D02*
X168090000Y-134549000D01*
X166390000Y-137099000D02*
X166390000Y-134549000D01*
X168090000Y-137099000D02*
X166390000Y-137099000D01*
%TO.C,D30*%
X149040000Y-137099000D02*
X149040000Y-134549000D01*
X147340000Y-137099000D02*
X147340000Y-134549000D01*
X149040000Y-137099000D02*
X147340000Y-137099000D01*
%TO.C,D3*%
X87127500Y-79949000D02*
X87127500Y-77399000D01*
X85427500Y-79949000D02*
X85427500Y-77399000D01*
X87127500Y-79949000D02*
X85427500Y-79949000D01*
%TO.C,D29*%
X129990000Y-137099000D02*
X129990000Y-134549000D01*
X128290000Y-137099000D02*
X128290000Y-134549000D01*
X129990000Y-137099000D02*
X128290000Y-137099000D01*
%TO.C,D28*%
X110940000Y-137099000D02*
X110940000Y-134549000D01*
X109240000Y-137099000D02*
X109240000Y-134549000D01*
X110940000Y-137099000D02*
X109240000Y-137099000D01*
%TO.C,D27*%
X91890000Y-137099000D02*
X91890000Y-134549000D01*
X90190000Y-137099000D02*
X90190000Y-134549000D01*
X91890000Y-137099000D02*
X90190000Y-137099000D01*
%TO.C,D26*%
X72840000Y-137099000D02*
X72840000Y-134549000D01*
X71140000Y-137099000D02*
X71140000Y-134549000D01*
X72840000Y-137099000D02*
X71140000Y-137099000D01*
%TO.C,D25*%
X53790000Y-137099000D02*
X53790000Y-134549000D01*
X52090000Y-137099000D02*
X52090000Y-134549000D01*
X53790000Y-137099000D02*
X52090000Y-137099000D01*
%TO.C,D24*%
X177615000Y-118049000D02*
X177615000Y-115499000D01*
X175915000Y-118049000D02*
X175915000Y-115499000D01*
X177615000Y-118049000D02*
X175915000Y-118049000D01*
%TO.C,D23*%
X158565000Y-118049000D02*
X158565000Y-115499000D01*
X156865000Y-118049000D02*
X156865000Y-115499000D01*
X158565000Y-118049000D02*
X156865000Y-118049000D01*
%TO.C,D22*%
X139515000Y-118049000D02*
X139515000Y-115499000D01*
X137815000Y-118049000D02*
X137815000Y-115499000D01*
X139515000Y-118049000D02*
X137815000Y-118049000D01*
%TO.C,D21*%
X120465000Y-118049000D02*
X120465000Y-115499000D01*
X118765000Y-118049000D02*
X118765000Y-115499000D01*
X120465000Y-118049000D02*
X118765000Y-118049000D01*
%TO.C,D20*%
X101415000Y-118049000D02*
X101415000Y-115499000D01*
X99715000Y-118049000D02*
X99715000Y-115499000D01*
X101415000Y-118049000D02*
X99715000Y-118049000D01*
%TO.C,D2*%
X68077500Y-79949000D02*
X68077500Y-77399000D01*
X66377500Y-79949000D02*
X66377500Y-77399000D01*
X68077500Y-79949000D02*
X66377500Y-79949000D01*
%TO.C,D19*%
X82365000Y-118049000D02*
X82365000Y-115499000D01*
X80665000Y-118049000D02*
X80665000Y-115499000D01*
X82365000Y-118049000D02*
X80665000Y-118049000D01*
%TO.C,D18*%
X63315000Y-118049000D02*
X63315000Y-115499000D01*
X61615000Y-118049000D02*
X61615000Y-115499000D01*
X63315000Y-118049000D02*
X61615000Y-118049000D01*
%TO.C,D17*%
X44265000Y-118049000D02*
X44265000Y-115499000D01*
X42565000Y-118049000D02*
X42565000Y-115499000D01*
X44265000Y-118049000D02*
X42565000Y-118049000D01*
%TO.C,D16*%
X199046250Y-108524000D02*
X199046250Y-105974000D01*
X197346250Y-108524000D02*
X197346250Y-105974000D01*
X199046250Y-108524000D02*
X197346250Y-108524000D01*
%TO.C,D15*%
X172852500Y-98999000D02*
X172852500Y-96449000D01*
X171152500Y-98999000D02*
X171152500Y-96449000D01*
X172852500Y-98999000D02*
X171152500Y-98999000D01*
%TO.C,D14*%
X153802500Y-98999000D02*
X153802500Y-96449000D01*
X152102500Y-98999000D02*
X152102500Y-96449000D01*
X153802500Y-98999000D02*
X152102500Y-98999000D01*
%TO.C,D13*%
X134752500Y-98999000D02*
X134752500Y-96449000D01*
X133052500Y-98999000D02*
X133052500Y-96449000D01*
X134752500Y-98999000D02*
X133052500Y-98999000D01*
%TO.C,D12*%
X115702500Y-98999000D02*
X115702500Y-96449000D01*
X114002500Y-98999000D02*
X114002500Y-96449000D01*
X115702500Y-98999000D02*
X114002500Y-98999000D01*
%TO.C,D11*%
X96652500Y-98999000D02*
X96652500Y-96449000D01*
X94952500Y-98999000D02*
X94952500Y-96449000D01*
X96652500Y-98999000D02*
X94952500Y-98999000D01*
%TO.C,D10*%
X77602500Y-98999000D02*
X77602500Y-96449000D01*
X75902500Y-98999000D02*
X75902500Y-96449000D01*
X77602500Y-98999000D02*
X75902500Y-98999000D01*
%TO.C,D1*%
X49027500Y-79949000D02*
X49027500Y-77399000D01*
X47327500Y-79949000D02*
X47327500Y-77399000D01*
X49027500Y-79949000D02*
X47327500Y-79949000D01*
%TO.C,C1*%
X98442633Y-63585920D02*
X98073166Y-63955387D01*
X99482080Y-64625367D02*
X99112613Y-64994834D01*
%TO.C,C2*%
X101773010Y-54159543D02*
X101403543Y-54529010D01*
X102812457Y-55198990D02*
X102442990Y-55568457D01*
%TO.C,C3*%
X113015752Y-61441000D02*
X112493248Y-61441000D01*
X113015752Y-59971000D02*
X112493248Y-59971000D01*
%TO.C,C4*%
X108937248Y-67791000D02*
X109459752Y-67791000D01*
X108937248Y-66321000D02*
X109459752Y-66321000D01*
%TO.C,C5*%
X112282248Y-63019000D02*
X112804752Y-63019000D01*
X112282248Y-64489000D02*
X112804752Y-64489000D01*
%TO.C,C6*%
X122377000Y-56395233D02*
X122377000Y-56687767D01*
X121357000Y-56395233D02*
X121357000Y-56687767D01*
%TO.C,C7*%
X138657000Y-64247752D02*
X138657000Y-63725248D01*
X137187000Y-64247752D02*
X137187000Y-63725248D01*
%TO.C,C8*%
X119171767Y-58926000D02*
X118879233Y-58926000D01*
X119171767Y-59946000D02*
X118879233Y-59946000D01*
%TO.C,C9*%
X84059752Y-67537000D02*
X83537248Y-67537000D01*
X84059752Y-66067000D02*
X83537248Y-66067000D01*
%TO.C,C10*%
X99818802Y-67353949D02*
X99611949Y-67560802D01*
X100540051Y-68075198D02*
X100333198Y-68282051D01*
%TO.C,C11*%
X98046000Y-61475233D02*
X98046000Y-61767767D01*
X97026000Y-61475233D02*
X97026000Y-61767767D01*
%TO.C,J1*%
X124981001Y-53780999D02*
X124981001Y-51880999D01*
X124981001Y-57680999D02*
X124981001Y-55680999D01*
X134381001Y-53780999D02*
X134381001Y-51880999D01*
X134381001Y-57680999D02*
X134381001Y-55680999D01*
X124981001Y-51880999D02*
X134381001Y-51880999D01*
%TO.C,J2*%
X88960000Y-62314000D02*
X78680000Y-62314000D01*
X78680000Y-62314000D02*
X78680000Y-59654000D01*
X78680000Y-59654000D02*
X88960000Y-59654000D01*
X88960000Y-59654000D02*
X88960000Y-62314000D01*
X88010000Y-59654000D02*
X88010000Y-53654000D01*
X88010000Y-53654000D02*
X87250000Y-53654000D01*
X87250000Y-53654000D02*
X87250000Y-59654000D01*
X87950000Y-59654000D02*
X87950000Y-53654000D01*
X87830000Y-59654000D02*
X87830000Y-53654000D01*
X87710000Y-59654000D02*
X87710000Y-53654000D01*
X87590000Y-59654000D02*
X87590000Y-53654000D01*
X87470000Y-59654000D02*
X87470000Y-53654000D01*
X87350000Y-59654000D02*
X87350000Y-53654000D01*
X88010000Y-62644000D02*
X88010000Y-62314000D01*
X87250000Y-62644000D02*
X87250000Y-62314000D01*
X86360000Y-62314000D02*
X86360000Y-59654000D01*
X85470000Y-59654000D02*
X85470000Y-53654000D01*
X85470000Y-53654000D02*
X84710000Y-53654000D01*
X84710000Y-53654000D02*
X84710000Y-59654000D01*
X85470000Y-62711071D02*
X85470000Y-62314000D01*
X84710000Y-62711071D02*
X84710000Y-62314000D01*
X83820000Y-62314000D02*
X83820000Y-59654000D01*
X82930000Y-59654000D02*
X82930000Y-53654000D01*
X82930000Y-53654000D02*
X82170000Y-53654000D01*
X82170000Y-53654000D02*
X82170000Y-59654000D01*
X82930000Y-62711071D02*
X82930000Y-62314000D01*
X82170000Y-62711071D02*
X82170000Y-62314000D01*
X81280000Y-62314000D02*
X81280000Y-59654000D01*
X80390000Y-59654000D02*
X80390000Y-53654000D01*
X80390000Y-53654000D02*
X79630000Y-53654000D01*
X79630000Y-53654000D02*
X79630000Y-59654000D01*
X80390000Y-62711071D02*
X80390000Y-62314000D01*
X79630000Y-62711071D02*
X79630000Y-62314000D01*
X87630000Y-65024000D02*
X88900000Y-65024000D01*
X88900000Y-65024000D02*
X88900000Y-63754000D01*
%TO.C,R1*%
X119379276Y-64501500D02*
X119888724Y-64501500D01*
X119379276Y-65546500D02*
X119888724Y-65546500D01*
%TO.C,R2*%
X150128500Y-64366224D02*
X150128500Y-63856776D01*
X149083500Y-64366224D02*
X149083500Y-63856776D01*
%TO.C,R3*%
X140222500Y-64110776D02*
X140222500Y-64620224D01*
X139177500Y-64110776D02*
X139177500Y-64620224D01*
%TO.C,R4*%
X126477500Y-63143224D02*
X126477500Y-62633776D01*
X127522500Y-63143224D02*
X127522500Y-62633776D01*
%TO.C,R5*%
X134126500Y-63143224D02*
X134126500Y-62633776D01*
X133081500Y-63143224D02*
X133081500Y-62633776D01*
%TO.C,R6*%
X129525500Y-64620224D02*
X129525500Y-64110776D01*
X130570500Y-64620224D02*
X130570500Y-64110776D01*
%TO.C,R7*%
X129046500Y-64620224D02*
X129046500Y-64110776D01*
X128001500Y-64620224D02*
X128001500Y-64110776D01*
%TO.C,R8*%
X129691224Y-61453500D02*
X129181776Y-61453500D01*
X129691224Y-62498500D02*
X129181776Y-62498500D01*
%TO.C,R9*%
X179709500Y-56666224D02*
X179709500Y-56156776D01*
X180754500Y-56666224D02*
X180754500Y-56156776D01*
%TO.C,R10*%
X172754500Y-56654724D02*
X172754500Y-56145276D01*
X171709500Y-56654724D02*
X171709500Y-56145276D01*
%TO.C,R11*%
X163709500Y-56491224D02*
X163709500Y-55981776D01*
X164754500Y-56491224D02*
X164754500Y-55981776D01*
%TO.C,R12*%
X99886654Y-64982420D02*
X99526420Y-65342654D01*
X100625580Y-65721346D02*
X100265346Y-66081580D01*
%TO.C,TP1*%
X117540000Y-65024000D02*
G75*
G03*
X117540000Y-65024000I-700000J0D01*
G01*
%TO.C,TP2*%
X132526000Y-63500000D02*
G75*
G03*
X132526000Y-63500000I-700000J0D01*
G01*
%TO.C,TP3*%
X125922000Y-62230000D02*
G75*
G03*
X125922000Y-62230000I-700000J0D01*
G01*
%TO.C,U1*%
X117516000Y-57542000D02*
X117516000Y-55742000D01*
X120736000Y-55742000D02*
X120736000Y-58192000D01*
%TO.C,U2*%
X104837802Y-55918887D02*
X105156000Y-55600689D01*
X105156000Y-55600689D02*
X105474198Y-55918887D01*
X100368887Y-60387802D02*
X100050689Y-60706000D01*
X100050689Y-60706000D02*
X100368887Y-61024198D01*
X109943113Y-61024198D02*
X110261311Y-60706000D01*
X110261311Y-60706000D02*
X109943113Y-60387802D01*
X105474198Y-65493113D02*
X105156000Y-65811311D01*
X105156000Y-65811311D02*
X104837802Y-65493113D01*
X104837802Y-65493113D02*
X103925634Y-66405281D01*
%TO.C,PB1*%
X150788000Y-60370000D02*
X150788000Y-62870000D01*
X152538000Y-58870000D02*
X154538000Y-58870000D01*
X156288000Y-60370000D02*
X156288000Y-62870000D01*
X152538000Y-64370000D02*
X154538000Y-64370000D01*
X151238000Y-59920000D02*
X150788000Y-60370000D01*
X151238000Y-63320000D02*
X150788000Y-62870000D01*
X155838000Y-63320000D02*
X156288000Y-62870000D01*
X155838000Y-59920000D02*
X156288000Y-60370000D01*
%TO.C,PB2*%
X141464000Y-63422000D02*
X141014000Y-62972000D01*
X141464000Y-60022000D02*
X141014000Y-60472000D01*
X146064000Y-60022000D02*
X146514000Y-60472000D01*
X146064000Y-63422000D02*
X146514000Y-62972000D01*
X144764000Y-58972000D02*
X142764000Y-58972000D01*
X141014000Y-62972000D02*
X141014000Y-60472000D01*
X144764000Y-64472000D02*
X142764000Y-64472000D01*
X146514000Y-62972000D02*
X146514000Y-60472000D01*
%TO.C,Y1*%
D11*
X94374590Y-59449790D02*
X94374590Y-59925980D01*
X94707923Y-58925980D02*
X94374590Y-59449790D01*
X94041257Y-58925980D01*
X93184114Y-59925980D02*
X93755542Y-59925980D01*
X93469828Y-59925980D02*
X93469828Y-58925980D01*
X93565066Y-59068838D01*
X93660304Y-59164076D01*
X93755542Y-59211695D01*
%TO.C,D9*%
X60004880Y-96760904D02*
X59004880Y-96760904D01*
X59004880Y-96999000D01*
X59052500Y-97141857D01*
X59147738Y-97237095D01*
X59242976Y-97284714D01*
X59433452Y-97332333D01*
X59576309Y-97332333D01*
X59766785Y-97284714D01*
X59862023Y-97237095D01*
X59957261Y-97141857D01*
X60004880Y-96999000D01*
X60004880Y-96760904D01*
X60004880Y-97808523D02*
X60004880Y-97999000D01*
X59957261Y-98094238D01*
X59909642Y-98141857D01*
X59766785Y-98237095D01*
X59576309Y-98284714D01*
X59195357Y-98284714D01*
X59100119Y-98237095D01*
X59052500Y-98189476D01*
X59004880Y-98094238D01*
X59004880Y-97903761D01*
X59052500Y-97808523D01*
X59100119Y-97760904D01*
X59195357Y-97713285D01*
X59433452Y-97713285D01*
X59528690Y-97760904D01*
X59576309Y-97808523D01*
X59623928Y-97903761D01*
X59623928Y-98094238D01*
X59576309Y-98189476D01*
X59528690Y-98237095D01*
X59433452Y-98284714D01*
%TO.C,D8*%
X193354880Y-77710904D02*
X192354880Y-77710904D01*
X192354880Y-77949000D01*
X192402500Y-78091857D01*
X192497738Y-78187095D01*
X192592976Y-78234714D01*
X192783452Y-78282333D01*
X192926309Y-78282333D01*
X193116785Y-78234714D01*
X193212023Y-78187095D01*
X193307261Y-78091857D01*
X193354880Y-77949000D01*
X193354880Y-77710904D01*
X192783452Y-78853761D02*
X192735833Y-78758523D01*
X192688214Y-78710904D01*
X192592976Y-78663285D01*
X192545357Y-78663285D01*
X192450119Y-78710904D01*
X192402500Y-78758523D01*
X192354880Y-78853761D01*
X192354880Y-79044238D01*
X192402500Y-79139476D01*
X192450119Y-79187095D01*
X192545357Y-79234714D01*
X192592976Y-79234714D01*
X192688214Y-79187095D01*
X192735833Y-79139476D01*
X192783452Y-79044238D01*
X192783452Y-78853761D01*
X192831071Y-78758523D01*
X192878690Y-78710904D01*
X192973928Y-78663285D01*
X193164404Y-78663285D01*
X193259642Y-78710904D01*
X193307261Y-78758523D01*
X193354880Y-78853761D01*
X193354880Y-79044238D01*
X193307261Y-79139476D01*
X193259642Y-79187095D01*
X193164404Y-79234714D01*
X192973928Y-79234714D01*
X192878690Y-79187095D01*
X192831071Y-79139476D01*
X192783452Y-79044238D01*
%TO.C,D7*%
X164779880Y-77710904D02*
X163779880Y-77710904D01*
X163779880Y-77949000D01*
X163827500Y-78091857D01*
X163922738Y-78187095D01*
X164017976Y-78234714D01*
X164208452Y-78282333D01*
X164351309Y-78282333D01*
X164541785Y-78234714D01*
X164637023Y-78187095D01*
X164732261Y-78091857D01*
X164779880Y-77949000D01*
X164779880Y-77710904D01*
X163779880Y-78615666D02*
X163779880Y-79282333D01*
X164779880Y-78853761D01*
%TO.C,D6*%
X145729880Y-77710904D02*
X144729880Y-77710904D01*
X144729880Y-77949000D01*
X144777500Y-78091857D01*
X144872738Y-78187095D01*
X144967976Y-78234714D01*
X145158452Y-78282333D01*
X145301309Y-78282333D01*
X145491785Y-78234714D01*
X145587023Y-78187095D01*
X145682261Y-78091857D01*
X145729880Y-77949000D01*
X145729880Y-77710904D01*
X144729880Y-79139476D02*
X144729880Y-78949000D01*
X144777500Y-78853761D01*
X144825119Y-78806142D01*
X144967976Y-78710904D01*
X145158452Y-78663285D01*
X145539404Y-78663285D01*
X145634642Y-78710904D01*
X145682261Y-78758523D01*
X145729880Y-78853761D01*
X145729880Y-79044238D01*
X145682261Y-79139476D01*
X145634642Y-79187095D01*
X145539404Y-79234714D01*
X145301309Y-79234714D01*
X145206071Y-79187095D01*
X145158452Y-79139476D01*
X145110833Y-79044238D01*
X145110833Y-78853761D01*
X145158452Y-78758523D01*
X145206071Y-78710904D01*
X145301309Y-78663285D01*
%TO.C,D5*%
X126679880Y-77710904D02*
X125679880Y-77710904D01*
X125679880Y-77949000D01*
X125727500Y-78091857D01*
X125822738Y-78187095D01*
X125917976Y-78234714D01*
X126108452Y-78282333D01*
X126251309Y-78282333D01*
X126441785Y-78234714D01*
X126537023Y-78187095D01*
X126632261Y-78091857D01*
X126679880Y-77949000D01*
X126679880Y-77710904D01*
X125679880Y-79187095D02*
X125679880Y-78710904D01*
X126156071Y-78663285D01*
X126108452Y-78710904D01*
X126060833Y-78806142D01*
X126060833Y-79044238D01*
X126108452Y-79139476D01*
X126156071Y-79187095D01*
X126251309Y-79234714D01*
X126489404Y-79234714D01*
X126584642Y-79187095D01*
X126632261Y-79139476D01*
X126679880Y-79044238D01*
X126679880Y-78806142D01*
X126632261Y-78710904D01*
X126584642Y-78663285D01*
%TO.C,D4*%
X107629880Y-77710904D02*
X106629880Y-77710904D01*
X106629880Y-77949000D01*
X106677500Y-78091857D01*
X106772738Y-78187095D01*
X106867976Y-78234714D01*
X107058452Y-78282333D01*
X107201309Y-78282333D01*
X107391785Y-78234714D01*
X107487023Y-78187095D01*
X107582261Y-78091857D01*
X107629880Y-77949000D01*
X107629880Y-77710904D01*
X106963214Y-79139476D02*
X107629880Y-79139476D01*
X106582261Y-78901380D02*
X107296547Y-78663285D01*
X107296547Y-79282333D01*
%TO.C,D39*%
X188592380Y-153434714D02*
X187592380Y-153434714D01*
X187592380Y-153672809D01*
X187640000Y-153815666D01*
X187735238Y-153910904D01*
X187830476Y-153958523D01*
X188020952Y-154006142D01*
X188163809Y-154006142D01*
X188354285Y-153958523D01*
X188449523Y-153910904D01*
X188544761Y-153815666D01*
X188592380Y-153672809D01*
X188592380Y-153434714D01*
X187592380Y-154339476D02*
X187592380Y-154958523D01*
X187973333Y-154625190D01*
X187973333Y-154768047D01*
X188020952Y-154863285D01*
X188068571Y-154910904D01*
X188163809Y-154958523D01*
X188401904Y-154958523D01*
X188497142Y-154910904D01*
X188544761Y-154863285D01*
X188592380Y-154768047D01*
X188592380Y-154482333D01*
X188544761Y-154387095D01*
X188497142Y-154339476D01*
X188592380Y-155434714D02*
X188592380Y-155625190D01*
X188544761Y-155720428D01*
X188497142Y-155768047D01*
X188354285Y-155863285D01*
X188163809Y-155910904D01*
X187782857Y-155910904D01*
X187687619Y-155863285D01*
X187640000Y-155815666D01*
X187592380Y-155720428D01*
X187592380Y-155529952D01*
X187640000Y-155434714D01*
X187687619Y-155387095D01*
X187782857Y-155339476D01*
X188020952Y-155339476D01*
X188116190Y-155387095D01*
X188163809Y-155434714D01*
X188211428Y-155529952D01*
X188211428Y-155720428D01*
X188163809Y-155815666D01*
X188116190Y-155863285D01*
X188020952Y-155910904D01*
%TO.C,D38*%
X169542380Y-153434714D02*
X168542380Y-153434714D01*
X168542380Y-153672809D01*
X168590000Y-153815666D01*
X168685238Y-153910904D01*
X168780476Y-153958523D01*
X168970952Y-154006142D01*
X169113809Y-154006142D01*
X169304285Y-153958523D01*
X169399523Y-153910904D01*
X169494761Y-153815666D01*
X169542380Y-153672809D01*
X169542380Y-153434714D01*
X168542380Y-154339476D02*
X168542380Y-154958523D01*
X168923333Y-154625190D01*
X168923333Y-154768047D01*
X168970952Y-154863285D01*
X169018571Y-154910904D01*
X169113809Y-154958523D01*
X169351904Y-154958523D01*
X169447142Y-154910904D01*
X169494761Y-154863285D01*
X169542380Y-154768047D01*
X169542380Y-154482333D01*
X169494761Y-154387095D01*
X169447142Y-154339476D01*
X168970952Y-155529952D02*
X168923333Y-155434714D01*
X168875714Y-155387095D01*
X168780476Y-155339476D01*
X168732857Y-155339476D01*
X168637619Y-155387095D01*
X168590000Y-155434714D01*
X168542380Y-155529952D01*
X168542380Y-155720428D01*
X168590000Y-155815666D01*
X168637619Y-155863285D01*
X168732857Y-155910904D01*
X168780476Y-155910904D01*
X168875714Y-155863285D01*
X168923333Y-155815666D01*
X168970952Y-155720428D01*
X168970952Y-155529952D01*
X169018571Y-155434714D01*
X169066190Y-155387095D01*
X169161428Y-155339476D01*
X169351904Y-155339476D01*
X169447142Y-155387095D01*
X169494761Y-155434714D01*
X169542380Y-155529952D01*
X169542380Y-155720428D01*
X169494761Y-155815666D01*
X169447142Y-155863285D01*
X169351904Y-155910904D01*
X169161428Y-155910904D01*
X169066190Y-155863285D01*
X169018571Y-155815666D01*
X168970952Y-155720428D01*
%TO.C,D37*%
X150492380Y-153434714D02*
X149492380Y-153434714D01*
X149492380Y-153672809D01*
X149540000Y-153815666D01*
X149635238Y-153910904D01*
X149730476Y-153958523D01*
X149920952Y-154006142D01*
X150063809Y-154006142D01*
X150254285Y-153958523D01*
X150349523Y-153910904D01*
X150444761Y-153815666D01*
X150492380Y-153672809D01*
X150492380Y-153434714D01*
X149492380Y-154339476D02*
X149492380Y-154958523D01*
X149873333Y-154625190D01*
X149873333Y-154768047D01*
X149920952Y-154863285D01*
X149968571Y-154910904D01*
X150063809Y-154958523D01*
X150301904Y-154958523D01*
X150397142Y-154910904D01*
X150444761Y-154863285D01*
X150492380Y-154768047D01*
X150492380Y-154482333D01*
X150444761Y-154387095D01*
X150397142Y-154339476D01*
X149492380Y-155291857D02*
X149492380Y-155958523D01*
X150492380Y-155529952D01*
%TO.C,D36*%
X131442380Y-153434714D02*
X130442380Y-153434714D01*
X130442380Y-153672809D01*
X130490000Y-153815666D01*
X130585238Y-153910904D01*
X130680476Y-153958523D01*
X130870952Y-154006142D01*
X131013809Y-154006142D01*
X131204285Y-153958523D01*
X131299523Y-153910904D01*
X131394761Y-153815666D01*
X131442380Y-153672809D01*
X131442380Y-153434714D01*
X130442380Y-154339476D02*
X130442380Y-154958523D01*
X130823333Y-154625190D01*
X130823333Y-154768047D01*
X130870952Y-154863285D01*
X130918571Y-154910904D01*
X131013809Y-154958523D01*
X131251904Y-154958523D01*
X131347142Y-154910904D01*
X131394761Y-154863285D01*
X131442380Y-154768047D01*
X131442380Y-154482333D01*
X131394761Y-154387095D01*
X131347142Y-154339476D01*
X130442380Y-155815666D02*
X130442380Y-155625190D01*
X130490000Y-155529952D01*
X130537619Y-155482333D01*
X130680476Y-155387095D01*
X130870952Y-155339476D01*
X131251904Y-155339476D01*
X131347142Y-155387095D01*
X131394761Y-155434714D01*
X131442380Y-155529952D01*
X131442380Y-155720428D01*
X131394761Y-155815666D01*
X131347142Y-155863285D01*
X131251904Y-155910904D01*
X131013809Y-155910904D01*
X130918571Y-155863285D01*
X130870952Y-155815666D01*
X130823333Y-155720428D01*
X130823333Y-155529952D01*
X130870952Y-155434714D01*
X130918571Y-155387095D01*
X131013809Y-155339476D01*
%TO.C,D35*%
X112392380Y-153434714D02*
X111392380Y-153434714D01*
X111392380Y-153672809D01*
X111440000Y-153815666D01*
X111535238Y-153910904D01*
X111630476Y-153958523D01*
X111820952Y-154006142D01*
X111963809Y-154006142D01*
X112154285Y-153958523D01*
X112249523Y-153910904D01*
X112344761Y-153815666D01*
X112392380Y-153672809D01*
X112392380Y-153434714D01*
X111392380Y-154339476D02*
X111392380Y-154958523D01*
X111773333Y-154625190D01*
X111773333Y-154768047D01*
X111820952Y-154863285D01*
X111868571Y-154910904D01*
X111963809Y-154958523D01*
X112201904Y-154958523D01*
X112297142Y-154910904D01*
X112344761Y-154863285D01*
X112392380Y-154768047D01*
X112392380Y-154482333D01*
X112344761Y-154387095D01*
X112297142Y-154339476D01*
X111392380Y-155863285D02*
X111392380Y-155387095D01*
X111868571Y-155339476D01*
X111820952Y-155387095D01*
X111773333Y-155482333D01*
X111773333Y-155720428D01*
X111820952Y-155815666D01*
X111868571Y-155863285D01*
X111963809Y-155910904D01*
X112201904Y-155910904D01*
X112297142Y-155863285D01*
X112344761Y-155815666D01*
X112392380Y-155720428D01*
X112392380Y-155482333D01*
X112344761Y-155387095D01*
X112297142Y-155339476D01*
%TO.C,D34*%
X93342380Y-153434714D02*
X92342380Y-153434714D01*
X92342380Y-153672809D01*
X92390000Y-153815666D01*
X92485238Y-153910904D01*
X92580476Y-153958523D01*
X92770952Y-154006142D01*
X92913809Y-154006142D01*
X93104285Y-153958523D01*
X93199523Y-153910904D01*
X93294761Y-153815666D01*
X93342380Y-153672809D01*
X93342380Y-153434714D01*
X92342380Y-154339476D02*
X92342380Y-154958523D01*
X92723333Y-154625190D01*
X92723333Y-154768047D01*
X92770952Y-154863285D01*
X92818571Y-154910904D01*
X92913809Y-154958523D01*
X93151904Y-154958523D01*
X93247142Y-154910904D01*
X93294761Y-154863285D01*
X93342380Y-154768047D01*
X93342380Y-154482333D01*
X93294761Y-154387095D01*
X93247142Y-154339476D01*
X92675714Y-155815666D02*
X93342380Y-155815666D01*
X92294761Y-155577571D02*
X93009047Y-155339476D01*
X93009047Y-155958523D01*
%TO.C,D33*%
X64767380Y-153434714D02*
X63767380Y-153434714D01*
X63767380Y-153672809D01*
X63815000Y-153815666D01*
X63910238Y-153910904D01*
X64005476Y-153958523D01*
X64195952Y-154006142D01*
X64338809Y-154006142D01*
X64529285Y-153958523D01*
X64624523Y-153910904D01*
X64719761Y-153815666D01*
X64767380Y-153672809D01*
X64767380Y-153434714D01*
X63767380Y-154339476D02*
X63767380Y-154958523D01*
X64148333Y-154625190D01*
X64148333Y-154768047D01*
X64195952Y-154863285D01*
X64243571Y-154910904D01*
X64338809Y-154958523D01*
X64576904Y-154958523D01*
X64672142Y-154910904D01*
X64719761Y-154863285D01*
X64767380Y-154768047D01*
X64767380Y-154482333D01*
X64719761Y-154387095D01*
X64672142Y-154339476D01*
X63767380Y-155291857D02*
X63767380Y-155910904D01*
X64148333Y-155577571D01*
X64148333Y-155720428D01*
X64195952Y-155815666D01*
X64243571Y-155863285D01*
X64338809Y-155910904D01*
X64576904Y-155910904D01*
X64672142Y-155863285D01*
X64719761Y-155815666D01*
X64767380Y-155720428D01*
X64767380Y-155434714D01*
X64719761Y-155339476D01*
X64672142Y-155291857D01*
%TO.C,D32*%
X195736130Y-134384714D02*
X194736130Y-134384714D01*
X194736130Y-134622809D01*
X194783750Y-134765666D01*
X194878988Y-134860904D01*
X194974226Y-134908523D01*
X195164702Y-134956142D01*
X195307559Y-134956142D01*
X195498035Y-134908523D01*
X195593273Y-134860904D01*
X195688511Y-134765666D01*
X195736130Y-134622809D01*
X195736130Y-134384714D01*
X194736130Y-135289476D02*
X194736130Y-135908523D01*
X195117083Y-135575190D01*
X195117083Y-135718047D01*
X195164702Y-135813285D01*
X195212321Y-135860904D01*
X195307559Y-135908523D01*
X195545654Y-135908523D01*
X195640892Y-135860904D01*
X195688511Y-135813285D01*
X195736130Y-135718047D01*
X195736130Y-135432333D01*
X195688511Y-135337095D01*
X195640892Y-135289476D01*
X194831369Y-136289476D02*
X194783750Y-136337095D01*
X194736130Y-136432333D01*
X194736130Y-136670428D01*
X194783750Y-136765666D01*
X194831369Y-136813285D01*
X194926607Y-136860904D01*
X195021845Y-136860904D01*
X195164702Y-136813285D01*
X195736130Y-136241857D01*
X195736130Y-136860904D01*
%TO.C,D31*%
X169542380Y-134384714D02*
X168542380Y-134384714D01*
X168542380Y-134622809D01*
X168590000Y-134765666D01*
X168685238Y-134860904D01*
X168780476Y-134908523D01*
X168970952Y-134956142D01*
X169113809Y-134956142D01*
X169304285Y-134908523D01*
X169399523Y-134860904D01*
X169494761Y-134765666D01*
X169542380Y-134622809D01*
X169542380Y-134384714D01*
X168542380Y-135289476D02*
X168542380Y-135908523D01*
X168923333Y-135575190D01*
X168923333Y-135718047D01*
X168970952Y-135813285D01*
X169018571Y-135860904D01*
X169113809Y-135908523D01*
X169351904Y-135908523D01*
X169447142Y-135860904D01*
X169494761Y-135813285D01*
X169542380Y-135718047D01*
X169542380Y-135432333D01*
X169494761Y-135337095D01*
X169447142Y-135289476D01*
X169542380Y-136860904D02*
X169542380Y-136289476D01*
X169542380Y-136575190D02*
X168542380Y-136575190D01*
X168685238Y-136479952D01*
X168780476Y-136384714D01*
X168828095Y-136289476D01*
%TO.C,D30*%
X150492380Y-134384714D02*
X149492380Y-134384714D01*
X149492380Y-134622809D01*
X149540000Y-134765666D01*
X149635238Y-134860904D01*
X149730476Y-134908523D01*
X149920952Y-134956142D01*
X150063809Y-134956142D01*
X150254285Y-134908523D01*
X150349523Y-134860904D01*
X150444761Y-134765666D01*
X150492380Y-134622809D01*
X150492380Y-134384714D01*
X149492380Y-135289476D02*
X149492380Y-135908523D01*
X149873333Y-135575190D01*
X149873333Y-135718047D01*
X149920952Y-135813285D01*
X149968571Y-135860904D01*
X150063809Y-135908523D01*
X150301904Y-135908523D01*
X150397142Y-135860904D01*
X150444761Y-135813285D01*
X150492380Y-135718047D01*
X150492380Y-135432333D01*
X150444761Y-135337095D01*
X150397142Y-135289476D01*
X149492380Y-136527571D02*
X149492380Y-136622809D01*
X149540000Y-136718047D01*
X149587619Y-136765666D01*
X149682857Y-136813285D01*
X149873333Y-136860904D01*
X150111428Y-136860904D01*
X150301904Y-136813285D01*
X150397142Y-136765666D01*
X150444761Y-136718047D01*
X150492380Y-136622809D01*
X150492380Y-136527571D01*
X150444761Y-136432333D01*
X150397142Y-136384714D01*
X150301904Y-136337095D01*
X150111428Y-136289476D01*
X149873333Y-136289476D01*
X149682857Y-136337095D01*
X149587619Y-136384714D01*
X149540000Y-136432333D01*
X149492380Y-136527571D01*
%TO.C,D3*%
X88579880Y-77710904D02*
X87579880Y-77710904D01*
X87579880Y-77949000D01*
X87627500Y-78091857D01*
X87722738Y-78187095D01*
X87817976Y-78234714D01*
X88008452Y-78282333D01*
X88151309Y-78282333D01*
X88341785Y-78234714D01*
X88437023Y-78187095D01*
X88532261Y-78091857D01*
X88579880Y-77949000D01*
X88579880Y-77710904D01*
X87579880Y-78615666D02*
X87579880Y-79234714D01*
X87960833Y-78901380D01*
X87960833Y-79044238D01*
X88008452Y-79139476D01*
X88056071Y-79187095D01*
X88151309Y-79234714D01*
X88389404Y-79234714D01*
X88484642Y-79187095D01*
X88532261Y-79139476D01*
X88579880Y-79044238D01*
X88579880Y-78758523D01*
X88532261Y-78663285D01*
X88484642Y-78615666D01*
%TO.C,D29*%
X131442380Y-134384714D02*
X130442380Y-134384714D01*
X130442380Y-134622809D01*
X130490000Y-134765666D01*
X130585238Y-134860904D01*
X130680476Y-134908523D01*
X130870952Y-134956142D01*
X131013809Y-134956142D01*
X131204285Y-134908523D01*
X131299523Y-134860904D01*
X131394761Y-134765666D01*
X131442380Y-134622809D01*
X131442380Y-134384714D01*
X130537619Y-135337095D02*
X130490000Y-135384714D01*
X130442380Y-135479952D01*
X130442380Y-135718047D01*
X130490000Y-135813285D01*
X130537619Y-135860904D01*
X130632857Y-135908523D01*
X130728095Y-135908523D01*
X130870952Y-135860904D01*
X131442380Y-135289476D01*
X131442380Y-135908523D01*
X131442380Y-136384714D02*
X131442380Y-136575190D01*
X131394761Y-136670428D01*
X131347142Y-136718047D01*
X131204285Y-136813285D01*
X131013809Y-136860904D01*
X130632857Y-136860904D01*
X130537619Y-136813285D01*
X130490000Y-136765666D01*
X130442380Y-136670428D01*
X130442380Y-136479952D01*
X130490000Y-136384714D01*
X130537619Y-136337095D01*
X130632857Y-136289476D01*
X130870952Y-136289476D01*
X130966190Y-136337095D01*
X131013809Y-136384714D01*
X131061428Y-136479952D01*
X131061428Y-136670428D01*
X131013809Y-136765666D01*
X130966190Y-136813285D01*
X130870952Y-136860904D01*
%TO.C,D28*%
X112392380Y-134384714D02*
X111392380Y-134384714D01*
X111392380Y-134622809D01*
X111440000Y-134765666D01*
X111535238Y-134860904D01*
X111630476Y-134908523D01*
X111820952Y-134956142D01*
X111963809Y-134956142D01*
X112154285Y-134908523D01*
X112249523Y-134860904D01*
X112344761Y-134765666D01*
X112392380Y-134622809D01*
X112392380Y-134384714D01*
X111487619Y-135337095D02*
X111440000Y-135384714D01*
X111392380Y-135479952D01*
X111392380Y-135718047D01*
X111440000Y-135813285D01*
X111487619Y-135860904D01*
X111582857Y-135908523D01*
X111678095Y-135908523D01*
X111820952Y-135860904D01*
X112392380Y-135289476D01*
X112392380Y-135908523D01*
X111820952Y-136479952D02*
X111773333Y-136384714D01*
X111725714Y-136337095D01*
X111630476Y-136289476D01*
X111582857Y-136289476D01*
X111487619Y-136337095D01*
X111440000Y-136384714D01*
X111392380Y-136479952D01*
X111392380Y-136670428D01*
X111440000Y-136765666D01*
X111487619Y-136813285D01*
X111582857Y-136860904D01*
X111630476Y-136860904D01*
X111725714Y-136813285D01*
X111773333Y-136765666D01*
X111820952Y-136670428D01*
X111820952Y-136479952D01*
X111868571Y-136384714D01*
X111916190Y-136337095D01*
X112011428Y-136289476D01*
X112201904Y-136289476D01*
X112297142Y-136337095D01*
X112344761Y-136384714D01*
X112392380Y-136479952D01*
X112392380Y-136670428D01*
X112344761Y-136765666D01*
X112297142Y-136813285D01*
X112201904Y-136860904D01*
X112011428Y-136860904D01*
X111916190Y-136813285D01*
X111868571Y-136765666D01*
X111820952Y-136670428D01*
%TO.C,D27*%
X93342380Y-134384714D02*
X92342380Y-134384714D01*
X92342380Y-134622809D01*
X92390000Y-134765666D01*
X92485238Y-134860904D01*
X92580476Y-134908523D01*
X92770952Y-134956142D01*
X92913809Y-134956142D01*
X93104285Y-134908523D01*
X93199523Y-134860904D01*
X93294761Y-134765666D01*
X93342380Y-134622809D01*
X93342380Y-134384714D01*
X92437619Y-135337095D02*
X92390000Y-135384714D01*
X92342380Y-135479952D01*
X92342380Y-135718047D01*
X92390000Y-135813285D01*
X92437619Y-135860904D01*
X92532857Y-135908523D01*
X92628095Y-135908523D01*
X92770952Y-135860904D01*
X93342380Y-135289476D01*
X93342380Y-135908523D01*
X92342380Y-136241857D02*
X92342380Y-136908523D01*
X93342380Y-136479952D01*
%TO.C,D26*%
X74292380Y-134384714D02*
X73292380Y-134384714D01*
X73292380Y-134622809D01*
X73340000Y-134765666D01*
X73435238Y-134860904D01*
X73530476Y-134908523D01*
X73720952Y-134956142D01*
X73863809Y-134956142D01*
X74054285Y-134908523D01*
X74149523Y-134860904D01*
X74244761Y-134765666D01*
X74292380Y-134622809D01*
X74292380Y-134384714D01*
X73387619Y-135337095D02*
X73340000Y-135384714D01*
X73292380Y-135479952D01*
X73292380Y-135718047D01*
X73340000Y-135813285D01*
X73387619Y-135860904D01*
X73482857Y-135908523D01*
X73578095Y-135908523D01*
X73720952Y-135860904D01*
X74292380Y-135289476D01*
X74292380Y-135908523D01*
X73292380Y-136765666D02*
X73292380Y-136575190D01*
X73340000Y-136479952D01*
X73387619Y-136432333D01*
X73530476Y-136337095D01*
X73720952Y-136289476D01*
X74101904Y-136289476D01*
X74197142Y-136337095D01*
X74244761Y-136384714D01*
X74292380Y-136479952D01*
X74292380Y-136670428D01*
X74244761Y-136765666D01*
X74197142Y-136813285D01*
X74101904Y-136860904D01*
X73863809Y-136860904D01*
X73768571Y-136813285D01*
X73720952Y-136765666D01*
X73673333Y-136670428D01*
X73673333Y-136479952D01*
X73720952Y-136384714D01*
X73768571Y-136337095D01*
X73863809Y-136289476D01*
%TO.C,D25*%
X55242380Y-134384714D02*
X54242380Y-134384714D01*
X54242380Y-134622809D01*
X54290000Y-134765666D01*
X54385238Y-134860904D01*
X54480476Y-134908523D01*
X54670952Y-134956142D01*
X54813809Y-134956142D01*
X55004285Y-134908523D01*
X55099523Y-134860904D01*
X55194761Y-134765666D01*
X55242380Y-134622809D01*
X55242380Y-134384714D01*
X54337619Y-135337095D02*
X54290000Y-135384714D01*
X54242380Y-135479952D01*
X54242380Y-135718047D01*
X54290000Y-135813285D01*
X54337619Y-135860904D01*
X54432857Y-135908523D01*
X54528095Y-135908523D01*
X54670952Y-135860904D01*
X55242380Y-135289476D01*
X55242380Y-135908523D01*
X54242380Y-136813285D02*
X54242380Y-136337095D01*
X54718571Y-136289476D01*
X54670952Y-136337095D01*
X54623333Y-136432333D01*
X54623333Y-136670428D01*
X54670952Y-136765666D01*
X54718571Y-136813285D01*
X54813809Y-136860904D01*
X55051904Y-136860904D01*
X55147142Y-136813285D01*
X55194761Y-136765666D01*
X55242380Y-136670428D01*
X55242380Y-136432333D01*
X55194761Y-136337095D01*
X55147142Y-136289476D01*
%TO.C,D24*%
X179067380Y-115334714D02*
X178067380Y-115334714D01*
X178067380Y-115572809D01*
X178115000Y-115715666D01*
X178210238Y-115810904D01*
X178305476Y-115858523D01*
X178495952Y-115906142D01*
X178638809Y-115906142D01*
X178829285Y-115858523D01*
X178924523Y-115810904D01*
X179019761Y-115715666D01*
X179067380Y-115572809D01*
X179067380Y-115334714D01*
X178162619Y-116287095D02*
X178115000Y-116334714D01*
X178067380Y-116429952D01*
X178067380Y-116668047D01*
X178115000Y-116763285D01*
X178162619Y-116810904D01*
X178257857Y-116858523D01*
X178353095Y-116858523D01*
X178495952Y-116810904D01*
X179067380Y-116239476D01*
X179067380Y-116858523D01*
X178400714Y-117715666D02*
X179067380Y-117715666D01*
X178019761Y-117477571D02*
X178734047Y-117239476D01*
X178734047Y-117858523D01*
%TO.C,D23*%
X160017380Y-115334714D02*
X159017380Y-115334714D01*
X159017380Y-115572809D01*
X159065000Y-115715666D01*
X159160238Y-115810904D01*
X159255476Y-115858523D01*
X159445952Y-115906142D01*
X159588809Y-115906142D01*
X159779285Y-115858523D01*
X159874523Y-115810904D01*
X159969761Y-115715666D01*
X160017380Y-115572809D01*
X160017380Y-115334714D01*
X159112619Y-116287095D02*
X159065000Y-116334714D01*
X159017380Y-116429952D01*
X159017380Y-116668047D01*
X159065000Y-116763285D01*
X159112619Y-116810904D01*
X159207857Y-116858523D01*
X159303095Y-116858523D01*
X159445952Y-116810904D01*
X160017380Y-116239476D01*
X160017380Y-116858523D01*
X159017380Y-117191857D02*
X159017380Y-117810904D01*
X159398333Y-117477571D01*
X159398333Y-117620428D01*
X159445952Y-117715666D01*
X159493571Y-117763285D01*
X159588809Y-117810904D01*
X159826904Y-117810904D01*
X159922142Y-117763285D01*
X159969761Y-117715666D01*
X160017380Y-117620428D01*
X160017380Y-117334714D01*
X159969761Y-117239476D01*
X159922142Y-117191857D01*
%TO.C,D22*%
X140967380Y-115334714D02*
X139967380Y-115334714D01*
X139967380Y-115572809D01*
X140015000Y-115715666D01*
X140110238Y-115810904D01*
X140205476Y-115858523D01*
X140395952Y-115906142D01*
X140538809Y-115906142D01*
X140729285Y-115858523D01*
X140824523Y-115810904D01*
X140919761Y-115715666D01*
X140967380Y-115572809D01*
X140967380Y-115334714D01*
X140062619Y-116287095D02*
X140015000Y-116334714D01*
X139967380Y-116429952D01*
X139967380Y-116668047D01*
X140015000Y-116763285D01*
X140062619Y-116810904D01*
X140157857Y-116858523D01*
X140253095Y-116858523D01*
X140395952Y-116810904D01*
X140967380Y-116239476D01*
X140967380Y-116858523D01*
X140062619Y-117239476D02*
X140015000Y-117287095D01*
X139967380Y-117382333D01*
X139967380Y-117620428D01*
X140015000Y-117715666D01*
X140062619Y-117763285D01*
X140157857Y-117810904D01*
X140253095Y-117810904D01*
X140395952Y-117763285D01*
X140967380Y-117191857D01*
X140967380Y-117810904D01*
%TO.C,D21*%
X121917380Y-115334714D02*
X120917380Y-115334714D01*
X120917380Y-115572809D01*
X120965000Y-115715666D01*
X121060238Y-115810904D01*
X121155476Y-115858523D01*
X121345952Y-115906142D01*
X121488809Y-115906142D01*
X121679285Y-115858523D01*
X121774523Y-115810904D01*
X121869761Y-115715666D01*
X121917380Y-115572809D01*
X121917380Y-115334714D01*
X121012619Y-116287095D02*
X120965000Y-116334714D01*
X120917380Y-116429952D01*
X120917380Y-116668047D01*
X120965000Y-116763285D01*
X121012619Y-116810904D01*
X121107857Y-116858523D01*
X121203095Y-116858523D01*
X121345952Y-116810904D01*
X121917380Y-116239476D01*
X121917380Y-116858523D01*
X121917380Y-117810904D02*
X121917380Y-117239476D01*
X121917380Y-117525190D02*
X120917380Y-117525190D01*
X121060238Y-117429952D01*
X121155476Y-117334714D01*
X121203095Y-117239476D01*
%TO.C,D20*%
X102867380Y-115334714D02*
X101867380Y-115334714D01*
X101867380Y-115572809D01*
X101915000Y-115715666D01*
X102010238Y-115810904D01*
X102105476Y-115858523D01*
X102295952Y-115906142D01*
X102438809Y-115906142D01*
X102629285Y-115858523D01*
X102724523Y-115810904D01*
X102819761Y-115715666D01*
X102867380Y-115572809D01*
X102867380Y-115334714D01*
X101962619Y-116287095D02*
X101915000Y-116334714D01*
X101867380Y-116429952D01*
X101867380Y-116668047D01*
X101915000Y-116763285D01*
X101962619Y-116810904D01*
X102057857Y-116858523D01*
X102153095Y-116858523D01*
X102295952Y-116810904D01*
X102867380Y-116239476D01*
X102867380Y-116858523D01*
X101867380Y-117477571D02*
X101867380Y-117572809D01*
X101915000Y-117668047D01*
X101962619Y-117715666D01*
X102057857Y-117763285D01*
X102248333Y-117810904D01*
X102486428Y-117810904D01*
X102676904Y-117763285D01*
X102772142Y-117715666D01*
X102819761Y-117668047D01*
X102867380Y-117572809D01*
X102867380Y-117477571D01*
X102819761Y-117382333D01*
X102772142Y-117334714D01*
X102676904Y-117287095D01*
X102486428Y-117239476D01*
X102248333Y-117239476D01*
X102057857Y-117287095D01*
X101962619Y-117334714D01*
X101915000Y-117382333D01*
X101867380Y-117477571D01*
%TO.C,D2*%
X69529880Y-77710904D02*
X68529880Y-77710904D01*
X68529880Y-77949000D01*
X68577500Y-78091857D01*
X68672738Y-78187095D01*
X68767976Y-78234714D01*
X68958452Y-78282333D01*
X69101309Y-78282333D01*
X69291785Y-78234714D01*
X69387023Y-78187095D01*
X69482261Y-78091857D01*
X69529880Y-77949000D01*
X69529880Y-77710904D01*
X68625119Y-78663285D02*
X68577500Y-78710904D01*
X68529880Y-78806142D01*
X68529880Y-79044238D01*
X68577500Y-79139476D01*
X68625119Y-79187095D01*
X68720357Y-79234714D01*
X68815595Y-79234714D01*
X68958452Y-79187095D01*
X69529880Y-78615666D01*
X69529880Y-79234714D01*
%TO.C,D19*%
X83817380Y-115334714D02*
X82817380Y-115334714D01*
X82817380Y-115572809D01*
X82865000Y-115715666D01*
X82960238Y-115810904D01*
X83055476Y-115858523D01*
X83245952Y-115906142D01*
X83388809Y-115906142D01*
X83579285Y-115858523D01*
X83674523Y-115810904D01*
X83769761Y-115715666D01*
X83817380Y-115572809D01*
X83817380Y-115334714D01*
X83817380Y-116858523D02*
X83817380Y-116287095D01*
X83817380Y-116572809D02*
X82817380Y-116572809D01*
X82960238Y-116477571D01*
X83055476Y-116382333D01*
X83103095Y-116287095D01*
X83817380Y-117334714D02*
X83817380Y-117525190D01*
X83769761Y-117620428D01*
X83722142Y-117668047D01*
X83579285Y-117763285D01*
X83388809Y-117810904D01*
X83007857Y-117810904D01*
X82912619Y-117763285D01*
X82865000Y-117715666D01*
X82817380Y-117620428D01*
X82817380Y-117429952D01*
X82865000Y-117334714D01*
X82912619Y-117287095D01*
X83007857Y-117239476D01*
X83245952Y-117239476D01*
X83341190Y-117287095D01*
X83388809Y-117334714D01*
X83436428Y-117429952D01*
X83436428Y-117620428D01*
X83388809Y-117715666D01*
X83341190Y-117763285D01*
X83245952Y-117810904D01*
%TO.C,D18*%
X64767380Y-115334714D02*
X63767380Y-115334714D01*
X63767380Y-115572809D01*
X63815000Y-115715666D01*
X63910238Y-115810904D01*
X64005476Y-115858523D01*
X64195952Y-115906142D01*
X64338809Y-115906142D01*
X64529285Y-115858523D01*
X64624523Y-115810904D01*
X64719761Y-115715666D01*
X64767380Y-115572809D01*
X64767380Y-115334714D01*
X64767380Y-116858523D02*
X64767380Y-116287095D01*
X64767380Y-116572809D02*
X63767380Y-116572809D01*
X63910238Y-116477571D01*
X64005476Y-116382333D01*
X64053095Y-116287095D01*
X64195952Y-117429952D02*
X64148333Y-117334714D01*
X64100714Y-117287095D01*
X64005476Y-117239476D01*
X63957857Y-117239476D01*
X63862619Y-117287095D01*
X63815000Y-117334714D01*
X63767380Y-117429952D01*
X63767380Y-117620428D01*
X63815000Y-117715666D01*
X63862619Y-117763285D01*
X63957857Y-117810904D01*
X64005476Y-117810904D01*
X64100714Y-117763285D01*
X64148333Y-117715666D01*
X64195952Y-117620428D01*
X64195952Y-117429952D01*
X64243571Y-117334714D01*
X64291190Y-117287095D01*
X64386428Y-117239476D01*
X64576904Y-117239476D01*
X64672142Y-117287095D01*
X64719761Y-117334714D01*
X64767380Y-117429952D01*
X64767380Y-117620428D01*
X64719761Y-117715666D01*
X64672142Y-117763285D01*
X64576904Y-117810904D01*
X64386428Y-117810904D01*
X64291190Y-117763285D01*
X64243571Y-117715666D01*
X64195952Y-117620428D01*
%TO.C,D17*%
X45717380Y-115334714D02*
X44717380Y-115334714D01*
X44717380Y-115572809D01*
X44765000Y-115715666D01*
X44860238Y-115810904D01*
X44955476Y-115858523D01*
X45145952Y-115906142D01*
X45288809Y-115906142D01*
X45479285Y-115858523D01*
X45574523Y-115810904D01*
X45669761Y-115715666D01*
X45717380Y-115572809D01*
X45717380Y-115334714D01*
X45717380Y-116858523D02*
X45717380Y-116287095D01*
X45717380Y-116572809D02*
X44717380Y-116572809D01*
X44860238Y-116477571D01*
X44955476Y-116382333D01*
X45003095Y-116287095D01*
X44717380Y-117191857D02*
X44717380Y-117858523D01*
X45717380Y-117429952D01*
%TO.C,D16*%
X200498630Y-105809714D02*
X199498630Y-105809714D01*
X199498630Y-106047809D01*
X199546250Y-106190666D01*
X199641488Y-106285904D01*
X199736726Y-106333523D01*
X199927202Y-106381142D01*
X200070059Y-106381142D01*
X200260535Y-106333523D01*
X200355773Y-106285904D01*
X200451011Y-106190666D01*
X200498630Y-106047809D01*
X200498630Y-105809714D01*
X200498630Y-107333523D02*
X200498630Y-106762095D01*
X200498630Y-107047809D02*
X199498630Y-107047809D01*
X199641488Y-106952571D01*
X199736726Y-106857333D01*
X199784345Y-106762095D01*
X199498630Y-108190666D02*
X199498630Y-108000190D01*
X199546250Y-107904952D01*
X199593869Y-107857333D01*
X199736726Y-107762095D01*
X199927202Y-107714476D01*
X200308154Y-107714476D01*
X200403392Y-107762095D01*
X200451011Y-107809714D01*
X200498630Y-107904952D01*
X200498630Y-108095428D01*
X200451011Y-108190666D01*
X200403392Y-108238285D01*
X200308154Y-108285904D01*
X200070059Y-108285904D01*
X199974821Y-108238285D01*
X199927202Y-108190666D01*
X199879583Y-108095428D01*
X199879583Y-107904952D01*
X199927202Y-107809714D01*
X199974821Y-107762095D01*
X200070059Y-107714476D01*
%TO.C,D15*%
X174304880Y-96284714D02*
X173304880Y-96284714D01*
X173304880Y-96522809D01*
X173352500Y-96665666D01*
X173447738Y-96760904D01*
X173542976Y-96808523D01*
X173733452Y-96856142D01*
X173876309Y-96856142D01*
X174066785Y-96808523D01*
X174162023Y-96760904D01*
X174257261Y-96665666D01*
X174304880Y-96522809D01*
X174304880Y-96284714D01*
X174304880Y-97808523D02*
X174304880Y-97237095D01*
X174304880Y-97522809D02*
X173304880Y-97522809D01*
X173447738Y-97427571D01*
X173542976Y-97332333D01*
X173590595Y-97237095D01*
X173304880Y-98713285D02*
X173304880Y-98237095D01*
X173781071Y-98189476D01*
X173733452Y-98237095D01*
X173685833Y-98332333D01*
X173685833Y-98570428D01*
X173733452Y-98665666D01*
X173781071Y-98713285D01*
X173876309Y-98760904D01*
X174114404Y-98760904D01*
X174209642Y-98713285D01*
X174257261Y-98665666D01*
X174304880Y-98570428D01*
X174304880Y-98332333D01*
X174257261Y-98237095D01*
X174209642Y-98189476D01*
%TO.C,D14*%
X155254880Y-96284714D02*
X154254880Y-96284714D01*
X154254880Y-96522809D01*
X154302500Y-96665666D01*
X154397738Y-96760904D01*
X154492976Y-96808523D01*
X154683452Y-96856142D01*
X154826309Y-96856142D01*
X155016785Y-96808523D01*
X155112023Y-96760904D01*
X155207261Y-96665666D01*
X155254880Y-96522809D01*
X155254880Y-96284714D01*
X155254880Y-97808523D02*
X155254880Y-97237095D01*
X155254880Y-97522809D02*
X154254880Y-97522809D01*
X154397738Y-97427571D01*
X154492976Y-97332333D01*
X154540595Y-97237095D01*
X154588214Y-98665666D02*
X155254880Y-98665666D01*
X154207261Y-98427571D02*
X154921547Y-98189476D01*
X154921547Y-98808523D01*
%TO.C,D13*%
X136204880Y-96284714D02*
X135204880Y-96284714D01*
X135204880Y-96522809D01*
X135252500Y-96665666D01*
X135347738Y-96760904D01*
X135442976Y-96808523D01*
X135633452Y-96856142D01*
X135776309Y-96856142D01*
X135966785Y-96808523D01*
X136062023Y-96760904D01*
X136157261Y-96665666D01*
X136204880Y-96522809D01*
X136204880Y-96284714D01*
X136204880Y-97808523D02*
X136204880Y-97237095D01*
X136204880Y-97522809D02*
X135204880Y-97522809D01*
X135347738Y-97427571D01*
X135442976Y-97332333D01*
X135490595Y-97237095D01*
X135204880Y-98141857D02*
X135204880Y-98760904D01*
X135585833Y-98427571D01*
X135585833Y-98570428D01*
X135633452Y-98665666D01*
X135681071Y-98713285D01*
X135776309Y-98760904D01*
X136014404Y-98760904D01*
X136109642Y-98713285D01*
X136157261Y-98665666D01*
X136204880Y-98570428D01*
X136204880Y-98284714D01*
X136157261Y-98189476D01*
X136109642Y-98141857D01*
%TO.C,D12*%
X117154880Y-96284714D02*
X116154880Y-96284714D01*
X116154880Y-96522809D01*
X116202500Y-96665666D01*
X116297738Y-96760904D01*
X116392976Y-96808523D01*
X116583452Y-96856142D01*
X116726309Y-96856142D01*
X116916785Y-96808523D01*
X117012023Y-96760904D01*
X117107261Y-96665666D01*
X117154880Y-96522809D01*
X117154880Y-96284714D01*
X117154880Y-97808523D02*
X117154880Y-97237095D01*
X117154880Y-97522809D02*
X116154880Y-97522809D01*
X116297738Y-97427571D01*
X116392976Y-97332333D01*
X116440595Y-97237095D01*
X116250119Y-98189476D02*
X116202500Y-98237095D01*
X116154880Y-98332333D01*
X116154880Y-98570428D01*
X116202500Y-98665666D01*
X116250119Y-98713285D01*
X116345357Y-98760904D01*
X116440595Y-98760904D01*
X116583452Y-98713285D01*
X117154880Y-98141857D01*
X117154880Y-98760904D01*
%TO.C,D11*%
X98104880Y-96284714D02*
X97104880Y-96284714D01*
X97104880Y-96522809D01*
X97152500Y-96665666D01*
X97247738Y-96760904D01*
X97342976Y-96808523D01*
X97533452Y-96856142D01*
X97676309Y-96856142D01*
X97866785Y-96808523D01*
X97962023Y-96760904D01*
X98057261Y-96665666D01*
X98104880Y-96522809D01*
X98104880Y-96284714D01*
X98104880Y-97808523D02*
X98104880Y-97237095D01*
X98104880Y-97522809D02*
X97104880Y-97522809D01*
X97247738Y-97427571D01*
X97342976Y-97332333D01*
X97390595Y-97237095D01*
X98104880Y-98760904D02*
X98104880Y-98189476D01*
X98104880Y-98475190D02*
X97104880Y-98475190D01*
X97247738Y-98379952D01*
X97342976Y-98284714D01*
X97390595Y-98189476D01*
%TO.C,D10*%
X79054880Y-96284714D02*
X78054880Y-96284714D01*
X78054880Y-96522809D01*
X78102500Y-96665666D01*
X78197738Y-96760904D01*
X78292976Y-96808523D01*
X78483452Y-96856142D01*
X78626309Y-96856142D01*
X78816785Y-96808523D01*
X78912023Y-96760904D01*
X79007261Y-96665666D01*
X79054880Y-96522809D01*
X79054880Y-96284714D01*
X79054880Y-97808523D02*
X79054880Y-97237095D01*
X79054880Y-97522809D02*
X78054880Y-97522809D01*
X78197738Y-97427571D01*
X78292976Y-97332333D01*
X78340595Y-97237095D01*
X78054880Y-98427571D02*
X78054880Y-98522809D01*
X78102500Y-98618047D01*
X78150119Y-98665666D01*
X78245357Y-98713285D01*
X78435833Y-98760904D01*
X78673928Y-98760904D01*
X78864404Y-98713285D01*
X78959642Y-98665666D01*
X79007261Y-98618047D01*
X79054880Y-98522809D01*
X79054880Y-98427571D01*
X79007261Y-98332333D01*
X78959642Y-98284714D01*
X78864404Y-98237095D01*
X78673928Y-98189476D01*
X78435833Y-98189476D01*
X78245357Y-98237095D01*
X78150119Y-98284714D01*
X78102500Y-98332333D01*
X78054880Y-98427571D01*
%TO.C,D1*%
X50479880Y-77710904D02*
X49479880Y-77710904D01*
X49479880Y-77949000D01*
X49527500Y-78091857D01*
X49622738Y-78187095D01*
X49717976Y-78234714D01*
X49908452Y-78282333D01*
X50051309Y-78282333D01*
X50241785Y-78234714D01*
X50337023Y-78187095D01*
X50432261Y-78091857D01*
X50479880Y-77949000D01*
X50479880Y-77710904D01*
X50479880Y-79234714D02*
X50479880Y-78663285D01*
X50479880Y-78949000D02*
X49479880Y-78949000D01*
X49622738Y-78853761D01*
X49717976Y-78758523D01*
X49765595Y-78663285D01*
%TO.C,C1*%
X97960073Y-63237125D02*
X98027416Y-63237125D01*
X98162103Y-63169781D01*
X98229447Y-63102438D01*
X98296790Y-62967750D01*
X98296790Y-62833063D01*
X98263119Y-62732048D01*
X98162103Y-62563689D01*
X98061088Y-62462674D01*
X97892729Y-62361659D01*
X97791714Y-62327987D01*
X97657027Y-62327987D01*
X97522340Y-62395331D01*
X97454996Y-62462674D01*
X97387653Y-62597361D01*
X97387653Y-62664705D01*
X97353981Y-63977903D02*
X97758042Y-63573842D01*
X97556012Y-63775873D02*
X96848905Y-63068766D01*
X97017264Y-63102438D01*
X97151951Y-63102438D01*
X97252966Y-63068766D01*
%TO.C,C2*%
X100446389Y-57030687D02*
X100513732Y-57030687D01*
X100648419Y-56963343D01*
X100715763Y-56896000D01*
X100783106Y-56761312D01*
X100783106Y-56626625D01*
X100749435Y-56525610D01*
X100648419Y-56357251D01*
X100547404Y-56256236D01*
X100379045Y-56155221D01*
X100278030Y-56121549D01*
X100143343Y-56121549D01*
X100008656Y-56188893D01*
X99941312Y-56256236D01*
X99873969Y-56390923D01*
X99873969Y-56458267D01*
X99604595Y-56727641D02*
X99537251Y-56727641D01*
X99436236Y-56761312D01*
X99267877Y-56929671D01*
X99234206Y-57030687D01*
X99234206Y-57098030D01*
X99267877Y-57199045D01*
X99335221Y-57266389D01*
X99469908Y-57333732D01*
X100278030Y-57333732D01*
X99840297Y-57771465D01*
%TO.C,C3*%
X112921166Y-59383142D02*
X112968785Y-59430761D01*
X113111642Y-59478380D01*
X113206880Y-59478380D01*
X113349738Y-59430761D01*
X113444976Y-59335523D01*
X113492595Y-59240285D01*
X113540214Y-59049809D01*
X113540214Y-58906952D01*
X113492595Y-58716476D01*
X113444976Y-58621238D01*
X113349738Y-58526000D01*
X113206880Y-58478380D01*
X113111642Y-58478380D01*
X112968785Y-58526000D01*
X112921166Y-58573619D01*
X112587833Y-58478380D02*
X111968785Y-58478380D01*
X112302119Y-58859333D01*
X112159261Y-58859333D01*
X112064023Y-58906952D01*
X112016404Y-58954571D01*
X111968785Y-59049809D01*
X111968785Y-59287904D01*
X112016404Y-59383142D01*
X112064023Y-59430761D01*
X112159261Y-59478380D01*
X112444976Y-59478380D01*
X112540214Y-59430761D01*
X112587833Y-59383142D01*
%TO.C,C4*%
X112180666Y-67413142D02*
X112228285Y-67460761D01*
X112371142Y-67508380D01*
X112466380Y-67508380D01*
X112609238Y-67460761D01*
X112704476Y-67365523D01*
X112752095Y-67270285D01*
X112799714Y-67079809D01*
X112799714Y-66936952D01*
X112752095Y-66746476D01*
X112704476Y-66651238D01*
X112609238Y-66556000D01*
X112466380Y-66508380D01*
X112371142Y-66508380D01*
X112228285Y-66556000D01*
X112180666Y-66603619D01*
X111323523Y-66841714D02*
X111323523Y-67508380D01*
X111561619Y-66460761D02*
X111799714Y-67175047D01*
X111180666Y-67175047D01*
%TO.C,C5*%
X112710166Y-65791142D02*
X112757785Y-65838761D01*
X112900642Y-65886380D01*
X112995880Y-65886380D01*
X113138738Y-65838761D01*
X113233976Y-65743523D01*
X113281595Y-65648285D01*
X113329214Y-65457809D01*
X113329214Y-65314952D01*
X113281595Y-65124476D01*
X113233976Y-65029238D01*
X113138738Y-64934000D01*
X112995880Y-64886380D01*
X112900642Y-64886380D01*
X112757785Y-64934000D01*
X112710166Y-64981619D01*
X111805404Y-64886380D02*
X112281595Y-64886380D01*
X112329214Y-65362571D01*
X112281595Y-65314952D01*
X112186357Y-65267333D01*
X111948261Y-65267333D01*
X111853023Y-65314952D01*
X111805404Y-65362571D01*
X111757785Y-65457809D01*
X111757785Y-65695904D01*
X111805404Y-65791142D01*
X111853023Y-65838761D01*
X111948261Y-65886380D01*
X112186357Y-65886380D01*
X112281595Y-65838761D01*
X112329214Y-65791142D01*
%TO.C,C6*%
X122277142Y-59015333D02*
X122324761Y-58967714D01*
X122372380Y-58824857D01*
X122372380Y-58729619D01*
X122324761Y-58586761D01*
X122229523Y-58491523D01*
X122134285Y-58443904D01*
X121943809Y-58396285D01*
X121800952Y-58396285D01*
X121610476Y-58443904D01*
X121515238Y-58491523D01*
X121420000Y-58586761D01*
X121372380Y-58729619D01*
X121372380Y-58824857D01*
X121420000Y-58967714D01*
X121467619Y-59015333D01*
X121372380Y-59872476D02*
X121372380Y-59682000D01*
X121420000Y-59586761D01*
X121467619Y-59539142D01*
X121610476Y-59443904D01*
X121800952Y-59396285D01*
X122181904Y-59396285D01*
X122277142Y-59443904D01*
X122324761Y-59491523D01*
X122372380Y-59586761D01*
X122372380Y-59777238D01*
X122324761Y-59872476D01*
X122277142Y-59920095D01*
X122181904Y-59967714D01*
X121943809Y-59967714D01*
X121848571Y-59920095D01*
X121800952Y-59872476D01*
X121753333Y-59777238D01*
X121753333Y-59586761D01*
X121800952Y-59491523D01*
X121848571Y-59443904D01*
X121943809Y-59396285D01*
%TO.C,C7*%
X138279142Y-60793333D02*
X138326761Y-60745714D01*
X138374380Y-60602857D01*
X138374380Y-60507619D01*
X138326761Y-60364761D01*
X138231523Y-60269523D01*
X138136285Y-60221904D01*
X137945809Y-60174285D01*
X137802952Y-60174285D01*
X137612476Y-60221904D01*
X137517238Y-60269523D01*
X137422000Y-60364761D01*
X137374380Y-60507619D01*
X137374380Y-60602857D01*
X137422000Y-60745714D01*
X137469619Y-60793333D01*
X137374380Y-61126666D02*
X137374380Y-61793333D01*
X138374380Y-61364761D01*
%TO.C,C8*%
X119292666Y-61317142D02*
X119340285Y-61364761D01*
X119483142Y-61412380D01*
X119578380Y-61412380D01*
X119721238Y-61364761D01*
X119816476Y-61269523D01*
X119864095Y-61174285D01*
X119911714Y-60983809D01*
X119911714Y-60840952D01*
X119864095Y-60650476D01*
X119816476Y-60555238D01*
X119721238Y-60460000D01*
X119578380Y-60412380D01*
X119483142Y-60412380D01*
X119340285Y-60460000D01*
X119292666Y-60507619D01*
X118721238Y-60840952D02*
X118816476Y-60793333D01*
X118864095Y-60745714D01*
X118911714Y-60650476D01*
X118911714Y-60602857D01*
X118864095Y-60507619D01*
X118816476Y-60460000D01*
X118721238Y-60412380D01*
X118530761Y-60412380D01*
X118435523Y-60460000D01*
X118387904Y-60507619D01*
X118340285Y-60602857D01*
X118340285Y-60650476D01*
X118387904Y-60745714D01*
X118435523Y-60793333D01*
X118530761Y-60840952D01*
X118721238Y-60840952D01*
X118816476Y-60888571D01*
X118864095Y-60936190D01*
X118911714Y-61031428D01*
X118911714Y-61221904D01*
X118864095Y-61317142D01*
X118816476Y-61364761D01*
X118721238Y-61412380D01*
X118530761Y-61412380D01*
X118435523Y-61364761D01*
X118387904Y-61317142D01*
X118340285Y-61221904D01*
X118340285Y-61031428D01*
X118387904Y-60936190D01*
X118435523Y-60888571D01*
X118530761Y-60840952D01*
%TO.C,C9*%
X80938666Y-67159142D02*
X80986285Y-67206761D01*
X81129142Y-67254380D01*
X81224380Y-67254380D01*
X81367238Y-67206761D01*
X81462476Y-67111523D01*
X81510095Y-67016285D01*
X81557714Y-66825809D01*
X81557714Y-66682952D01*
X81510095Y-66492476D01*
X81462476Y-66397238D01*
X81367238Y-66302000D01*
X81224380Y-66254380D01*
X81129142Y-66254380D01*
X80986285Y-66302000D01*
X80938666Y-66349619D01*
X80462476Y-67254380D02*
X80272000Y-67254380D01*
X80176761Y-67206761D01*
X80129142Y-67159142D01*
X80033904Y-67016285D01*
X79986285Y-66825809D01*
X79986285Y-66444857D01*
X80033904Y-66349619D01*
X80081523Y-66302000D01*
X80176761Y-66254380D01*
X80367238Y-66254380D01*
X80462476Y-66302000D01*
X80510095Y-66349619D01*
X80557714Y-66444857D01*
X80557714Y-66682952D01*
X80510095Y-66778190D01*
X80462476Y-66825809D01*
X80367238Y-66873428D01*
X80176761Y-66873428D01*
X80081523Y-66825809D01*
X80033904Y-66778190D01*
X79986285Y-66682952D01*
%TO.C,C10*%
X98500030Y-70303106D02*
X98500030Y-70370450D01*
X98567374Y-70505137D01*
X98634717Y-70572480D01*
X98769404Y-70639824D01*
X98904091Y-70639824D01*
X99005106Y-70606152D01*
X99173465Y-70505137D01*
X99274480Y-70404122D01*
X99375496Y-70235763D01*
X99409167Y-70134748D01*
X99409167Y-70000061D01*
X99341824Y-69865374D01*
X99274480Y-69798030D01*
X99139793Y-69730687D01*
X99072450Y-69730687D01*
X97759251Y-69697015D02*
X98163312Y-70101076D01*
X97961282Y-69899045D02*
X98668389Y-69191938D01*
X98634717Y-69360297D01*
X98634717Y-69494984D01*
X98668389Y-69596000D01*
X98028625Y-68552175D02*
X97961282Y-68484832D01*
X97860267Y-68451160D01*
X97792923Y-68451160D01*
X97691908Y-68484832D01*
X97523549Y-68585847D01*
X97355190Y-68754206D01*
X97254175Y-68922564D01*
X97220503Y-69023580D01*
X97220503Y-69090923D01*
X97254175Y-69191938D01*
X97321519Y-69259282D01*
X97422534Y-69292954D01*
X97489877Y-69292954D01*
X97590893Y-69259282D01*
X97759251Y-69158267D01*
X97927610Y-68989908D01*
X98028625Y-68821549D01*
X98062297Y-68720534D01*
X98062297Y-68653190D01*
X98028625Y-68552175D01*
%TO.C,C11*%
X97893142Y-57830142D02*
X97940761Y-57782523D01*
X97988380Y-57639666D01*
X97988380Y-57544428D01*
X97940761Y-57401571D01*
X97845523Y-57306333D01*
X97750285Y-57258714D01*
X97559809Y-57211095D01*
X97416952Y-57211095D01*
X97226476Y-57258714D01*
X97131238Y-57306333D01*
X97036000Y-57401571D01*
X96988380Y-57544428D01*
X96988380Y-57639666D01*
X97036000Y-57782523D01*
X97083619Y-57830142D01*
X97988380Y-58782523D02*
X97988380Y-58211095D01*
X97988380Y-58496809D02*
X96988380Y-58496809D01*
X97131238Y-58401571D01*
X97226476Y-58306333D01*
X97274095Y-58211095D01*
X97988380Y-59734904D02*
X97988380Y-59163476D01*
X97988380Y-59449190D02*
X96988380Y-59449190D01*
X97131238Y-59353952D01*
X97226476Y-59258714D01*
X97274095Y-59163476D01*
%TO.C,J1*%
X135088380Y-55546666D02*
X135802666Y-55546666D01*
X135945523Y-55499047D01*
X136040761Y-55403809D01*
X136088380Y-55260952D01*
X136088380Y-55165714D01*
X136088380Y-56546666D02*
X136088380Y-55975238D01*
X136088380Y-56260952D02*
X135088380Y-56260952D01*
X135231238Y-56165714D01*
X135326476Y-56070476D01*
X135374095Y-55975238D01*
%TO.C,J2*%
X76922380Y-60880666D02*
X77636666Y-60880666D01*
X77779523Y-60833047D01*
X77874761Y-60737809D01*
X77922380Y-60594952D01*
X77922380Y-60499714D01*
X77017619Y-61309238D02*
X76970000Y-61356857D01*
X76922380Y-61452095D01*
X76922380Y-61690190D01*
X76970000Y-61785428D01*
X77017619Y-61833047D01*
X77112857Y-61880666D01*
X77208095Y-61880666D01*
X77350952Y-61833047D01*
X77922380Y-61261619D01*
X77922380Y-61880666D01*
%TO.C,R1*%
X119800666Y-66906380D02*
X120134000Y-66430190D01*
X120372095Y-66906380D02*
X120372095Y-65906380D01*
X119991142Y-65906380D01*
X119895904Y-65954000D01*
X119848285Y-66001619D01*
X119800666Y-66096857D01*
X119800666Y-66239714D01*
X119848285Y-66334952D01*
X119895904Y-66382571D01*
X119991142Y-66430190D01*
X120372095Y-66430190D01*
X118848285Y-66906380D02*
X119419714Y-66906380D01*
X119134000Y-66906380D02*
X119134000Y-65906380D01*
X119229238Y-66049238D01*
X119324476Y-66144476D01*
X119419714Y-66192095D01*
%TO.C,R2*%
X148534380Y-64349333D02*
X148058190Y-64016000D01*
X148534380Y-63777904D02*
X147534380Y-63777904D01*
X147534380Y-64158857D01*
X147582000Y-64254095D01*
X147629619Y-64301714D01*
X147724857Y-64349333D01*
X147867714Y-64349333D01*
X147962952Y-64301714D01*
X148010571Y-64254095D01*
X148058190Y-64158857D01*
X148058190Y-63777904D01*
X147629619Y-64730285D02*
X147582000Y-64777904D01*
X147534380Y-64873142D01*
X147534380Y-65111238D01*
X147582000Y-65206476D01*
X147629619Y-65254095D01*
X147724857Y-65301714D01*
X147820095Y-65301714D01*
X147962952Y-65254095D01*
X148534380Y-64682666D01*
X148534380Y-65301714D01*
%TO.C,R3*%
X140152380Y-61555333D02*
X139676190Y-61222000D01*
X140152380Y-60983904D02*
X139152380Y-60983904D01*
X139152380Y-61364857D01*
X139200000Y-61460095D01*
X139247619Y-61507714D01*
X139342857Y-61555333D01*
X139485714Y-61555333D01*
X139580952Y-61507714D01*
X139628571Y-61460095D01*
X139676190Y-61364857D01*
X139676190Y-60983904D01*
X139152380Y-61888666D02*
X139152380Y-62507714D01*
X139533333Y-62174380D01*
X139533333Y-62317238D01*
X139580952Y-62412476D01*
X139628571Y-62460095D01*
X139723809Y-62507714D01*
X139961904Y-62507714D01*
X140057142Y-62460095D01*
X140104761Y-62412476D01*
X140152380Y-62317238D01*
X140152380Y-62031523D01*
X140104761Y-61936285D01*
X140057142Y-61888666D01*
%TO.C,R4*%
X125388666Y-64714380D02*
X125722000Y-64238190D01*
X125960095Y-64714380D02*
X125960095Y-63714380D01*
X125579142Y-63714380D01*
X125483904Y-63762000D01*
X125436285Y-63809619D01*
X125388666Y-63904857D01*
X125388666Y-64047714D01*
X125436285Y-64142952D01*
X125483904Y-64190571D01*
X125579142Y-64238190D01*
X125960095Y-64238190D01*
X124531523Y-64047714D02*
X124531523Y-64714380D01*
X124769619Y-63666761D02*
X125007714Y-64381047D01*
X124388666Y-64381047D01*
%TO.C,R5*%
X134581619Y-63055166D02*
X135057809Y-63388500D01*
X134581619Y-63626595D02*
X135581619Y-63626595D01*
X135581619Y-63245642D01*
X135534000Y-63150404D01*
X135486380Y-63102785D01*
X135391142Y-63055166D01*
X135248285Y-63055166D01*
X135153047Y-63102785D01*
X135105428Y-63150404D01*
X135057809Y-63245642D01*
X135057809Y-63626595D01*
X135581619Y-62150404D02*
X135581619Y-62626595D01*
X135105428Y-62674214D01*
X135153047Y-62626595D01*
X135200666Y-62531357D01*
X135200666Y-62293261D01*
X135153047Y-62198023D01*
X135105428Y-62150404D01*
X135010190Y-62102785D01*
X134772095Y-62102785D01*
X134676857Y-62150404D01*
X134629238Y-62198023D01*
X134581619Y-62293261D01*
X134581619Y-62531357D01*
X134629238Y-62626595D01*
X134676857Y-62674214D01*
%TO.C,R6*%
X130214666Y-67254380D02*
X130548000Y-66778190D01*
X130786095Y-67254380D02*
X130786095Y-66254380D01*
X130405142Y-66254380D01*
X130309904Y-66302000D01*
X130262285Y-66349619D01*
X130214666Y-66444857D01*
X130214666Y-66587714D01*
X130262285Y-66682952D01*
X130309904Y-66730571D01*
X130405142Y-66778190D01*
X130786095Y-66778190D01*
X129357523Y-66254380D02*
X129548000Y-66254380D01*
X129643238Y-66302000D01*
X129690857Y-66349619D01*
X129786095Y-66492476D01*
X129833714Y-66682952D01*
X129833714Y-67063904D01*
X129786095Y-67159142D01*
X129738476Y-67206761D01*
X129643238Y-67254380D01*
X129452761Y-67254380D01*
X129357523Y-67206761D01*
X129309904Y-67159142D01*
X129262285Y-67063904D01*
X129262285Y-66825809D01*
X129309904Y-66730571D01*
X129357523Y-66682952D01*
X129452761Y-66635333D01*
X129643238Y-66635333D01*
X129738476Y-66682952D01*
X129786095Y-66730571D01*
X129833714Y-66825809D01*
%TO.C,R7*%
X126912666Y-65984380D02*
X127246000Y-65508190D01*
X127484095Y-65984380D02*
X127484095Y-64984380D01*
X127103142Y-64984380D01*
X127007904Y-65032000D01*
X126960285Y-65079619D01*
X126912666Y-65174857D01*
X126912666Y-65317714D01*
X126960285Y-65412952D01*
X127007904Y-65460571D01*
X127103142Y-65508190D01*
X127484095Y-65508190D01*
X126579333Y-64984380D02*
X125912666Y-64984380D01*
X126341238Y-65984380D01*
%TO.C,R8*%
X132119666Y-62428380D02*
X132453000Y-61952190D01*
X132691095Y-62428380D02*
X132691095Y-61428380D01*
X132310142Y-61428380D01*
X132214904Y-61476000D01*
X132167285Y-61523619D01*
X132119666Y-61618857D01*
X132119666Y-61761714D01*
X132167285Y-61856952D01*
X132214904Y-61904571D01*
X132310142Y-61952190D01*
X132691095Y-61952190D01*
X131548238Y-61856952D02*
X131643476Y-61809333D01*
X131691095Y-61761714D01*
X131738714Y-61666476D01*
X131738714Y-61618857D01*
X131691095Y-61523619D01*
X131643476Y-61476000D01*
X131548238Y-61428380D01*
X131357761Y-61428380D01*
X131262523Y-61476000D01*
X131214904Y-61523619D01*
X131167285Y-61618857D01*
X131167285Y-61666476D01*
X131214904Y-61761714D01*
X131262523Y-61809333D01*
X131357761Y-61856952D01*
X131548238Y-61856952D01*
X131643476Y-61904571D01*
X131691095Y-61952190D01*
X131738714Y-62047428D01*
X131738714Y-62237904D01*
X131691095Y-62333142D01*
X131643476Y-62380761D01*
X131548238Y-62428380D01*
X131357761Y-62428380D01*
X131262523Y-62380761D01*
X131214904Y-62333142D01*
X131167285Y-62237904D01*
X131167285Y-62047428D01*
X131214904Y-61952190D01*
X131262523Y-61904571D01*
X131357761Y-61856952D01*
%TO.C,R9*%
X182114380Y-56244833D02*
X181638190Y-55911500D01*
X182114380Y-55673404D02*
X181114380Y-55673404D01*
X181114380Y-56054357D01*
X181162000Y-56149595D01*
X181209619Y-56197214D01*
X181304857Y-56244833D01*
X181447714Y-56244833D01*
X181542952Y-56197214D01*
X181590571Y-56149595D01*
X181638190Y-56054357D01*
X181638190Y-55673404D01*
X182114380Y-56721023D02*
X182114380Y-56911500D01*
X182066761Y-57006738D01*
X182019142Y-57054357D01*
X181876285Y-57149595D01*
X181685809Y-57197214D01*
X181304857Y-57197214D01*
X181209619Y-57149595D01*
X181162000Y-57101976D01*
X181114380Y-57006738D01*
X181114380Y-56816261D01*
X181162000Y-56721023D01*
X181209619Y-56673404D01*
X181304857Y-56625785D01*
X181542952Y-56625785D01*
X181638190Y-56673404D01*
X181685809Y-56721023D01*
X181733428Y-56816261D01*
X181733428Y-57006738D01*
X181685809Y-57101976D01*
X181638190Y-57149595D01*
X181542952Y-57197214D01*
%TO.C,R10*%
X174114380Y-55757142D02*
X173638190Y-55423809D01*
X174114380Y-55185714D02*
X173114380Y-55185714D01*
X173114380Y-55566666D01*
X173162000Y-55661904D01*
X173209619Y-55709523D01*
X173304857Y-55757142D01*
X173447714Y-55757142D01*
X173542952Y-55709523D01*
X173590571Y-55661904D01*
X173638190Y-55566666D01*
X173638190Y-55185714D01*
X174114380Y-56709523D02*
X174114380Y-56138095D01*
X174114380Y-56423809D02*
X173114380Y-56423809D01*
X173257238Y-56328571D01*
X173352476Y-56233333D01*
X173400095Y-56138095D01*
X173114380Y-57328571D02*
X173114380Y-57423809D01*
X173162000Y-57519047D01*
X173209619Y-57566666D01*
X173304857Y-57614285D01*
X173495333Y-57661904D01*
X173733428Y-57661904D01*
X173923904Y-57614285D01*
X174019142Y-57566666D01*
X174066761Y-57519047D01*
X174114380Y-57423809D01*
X174114380Y-57328571D01*
X174066761Y-57233333D01*
X174019142Y-57185714D01*
X173923904Y-57138095D01*
X173733428Y-57090476D01*
X173495333Y-57090476D01*
X173304857Y-57138095D01*
X173209619Y-57185714D01*
X173162000Y-57233333D01*
X173114380Y-57328571D01*
%TO.C,R11*%
X166114380Y-55593642D02*
X165638190Y-55260309D01*
X166114380Y-55022214D02*
X165114380Y-55022214D01*
X165114380Y-55403166D01*
X165162000Y-55498404D01*
X165209619Y-55546023D01*
X165304857Y-55593642D01*
X165447714Y-55593642D01*
X165542952Y-55546023D01*
X165590571Y-55498404D01*
X165638190Y-55403166D01*
X165638190Y-55022214D01*
X166114380Y-56546023D02*
X166114380Y-55974595D01*
X166114380Y-56260309D02*
X165114380Y-56260309D01*
X165257238Y-56165071D01*
X165352476Y-56069833D01*
X165400095Y-55974595D01*
X166114380Y-57498404D02*
X166114380Y-56926976D01*
X166114380Y-57212690D02*
X165114380Y-57212690D01*
X165257238Y-57117452D01*
X165352476Y-57022214D01*
X165400095Y-56926976D01*
%TO.C,R12*%
X97924687Y-67830450D02*
X98497106Y-67729435D01*
X98328748Y-68234511D02*
X99035854Y-67527404D01*
X98766480Y-67258030D01*
X98665465Y-67224358D01*
X98598122Y-67224358D01*
X98497106Y-67258030D01*
X98396091Y-67359045D01*
X98362419Y-67460061D01*
X98362419Y-67527404D01*
X98396091Y-67628419D01*
X98665465Y-67897793D01*
X97251251Y-67157015D02*
X97655312Y-67561076D01*
X97453282Y-67359045D02*
X98160389Y-66651938D01*
X98126717Y-66820297D01*
X98126717Y-66954984D01*
X98160389Y-67056000D01*
X97621641Y-66247877D02*
X97621641Y-66180534D01*
X97587969Y-66079519D01*
X97419610Y-65911160D01*
X97318595Y-65877488D01*
X97251251Y-65877488D01*
X97150236Y-65911160D01*
X97082893Y-65978503D01*
X97015549Y-66113190D01*
X97015549Y-66921312D01*
X96577816Y-66483580D01*
%TO.C,TP1*%
X118101904Y-65924380D02*
X117530476Y-65924380D01*
X117816190Y-66924380D02*
X117816190Y-65924380D01*
X117197142Y-66924380D02*
X117197142Y-65924380D01*
X116816190Y-65924380D01*
X116720952Y-65972000D01*
X116673333Y-66019619D01*
X116625714Y-66114857D01*
X116625714Y-66257714D01*
X116673333Y-66352952D01*
X116720952Y-66400571D01*
X116816190Y-66448190D01*
X117197142Y-66448190D01*
X115673333Y-66924380D02*
X116244761Y-66924380D01*
X115959047Y-66924380D02*
X115959047Y-65924380D01*
X116054285Y-66067238D01*
X116149523Y-66162476D01*
X116244761Y-66210095D01*
%TO.C,TP2*%
X133341904Y-64730380D02*
X132770476Y-64730380D01*
X133056190Y-65730380D02*
X133056190Y-64730380D01*
X132437142Y-65730380D02*
X132437142Y-64730380D01*
X132056190Y-64730380D01*
X131960952Y-64778000D01*
X131913333Y-64825619D01*
X131865714Y-64920857D01*
X131865714Y-65063714D01*
X131913333Y-65158952D01*
X131960952Y-65206571D01*
X132056190Y-65254190D01*
X132437142Y-65254190D01*
X131484761Y-64825619D02*
X131437142Y-64778000D01*
X131341904Y-64730380D01*
X131103809Y-64730380D01*
X131008571Y-64778000D01*
X130960952Y-64825619D01*
X130913333Y-64920857D01*
X130913333Y-65016095D01*
X130960952Y-65158952D01*
X131532380Y-65730380D01*
X130913333Y-65730380D01*
%TO.C,TP3*%
X123404380Y-60968095D02*
X123404380Y-61539523D01*
X124404380Y-61253809D02*
X123404380Y-61253809D01*
X124404380Y-61872857D02*
X123404380Y-61872857D01*
X123404380Y-62253809D01*
X123452000Y-62349047D01*
X123499619Y-62396666D01*
X123594857Y-62444285D01*
X123737714Y-62444285D01*
X123832952Y-62396666D01*
X123880571Y-62349047D01*
X123928190Y-62253809D01*
X123928190Y-61872857D01*
X123404380Y-62777619D02*
X123404380Y-63396666D01*
X123785333Y-63063333D01*
X123785333Y-63206190D01*
X123832952Y-63301428D01*
X123880571Y-63349047D01*
X123975809Y-63396666D01*
X124213904Y-63396666D01*
X124309142Y-63349047D01*
X124356761Y-63301428D01*
X124404380Y-63206190D01*
X124404380Y-62920476D01*
X124356761Y-62825238D01*
X124309142Y-62777619D01*
%TO.C,U1*%
X116038380Y-56134095D02*
X116847904Y-56134095D01*
X116943142Y-56181714D01*
X116990761Y-56229333D01*
X117038380Y-56324571D01*
X117038380Y-56515047D01*
X116990761Y-56610285D01*
X116943142Y-56657904D01*
X116847904Y-56705523D01*
X116038380Y-56705523D01*
X117038380Y-57705523D02*
X117038380Y-57134095D01*
X117038380Y-57419809D02*
X116038380Y-57419809D01*
X116181238Y-57324571D01*
X116276476Y-57229333D01*
X116324095Y-57134095D01*
%TO.C,U2*%
X109444097Y-63916601D02*
X110016517Y-64489021D01*
X110050189Y-64590036D01*
X110050189Y-64657380D01*
X110016517Y-64758395D01*
X109881830Y-64893082D01*
X109780815Y-64926754D01*
X109713471Y-64926754D01*
X109612456Y-64893082D01*
X109040036Y-64320662D01*
X108804334Y-64691052D02*
X108736991Y-64691052D01*
X108635975Y-64724723D01*
X108467617Y-64893082D01*
X108433945Y-64994097D01*
X108433945Y-65061441D01*
X108467617Y-65162456D01*
X108534960Y-65229800D01*
X108669647Y-65297143D01*
X109477769Y-65297143D01*
X109040036Y-65734876D01*
%TO.C,J3*%
X54494380Y-57070666D02*
X55208666Y-57070666D01*
X55351523Y-57023047D01*
X55446761Y-56927809D01*
X55494380Y-56784952D01*
X55494380Y-56689714D01*
X54494380Y-57451619D02*
X54494380Y-58070666D01*
X54875333Y-57737333D01*
X54875333Y-57880190D01*
X54922952Y-57975428D01*
X54970571Y-58023047D01*
X55065809Y-58070666D01*
X55303904Y-58070666D01*
X55399142Y-58023047D01*
X55446761Y-57975428D01*
X55494380Y-57880190D01*
X55494380Y-57594476D01*
X55446761Y-57499238D01*
X55399142Y-57451619D01*
%TO.C,J4*%
X190494380Y-57070666D02*
X191208666Y-57070666D01*
X191351523Y-57023047D01*
X191446761Y-56927809D01*
X191494380Y-56784952D01*
X191494380Y-56689714D01*
X190827714Y-57975428D02*
X191494380Y-57975428D01*
X190446761Y-57737333D02*
X191161047Y-57499238D01*
X191161047Y-58118285D01*
%TO.C,PB1*%
X157678380Y-60483904D02*
X156678380Y-60483904D01*
X156678380Y-60864857D01*
X156726000Y-60960095D01*
X156773619Y-61007714D01*
X156868857Y-61055333D01*
X157011714Y-61055333D01*
X157106952Y-61007714D01*
X157154571Y-60960095D01*
X157202190Y-60864857D01*
X157202190Y-60483904D01*
X157154571Y-61817238D02*
X157202190Y-61960095D01*
X157249809Y-62007714D01*
X157345047Y-62055333D01*
X157487904Y-62055333D01*
X157583142Y-62007714D01*
X157630761Y-61960095D01*
X157678380Y-61864857D01*
X157678380Y-61483904D01*
X156678380Y-61483904D01*
X156678380Y-61817238D01*
X156726000Y-61912476D01*
X156773619Y-61960095D01*
X156868857Y-62007714D01*
X156964095Y-62007714D01*
X157059333Y-61960095D01*
X157106952Y-61912476D01*
X157154571Y-61817238D01*
X157154571Y-61483904D01*
X157678380Y-63007714D02*
X157678380Y-62436285D01*
X157678380Y-62722000D02*
X156678380Y-62722000D01*
X156821238Y-62626761D01*
X156916476Y-62531523D01*
X156964095Y-62436285D01*
%TO.C,PB2*%
X147966380Y-60483904D02*
X146966380Y-60483904D01*
X146966380Y-60864857D01*
X147014000Y-60960095D01*
X147061619Y-61007714D01*
X147156857Y-61055333D01*
X147299714Y-61055333D01*
X147394952Y-61007714D01*
X147442571Y-60960095D01*
X147490190Y-60864857D01*
X147490190Y-60483904D01*
X147442571Y-61817238D02*
X147490190Y-61960095D01*
X147537809Y-62007714D01*
X147633047Y-62055333D01*
X147775904Y-62055333D01*
X147871142Y-62007714D01*
X147918761Y-61960095D01*
X147966380Y-61864857D01*
X147966380Y-61483904D01*
X146966380Y-61483904D01*
X146966380Y-61817238D01*
X147014000Y-61912476D01*
X147061619Y-61960095D01*
X147156857Y-62007714D01*
X147252095Y-62007714D01*
X147347333Y-61960095D01*
X147394952Y-61912476D01*
X147442571Y-61817238D01*
X147442571Y-61483904D01*
X147061619Y-62436285D02*
X147014000Y-62483904D01*
X146966380Y-62579142D01*
X146966380Y-62817238D01*
X147014000Y-62912476D01*
X147061619Y-62960095D01*
X147156857Y-63007714D01*
X147252095Y-63007714D01*
X147394952Y-62960095D01*
X147966380Y-62388666D01*
X147966380Y-63007714D01*
%TD*%
M02*
