%TF.GenerationSoftware,KiCad,Pcbnew,5.1.10*%
%TF.CreationDate,2021-08-04T22:26:14+02:00*%
%TF.ProjectId,keyboard,6b657962-6f61-4726-942e-6b696361645f,rev?*%
%TF.SameCoordinates,Original*%
%TF.FileFunction,Soldermask,Top*%
%TF.FilePolarity,Negative*%
%FSLAX46Y46*%
G04 Gerber Fmt 4.6, Leading zero omitted, Abs format (unit mm)*
G04 Created by KiCad (PCBNEW 5.1.10) date 2021-08-04 22:26:14*
%MOMM*%
%LPD*%
G01*
G04 APERTURE LIST*
%ADD10C,3.200000*%
%ADD11C,1.750000*%
%ADD12C,4.000000*%
%ADD13C,3.048000*%
%ADD14C,3.987800*%
%ADD15O,1.000000X1.600000*%
%ADD16C,0.650000*%
%ADD17O,1.000000X2.100000*%
%ADD18R,1.700000X1.700000*%
%ADD19O,1.700000X1.700000*%
%ADD20O,1.200000X1.800000*%
%ADD21C,1.500000*%
G04 APERTURE END LIST*
D10*
%TO.C,REF\u002A\u002A*%
X180250000Y-102068000D03*
%TD*%
%TO.C,REF\u002A\u002A*%
X62250000Y-103068000D03*
%TD*%
%TO.C,REF\u002A\u002A*%
X114250000Y-142068000D03*
%TD*%
%TO.C,REF\u002A\u002A*%
X119250000Y-103068000D03*
%TD*%
%TO.C,REF\u002A\u002A*%
X75250000Y-153068000D03*
%TD*%
%TO.C,REF\u002A\u002A*%
X42250000Y-153068000D03*
%TD*%
%TO.C,REF\u002A\u002A*%
X37490000Y-56324000D03*
%TD*%
%TO.C,REF\u002A\u002A*%
X201232000Y-56324000D03*
%TD*%
%TO.C,REF\u002A\u002A*%
X201232000Y-159068000D03*
%TD*%
D11*
%TO.C,SW9*%
X57702500Y-94469000D03*
X47542500Y-94469000D03*
D12*
X52622500Y-94469000D03*
%TD*%
D11*
%TO.C,SW8*%
X191052500Y-75419000D03*
X180892500Y-75419000D03*
D12*
X185972500Y-75419000D03*
%TD*%
D11*
%TO.C,SW7*%
X162477500Y-75419000D03*
X152317500Y-75419000D03*
D12*
X157397500Y-75419000D03*
%TD*%
D11*
%TO.C,SW6*%
X143427500Y-75419000D03*
X133267500Y-75419000D03*
D12*
X138347500Y-75419000D03*
%TD*%
D11*
%TO.C,SW5*%
X124377500Y-75419000D03*
X114217500Y-75419000D03*
D12*
X119297500Y-75419000D03*
%TD*%
D11*
%TO.C,SW4*%
X105327500Y-75419000D03*
X95167500Y-75419000D03*
D12*
X100247500Y-75419000D03*
%TD*%
D11*
%TO.C,SW39*%
X186290000Y-151619000D03*
X176130000Y-151619000D03*
D12*
X181210000Y-151619000D03*
%TD*%
D11*
%TO.C,SW38*%
X167240000Y-151619000D03*
X157080000Y-151619000D03*
D12*
X162160000Y-151619000D03*
%TD*%
D11*
%TO.C,SW37*%
X148190000Y-151619000D03*
X138030000Y-151619000D03*
D12*
X143110000Y-151619000D03*
%TD*%
D11*
%TO.C,SW36*%
X129140000Y-151619000D03*
X118980000Y-151619000D03*
D12*
X124060000Y-151619000D03*
%TD*%
D11*
%TO.C,SW35*%
X110090000Y-151619000D03*
X99930000Y-151619000D03*
D12*
X105010000Y-151619000D03*
%TD*%
D11*
%TO.C,SW34*%
X91040000Y-151619000D03*
X80880000Y-151619000D03*
D12*
X85960000Y-151619000D03*
%TD*%
D11*
%TO.C,SW33*%
X62465000Y-151619000D03*
X52305000Y-151619000D03*
D12*
X57385000Y-151619000D03*
%TD*%
D11*
%TO.C,SW32*%
X193433750Y-132569000D03*
X183273750Y-132569000D03*
D12*
X188353750Y-132569000D03*
%TD*%
D11*
%TO.C,SW31*%
X167240000Y-132569000D03*
X157080000Y-132569000D03*
D12*
X162160000Y-132569000D03*
%TD*%
D11*
%TO.C,SW30*%
X148190000Y-132569000D03*
X138030000Y-132569000D03*
D12*
X143110000Y-132569000D03*
%TD*%
D11*
%TO.C,SW3*%
X86277500Y-75419000D03*
X76117500Y-75419000D03*
D12*
X81197500Y-75419000D03*
%TD*%
D11*
%TO.C,SW29*%
X129140000Y-132569000D03*
X118980000Y-132569000D03*
D12*
X124060000Y-132569000D03*
%TD*%
D11*
%TO.C,SW28*%
X110090000Y-132569000D03*
X99930000Y-132569000D03*
D12*
X105010000Y-132569000D03*
%TD*%
D11*
%TO.C,SW27*%
X91040000Y-132569000D03*
X80880000Y-132569000D03*
D12*
X85960000Y-132569000D03*
%TD*%
D11*
%TO.C,SW26*%
X71990000Y-132569000D03*
X61830000Y-132569000D03*
D12*
X66910000Y-132569000D03*
%TD*%
D11*
%TO.C,SW25*%
X52940000Y-132569000D03*
X42780000Y-132569000D03*
D12*
X47860000Y-132569000D03*
%TD*%
D11*
%TO.C,SW24*%
X176765000Y-113519000D03*
X166605000Y-113519000D03*
D12*
X171685000Y-113519000D03*
%TD*%
D11*
%TO.C,SW23*%
X157715000Y-113519000D03*
X147555000Y-113519000D03*
D12*
X152635000Y-113519000D03*
%TD*%
D11*
%TO.C,SW22*%
X138665000Y-113519000D03*
X128505000Y-113519000D03*
D12*
X133585000Y-113519000D03*
%TD*%
D11*
%TO.C,SW21*%
X119615000Y-113519000D03*
X109455000Y-113519000D03*
D12*
X114535000Y-113519000D03*
%TD*%
D11*
%TO.C,SW20*%
X100565000Y-113519000D03*
X90405000Y-113519000D03*
D12*
X95485000Y-113519000D03*
%TD*%
D11*
%TO.C,SW2*%
X67227500Y-75419000D03*
X57067500Y-75419000D03*
D12*
X62147500Y-75419000D03*
%TD*%
D11*
%TO.C,SW19*%
X81515000Y-113519000D03*
X71355000Y-113519000D03*
D12*
X76435000Y-113519000D03*
%TD*%
D11*
%TO.C,SW18*%
X62465000Y-113519000D03*
X52305000Y-113519000D03*
D12*
X57385000Y-113519000D03*
%TD*%
D11*
%TO.C,SW17*%
X43415000Y-113519000D03*
X33255000Y-113519000D03*
D12*
X38335000Y-113519000D03*
%TD*%
D11*
%TO.C,SW16*%
X198196250Y-103994000D03*
X188036250Y-103994000D03*
D12*
X193116250Y-103994000D03*
%TD*%
D11*
%TO.C,SW15*%
X172002500Y-94469000D03*
X161842500Y-94469000D03*
D12*
X166922500Y-94469000D03*
%TD*%
D11*
%TO.C,SW14*%
X152952500Y-94469000D03*
X142792500Y-94469000D03*
D12*
X147872500Y-94469000D03*
%TD*%
D11*
%TO.C,SW13*%
X133902500Y-94469000D03*
X123742500Y-94469000D03*
D12*
X128822500Y-94469000D03*
%TD*%
D11*
%TO.C,SW12*%
X114852500Y-94469000D03*
X104692500Y-94469000D03*
D12*
X109772500Y-94469000D03*
%TD*%
D11*
%TO.C,SW11*%
X95802500Y-94469000D03*
X85642500Y-94469000D03*
D12*
X90722500Y-94469000D03*
%TD*%
D11*
%TO.C,SW10*%
X76752500Y-94469000D03*
X66592500Y-94469000D03*
D12*
X71672500Y-94469000D03*
%TD*%
D11*
%TO.C,SW1*%
X48177500Y-75419000D03*
X38017500Y-75419000D03*
D12*
X43097500Y-75419000D03*
%TD*%
D13*
%TO.C,ST8*%
X197910500Y-68434000D03*
X174034500Y-68434000D03*
D14*
X197910500Y-83674000D03*
X174034500Y-83674000D03*
%TD*%
D13*
%TO.C,ST33*%
X69323000Y-144634000D03*
X45447000Y-144634000D03*
D14*
X69323000Y-159874000D03*
X45447000Y-159874000D03*
%TD*%
D13*
%TO.C,ST16*%
X186131250Y-92056000D03*
X186131250Y-115932000D03*
D14*
X201371250Y-92056000D03*
X201371250Y-115932000D03*
%TD*%
D15*
%TO.C,J1*%
X134001001Y-54730999D03*
D16*
X132571001Y-58380999D03*
D15*
X125361001Y-54730999D03*
D16*
X126791001Y-58380999D03*
D17*
X125361001Y-58910999D03*
X134001001Y-58910999D03*
%TD*%
D18*
%TO.C,J2*%
X87630000Y-63754000D03*
D19*
X85090000Y-63754000D03*
X82550000Y-63754000D03*
X80010000Y-63754000D03*
%TD*%
D20*
%TO.C,J3*%
X48932000Y-56794000D03*
X48932000Y-59794000D03*
X48932000Y-63794000D03*
X53532000Y-64894000D03*
D21*
X51232000Y-55194000D03*
X51232000Y-62194000D03*
%TD*%
%TO.C,J4*%
X187232000Y-62194000D03*
X187232000Y-55194000D03*
D20*
X189532000Y-64894000D03*
X184932000Y-63794000D03*
X184932000Y-59794000D03*
X184932000Y-56794000D03*
%TD*%
%TO.C,LD1*%
G36*
G01*
X180682001Y-55874000D02*
X179781999Y-55874000D01*
G75*
G02*
X179532000Y-55624001I0J249999D01*
G01*
X179532000Y-54973999D01*
G75*
G02*
X179781999Y-54724000I249999J0D01*
G01*
X180682001Y-54724000D01*
G75*
G02*
X180932000Y-54973999I0J-249999D01*
G01*
X180932000Y-55624001D01*
G75*
G02*
X180682001Y-55874000I-249999J0D01*
G01*
G37*
G36*
G01*
X180682001Y-57924000D02*
X179781999Y-57924000D01*
G75*
G02*
X179532000Y-57674001I0J249999D01*
G01*
X179532000Y-57023999D01*
G75*
G02*
X179781999Y-56774000I249999J0D01*
G01*
X180682001Y-56774000D01*
G75*
G02*
X180932000Y-57023999I0J-249999D01*
G01*
X180932000Y-57674001D01*
G75*
G02*
X180682001Y-57924000I-249999J0D01*
G01*
G37*
%TD*%
%TO.C,LD2*%
G36*
G01*
X172682001Y-57924000D02*
X171781999Y-57924000D01*
G75*
G02*
X171532000Y-57674001I0J249999D01*
G01*
X171532000Y-57023999D01*
G75*
G02*
X171781999Y-56774000I249999J0D01*
G01*
X172682001Y-56774000D01*
G75*
G02*
X172932000Y-57023999I0J-249999D01*
G01*
X172932000Y-57674001D01*
G75*
G02*
X172682001Y-57924000I-249999J0D01*
G01*
G37*
G36*
G01*
X172682001Y-55874000D02*
X171781999Y-55874000D01*
G75*
G02*
X171532000Y-55624001I0J249999D01*
G01*
X171532000Y-54973999D01*
G75*
G02*
X171781999Y-54724000I249999J0D01*
G01*
X172682001Y-54724000D01*
G75*
G02*
X172932000Y-54973999I0J-249999D01*
G01*
X172932000Y-55624001D01*
G75*
G02*
X172682001Y-55874000I-249999J0D01*
G01*
G37*
%TD*%
%TO.C,LD3*%
G36*
G01*
X164682001Y-57924000D02*
X163781999Y-57924000D01*
G75*
G02*
X163532000Y-57674001I0J249999D01*
G01*
X163532000Y-57023999D01*
G75*
G02*
X163781999Y-56774000I249999J0D01*
G01*
X164682001Y-56774000D01*
G75*
G02*
X164932000Y-57023999I0J-249999D01*
G01*
X164932000Y-57674001D01*
G75*
G02*
X164682001Y-57924000I-249999J0D01*
G01*
G37*
G36*
G01*
X164682001Y-55874000D02*
X163781999Y-55874000D01*
G75*
G02*
X163532000Y-55624001I0J249999D01*
G01*
X163532000Y-54973999D01*
G75*
G02*
X163781999Y-54724000I249999J0D01*
G01*
X164682001Y-54724000D01*
G75*
G02*
X164932000Y-54973999I0J-249999D01*
G01*
X164932000Y-55624001D01*
G75*
G02*
X164682001Y-55874000I-249999J0D01*
G01*
G37*
%TD*%
M02*
