M48
; DRILL file {KiCad 5.1.10} date Wed Aug  4 22:26:16 2021
; FORMAT={-:-/ absolute / inch / decimal}
; #@! TF.CreationDate,2021-08-04T22:26:16+02:00
; #@! TF.GenerationSoftware,Kicad,Pcbnew,5.1.10
FMAT,2
INCH
T1C0.0118
T2C0.0157
T3C0.0236
T4C0.0394
T5C0.0591
T6C0.0256
T7C0.0591
T8C0.0689
T9C0.1200
T10C0.1260
T11C0.1570
T12C0.1575
%
G90
G05
T1
X3.29Y-4.6
X3.53Y-2.29
X3.53Y-2.3215
X3.7598Y-2.2399
X3.7608Y-2.2075
X3.8Y-5.32
X3.83Y-6.09
X3.84Y-3.09
X3.8482Y-2.2157
X3.8482Y-2.248
X4.0008Y-2.3851
X4.09Y-2.39
X4.11Y-2.16
X4.1123Y-2.4123
X4.12Y-2.1246
X4.1264Y-2.2428
X4.1411Y-2.4249
X4.167Y-2.4069
X4.1862Y-2.3819
X4.1968Y-2.3523
X4.2246Y-2.3246
X4.25Y-2.59
X4.2672Y-2.1895
X4.28Y-2.4
X4.2982Y-2.1952
X4.31Y-2.23
X4.34Y-2.5
X4.341Y-2.5325
X4.3508Y-2.5624
X4.36Y-2.7149
X4.36Y-3.1
X4.3636Y-2.2293
X4.3954Y-2.2364
X4.3954Y-2.2998
X4.4488Y-2.6255
X4.5084Y-2.6677
X4.67Y-3.82
X5.37Y-2.54
X5.41Y-2.35
X5.84Y-2.51
X6.05Y-2.49
X6.5408Y-2.7775
T2
X3.39Y-2.38
X3.54Y-2.36
X3.5728Y-2.3818
X3.7708Y-2.3575
X3.78Y-2.28
X3.7908Y-3.0575
X3.8108Y-2.1885
X3.82Y-2.31
X3.9Y-2.42
X3.9013Y-2.2669
X3.9108Y-2.8175
X3.9285Y-2.19
X4.0553Y-2.4292
X4.0658Y-2.6275
X4.0791Y-2.2985
X4.0851Y-2.9432
X4.1101Y-2.2743
X4.126Y-2.4569
X4.1402Y-2.5338
X4.1458Y-2.6475
X4.3892Y-2.3346
X4.3906Y-2.8975
X4.3906Y-2.9375
X4.42Y-2.21
X4.43Y-2.34
X4.5208Y-2.5584
X4.5235Y-2.3948
X4.5758Y-2.6875
X4.6Y-2.27
X4.84Y-2.23
X4.86Y-2.37
X4.88Y-2.28
X5.1808Y-2.2675
X5.32Y-2.44
X5.32Y-2.44
X5.4Y-2.42
X5.8558Y-2.4375
X6.14Y-2.24
X6.4658Y-2.3356
X6.7808Y-2.3356
X7.0957Y-2.3356
T4
X3.15Y-2.51
X3.25Y-2.51
X3.35Y-2.51
X3.45Y-2.51
T5
X1.3593Y-4.3693
X1.5468Y-2.8693
X1.6093Y-4.2693
X1.7343Y-5.1193
X1.7968Y-2.7693
X1.9218Y-3.6193
X1.9843Y-5.0193
X2.1093Y-4.3693
X2.1093Y-5.8693
X2.1718Y-3.5193
X2.2968Y-2.8693
X2.3593Y-4.2693
X2.3593Y-5.7693
X2.4843Y-5.1193
X2.5468Y-2.7693
X2.6718Y-3.6193
X2.7343Y-5.0193
X2.8593Y-4.3693
X2.9218Y-3.5193
X3.0468Y-2.8693
X3.1093Y-4.2693
X3.2343Y-5.1193
X3.2343Y-5.8693
X3.2968Y-2.7693
X3.4218Y-3.6193
X3.4843Y-5.0193
X3.4843Y-5.7693
X3.6093Y-4.3693
X3.6718Y-3.5193
X3.7968Y-2.8693
X3.8593Y-4.2693
X3.9843Y-5.1193
X3.9843Y-5.8693
X4.0468Y-2.7693
X4.1718Y-3.6193
X4.2343Y-5.0193
X4.2343Y-5.7693
X4.3593Y-4.3693
X4.4218Y-3.5193
X4.5468Y-2.8693
X4.6093Y-4.2693
X4.7343Y-5.1193
X4.7343Y-5.8693
X4.7968Y-2.7693
X4.9218Y-3.6193
X4.9843Y-5.0193
X4.9843Y-5.7693
X5.1093Y-4.3693
X5.1718Y-3.5193
X5.2968Y-2.8693
X5.3593Y-4.2693
X5.4843Y-5.1193
X5.4843Y-5.8693
X5.5468Y-2.7693
X5.6718Y-3.6193
X5.7343Y-5.0193
X5.7343Y-5.7693
X5.8593Y-4.3693
X5.9218Y-3.5193
X6.0468Y-2.8693
X6.1093Y-4.2693
X6.2343Y-5.1193
X6.2343Y-5.8693
X6.2968Y-2.7693
X6.4218Y-3.6193
X6.4843Y-5.0193
X6.4843Y-5.7693
X6.6093Y-4.3693
X6.6718Y-3.5193
X6.8593Y-4.2693
X6.9843Y-5.8693
X7.1718Y-2.8693
X7.2343Y-5.7693
X7.2655Y-5.1193
X7.4218Y-2.7693
X7.453Y-3.9943
X7.5155Y-5.0193
X7.703Y-3.8943
T6
X4.9918Y-2.2985
X5.2193Y-2.2985
T7
X2.017Y-2.173
X2.017Y-2.4486
X7.3713Y-2.173
X7.3713Y-2.4486
T8
X1.3093Y-4.4693
X1.4968Y-2.9693
X1.6843Y-5.2193
X1.7093Y-4.4693
X1.8718Y-3.7193
X1.8968Y-2.9693
X2.0593Y-4.4693
X2.0593Y-5.9693
X2.0843Y-5.2193
X2.2468Y-2.9693
X2.2718Y-3.7193
X2.4343Y-5.2193
X2.4593Y-4.4693
X2.4593Y-5.9693
X2.6218Y-3.7193
X2.6468Y-2.9693
X2.8093Y-4.4693
X2.8343Y-5.2193
X2.9968Y-2.9693
X3.0218Y-3.7193
X3.1843Y-5.2193
X3.1843Y-5.9693
X3.2093Y-4.4693
X3.3718Y-3.7193
X3.3968Y-2.9693
X3.5593Y-4.4693
X3.5843Y-5.2193
X3.5843Y-5.9693
X3.7468Y-2.9693
X3.7718Y-3.7193
X3.9343Y-5.2193
X3.9343Y-5.9693
X3.9593Y-4.4693
X4.1218Y-3.7193
X4.1468Y-2.9693
X4.3093Y-4.4693
X4.3343Y-5.2193
X4.3343Y-5.9693
X4.4968Y-2.9693
X4.5218Y-3.7193
X4.6843Y-5.2193
X4.6843Y-5.9693
X4.7093Y-4.4693
X4.8718Y-3.7193
X4.8968Y-2.9693
X5.0593Y-4.4693
X5.0843Y-5.2193
X5.0843Y-5.9693
X5.2468Y-2.9693
X5.2718Y-3.7193
X5.4343Y-5.2193
X5.4343Y-5.9693
X5.4593Y-4.4693
X5.6218Y-3.7193
X5.6468Y-2.9693
X5.8093Y-4.4693
X5.8343Y-5.2193
X5.8343Y-5.9693
X5.9968Y-2.9693
X6.0218Y-3.7193
X6.1843Y-5.2193
X6.1843Y-5.9693
X6.2093Y-4.4693
X6.3718Y-3.7193
X6.3968Y-2.9693
X6.5593Y-4.4693
X6.5843Y-5.2193
X6.5843Y-5.9693
X6.7718Y-3.7193
X6.9343Y-5.9693
X6.9593Y-4.4693
X7.1218Y-2.9693
X7.2155Y-5.2193
X7.3343Y-5.9693
X7.403Y-4.0943
X7.5218Y-2.9693
X7.6155Y-5.2193
X7.803Y-4.0943
T9
X1.7893Y-5.6943
X2.7293Y-5.6943
X6.8518Y-2.6943
X7.328Y-3.6243
X7.328Y-4.5643
X7.7918Y-2.6943
T10
X1.476Y-2.2175
X1.6634Y-6.0263
X2.4508Y-4.0578
X2.9626Y-6.0263
X4.498Y-5.5932
X4.6949Y-4.0578
X7.0965Y-4.0184
X7.9225Y-2.2175
X7.9225Y-6.2625
T11
X1.7893Y-6.2943
X2.7293Y-6.2943
X6.8518Y-3.2943
X7.7918Y-3.2943
X7.928Y-3.6243
X7.928Y-4.5643
T12
X1.5093Y-4.4693
X1.6968Y-2.9693
X1.8843Y-5.2193
X2.0718Y-3.7193
X2.2593Y-4.4693
X2.2593Y-5.9693
X2.4468Y-2.9693
X2.6343Y-5.2193
X2.8218Y-3.7193
X3.0093Y-4.4693
X3.1968Y-2.9693
X3.3843Y-5.2193
X3.3843Y-5.9693
X3.5718Y-3.7193
X3.7593Y-4.4693
X3.9468Y-2.9693
X4.1343Y-5.2193
X4.1343Y-5.9693
X4.3218Y-3.7193
X4.5093Y-4.4693
X4.6968Y-2.9693
X4.8843Y-5.2193
X4.8843Y-5.9693
X5.0718Y-3.7193
X5.2593Y-4.4693
X5.4468Y-2.9693
X5.6343Y-5.2193
X5.6343Y-5.9693
X5.8218Y-3.7193
X6.0093Y-4.4693
X6.1968Y-2.9693
X6.3843Y-5.2193
X6.3843Y-5.9693
X6.5718Y-3.7193
X6.7593Y-4.4693
X7.1343Y-5.9693
X7.3218Y-2.9693
X7.4155Y-5.2193
X7.603Y-4.0943
T3
G00X1.9265Y-2.2242
M15
G01X1.9265Y-2.2478
M16
G05
G00X1.9265Y-2.3423
M15
G01X1.9265Y-2.3659
M16
G05
G00X1.9265Y-2.4998
M15
G01X1.9265Y-2.5234
M16
G05
G00X2.1076Y-2.5431
M15
G01X2.1076Y-2.5667
M16
G05
G00X4.9355Y-2.143
M15
G01X4.9355Y-2.1666
M16
G05
G00X4.9355Y-2.2977
M15
G01X4.9355Y-2.341
M16
G05
G00X5.2756Y-2.143
M15
G01X5.2756Y-2.1666
M16
G05
G00X5.2756Y-2.2977
M15
G01X5.2756Y-2.341
M16
G05
G00X7.2808Y-2.2242
M15
G01X7.2808Y-2.2478
M16
G05
G00X7.2808Y-2.3423
M15
G01X7.2808Y-2.3659
M16
G05
G00X7.2808Y-2.4998
M15
G01X7.2808Y-2.5234
M16
G05
G00X7.4619Y-2.5431
M15
G01X7.4619Y-2.5667
M16
G05
T0
M30
