G04 #@! TF.GenerationSoftware,KiCad,Pcbnew,5.1.10*
G04 #@! TF.CreationDate,2021-08-05T22:56:14+02:00*
G04 #@! TF.ProjectId,plate,706c6174-652e-46b6-9963-61645f706362,rev?*
G04 #@! TF.SameCoordinates,Original*
G04 #@! TF.FileFunction,Profile,NP*
%FSLAX46Y46*%
G04 Gerber Fmt 4.6, Leading zero omitted, Abs format (unit mm)*
G04 Created by KiCad (PCBNEW 5.1.10) date 2021-08-05 22:56:14*
%MOMM*%
%LPD*%
G01*
G04 APERTURE LIST*
G04 #@! TA.AperFunction,Profile*
%ADD10C,0.050000*%
G04 #@! TD*
G04 #@! TA.AperFunction,Profile*
%ADD11C,0.200000*%
G04 #@! TD*
G04 APERTURE END LIST*
D10*
X41491000Y-52324000D02*
X33490000Y-52324000D01*
X197193000Y-52324000D02*
X205232000Y-52324000D01*
X194399000Y-65913000D02*
X196431000Y-65913000D01*
X197193000Y-52324000D02*
X197193000Y-65151000D01*
X197193000Y-65151000D02*
G75*
G02*
X196431000Y-65913000I-762000J0D01*
G01*
X42253000Y-65913000D02*
X194399000Y-65913000D01*
X42253000Y-65913000D02*
G75*
G02*
X41491000Y-65151000I0J762000D01*
G01*
X41491000Y-52324000D02*
X41491000Y-65151000D01*
D11*
X66353250Y-160589000D02*
X72353250Y-160589000D01*
X66353250Y-145589000D02*
X72353250Y-145589000D01*
X92490250Y-144589000D02*
G75*
G02*
X92990250Y-145089000I0J-500000D01*
G01*
X78990250Y-145089000D02*
G75*
G02*
X79490250Y-144589000I500000J0D01*
G01*
X135352750Y-87439000D02*
G75*
G02*
X135852750Y-87939000I0J-500000D01*
G01*
X159952750Y-87939000D02*
X159952750Y-100939000D01*
X184146500Y-112902000D02*
X184146500Y-118902000D01*
X121852750Y-87939000D02*
G75*
G02*
X122352750Y-87439000I500000J0D01*
G01*
X68677750Y-68389000D02*
G75*
G02*
X69177750Y-68889000I0J-500000D01*
G01*
X93777750Y-82388999D02*
G75*
G02*
X93277750Y-81888999I0J500000D01*
G01*
X84252750Y-101439000D02*
G75*
G02*
X83752750Y-100939000I0J500000D01*
G01*
X74727750Y-82388999D02*
X87727750Y-82388999D01*
X69965250Y-106489000D02*
X82965250Y-106489000D01*
X97252750Y-87439000D02*
G75*
G02*
X97752750Y-87939000I0J-500000D01*
G01*
X160452750Y-101439000D02*
X173452750Y-101439000D01*
X50127750Y-68889000D02*
X50127750Y-81888999D01*
X83752750Y-87939000D02*
G75*
G02*
X84252750Y-87439000I500000J0D01*
G01*
X93777750Y-68389000D02*
X106777750Y-68389000D01*
X92990250Y-126039000D02*
X92990250Y-139039000D01*
X78990250Y-126039000D02*
X78990250Y-139039000D01*
X31365250Y-106989000D02*
X31365250Y-119989000D01*
X170564750Y-69889000D02*
X170564750Y-83889000D01*
X112327750Y-68889000D02*
X112327750Y-81888999D01*
X112327750Y-68889000D02*
G75*
G02*
X112827750Y-68389000I500000J0D01*
G01*
X199146500Y-118902000D02*
G75*
G02*
X198646500Y-119402000I-500000J0D01*
G01*
X169190250Y-126039000D02*
X169190250Y-139039000D01*
X155190250Y-126039000D02*
X155190250Y-139039000D01*
X103302750Y-87439000D02*
X116302750Y-87439000D01*
X88227750Y-81888999D02*
G75*
G02*
X87727750Y-82388999I-500000J0D01*
G01*
X184646500Y-95526000D02*
G75*
G02*
X184146500Y-95026000I0J500000D01*
G01*
X46152750Y-101439000D02*
X59152750Y-101439000D01*
X200146500Y-110464000D02*
G75*
G02*
X199646500Y-110964000I-500000J0D01*
G01*
X194940750Y-84389000D02*
G75*
G02*
X194440750Y-83889000I0J500000D01*
G01*
X59652750Y-87939000D02*
X59652750Y-100939000D01*
X140615250Y-119989000D02*
G75*
G02*
X140115250Y-120489000I-500000J0D01*
G01*
X127115250Y-120489000D02*
G75*
G02*
X126615250Y-119989000I0J500000D01*
G01*
X112827750Y-68389000D02*
X125827750Y-68389000D01*
X54890250Y-126039000D02*
X54890250Y-139039000D01*
X40890250Y-126039000D02*
X40890250Y-139039000D01*
X69177750Y-68889000D02*
X69177750Y-81888999D01*
X50915250Y-106489000D02*
X63915250Y-106489000D01*
X89015250Y-120489000D02*
X102015250Y-120489000D01*
X44865249Y-106489000D02*
G75*
G02*
X45365249Y-106989000I0J-500000D01*
G01*
X69965250Y-120489000D02*
G75*
G02*
X69465250Y-119989000I0J500000D01*
G01*
X117590250Y-158589000D02*
X130590250Y-158589000D01*
X117590250Y-144589000D02*
X130590250Y-144589000D01*
X179502750Y-68389000D02*
X192502750Y-68389000D01*
X64415250Y-158089000D02*
G75*
G02*
X63915250Y-158589000I-500000J0D01*
G01*
X50915250Y-158589000D02*
G75*
G02*
X50415250Y-158089000I0J500000D01*
G01*
X111540250Y-125539000D02*
G75*
G02*
X112040250Y-126039000I0J-500000D01*
G01*
X98040250Y-126039000D02*
G75*
G02*
X98540250Y-125539000I500000J0D01*
G01*
X78702750Y-87939000D02*
X78702750Y-100939000D01*
X112040250Y-145089000D02*
X112040250Y-158089000D01*
X98040250Y-145089000D02*
X98040250Y-158089000D01*
X82965250Y-106489000D02*
G75*
G02*
X83465250Y-106989000I0J-500000D01*
G01*
X112040250Y-158089000D02*
G75*
G02*
X111540250Y-158589000I-500000J0D01*
G01*
X98540250Y-158589000D02*
G75*
G02*
X98040250Y-158089000I0J500000D01*
G01*
X169190250Y-139039000D02*
G75*
G02*
X168690250Y-139539000I-500000J0D01*
G01*
X155690250Y-139539000D02*
G75*
G02*
X155190250Y-139039000I0J500000D01*
G01*
X193002750Y-68889000D02*
X193002750Y-81888999D01*
X107565250Y-106989000D02*
X107565250Y-119989000D01*
X131090250Y-139039000D02*
G75*
G02*
X130590250Y-139539000I-500000J0D01*
G01*
X117590250Y-139539000D02*
G75*
G02*
X117090250Y-139039000I0J500000D01*
G01*
X179502750Y-82388999D02*
X192502750Y-82388999D01*
X177564750Y-69889000D02*
X177564750Y-83889000D01*
X178715250Y-119989000D02*
G75*
G02*
X178215250Y-120489000I-500000J0D01*
G01*
X165215250Y-120489000D02*
G75*
G02*
X164715250Y-119989000I0J500000D01*
G01*
X140115250Y-106489000D02*
G75*
G02*
X140615250Y-106989000I0J-500000D01*
G01*
X126615250Y-106989000D02*
G75*
G02*
X127115250Y-106489000I500000J0D01*
G01*
X41390250Y-139539000D02*
X54390250Y-139539000D01*
X41390250Y-125539000D02*
X54390250Y-125539000D01*
X31365250Y-106989000D02*
G75*
G02*
X31865250Y-106489000I500000J0D01*
G01*
X150140250Y-158089000D02*
G75*
G02*
X149640250Y-158589000I-500000J0D01*
G01*
X136640250Y-158589000D02*
G75*
G02*
X136140250Y-158089000I0J500000D01*
G01*
X136640250Y-139539000D02*
X149640250Y-139539000D01*
X136640250Y-125539000D02*
X149640250Y-125539000D01*
X97752750Y-87939000D02*
X97752750Y-100939000D01*
X108065250Y-106489000D02*
X121065250Y-106489000D01*
X64415250Y-106989000D02*
X64415250Y-119989000D01*
X103302750Y-101439000D02*
X116302750Y-101439000D01*
X64702750Y-87939000D02*
X64702750Y-100939000D01*
X199646500Y-110964000D02*
X186646500Y-110964000D01*
X131877750Y-68389000D02*
X144877750Y-68389000D01*
X45652750Y-87939000D02*
G75*
G02*
X46152750Y-87439000I500000J0D01*
G01*
X122352750Y-101439000D02*
G75*
G02*
X121852750Y-100939000I0J500000D01*
G01*
X145377750Y-81888999D02*
G75*
G02*
X144877750Y-82388999I-500000J0D01*
G01*
X173952750Y-87939000D02*
X173952750Y-100939000D01*
X150427750Y-68889000D02*
X150427750Y-81888999D01*
X112827750Y-82388999D02*
X125827750Y-82388999D01*
X168690250Y-125539000D02*
G75*
G02*
X169190250Y-126039000I0J-500000D01*
G01*
X155190250Y-126039000D02*
G75*
G02*
X155690250Y-125539000I500000J0D01*
G01*
X126327750Y-68889000D02*
X126327750Y-81888999D01*
X92490250Y-125539000D02*
G75*
G02*
X92990250Y-126039000I0J-500000D01*
G01*
X78990250Y-126039000D02*
G75*
G02*
X79490250Y-125539000I500000J0D01*
G01*
X73940250Y-139039000D02*
G75*
G02*
X73440250Y-139539000I-500000J0D01*
G01*
X60440250Y-139539000D02*
G75*
G02*
X59940250Y-139039000I0J500000D01*
G01*
X55177750Y-68889000D02*
X55177750Y-81888999D01*
X46152750Y-101439000D02*
G75*
G02*
X45652750Y-100939000I0J500000D01*
G01*
X54390250Y-125539000D02*
G75*
G02*
X54890250Y-126039000I0J-500000D01*
G01*
X40890250Y-126039000D02*
G75*
G02*
X41390250Y-125539000I500000J0D01*
G01*
X195384000Y-139039000D02*
G75*
G02*
X194884000Y-139539000I-500000J0D01*
G01*
X181884000Y-139539000D02*
G75*
G02*
X181384000Y-139039000I0J500000D01*
G01*
X31865250Y-120489000D02*
X44865249Y-120489000D01*
X126327750Y-81888999D02*
G75*
G02*
X125827750Y-82388999I-500000J0D01*
G01*
X59152750Y-87439000D02*
G75*
G02*
X59652750Y-87939000I0J-500000D01*
G01*
X83752750Y-87939000D02*
X83752750Y-100939000D01*
X55677750Y-82388999D02*
G75*
G02*
X55177750Y-81888999I0J500000D01*
G01*
X184146500Y-112902000D02*
G75*
G02*
X184646500Y-112402000I500000J0D01*
G01*
X199146500Y-112902000D02*
X199146500Y-118902000D01*
X116802750Y-87939000D02*
X116802750Y-100939000D01*
X177064750Y-69389000D02*
G75*
G02*
X177564750Y-69889000I0J-500000D01*
G01*
X93777750Y-82388999D02*
X106777750Y-82388999D01*
X50415250Y-106989000D02*
G75*
G02*
X50915250Y-106489000I500000J0D01*
G01*
X72353250Y-145589000D02*
G75*
G02*
X72853250Y-146089000I0J-500000D01*
G01*
X65853250Y-146089000D02*
G75*
G02*
X66353250Y-145589000I500000J0D01*
G01*
X194440750Y-69889000D02*
G75*
G02*
X194940750Y-69389000I500000J0D01*
G01*
X31865250Y-120489000D02*
G75*
G02*
X31365250Y-119989000I0J500000D01*
G01*
X177564750Y-83889000D02*
G75*
G02*
X177064750Y-84389000I-500000J0D01*
G01*
X159165249Y-106489000D02*
G75*
G02*
X159665249Y-106989000I0J-500000D01*
G01*
X145665250Y-106989000D02*
G75*
G02*
X146165250Y-106489000I500000J0D01*
G01*
X199646500Y-96964000D02*
X186646500Y-96964000D01*
X145377750Y-68889000D02*
X145377750Y-81888999D01*
X64415250Y-145089000D02*
X64415250Y-158089000D01*
X50415250Y-145089000D02*
X50415250Y-158089000D01*
X199146500Y-95026000D02*
G75*
G02*
X198646500Y-95526000I-500000J0D01*
G01*
X65202750Y-87439000D02*
X78202750Y-87439000D01*
X69465250Y-106989000D02*
X69465250Y-119989000D01*
X102802750Y-87939000D02*
X102802750Y-100939000D01*
X200940750Y-69389000D02*
G75*
G02*
X201440750Y-69889000I0J-500000D01*
G01*
X116302750Y-87439000D02*
G75*
G02*
X116802750Y-87939000I0J-500000D01*
G01*
X140902750Y-87939000D02*
X140902750Y-100939000D01*
X88515250Y-106989000D02*
G75*
G02*
X89015250Y-106489000I500000J0D01*
G01*
X69465250Y-106989000D02*
G75*
G02*
X69965250Y-106489000I500000J0D01*
G01*
X88515250Y-106989000D02*
X88515250Y-119989000D01*
X84252750Y-101439000D02*
X97252750Y-101439000D01*
X131090250Y-158089000D02*
G75*
G02*
X130590250Y-158589000I-500000J0D01*
G01*
X117590250Y-158589000D02*
G75*
G02*
X117090250Y-158089000I0J500000D01*
G01*
X198646500Y-95526000D02*
X184646500Y-95526000D01*
X98540250Y-158589000D02*
X111540250Y-158589000D01*
X98540250Y-144589000D02*
X111540250Y-144589000D01*
X188240250Y-158089000D02*
G75*
G02*
X187740250Y-158589000I-500000J0D01*
G01*
X174740250Y-158589000D02*
G75*
G02*
X174240250Y-158089000I0J500000D01*
G01*
X64702750Y-87939000D02*
G75*
G02*
X65202750Y-87439000I500000J0D01*
G01*
X45652750Y-87939000D02*
X45652750Y-100939000D01*
X121852750Y-87939000D02*
X121852750Y-100939000D01*
X72853250Y-146089000D02*
X72853250Y-160089000D01*
X65853250Y-146089000D02*
X65853250Y-160089000D01*
X159665249Y-106989000D02*
X159665249Y-119989000D01*
X145665250Y-106989000D02*
X145665250Y-119989000D01*
X198646500Y-112402000D02*
G75*
G02*
X199146500Y-112902000I0J-500000D01*
G01*
X150140250Y-126039000D02*
X150140250Y-139039000D01*
X136140250Y-126039000D02*
X136140250Y-139039000D01*
X178215250Y-106489000D02*
G75*
G02*
X178715250Y-106989000I0J-500000D01*
G01*
X164715250Y-106989000D02*
G75*
G02*
X165215250Y-106489000I500000J0D01*
G01*
X73440250Y-125539000D02*
G75*
G02*
X73940250Y-126039000I0J-500000D01*
G01*
X59940250Y-126039000D02*
G75*
G02*
X60440250Y-125539000I500000J0D01*
G01*
X74227750Y-68889000D02*
G75*
G02*
X74727750Y-68389000I500000J0D01*
G01*
X198646500Y-88526000D02*
G75*
G02*
X199146500Y-89026000I0J-500000D01*
G01*
X179002750Y-68889000D02*
X179002750Y-81888999D01*
X141402750Y-101439000D02*
G75*
G02*
X140902750Y-100939000I0J500000D01*
G01*
X160452750Y-101439000D02*
G75*
G02*
X159952750Y-100939000I0J500000D01*
G01*
X92990250Y-139039000D02*
G75*
G02*
X92490250Y-139539000I-500000J0D01*
G01*
X79490250Y-139539000D02*
G75*
G02*
X78990250Y-139039000I0J500000D01*
G01*
X79490250Y-158589000D02*
X92490250Y-158589000D01*
X79490250Y-144589000D02*
X92490250Y-144589000D01*
X102015250Y-106489000D02*
G75*
G02*
X102515250Y-106989000I0J-500000D01*
G01*
X131090250Y-126039000D02*
X131090250Y-139039000D01*
X117090250Y-126039000D02*
X117090250Y-139039000D01*
X188240250Y-145089000D02*
X188240250Y-158089000D01*
X174240250Y-145089000D02*
X174240250Y-158089000D01*
X187740250Y-144589000D02*
G75*
G02*
X188240250Y-145089000I0J-500000D01*
G01*
X174240250Y-145089000D02*
G75*
G02*
X174740250Y-144589000I500000J0D01*
G01*
X107277750Y-68889000D02*
X107277750Y-81888999D01*
X199646500Y-96964000D02*
G75*
G02*
X200146500Y-97464000I0J-500000D01*
G01*
X112040250Y-139039000D02*
G75*
G02*
X111540250Y-139539000I-500000J0D01*
G01*
X98540250Y-139539000D02*
G75*
G02*
X98040250Y-139039000I0J500000D01*
G01*
X65202750Y-101439000D02*
X78202750Y-101439000D01*
X125827750Y-68389000D02*
G75*
G02*
X126327750Y-68889000I0J-500000D01*
G01*
X122352750Y-87439000D02*
X135352750Y-87439000D01*
X127115250Y-120489000D02*
X140115250Y-120489000D01*
X127115250Y-106489000D02*
X140115250Y-106489000D01*
X149640250Y-125539000D02*
G75*
G02*
X150140250Y-126039000I0J-500000D01*
G01*
X136140250Y-126039000D02*
G75*
G02*
X136640250Y-125539000I500000J0D01*
G01*
X50915250Y-158589000D02*
X63915250Y-158589000D01*
X50915250Y-144589000D02*
X63915250Y-144589000D01*
X171064750Y-84389000D02*
G75*
G02*
X170564750Y-83889000I0J500000D01*
G01*
X97752750Y-100939000D02*
G75*
G02*
X97252750Y-101439000I-500000J0D01*
G01*
X92990250Y-145089000D02*
X92990250Y-158089000D01*
X78990250Y-145089000D02*
X78990250Y-158089000D01*
X140615250Y-106989000D02*
X140615250Y-119989000D01*
X126615250Y-106989000D02*
X126615250Y-119989000D01*
X173952750Y-100939000D02*
G75*
G02*
X173452750Y-101439000I-500000J0D01*
G01*
X168690250Y-144589000D02*
G75*
G02*
X169190250Y-145089000I0J-500000D01*
G01*
X155190250Y-145089000D02*
G75*
G02*
X155690250Y-144589000I500000J0D01*
G01*
X49627750Y-68389000D02*
G75*
G02*
X50127750Y-68889000I0J-500000D01*
G01*
X93277750Y-68889000D02*
G75*
G02*
X93777750Y-68389000I500000J0D01*
G01*
X48977250Y-160089000D02*
G75*
G02*
X48477250Y-160589000I-500000J0D01*
G01*
X42477249Y-160589000D02*
G75*
G02*
X41977249Y-160089000I0J500000D01*
G01*
X74227750Y-68889000D02*
X74227750Y-81888999D01*
X63915250Y-144589000D02*
G75*
G02*
X64415250Y-145089000I0J-500000D01*
G01*
X50415250Y-145089000D02*
G75*
G02*
X50915250Y-144589000I500000J0D01*
G01*
X170564750Y-69889000D02*
G75*
G02*
X171064750Y-69389000I500000J0D01*
G01*
X111540250Y-144589000D02*
G75*
G02*
X112040250Y-145089000I0J-500000D01*
G01*
X98040250Y-145089000D02*
G75*
G02*
X98540250Y-144589000I500000J0D01*
G01*
X117590250Y-139539000D02*
X130590250Y-139539000D01*
X117590250Y-125539000D02*
X130590250Y-125539000D01*
X50915250Y-120489000D02*
G75*
G02*
X50415250Y-119989000I0J500000D01*
G01*
X89015250Y-120489000D02*
G75*
G02*
X88515250Y-119989000I0J500000D01*
G01*
X130590250Y-125539000D02*
G75*
G02*
X131090250Y-126039000I0J-500000D01*
G01*
X117090250Y-126039000D02*
G75*
G02*
X117590250Y-125539000I500000J0D01*
G01*
X48477250Y-145589000D02*
G75*
G02*
X48977250Y-146089000I0J-500000D01*
G01*
X41977249Y-146089000D02*
G75*
G02*
X42477249Y-145589000I500000J0D01*
G01*
X106777750Y-68389000D02*
G75*
G02*
X107277750Y-68889000I0J-500000D01*
G01*
X131877750Y-82388999D02*
G75*
G02*
X131377750Y-81888999I0J500000D01*
G01*
X112040250Y-126039000D02*
X112040250Y-139039000D01*
X98040250Y-126039000D02*
X98040250Y-139039000D01*
X150427750Y-68889000D02*
G75*
G02*
X150927750Y-68389000I500000J0D01*
G01*
X65202750Y-101439000D02*
G75*
G02*
X64702750Y-100939000I0J500000D01*
G01*
X169190250Y-145089000D02*
X169190250Y-158089000D01*
X155190250Y-145089000D02*
X155190250Y-158089000D01*
X102515250Y-119989000D02*
G75*
G02*
X102015250Y-120489000I-500000J0D01*
G01*
X55677750Y-68389000D02*
X68677750Y-68389000D01*
X131377750Y-68889000D02*
X131377750Y-81888999D01*
X194940750Y-69389000D02*
X200940750Y-69389000D01*
X84252750Y-87439000D02*
X97252750Y-87439000D01*
X93277750Y-68889000D02*
X93277750Y-81888999D01*
X116802750Y-100939000D02*
G75*
G02*
X116302750Y-101439000I-500000J0D01*
G01*
X83465250Y-106989000D02*
X83465250Y-119989000D01*
X88227750Y-68889000D02*
X88227750Y-81888999D01*
X42477249Y-160589000D02*
X48477250Y-160589000D01*
X42477249Y-145589000D02*
X48477250Y-145589000D01*
X186646500Y-110964000D02*
G75*
G02*
X186146500Y-110464000I0J500000D01*
G01*
X59652750Y-100939000D02*
G75*
G02*
X59152750Y-101439000I-500000J0D01*
G01*
X72853250Y-160089000D02*
G75*
G02*
X72353250Y-160589000I-500000J0D01*
G01*
X66353250Y-160589000D02*
G75*
G02*
X65853250Y-160089000I0J500000D01*
G01*
X195384000Y-126039000D02*
X195384000Y-139039000D01*
X181384000Y-126039000D02*
X181384000Y-139039000D01*
X179002750Y-68889000D02*
G75*
G02*
X179502750Y-68389000I500000J0D01*
G01*
X102802750Y-87939000D02*
G75*
G02*
X103302750Y-87439000I500000J0D01*
G01*
X50915250Y-120489000D02*
X63915250Y-120489000D01*
X108065250Y-120489000D02*
X121065250Y-120489000D01*
X186146500Y-97464000D02*
X186146500Y-110464000D01*
X102515250Y-106989000D02*
X102515250Y-119989000D01*
X184646500Y-119402000D02*
G75*
G02*
X184146500Y-118902000I0J500000D01*
G01*
X136640250Y-158589000D02*
X149640250Y-158589000D01*
X136640250Y-144589000D02*
X149640250Y-144589000D01*
X149640250Y-144589000D02*
G75*
G02*
X150140250Y-145089000I0J-500000D01*
G01*
X136140250Y-145089000D02*
G75*
G02*
X136640250Y-144589000I500000J0D01*
G01*
X98540250Y-139539000D02*
X111540250Y-139539000D01*
X98540250Y-125539000D02*
X111540250Y-125539000D01*
X63915250Y-106489000D02*
G75*
G02*
X64415250Y-106989000I0J-500000D01*
G01*
X150140250Y-145089000D02*
X150140250Y-158089000D01*
X136140250Y-145089000D02*
X136140250Y-158089000D01*
X184146500Y-89026000D02*
X184146500Y-95026000D01*
X154402750Y-87439000D02*
G75*
G02*
X154902750Y-87939000I0J-500000D01*
G01*
X165215250Y-120489000D02*
X178215250Y-120489000D01*
X165215250Y-106489000D02*
X178215250Y-106489000D01*
X73940250Y-126039000D02*
X73940250Y-139039000D01*
X59940250Y-126039000D02*
X59940250Y-139039000D01*
X130590250Y-144589000D02*
G75*
G02*
X131090250Y-145089000I0J-500000D01*
G01*
X117090250Y-145089000D02*
G75*
G02*
X117590250Y-144589000I500000J0D01*
G01*
X64415250Y-119989000D02*
G75*
G02*
X63915250Y-120489000I-500000J0D01*
G01*
X159952750Y-87939000D02*
G75*
G02*
X160452750Y-87439000I500000J0D01*
G01*
X171064750Y-84389000D02*
X177064750Y-84389000D01*
X164427750Y-68889000D02*
X164427750Y-81888999D01*
X131377750Y-68889000D02*
G75*
G02*
X131877750Y-68389000I500000J0D01*
G01*
X150927750Y-68389000D02*
X163927750Y-68389000D01*
X155690250Y-139539000D02*
X168690250Y-139539000D01*
X155690250Y-125539000D02*
X168690250Y-125539000D01*
X173452750Y-87439000D02*
G75*
G02*
X173952750Y-87939000I0J-500000D01*
G01*
X171064750Y-69389000D02*
X177064750Y-69389000D01*
X31865250Y-106489000D02*
X44865249Y-106489000D01*
X169190250Y-158089000D02*
G75*
G02*
X168690250Y-158589000I-500000J0D01*
G01*
X155690250Y-158589000D02*
G75*
G02*
X155190250Y-158089000I0J500000D01*
G01*
X107277750Y-81888999D02*
G75*
G02*
X106777750Y-82388999I-500000J0D01*
G01*
X89015250Y-106489000D02*
X102015250Y-106489000D01*
X146165250Y-120489000D02*
X159165249Y-120489000D01*
X146165250Y-106489000D02*
X159165249Y-106489000D01*
X45365249Y-106989000D02*
X45365249Y-119989000D01*
X131090250Y-145089000D02*
X131090250Y-158089000D01*
X117090250Y-145089000D02*
X117090250Y-158089000D01*
X199146500Y-89026000D02*
X199146500Y-95026000D01*
X135852750Y-87939000D02*
X135852750Y-100939000D01*
X198646500Y-88526000D02*
X184646500Y-88526000D01*
X154902750Y-87939000D02*
X154902750Y-100939000D01*
X78202750Y-87439000D02*
G75*
G02*
X78702750Y-87939000I0J-500000D01*
G01*
X159665249Y-119989000D02*
G75*
G02*
X159165249Y-120489000I-500000J0D01*
G01*
X146165250Y-120489000D02*
G75*
G02*
X145665250Y-119989000I0J500000D01*
G01*
X174740250Y-158589000D02*
X187740250Y-158589000D01*
X174740250Y-144589000D02*
X187740250Y-144589000D01*
X121065250Y-106489000D02*
G75*
G02*
X121565250Y-106989000I0J-500000D01*
G01*
X103302750Y-101439000D02*
G75*
G02*
X102802750Y-100939000I0J500000D01*
G01*
X36627750Y-82388999D02*
G75*
G02*
X36127750Y-81888999I0J500000D01*
G01*
X198646500Y-119402000D02*
X184646500Y-119402000D01*
X50127750Y-81888999D02*
G75*
G02*
X49627750Y-82388999I-500000J0D01*
G01*
X141402750Y-101439000D02*
X154402750Y-101439000D01*
X150927750Y-82388999D02*
G75*
G02*
X150427750Y-81888999I0J500000D01*
G01*
X36627750Y-82388999D02*
X49627750Y-82388999D01*
X140902750Y-87939000D02*
G75*
G02*
X141402750Y-87439000I500000J0D01*
G01*
X36627750Y-68389000D02*
X49627750Y-68389000D01*
X200146500Y-97464000D02*
X200146500Y-110464000D01*
X135852750Y-100939000D02*
G75*
G02*
X135352750Y-101439000I-500000J0D01*
G01*
X194884000Y-125539000D02*
G75*
G02*
X195384000Y-126039000I0J-500000D01*
G01*
X181384000Y-126039000D02*
G75*
G02*
X181884000Y-125539000I500000J0D01*
G01*
X74727750Y-68389000D02*
X87727750Y-68389000D01*
X112827750Y-82388999D02*
G75*
G02*
X112327750Y-81888999I0J500000D01*
G01*
X160452750Y-87439000D02*
X173452750Y-87439000D01*
X83465250Y-119989000D02*
G75*
G02*
X82965250Y-120489000I-500000J0D01*
G01*
X121565250Y-119989000D02*
G75*
G02*
X121065250Y-120489000I-500000J0D01*
G01*
X108065250Y-120489000D02*
G75*
G02*
X107565250Y-119989000I0J500000D01*
G01*
X69965250Y-120489000D02*
X82965250Y-120489000D01*
X131877750Y-82388999D02*
X144877750Y-82388999D01*
X164427750Y-81888999D02*
G75*
G02*
X163927750Y-82388999I-500000J0D01*
G01*
X201440750Y-69889000D02*
X201440750Y-83889000D01*
X50415250Y-106989000D02*
X50415250Y-119989000D01*
X154902750Y-100939000D02*
G75*
G02*
X154402750Y-101439000I-500000J0D01*
G01*
X194440750Y-69889000D02*
X194440750Y-83889000D01*
X122352750Y-101439000D02*
X135352750Y-101439000D01*
X163927750Y-68389000D02*
G75*
G02*
X164427750Y-68889000I0J-500000D01*
G01*
X36127750Y-68889000D02*
X36127750Y-81888999D01*
X150140250Y-139039000D02*
G75*
G02*
X149640250Y-139539000I-500000J0D01*
G01*
X136640250Y-139539000D02*
G75*
G02*
X136140250Y-139039000I0J500000D01*
G01*
X193002750Y-81888999D02*
G75*
G02*
X192502750Y-82388999I-500000J0D01*
G01*
X186146500Y-97464000D02*
G75*
G02*
X186646500Y-96964000I500000J0D01*
G01*
X78702750Y-100939000D02*
G75*
G02*
X78202750Y-101439000I-500000J0D01*
G01*
X198646500Y-112402000D02*
X184646500Y-112402000D01*
X179502750Y-82388999D02*
G75*
G02*
X179002750Y-81888999I0J500000D01*
G01*
X184146500Y-89026000D02*
G75*
G02*
X184646500Y-88526000I500000J0D01*
G01*
X155690250Y-158589000D02*
X168690250Y-158589000D01*
X155690250Y-144589000D02*
X168690250Y-144589000D01*
X192502750Y-68389000D02*
G75*
G02*
X193002750Y-68889000I0J-500000D01*
G01*
X121565250Y-106989000D02*
X121565250Y-119989000D01*
X69177750Y-81888999D02*
G75*
G02*
X68677750Y-82388999I-500000J0D01*
G01*
X194940750Y-84389000D02*
X200940750Y-84389000D01*
X55177750Y-68889000D02*
G75*
G02*
X55677750Y-68389000I500000J0D01*
G01*
X74727750Y-82388999D02*
G75*
G02*
X74227750Y-81888999I0J500000D01*
G01*
X45365249Y-119989000D02*
G75*
G02*
X44865249Y-120489000I-500000J0D01*
G01*
X60440250Y-139539000D02*
X73440250Y-139539000D01*
X60440250Y-125539000D02*
X73440250Y-125539000D01*
X36127750Y-68889000D02*
G75*
G02*
X36627750Y-68389000I500000J0D01*
G01*
X178715250Y-106989000D02*
X178715250Y-119989000D01*
X164715250Y-106989000D02*
X164715250Y-119989000D01*
X141402750Y-87439000D02*
X154402750Y-87439000D01*
X46152750Y-87439000D02*
X59152750Y-87439000D01*
X87727750Y-68389000D02*
G75*
G02*
X88227750Y-68889000I0J-500000D01*
G01*
X201440750Y-83889000D02*
G75*
G02*
X200940750Y-84389000I-500000J0D01*
G01*
X48977250Y-146089000D02*
X48977250Y-160089000D01*
X41977249Y-146089000D02*
X41977249Y-160089000D01*
X79490250Y-139539000D02*
X92490250Y-139539000D01*
X79490250Y-125539000D02*
X92490250Y-125539000D01*
X150927750Y-82388999D02*
X163927750Y-82388999D01*
X54890250Y-139039000D02*
G75*
G02*
X54390250Y-139539000I-500000J0D01*
G01*
X41390250Y-139539000D02*
G75*
G02*
X40890250Y-139039000I0J500000D01*
G01*
X55677750Y-82388999D02*
X68677750Y-82388999D01*
X107565250Y-106989000D02*
G75*
G02*
X108065250Y-106489000I500000J0D01*
G01*
X144877750Y-68389000D02*
G75*
G02*
X145377750Y-68889000I0J-500000D01*
G01*
X92990250Y-158089000D02*
G75*
G02*
X92490250Y-158589000I-500000J0D01*
G01*
X79490250Y-158589000D02*
G75*
G02*
X78990250Y-158089000I0J500000D01*
G01*
X181884000Y-139539000D02*
X194884000Y-139539000D01*
X181884000Y-125539000D02*
X194884000Y-125539000D01*
D10*
X205232000Y-163068000D02*
X205232000Y-52324000D01*
X38250000Y-163068000D02*
X205232000Y-163068000D01*
X38250000Y-123130000D02*
X38250000Y-163068000D01*
X38240000Y-123130000D02*
X38250000Y-123130000D01*
X28730000Y-123130000D02*
X38240000Y-123130000D01*
X28730000Y-103910000D02*
X28730000Y-123130000D01*
X43010000Y-103910000D02*
X28730000Y-103910000D01*
X43010000Y-85030000D02*
X43010000Y-103910000D01*
X33490000Y-85030000D02*
X43010000Y-85030000D01*
X33490000Y-52324000D02*
X33490000Y-85030000D01*
M02*
