<?xml version="1.0" encoding="UTF-8" standalone="no"?>
<svg
   version="1.1"
   width="29.700220cm"
   height="21.000720cm"
   viewBox="0 0 116930 82680"
   id="svg630"
   sodipodi:docname="plate-Edge_Cuts.svg"
   inkscape:version="1.1 (c68e22c387, 2021-05-23)"
   xmlns:inkscape="http://www.inkscape.org/namespaces/inkscape"
   xmlns:sodipodi="http://sodipodi.sourceforge.net/DTD/sodipodi-0.dtd"
   xmlns="http://www.w3.org/2000/svg"
   xmlns:svg="http://www.w3.org/2000/svg">
  <defs
     id="defs634" />
  <sodipodi:namedview
     id="namedview632"
     pagecolor="#505050"
     bordercolor="#eeeeee"
     borderopacity="1"
     inkscape:pageshadow="0"
     inkscape:pageopacity="0"
     inkscape:pagecheckerboard="0"
     inkscape:document-units="cm"
     showgrid="false"
     inkscape:zoom="0.94868775"
     inkscape:cx="401.08033"
     inkscape:cy="453.78471"
     inkscape:window-width="2558"
     inkscape:window-height="1398"
     inkscape:window-x="1920"
     inkscape:window-y="20"
     inkscape:window-maximized="1"
     inkscape:current-layer="svg630" />
  <title
     id="title2">SVG Picture created as plate-Edge_Cuts.svg date 2021/08/28 11:39:38 </title>
  <desc
     id="desc4">Picture generated by PCBNEW </desc>
  <g
     style="fill:#000000; fill-opacity:1;stroke:#000000; stroke-opacity:1; stroke-linecap:round; stroke-linejoin:round;"
     transform="translate(0 0) scale(1 1)"
     id="g6" />
  <g
     style="fill:#000000; fill-opacity:0.0;  stroke:#000000; stroke-width:-0.000393701; stroke-opacity:1;  stroke-linecap:round; stroke-linejoin:round;"
     id="g8" />
  <g
     style="fill:#000000; fill-opacity:0.0;  stroke:#000000; stroke-width:19.685; stroke-opacity:1;  stroke-linecap:round; stroke-linejoin:round;"
     id="g20" />
  <g
     style="fill:#000000; fill-opacity:0.0;  stroke:#000000; stroke-width:78.7402; stroke-opacity:1;  stroke-linecap:round; stroke-linejoin:round;"
     id="g582" />
  <g
     style="fill:#000000; fill-opacity:0.0;  stroke:#000000; stroke-width:19.685; stroke-opacity:1;  stroke-linecap:round; stroke-linejoin:round;"
     id="g628">
    <path
       id="path606"
       d="M 9.8424997,43563.842 V 9.8424997 m 0,43553.9995003 H 52569.842 m 0,0 v -8170 m 0,0 h 1880 m 0,0 v -7500 m 0,0 h 3750 m 0,0 v -7560 m 0,0 h -1880 m 0,0 v -7500 m 0,0 h -3750 m 0,0 V 5333.8425 m 0,0 V 9.8424997 M 8735.3425,6358.1425 a 196.85,196.85 0 0 0 -196.8,196.9 m -7303.7,5314.7995 h 5118 m 26250.5995,7500.1 a 196.85,196.85 0 0 0 196.9,-196.8 M 1234.8425,6357.8425 h 5118 m 22696.9995,197 v 5117.9995 m -25001.9995,15197 h 5118 m 48009.4995,-5314.8 a 196.85,196.85 0 0 0 -196.9,-196.9 M 8734.8425,6357.8425 h 5117.9995 m -1564.3,12815.2995 a 196.85,196.85 0 0 0 196.8,196.8 m 5624.5,14999.9 h 5118 m -3440,-20315 v 5118 m 0.7,0.3 a 196.85,196.85 0 0 0 196.8,196.8 m 9178.2,7303.2 a 196.85,196.85 0 0 0 196.8,196.8 m 18264.5,9881.9 h 2363 m -2363,5905 h 2363 m -5938,-36101.9995 v 5117.9995 m -24571.4,15197.1 a 196.85,196.85 0 0 0 196.9,-196.8 m 26249.5,2381.7 v 5118 M 2913.5425,19173.142 a 196.85,196.85 0 0 0 196.8,196.8 m 26249.9995,1988.2 a 196.85,196.85 0 0 0 -196.8,196.9 m -12497.6,20314.9 a 196.85,196.85 0 0 0 196.9,-196.8 m 19687.5,-35118.0995 a 196.85,196.85 0 0 0 -196.9,-196.9 m 15310.1,20314.9995 a 196.85,196.85 0 0 0 196.8,196.8 M 1235.3425,6358.1425 a 196.85,196.85 0 0 0 -196.8,196.9 M 23228.442,34369.942 a 196.85,196.85 0 0 0 196.9,-196.8 m -9375,-27618.0995 a 196.85,196.85 0 0 0 -196.9,-196.9 m 8006.4,14999.6995 h 5118 m 18750.6,13012.1 a 196.85,196.85 0 0 0 196.9,-196.8 m 5624.5,-27618.2995 v 5117.9995 m -3440,22697 h 5118 m -49376.9995,-12815 v 5118 m 29259.4995,2185.3 a 196.85,196.85 0 0 0 -196.8,196.9 m -7303.2,-196.9 a 196.85,196.85 0 0 0 -196.8,196.9 m -1678.7,-22697.1995 h 5118 M 2172.8425,34369.842 h 5118 m 10508.9995,-20315 v 5118 m 9488.7,0.3 a 196.85,196.85 0 0 0 196.8,196.8 m 20314.5,-5315.1 v 5118 m 2185,-5315 h 5118 m -5118,5512 h 5118 m 0.6,0.1 a 196.85,196.85 0 0 0 196.9,-196.8 m -53324.2995,15000 a 196.85,196.85 0 0 0 196.8,196.8 m -196.8,7303.2 a 196.85,196.85 0 0 0 196.8,196.8 m 49686.9995,-15000.1 h 5118 M 38735.342,6358.1425 a 196.85,196.85 0 0 0 -196.8,196.9 m -24178.7,20314.7995 h 5118 m 2382,0 h 5118 m -6992.5,-13011.7 a 196.85,196.85 0 0 0 -196.8,196.9 m 17071.8,7303.1 a 196.85,196.85 0 0 0 -196.8,196.9 M 16234.842,6357.8425 h 5118 m -3439.3,27815.2995 a 196.85,196.85 0 0 0 196.8,196.8 m -9375.4995,-22500.1 h 5117.9995 m 9685,-5314.9995 v 5117.9995 m -12928,22697 h 5118 m 34060,-20315 v 5118 m -40424.9995,2382.2 a 196.85,196.85 0 0 0 -196.9,-196.9 m 33008.8995,196.7 v 5118 m 2185,197 h 5118 m -41989.9995,2185.2 a 196.85,196.85 0 0 0 -196.9,-196.9 m 16134.3995,196.9 a 196.85,196.85 0 0 0 -196.9,-196.9 m 16875,-9488.2 a 196.85,196.85 0 0 0 196.9,-196.8 m -5625,2381.9 a 196.85,196.85 0 0 0 -196.9,-196.9 m 0,5511.8 a 196.85,196.85 0 0 0 196.9,-196.8 m -5315.5,-5315.3 h 5118 m 8007,-1988 h 5118 m 7697,-5315 v 5118 m -34377,17185 h 5118 m -5118,5512 h 5118 m 15937.6,-14999.9 a 196.85,196.85 0 0 0 196.9,-196.8 m 0,-5118.1 a 196.85,196.85 0 0 0 -196.9,-196.9 m 7696.9,196.9 a 196.85,196.85 0 0 0 -196.9,-196.9 m -10939.9,-9685 a 196.85,196.85 0 0 0 196.8,196.8 m -9572.5,9684.9 v 5118 m 13322,-12815 h 5118 m 1875.6,13012.1 a 196.85,196.85 0 0 0 196.9,-196.8 m -40313.4995,-5118.3 v 5118 m 25312.9995,-5118 v 5118 m 15000,-5118 v 5118 m -1874.5,-12617.8 a 196.85,196.85 0 0 0 -196.9,-196.9 m -10940.6,7696.7 v 5118 m -28237.9995,-12618 v 5118 M 46235.342,6358.1425 a 196.85,196.85 0 0 0 -196.8,196.9 m -18863.7,14999.7995 v 5118 m -3439.5,-20314.6995 a 196.85,196.85 0 0 0 -196.8,196.9 m 9261.3,7499.7995 v 5118 m 1988.7,0.3 a 196.85,196.85 0 0 0 196.8,196.8 m 15000,-5511.8 a 196.85,196.85 0 0 0 -196.8,196.9 m -32185.1,5314.9 a 196.85,196.85 0 0 0 196.9,-196.8 m 26250,-12618.0995 a 196.85,196.85 0 0 0 -196.9,-196.9 m -25743.1,22499.9995 a 196.85,196.85 0 0 0 -196.8,196.9 m 18946.3,-2185.2 h 5118 m -38867.9995,-7500 h 5118 m 12498.1995,22303.3 a 196.85,196.85 0 0 0 196.8,196.8 m 5118.1,0 a 196.85,196.85 0 0 0 196.9,-196.8 m 12187,-12618.3 v 5118 m 2926.2,7500.3 a 196.85,196.85 0 0 0 196.8,196.8 m 5118.1,0 a 196.85,196.85 0 0 0 196.9,-196.8 m 763,-4921.3 a 196.85,196.85 0 0 0 -196.9,196.9 m 2755.9,0 a 196.85,196.85 0 0 0 -196.8,-196.9 m -2559.2,196 v 5512 m 2756,-5512 v 5512 m -396.3,-23286.7 a 196.85,196.85 0 0 0 196.8,196.8 m -34256.9,15000 a 196.85,196.85 0 0 0 196.9,-196.8 m 28434.5,-12815.3 h 5118 m -28752,15197 v 5118 m 5511,-5118 v 5118 m -8127,-12815 h 5118 m 17382,5512 h 5118 m -12618,0 h 5118 m -3242.5,-20511.7 a 196.85,196.85 0 0 0 -196.8,196.9 m 3636.8,15000 a 196.85,196.85 0 0 0 -196.9,-196.9 m -34180.5995,-7500.3 h 5118 m 33121.9995,-7303 v 5118 m -34800.9995,17382 v 5118 M 14049.842,6554.8425 v 5117.9995 m 43125,9882 v 5118 m -11249.5,2382.2 a 196.85,196.85 0 0 0 -196.9,-196.9 m 2185.1,5315 a 196.85,196.85 0 0 0 196.8,196.8 m -45937.4995,1988.2 a 196.85,196.85 0 0 0 -196.8,196.9 M 46234.842,6357.8425 h 5118 m -13128,30393.9995 h 2363 m -2363,5905 h 2363 m -2359.4,-8286.9 a 196.85,196.85 0 0 0 196.9,-196.8 m -7190.5,-27815.2995 h 5118 m -10939.3,27815.2995 a 196.85,196.85 0 0 0 196.8,196.8 m -8748.5,2184.9 v 5118 m 1,-5117.8 a 196.85,196.85 0 0 0 -196.9,-196.9 m 36758.9,-7303.3 v 5118 m -22500,-5118 v 5118 m -1564.5,2185.3 a 196.85,196.85 0 0 0 -196.8,196.9 m 5511.8,0 a 196.85,196.85 0 0 0 -196.9,-196.9 m -32502.5995,196.7 v 5118 m 13948.9995,-12618 v 5118 m -3637,-20118 v 5118 m 15000,-5118 v 5118 m -14803,-5315 h 5118 m 33947.5,-7302.7995 a 196.85,196.85 0 0 0 -196.9,-196.9 m -20314.9,5314.9995 a 196.85,196.85 0 0 0 196.8,196.8 m -20822.5,17184.9 v 5118 m 7500,-5118 v 5118 m -3749.3,-7499.7 a 196.85,196.85 0 0 0 196.8,196.8 m 33750,1988.2 a 196.85,196.85 0 0 0 -196.8,196.9 m -15000.7,-0.2 v 5118 m 3750.7,-7499.7 a 196.85,196.85 0 0 0 196.8,196.8 m 11052.5,2184.9 v 5118 m 7387.5,-20117.8 a 196.85,196.85 0 0 0 -196.9,-196.9 m -11250,-1988.2 a 196.85,196.85 0 0 0 196.9,-196.8 m -16565.5,7696.7 h 5118 m -18749.4,-7499.9 a 196.85,196.85 0 0 0 196.9,-196.8 m -2502.5,24684.7 h 5118 m 8437.6,-16987.9 a 196.85,196.85 0 0 0 196.9,-196.8 m -3946.9,-7303.2 a 196.85,196.85 0 0 0 196.9,-196.8 m 30112.5,9881.7 v 5118 m -37500,-5118 v 5118 m -3553,2185 h 5118 M 8537.8425,6554.8425 v 5117.9995 m 43321.9995,9685 h 5118 m -31678,-7303 v 5118 m -24261.2995,-7499.7 a 196.85,196.85 0 0 0 196.8,196.8 m 22499.4995,-0.1 h 5118 m 7500.6,0.1 a 196.85,196.85 0 0 0 196.9,-196.8 m -25199.3,30000 a 196.85,196.85 0 0 0 196.8,196.8 m 27187,-35512.0995 h 5118 m 2185.7,5315.2995 a 196.85,196.85 0 0 0 196.8,196.8 m -13321.8,22303.2 a 196.85,196.85 0 0 0 196.8,196.8 m -21562.5,7499.9 h 5118 m 3009,-20315 v 5118 m 11560.5,-20314.6995 a 196.85,196.85 0 0 0 -196.8,196.9 m -20625,27618.0995 a 196.85,196.85 0 0 0 196.8,196.8 m 10939.5,-27815.0995 v 5117.9995 m -5314.5,-5314.6995 a 196.85,196.85 0 0 0 -196.8,196.9 m 13011.8,0 a 196.85,196.85 0 0 0 -196.9,-196.9 m -7190.6,15196.6995 v 5118 m 22697.5,-5314.7 a 196.85,196.85 0 0 0 -196.8,196.9 M 21550.342,6555.0425 a 196.85,196.85 0 0 0 -196.9,-196.9 m -5428.1,22696.8995 a 196.85,196.85 0 0 0 -196.9,-196.9 m -11680.5995,-7500 a 196.85,196.85 0 0 0 -196.8,196.9 m 44258.7995,7302.8 h 5118 m -42617.5,0.3 a 196.85,196.85 0 0 0 -196.8,196.9 m 33749.3,-7500.2 v 5118 m -29802.5,-5314.7 a 196.85,196.85 0 0 0 -196.8,196.9 m -11990.6995,20314.8 h 5118 m 16247.6995,-30196.7 a 196.85,196.85 0 0 0 196.8,196.8 m 3440,9685.1 a 196.85,196.85 0 0 0 -196.9,-196.9 m -6993.6,-7500.3 h 5118 m 28322.5,15197.2 a 196.85,196.85 0 0 0 -196.9,-196.9 m -14493.6,-16988.3 h 5118 m -32502,24685 v 5118 M 6550.3425,6555.0425 a 196.85,196.85 0 0 0 -196.9,-196.9 m -2502.4,20314.9995 a 196.85,196.85 0 0 0 196.8,196.8 m 2305.6,-15000 a 196.85,196.85 0 0 0 196.9,-196.8 m 15113.1995,15000 a 196.85,196.85 0 0 0 196.8,196.8 m -10312.5,9488.2 a 196.85,196.85 0 0 0 -196.8,196.9 m -8240.6995,-22696.9 a 196.85,196.85 0 0 0 -196.8,196.9 m 18946.7995,7303.1 a 196.85,196.85 0 0 0 -196.8,196.9 m 35314.9,5314.9 a 196.85,196.85 0 0 0 196.9,-196.8 m -25940.5,-14803.3 h 5118 m -28865.9995,17185 v 5118 M 31037.842,6554.8425 v 5117.9995 m 2072,17185 h 5118 m -8868,-1988 h 5118 M 8425.3425,14055.042 a 196.85,196.85 0 0 0 -196.9,-196.9 m 937.5,13011.8 a 196.85,196.85 0 0 0 196.9,-196.8 m 25621.9995,-7303.3 h 5118 m 11250.6,-7499.9 a 196.85,196.85 0 0 0 196.9,-196.8 m -31565.5,7696.7 h 5118 m 17382.5,-5511.7 a 196.85,196.85 0 0 0 -196.8,196.9 m -1875,20118.1 a 196.85,196.85 0 0 0 196.8,196.8 m 740.5,2184.9 v 5118 m 5511,-5118 v 5118 m -21252,-12815 h 5118 m 11560.7,-9684.7 a 196.85,196.85 0 0 0 196.8,196.8 m -11560,9685.1 a 196.85,196.85 0 0 0 -196.9,-196.9 m -5428.1,-14803.1 a 196.85,196.85 0 0 0 -196.9,-196.9 m -22930.5995,14999.7 h 5118 m -5315,197 v 5118 m 23633.9995,197 h 5118 M 8538.5425,11673.142 a 196.85,196.85 0 0 0 196.8,196.8 m 32812.4995,24488.2 a 196.85,196.85 0 0 0 -196.8,196.9 m 5511.8,0 a 196.85,196.85 0 0 0 -196.9,-196.9 m -11681.1,-22500.3 h 5118 m 310,15197 v 5118 m -27928,-14803 h 5118 m 22697,-5315 v 5118 m 11560.5,2185.3 a 196.85,196.85 0 0 0 -196.8,196.9 m -13634.6,20905.5 a 196.85,196.85 0 0 0 196.9,196.9 m 2362.2,0 a 196.85,196.85 0 0 0 196.8,-196.9 m -175,-13602.7 h 5118 m 310,-22302.9995 v 5117.9995 m -29803,197 h 5118 m 7810.7,29803.3 a 196.85,196.85 0 0 0 196.8,196.8 m 5118.1,0 a 196.85,196.85 0 0 0 196.9,-196.8 m -20315.5,-20315.3 h 5118 m 9685,15197 v 5118 m 5512,-5118 v 5118 M 2172.8425,28858.142 a 196.85,196.85 0 0 0 -196.8,196.9 m 5314.9,12814.9 a 196.85,196.85 0 0 0 196.9,-196.8 m -4575,-27618.3 v 5118 m 24571.9995,-5315 h 5118 m 5935,-7302.9995 v 5117.9995 m -312,25079 a 196.85,196.85 0 0 0 -196.9,196.9 m 2755.9,0 a 196.85,196.85 0 0 0 -196.8,-196.9 m -11228.2,-394 h 5118 m -5118,5512 h 5118 m -16677.5,-27814.8 a 196.85,196.85 0 0 0 -196.9,-196.9 m 3319.4,22500 a 196.85,196.85 0 0 0 -196.8,196.9 m 5511.8,0 a 196.85,196.85 0 0 0 -196.9,-196.9 m 14569.4,-7500 a 196.85,196.85 0 0 0 -196.8,196.9 m 3750,-2381.9 a 196.85,196.85 0 0 0 196.8,196.8 m -36131.8995,-7500 a 196.85,196.85 0 0 0 196.9,-196.8 m -6252.5,17184.7 h 5118 m 25509.4995,-22302.8 a 196.85,196.85 0 0 0 -196.9,-196.9 m 15000,5511.8 a 196.85,196.85 0 0 0 196.9,-196.8 m -20821.9,7696.8 a 196.85,196.85 0 0 0 196.9,-196.8 m -7500,-5118.1 a 196.85,196.85 0 0 0 -196.9,-196.9 m 17381.4,-0.3 h 5118 m 11250.6,13012.1 a 196.85,196.85 0 0 0 196.9,-196.8 M 36549.842,6554.8425 v 5117.9995 m 1479,25275 v 5512 m 2756,-5512 v 5512 m -37674.9995,-28602 h 5118 m 4257.4995,0.3 a 196.85,196.85 0 0 0 -196.8,196.9 M 1037.8425,6554.8425 v 5117.9995 m 26447.4995,2185.3 a 196.85,196.85 0 0 0 -196.8,196.9 m 7499.3,-0.2 v 5118 m -11363,9882 v 5118 m 18123,2185 h 5118 m -5118,5512 h 5118 m -39374.8995,-7499.9 a 196.85,196.85 0 0 0 196.9,-196.8 m 39941.0995,8287.4 a 196.85,196.85 0 0 0 196.9,196.9 m 2362.2,0 a 196.85,196.85 0 0 0 196.8,-196.9 m -42696.9995,-5905.5 a 196.85,196.85 0 0 0 -196.9,-196.9 m 23437.4995,-1988.2 a 196.85,196.85 0 0 0 196.9,-196.8 m 9375,-20118.1 a 196.85,196.85 0 0 0 -196.9,-196.9 m -11250,-1988.2 a 196.85,196.85 0 0 0 196.9,-196.8 m -13012.5,-5118.2995 v 5117.9995 m 9375,17382 v 5118 M 6549.8425,6554.8425 v 5117.9995 m 9488.6995,0.3 a 196.85,196.85 0 0 0 196.8,196.8 m 29999.5,-0.1 h 5118 M 3209.8425,9.8424997 V 5359.8425 m 0,0 H 49459.842 m 0,0 V 9.8424997 m 3110,0 h -3110 m -49449.9995003,0 H 3209.8425" />
    <g
       id="g608" />
    <g
       id="g610" />
    <g
       id="g612" />
    <g
       id="g614" />
    <g
       id="g616" />
    <g
       id="g618" />
    <g
       id="g620" />
    <g
       id="g622" />
    <g
       id="g624" />
    <g
       id="g626" />
  </g>
</svg>
